<svg xmlns="http://www.w3.org/2000/svg" width="38" height="24" fill="none"><g clip-path="url(#a)"><path fill="#000" d="M34.596.009H3.404c-.476 0-.962-.016-1.433.068A2.37 2.37 0 0 0 .714.712a2.3 2.3 0 0 0-.644 1.24C-.015 2.415 0 2.895 0 3.364v17.272c0 .47-.016.949.069 1.412.086.468.301.904.644 1.24.342.337.783.552 1.257.636.47.083.957.067 1.433.067h31.192c.476 0 .962.015 1.433-.067a2.37 2.37 0 0 0 1.257-.635c.342-.338.56-.773.644-1.24.085-.464.069-.944.069-1.413V3.364c0-.47.016-.949-.069-1.412a2.33 2.33 0 0 0-.644-1.24A2.37 2.37 0 0 0 36.03.077c-.471-.084-.957-.068-1.433-.068"/><path fill="#fff" d="M34.596.808c.427.001.867-.02 1.289.055.312.055.602.192.827.413.227.223.364.51.42.818.076.416.056.849.056 1.27v17.272c0 .421.02.856-.056 1.273a1.5 1.5 0 0 1-.42.814 1.55 1.55 0 0 1-.826.414c-.422.074-.863.055-1.29.055H3.399c-.426 0-.863.02-1.284-.055a1.55 1.55 0 0 1-.828-.414 1.52 1.52 0 0 1-.42-.817c-.075-.416-.055-.85-.055-1.27V3.364c0-.57-.067-1.194.204-1.72.14-.27.37-.497.644-.634.528-.265 1.17-.2 1.744-.202z"/><path fill="#000" d="M10.374 8.075c.326-.4.547-.94.488-1.49-.476.023-1.057.31-1.394.711-.302.344-.57.905-.5 1.433.535.045 1.07-.264 1.406-.654M10.856 8.832c-.776-.046-1.436.434-1.807.434s-.939-.411-1.553-.4c-.8.011-1.54.457-1.947 1.165-.834 1.418-.22 3.52.592 4.675.394.572.868 1.2 1.494 1.178.591-.023.823-.377 1.541-.377s.927.377 1.553.366c.649-.012 1.054-.572 1.448-1.144.452-.65.637-1.28.649-1.314-.012-.011-1.251-.48-1.263-1.886-.011-1.177.973-1.737 1.02-1.772-.556-.81-1.425-.902-1.727-.925M17.617 7.239c1.687 0 2.862 1.147 2.862 2.816 0 1.676-1.2 2.829-2.905 2.829h-1.868v2.929h-1.35V7.239zm-1.911 4.527h1.549c1.175 0 1.844-.623 1.844-1.705 0-1.081-.669-1.7-1.838-1.7h-1.555zM20.832 14.037c0-1.094.85-1.765 2.357-1.849l1.735-.1v-.482c0-.695-.476-1.111-1.271-1.111-.754 0-1.224.356-1.338.915h-1.23c.072-1.129 1.049-1.96 2.616-1.96 1.537 0 2.52.801 2.52 2.055v4.308h-1.249v-1.028h-.03c-.367.695-1.169 1.135-2 1.135-1.242 0-2.11-.76-2.11-1.883m4.092-.565v-.493l-1.56.095c-.778.053-1.218.392-1.218.927 0 .546.458.903 1.157.903.91 0 1.621-.618 1.621-1.432M27.398 18.112v-1.04c.096.024.313.024.422.024.602 0 .928-.25 1.127-.891 0-.012.114-.38.114-.386l-2.29-6.257h1.41l1.604 5.086h.023l1.604-5.086h1.374L30.41 16.14c-.542 1.515-1.169 2.002-2.483 2.002-.108 0-.434-.012-.53-.03"/></g><defs><clipPath id="a"><path fill="#fff" d="M0 0h38v24H0z"/></clipPath></defs></svg>