<svg xmlns="http://www.w3.org/2000/svg" width="206" height="59" fill="none"><path fill="#000" d="M204.046 52.196c0 3.144-2.6 5.69-5.815 5.69H7.908c-3.214 0-5.823-2.546-5.823-5.69V6.812c0-3.143 2.609-5.699 5.823-5.699H198.23c3.217 0 5.816 2.556 5.816 5.699z"/><path fill="#A6A6A6" d="M197.617 1.182c3.502 0 6.352 2.778 6.352 6.193v44.25c0 3.415-2.85 6.193-6.352 6.193H8.514c-3.502 0-6.352-2.778-6.352-6.193V7.375c0-3.415 2.85-6.193 6.352-6.193zm0-1.182H8.514C4.356 0 .95 3.32.95 7.375v44.25C.95 55.679 4.356 59 8.514 59h189.103c4.158 0 7.564-3.32 7.564-7.375V7.375c0-4.054-3.406-7.375-7.564-7.375"/><path fill="#fff" d="M46.528 29.181c-.044-4.754 3.993-7.067 4.177-7.174-2.286-3.25-5.829-3.694-7.074-3.729-2.975-.305-5.862 1.736-7.378 1.736-1.546 0-3.88-1.706-6.396-1.656-3.237.048-6.266 1.876-7.927 4.714-3.428 5.786-.871 14.29 2.413 18.967 1.643 2.29 3.563 4.848 6.075 4.758 2.459-.099 3.377-1.528 6.344-1.528 2.939 0 3.801 1.528 6.364 1.47 2.638-.04 4.3-2.3 5.885-4.612 1.898-2.625 2.661-5.21 2.691-5.344-.062-.02-5.124-1.904-5.174-7.602M41.687 15.201c1.323-1.612 2.227-3.805 1.976-6.031-1.914.083-4.307 1.29-5.685 2.867-1.22 1.39-2.309 3.667-2.027 5.809 2.15.156 4.357-1.058 5.736-2.645M82.105 46.468H78.67l-1.882-5.766h-6.542l-1.792 5.766h-3.345l6.48-19.63h4.004zm-5.885-8.185-1.701-5.125q-.27-.786-1.016-3.698h-.06a140 140 0 0 1-.956 3.698l-1.672 5.125zM98.772 39.217q0 3.611-2.001 5.707-1.793 1.864-4.451 1.864-2.868 0-4.122-2.009h-.061v7.456h-3.225V36.974a95 95 0 0 0-.12-4.66h2.837l.18 2.243h.06q1.613-2.535 4.899-2.534 2.57 0 4.285 1.98 1.72 1.982 1.72 5.214m-3.286.115q.001-2.066-.956-3.407-1.046-1.398-2.808-1.398c-.795 0-1.518.26-2.164.77a3.57 3.57 0 0 0-1.27 2.026q-.15.584-.15.959v2.36q0 1.544.972 2.608.97 1.064 2.523 1.063 1.822 0 2.837-1.369t1.016-3.612M115.469 39.217q0 3.611-2.003 5.707-1.792 1.864-4.449 1.864-2.868 0-4.121-2.009h-.061v7.456h-3.225V36.974q-.001-2.27-.119-4.66h2.836l.18 2.243h.061q1.61-2.535 4.898-2.534 2.567 0 4.288 1.98 1.714 1.982 1.715 5.214m-3.286.115q0-2.066-.957-3.407-1.045-1.398-2.807-1.398c-.797 0-1.519.26-2.166.77q-.971.775-1.268 2.026-.148.584-.15.959v2.36q0 1.544.969 2.608.97 1.063 2.526 1.063 1.822 0 2.837-1.369t1.016-3.612M134.137 40.964q.002 2.505-1.788 4.076-1.967 1.72-5.484 1.719-3.247 0-5.218-1.223l.748-2.621q2.123 1.253 4.662 1.254 1.821-.001 2.84-.803 1.014-.802 1.013-2.144 0-1.196-.836-2.012-.834-.817-2.778-1.518-5.287-1.924-5.286-5.629 0-2.42 1.854-3.966 1.847-1.546 4.928-1.546 2.747 0 4.569.933l-.806 2.563q-1.702-.903-3.853-.903-1.704 0-2.657.816-.806.727-.806 1.777 0 1.165.924 1.922.805.698 2.929 1.515 2.596 1.02 3.823 2.387 1.222 1.364 1.222 3.403M144.801 34.674h-3.555v6.872q-.001 2.621 1.882 2.62.864 0 1.433-.145l.089 2.388q-.954.348-2.508.348-1.911 0-2.988-1.136-1.075-1.137-1.076-3.815V34.67h-2.118v-2.36h2.118v-2.592l3.168-.932v3.524h3.555zM160.842 39.275q-.001 3.263-1.913 5.358-2.003 2.156-5.319 2.155-3.194 0-5.09-2.066-1.897-2.068-1.897-5.213-.001-3.29 1.956-5.387 1.954-2.097 5.27-2.097 3.196 0 5.138 2.068 1.855 2.007 1.855 5.182m-3.347.101q.002-1.958-.865-3.358-1.015-1.695-2.896-1.694-1.944 0-2.957 1.694c-.58.935-.866 2.072-.866 3.417 0 1.306.286 2.425.866 3.357q1.044 1.695 2.929 1.694 1.848 0 2.895-1.723c.595-.951.894-2.083.894-3.387M171.325 35.08a5.7 5.7 0 0 0-1.016-.087q-1.703 0-2.629 1.253-.807 1.107-.807 2.795v7.427h-3.224l.031-9.696a75 75 0 0 0-.121-4.456h2.809l.118 2.708h.089q.511-1.398 1.613-2.242 1.077-.759 2.331-.759.447.001.806.058zM185.75 38.722q.001.844-.118 1.426h-9.676q.056 2.098 1.404 3.205 1.223.99 3.165.99 2.151 0 3.915-.67l.505 2.183q-2.06.876-4.866.875-3.376 0-5.304-1.937-1.925-1.936-1.926-5.198 0-3.201 1.794-5.329 1.88-2.27 5.076-2.27 3.138 0 4.751 2.27 1.279 1.805 1.28 4.455m-3.075-.816q.03-1.398-.627-2.418-.838-1.31-2.57-1.31-1.583-.001-2.567 1.28-.806 1.021-.955 2.446h6.719zM75.154 14.763q0 2.604-1.6 3.92-1.483 1.215-4.21 1.216-1.352 0-2.32-.115v-9.486c.843-.133 1.75-.2 2.73-.2q2.598 0 3.919 1.101 1.48 1.245 1.481 3.564m-1.672.043q0-1.688-.916-2.59-.917-.9-2.68-.901-.748-.001-1.276.1v7.211q.293.044 1.07.043 1.82 0 2.81-.987.991-.986.992-2.876M84.018 16.28q0 1.602-.94 2.632-.984 1.06-2.613 1.06-1.569 0-2.502-1.017-.93-1.016-.93-2.56 0-1.616.96-2.647.962-1.03 2.59-1.03 1.57 0 2.525 1.015.909.988.91 2.546m-1.645.05q0-.963-.425-1.651-.499-.832-1.422-.832-.955 0-1.454.832-.425.688-.425 1.679 0 .962.425 1.65.514.832 1.439.832.908 0 1.422-.847.44-.701.44-1.663M95.902 12.86l-2.231 6.954h-1.453l-.924-3.02a22 22 0 0 1-.573-2.246h-.029a16 16 0 0 1-.573 2.246l-.982 3.02h-1.469L85.57 12.86h1.629l.806 3.306q.293 1.173.484 2.232h.03q.175-.874.588-2.217l1.012-3.32h1.292l.97 3.249q.35 1.187.571 2.289h.044q.162-1.072.484-2.29l.866-3.247h1.556zM104.121 19.814h-1.585V15.83q0-1.84-1.437-1.84-.704-.001-1.145.505-.439.508-.44 1.192v4.124h-1.586v-4.965q0-.915-.057-1.99h1.393l.074 1.088h.044a2.26 2.26 0 0 1 .821-.84q.647-.39 1.437-.39 1 0 1.66.63.822.771.821 2.303zM108.493 19.814h-1.583V9.67h1.583zM117.828 16.28q0 1.602-.94 2.632-.985 1.06-2.613 1.06-1.571 0-2.502-1.017t-.93-2.56q-.001-1.616.961-2.647.961-1.03 2.588-1.03 1.57 0 2.526 1.015.91.988.91 2.546m-1.646.05q-.001-.963-.425-1.651-.499-.832-1.421-.832-.957 0-1.454.832-.425.688-.425 1.679 0 .962.425 1.65.515.832 1.439.832.908 0 1.42-.847.442-.701.441-1.663M125.501 19.814h-1.424l-.118-.801h-.044q-.73.958-2.083.958-1.011 0-1.628-.63-.558-.571-.558-1.416-.001-1.274 1.094-1.945 1.094-.672 3.075-.658v-.13q0-1.373-1.481-1.373-1.055.001-1.859.515l-.322-1.015c.662-.4 1.481-.6 2.446-.6q2.797 0 2.799 2.876v2.56q0 1.043.103 1.659m-1.646-2.39v-1.072q-2.624-.044-2.624 1.4-.001.545.305.817.307.271.774.271.523 0 .97-.322a1.31 1.31 0 0 0 .575-1.094M134.509 19.814h-1.406l-.075-1.117h-.043q-.676 1.275-2.291 1.274-1.29 0-2.142-.986-.85-.987-.85-2.561 0-1.688.924-2.733.896-.974 2.201-.974 1.437 0 2.009.944h.031V9.67h1.586v8.27q0 1.015.056 1.874m-1.642-2.933v-1.16q-.001-.3-.044-.486a1.76 1.76 0 0 0-.574-.936 1.58 1.58 0 0 0-1.06-.38q-.887 0-1.395.688-.507.687-.508 1.76 0 1.03.487 1.674.515.685 1.386.685.779 0 1.252-.572.458-.529.456-1.273M148.069 16.28q0 1.602-.94 2.632-.982 1.06-2.612 1.06-1.568 0-2.502-1.017-.931-1.016-.931-2.56-.001-1.616.961-2.647.961-1.03 2.591-1.03 1.57 0 2.524 1.015.908.988.909 2.546m-1.643.05q0-.963-.425-1.651-.499-.832-1.424-.832-.952 0-1.453.832-.427.688-.426 1.679 0 .962.426 1.65.513.832 1.438.832.91 0 1.424-.847.439-.701.44-1.663M156.594 19.814h-1.584V15.83q.001-1.84-1.439-1.84-.705-.001-1.144.505-.44.508-.44 1.192v4.124H150.4v-4.965q0-.915-.056-1.99h1.392l.074 1.088h.044a2.3 2.3 0 0 1 .821-.84 2.74 2.74 0 0 1 1.439-.39q.997 0 1.658.63.823.771.822 2.303zM167.263 14.018h-1.745v3.378q.001 1.288.924 1.288.427 0 .706-.072l.041 1.172q-.47.173-1.231.173-.939 0-1.466-.558-.53-.558-.53-1.875v-3.506h-1.042v-1.157h1.042v-1.275l1.554-.457v1.73h1.746v1.16zM175.657 19.814h-1.587V15.86q0-1.87-1.436-1.87-1.1 0-1.513 1.083a1.9 1.9 0 0 0-.074.556v4.182h-1.584V9.67h1.584v4.19h.03q.75-1.143 2.142-1.143.985 0 1.631.63.806.787.807 2.332zM184.315 16.008q-.002.415-.059.7h-4.755q.03 1.031.688 1.575.604.486 1.557.486 1.055 0 1.923-.329l.248 1.074c-.677.286-1.472.43-2.394.43q-1.658 0-2.603-.952-.947-.951-.946-2.553-.001-1.574.881-2.618.921-1.116 2.493-1.115 1.54 0 2.331 1.115.637.886.636 2.187m-1.513-.4c.012-.458-.093-.854-.307-1.187q-.413-.645-1.262-.645-.776 0-1.262.63a2.3 2.3 0 0 0-.47 1.202z"/></svg>