<?xml version="1.0" encoding="utf-8"?>
<!-- Generator: Adobe Illustrator 26.3.1, SVG Export Plug-In . SVG Version: 6.00 Build 0)  -->
<svg version="1.1" id="Capa_1" xmlns="http://www.w3.org/2000/svg" xmlns:xlink="http://www.w3.org/1999/xlink" x="0px" y="0px"
	 viewBox="0 0 745 311" style="enable-background:new 0 0 745 311;" xml:space="preserve">
<style type="text/css">
	.st0{fill:#4F008C;}
</style>
<path class="st0" d="M108.02,102.17c-4.56-5.67-11.34-8.75-19.72-8.75c-17.26,0-29.71,13.68-29.71,33.28
	c0,19.72,12.45,33.53,29.71,33.53c8.51,0,15.16-3.08,19.72-8.88v31.68h15.04V95.14h-15.04V102.17z M108.02,134.83
	c-3.2,6.66-8.88,11.34-17.13,11.34c-9.99,0-16.64-7.27-16.64-19.48c0-11.96,6.66-19.23,16.64-19.23c8.14,0,13.93,4.56,17.13,11.22
	V134.83z M136.49,95.14h28.35v63.24h-15.41V108.7h-12.94V95.14z M149.44,65.92h15.41v17.5h-15.41V65.92z M201.58,95.14h20.22v13.56
	h-20.22v30.32c0,3.95,2.1,5.79,5.55,5.79h14.67v13.56h-15.9c-13.44,0-19.72-6.9-19.72-17.38v-32.3h-11.46V95.14h11.46V74.31h15.41
	V95.14z M269.75,95.14h-32.67v13.56h32.05c3.57,0,5.55,1.97,5.55,5.79v3.21l-25.52,3.2c-11.09,1.36-17.75,8.75-17.75,19.48
	c0,11.83,9,19.85,22.19,19.85c9.37,0,16.64-3.45,21.08-9.62v7.77h15.16v-45.73C289.84,101.43,282.69,95.14,269.75,95.14z
	 M274.68,137.54c-2.59,6.29-9.74,10.6-17.38,10.6c-6.66,0-10.48-2.84-10.48-7.77c0-4.56,2.96-7.4,8.38-8.14l19.48-2.71V137.54z
	 M329.41,95.14h18.37v13.56h-18.37v49.68H314V108.7h-11.34V95.14H314V83.31c0-10.48,6.29-17.38,19.72-17.38h19.6v13.56h-18.24
	c-3.57,0-5.67,1.85-5.67,5.67V95.14z M482.66,71.74h-12.87V58.87h12.87V71.74z M476.22,83.65c-17.64,0-29.49,11.06-29.49,27.51
	c0,11.16,5.87,23.08,22.34,23.08c7.81,0,12.81-2.18,15.73-6.86l0.64-1.02v1.2v6.16c0,7.54-4.15,8.97-11.81,8.97H349.39v15.33h124.12
	c17.24,0,24.92-7.84,24.92-25.42l-0.12-43.32C497,88.54,488,83.65,476.22,83.65z M485.44,101.55v13.31V115l-0.09,0.1
	c-2.39,2.53-6.75,3.81-12.95,3.81c-11.3,0-12.18-7.34-12.18-9.59c0-3.11,1.41-10.33,14.52-10.33c6.3,0,10.35,2.17,10.52,2.26
	l0.18,0.1V101.55z M661.15,71.62H648.9V58.75h12.25V71.62z M667.51,58.75h12.25v12.87h-12.25V58.75z M567.39,125.47
	c2.49-0.78,4.87-1.53,7.15-2.23C572.27,123.94,569.88,124.69,567.39,125.47z M686.42,89.3c-1.31-0.75-10.32-5.65-22.09-5.65
	c-17.64,0-29.49,11.06-29.49,27.51c0,11.16,5.87,23.08,22.34,23.08c7.81,0,12.81-2.18,15.73-6.86l0.64-1.02v1.2v6.16
	c0,7.54-4.15,8.97-11.81,8.97h-31.31c-4.2,0-7.24,0-9.29-1.15l-0.24-0.13l0.07-0.26c0.89-3.18,1.34-6.76,1.34-10.63
	c0-16.89-9.69-27.39-25.3-27.39c-9.27,0-20.2,4.03-31.78,8.29l-2.87,1.05l-0.46,0.17v-0.49V70.83h-12.87v71.52v0.35h-0.35h-9.86
	c-11.73,0-13.29-2-13.29-9.96V70.83h-12.87v61.91c0,18.2,6.54,25.29,23.32,25.29h2.83h53.38c9.63,0,17.03-2.09,21.97-6.21l0.29-0.24
	l0.21,0.32c2.83,4.19,7.83,6.13,15.74,6.13h31.19c17.24,0,24.92-7.84,24.92-25.42L686.42,89.3z M601.02,141.6
	c-1.42,0.33-3.04,0.53-4.87,0.65c-1.22,0.07-2.53,0.11-3.93,0.11h-29.95v-15.28c1.76-0.54,3.47-1.07,5.13-1.59
	c2.49-0.78,4.87-1.53,7.15-2.23c1.52-0.47,2.99-0.91,4.41-1.32c4.27-1.24,8.11-2.21,11.53-2.72c1.71-0.25,3.32-0.39,4.82-0.39
	c0.97,0,1.91,0.06,2.81,0.18c1.35,0.18,2.61,0.49,3.75,0.96c0.76,0.31,1.48,0.68,2.13,1.13c1.64,1.11,2.92,2.64,3.74,4.66
	c0.65,1.61,1.01,3.53,1.01,5.78C608.74,137.52,606.23,140.39,601.02,141.6z M673.55,101.55v13.31V115l-0.09,0.1
	c-2.39,2.53-6.75,3.81-12.95,3.81c-11.3,0-12.18-7.34-12.18-9.59c0-3.11,1.41-10.33,14.52-10.33c6.3,0,10.35,2.17,10.52,2.26
	l0.18,0.1V101.55z M574.54,123.24c1.52-0.47,2.99-0.91,4.41-1.32C577.53,122.33,576.06,122.77,574.54,123.24z M538.84,158.38
	L538.84,158.38L538.84,158.38L538.84,158.38z M538.84,142.35L538.84,142.35L538.84,142.35L538.84,142.35z M538.84,142.35
	L538.84,142.35L538.84,142.35L538.84,142.35L538.84,142.35z M538.84,158.38L538.84,158.38L538.84,158.38L538.84,158.38
	L538.84,158.38z M483.11,206.67h8.03v5.56h-7.47c-1.46,0-2.32,0.76-2.32,2.32v4.09h7.52v5.56h-7.52v20.35h-6.31V224.2h-4.65v-5.56
	h4.65v-4.85C475.02,209.5,477.6,206.67,483.11,206.67z M507.85,218.64h2.58v5.56h-3.18c-3.33,0-5.45,1.41-6.57,3.08v17.27h-6.31
	v-25.91h6.31v3.79C502.35,220.16,504.72,218.64,507.85,218.64z M526.59,217.94c-8.18,0-13.74,5.71-13.74,13.64
	c0,7.98,5.56,13.74,13.74,13.74c8.23,0,13.74-5.76,13.74-13.74C540.33,223.64,534.82,217.94,526.59,217.94z M526.59,239.65
	c-4.6,0-7.32-3.18-7.32-8.08c0-4.8,2.73-7.98,7.32-7.98c4.55,0,7.32,3.18,7.32,7.98C533.92,236.47,531.14,239.65,526.59,239.65z
	 M582.6,226.57v17.98h-5.96v-15.96c0-2.83-1.36-4.9-4.39-4.9c-2.02,0-4.09,1.26-5.25,2.98v17.88h-5.96v-15.96
	c0-2.83-1.31-4.9-4.39-4.9c-2.17,0-4.44,1.46-5.56,3.49v17.37h-5.91v-25.91h5.91v2.83c1.97-2.22,4.85-3.53,7.98-3.53
	c3.38,0,5.81,1.62,7.07,4.24c1.97-2.63,5.1-4.24,8.59-4.24C579.62,217.94,582.6,221.42,582.6,226.57z M642.7,202.85v9.09h-8.89
	v-9.09H642.7z M679.33,232.28l7.88,2.63c-0.67,2.42-1.95,4.78-4.04,6.8c-2.63,2.56-6.46,4.38-11.45,4.38
	c-4.85,0-9.22-1.82-12.32-4.92c-3.16-3.16-5.12-7.54-5.12-12.66c0-5.12,1.89-9.49,4.98-12.66c3.1-3.1,7.41-4.92,12.19-4.92
	c5.18,0,9.09,1.89,11.78,4.51c1.89,1.95,3.16,4.31,3.77,6.67l-8.01,2.69c-0.4-1.28-1.01-2.56-2.02-3.57
	c-1.21-1.21-2.9-2.02-5.32-2.02c-2.29,0-4.38,0.81-5.93,2.36c-1.55,1.62-2.49,3.91-2.49,6.94c0,2.96,0.94,5.32,2.49,6.94
	c1.55,1.55,3.7,2.42,5.99,2.42c2.49,0,4.24-0.88,5.52-2.09C678.32,234.77,678.99,233.49,679.33,232.28z M642.7,211.94h8.89v8.62
	h-8.89V211.94z M633.81,220.56h8.89v13.13c0,1.55,0.34,2.69,1.01,3.37c0.81,0.74,1.89,1.08,3.37,1.08c2.09,0,3.7-0.74,4.51-1.35
	v7.27c-1.08,0.94-3.57,2.02-7.07,2.02c-3.43,0-6.19-1.01-8.08-2.9c-1.68-1.75-2.63-4.24-2.63-7.34V220.56z M625.73,228.64
	c1.75,1.75,2.69,4.04,2.69,6.6c0,2.83-1.08,5.25-2.9,7.07c-2.42,2.36-6.13,3.77-10.64,3.77c-4.65,0-8.75-1.62-11.31-4.31
	c-1.62-1.62-2.69-3.64-2.9-5.93l7.68-1.68c0.07,1.21,0.54,2.29,1.35,3.1c1.14,1.21,2.96,1.95,5.18,1.95c3.1,0,4.98-1.21,4.98-3.3
	c0-1.68-1.14-2.63-3.7-3.23l-5.12-1.21c-3.1-0.74-5.45-1.95-7.07-3.57s-2.42-3.7-2.42-6.19c0-2.83,1.14-5.39,3.16-7.27
	c2.36-2.15,5.79-3.5,9.9-3.5c4.44,0,8.21,1.55,10.64,3.97c1.55,1.55,2.56,3.43,2.76,5.59l-7.47,1.68c-0.13-1.08-0.61-2.02-1.28-2.76
	c-1.08-1.08-2.69-1.68-4.58-1.68c-3.03,0-4.92,1.35-4.92,3.3c0,1.48,1.21,2.56,3.37,2.96l5.18,1.01
	C621.49,225.61,623.98,226.89,625.73,228.64z"/>
</svg>
