<svg width="442" height="415" viewBox="0 0 442 415" fill="none" xmlns="http://www.w3.org/2000/svg">
<path d="M92.7511 36.4316V68.7999H83.7696L71.4555 54.0956V68.7999H60.8086V36.4316H69.79L82.1042 51.1359V36.4316H92.7511Z" fill="#E0E0E0"/>
<path d="M371.525 205.675C371.525 198.303 377.339 192.947 385.277 192.947C393.215 192.947 399.029 198.303 399.029 205.675C399.029 213.047 393.215 218.402 385.277 218.402C377.339 218.402 371.525 213.047 371.525 205.675ZM390.743 205.675C390.743 201.884 388.305 199.589 385.276 199.589C382.247 199.589 379.81 201.884 379.81 205.675C379.81 209.465 382.247 211.761 385.276 211.761C388.305 211.76 390.743 209.465 390.743 205.675Z" fill="#E0E0E0"/>
<path d="M75.5198 266.168C75.5198 271.801 71.2032 275.348 64.4141 275.348H60.8975V281.328H52.6816V256.986H64.4141C71.2023 256.986 75.5198 260.534 75.5198 266.168ZM67.234 266.168C67.234 264.394 66.1547 263.316 63.8916 263.316H60.8975V269.019H63.8916C66.1538 269.019 67.234 267.941 67.234 266.168Z" fill="#E0E0E0"/>
<path d="M357.061 63.4813C360.861 66.9311 364.329 70.7076 367.737 74.5212C369.405 76.4699 391.788 103.517 393.393 105.514L395.833 108.492C396.822 109.559 397.242 111.097 396.969 112.654C396.717 114.378 395.252 115.719 393.622 115.717C392.142 115.77 390.785 115.091 389.952 113.882L387.582 110.845C385.984 108.838 363.813 81.5912 362.27 79.5321C359.259 75.345 355.398 71.8396 352.795 67.2843C352.19 66.2742 353.442 64.1233 354.458 63.3913C355.296 62.7855 356.368 62.8226 357.061 63.4813Z" fill="#E0E0E0"/>
<path d="M354.3 15.5907C364.712 26.3136 367.095 42.4836 360.221 55.7485C358.491 59.0906 356.222 62.1254 353.505 64.7311C339.687 78.0923 317.641 77.7356 304.264 63.9329C290.888 50.131 291.245 28.1104 305.063 14.7492C318.88 1.38884 340.923 1.74468 354.3 15.543V15.5907Z" fill="#F0F0F0"/>
<path d="M321.087 6.29688L320.024 72.1273C319.518 71.9958 319.03 71.8731 318.532 71.7221C315.343 70.7605 312.316 69.3301 309.549 67.4776L310.466 10.6288C313.731 8.58644 317.324 7.12069 321.087 6.29688Z" fill="#FAFAFA"/>
<path d="M342.609 8.64428L341.593 70.5296C336.822 72.5516 331.646 73.4426 326.473 73.1335L327.561 5.56092C332.747 5.42229 337.897 6.47745 342.609 8.64428Z" fill="#FAFAFA"/>
<path d="M301.236 11.3482C285.783 26.3429 285.426 51.0116 300.438 66.447C315.45 81.8823 340.147 82.239 355.6 67.2443C371.021 52.2804 371.414 27.6762 356.479 12.2294C341.513 -3.25009 316.816 -3.68098 301.319 11.2678C301.292 11.2943 301.264 11.3217 301.236 11.3482ZM352.132 63.7865C338.656 76.8246 317.149 76.482 304.096 63.021C291.043 49.56 291.386 28.078 304.862 15.0399C318.314 2.02571 339.772 2.34005 352.837 15.7419C365.908 29.1853 365.595 50.6672 352.136 63.7238C352.121 63.738 352.107 63.753 352.092 63.7671L352.132 63.7865Z" fill="#E0E0E0"/>
<path d="M442 300.588H0V300.809H442V300.588Z" fill="#E0E0E0"/>
<path d="M59.8748 313.184H45.6777V313.404H59.8748V313.184Z" fill="#E0E0E0"/>
<path d="M197.91 310.791H150.59V311.012H197.91V310.791Z" fill="#E0E0E0"/>
<path d="M92.8048 321.387H60.7598V321.607H92.8048V321.387Z" fill="#E0E0E0"/>
<path d="M372.643 310.676H334.463V310.897H372.643V310.676Z" fill="#E0E0E0"/>
<path d="M386.115 310.676H380.52V310.897H386.115V310.676Z" fill="#E0E0E0"/>
<path d="M327.17 316.176H279.531V316.397H327.17V316.176Z" fill="#E0E0E0"/>
<path d="M51.4504 166.879C49.075 170.49 47.4785 174.458 46.6281 178.551L40.1024 179.165L40.1016 191.787L46.6281 192.401C47.4785 196.492 49.0759 200.46 51.4504 204.073L47.2823 209.1L56.2187 218.026L61.253 213.863C64.8695 216.235 68.8413 217.83 72.9377 218.679L73.5521 225.198L86.1889 225.197L86.8033 218.68C90.8997 217.83 94.8724 216.235 98.4889 213.863L103.523 218.026L112.46 209.1L108.292 204.072C110.666 200.46 112.263 196.492 113.113 192.4L119.638 191.786L119.639 179.164L113.114 178.549C112.263 174.458 110.665 170.49 108.291 166.878L112.459 161.85L103.522 152.924L98.4889 157.088C94.8716 154.716 90.8997 153.12 86.8033 152.27L86.1889 145.752L73.5512 145.753L72.9369 152.271C68.8404 153.12 64.8686 154.715 61.2521 157.088L56.2178 152.924L47.2814 161.85L51.4504 166.879ZM91.9676 173.394C98.648 180.066 98.648 190.886 91.9676 197.559C85.2863 204.233 74.4538 204.232 67.7734 197.559C61.0921 190.885 61.093 180.066 67.7743 173.393C74.4547 166.721 85.2863 166.72 91.9676 173.394Z" fill="#E0E0E0"/>
<path d="M341.451 290.253C340.131 292.26 339.244 294.465 338.771 296.739L335.145 297.08V304.094L338.772 304.435C339.244 306.709 340.132 308.914 341.451 310.921L339.135 313.715L344.1 318.675L346.898 316.361C348.908 317.68 351.115 318.566 353.392 319.038L353.733 322.661L360.756 322.66L361.098 319.038C363.374 318.565 365.582 317.679 367.592 316.361L370.389 318.675L375.355 313.715L373.039 310.921C374.358 308.913 375.245 306.709 375.718 304.434L379.345 304.093L379.345 297.079L375.719 296.737C375.246 294.464 374.359 292.259 373.039 290.252L375.355 287.457L370.39 282.497L367.593 284.811C365.582 283.493 363.375 282.606 361.099 282.134L360.758 278.512H353.735L353.394 282.134C351.118 282.606 348.91 283.492 346.901 284.81L344.103 282.497L339.138 287.457L341.451 290.253ZM363.966 293.873C367.678 297.581 367.679 303.594 363.966 307.302C360.254 311.011 354.235 311.011 350.522 307.302C346.809 303.594 346.809 297.581 350.522 293.873C354.235 290.165 360.255 290.164 363.966 293.873Z" fill="#E0E0E0"/>
<path d="M227.685 380.427C323.741 380.427 401.61 378.143 401.61 375.327C401.61 372.51 323.741 370.227 227.685 370.227C131.629 370.227 53.7598 372.51 53.7598 375.327C53.7598 378.143 131.629 380.427 227.685 380.427Z" fill="#F5F5F5"/>
<path d="M372.769 77.7592C381.284 74.2529 391.075 78.2051 394.637 86.5872C398.199 94.9693 394.184 104.607 385.669 108.114C379.095 110.821 371.773 109.07 367.132 104.279L362.115 104.441L363.921 99.5326C363.884 99.4487 363.837 99.371 363.802 99.2862C360.238 90.9032 364.254 81.2655 372.769 77.7592Z" fill="#188078"/>
<path d="M389.656 77.4448C385.359 74.1707 379.338 73.2295 374.223 75.0325" stroke="#188078" stroke-width="0.5" stroke-miterlimit="10" stroke-linecap="round" stroke-linejoin="round"/>
<path d="M371.906 75.9414C371.107 76.1586 370.354 76.5401 369.711 77.0548" stroke="#188078" stroke-width="0.5" stroke-miterlimit="10" stroke-linecap="round" stroke-linejoin="round"/>
<path d="M378.683 100.798C378.055 100.798 377.53 100.599 377.109 100.199C376.688 99.7997 376.477 99.3131 376.477 98.7392C376.477 98.1661 376.683 97.6867 377.097 97.3026C377.511 96.9185 378.039 96.726 378.683 96.726C379.327 96.726 379.855 96.9185 380.269 97.3026C380.683 97.6876 380.889 98.1661 380.889 98.7392C380.889 99.3131 380.679 99.7997 380.257 100.199C379.836 100.598 379.312 100.798 378.683 100.798ZM380.108 95.119H377.258L376.546 84.7793H380.821L380.108 95.119Z" fill="white"/>
<path d="M317.777 330.412H115.831C112.536 330.412 109.863 327.743 109.863 324.451V46.4981C109.863 43.2064 112.535 40.5371 115.831 40.5371H317.777C321.072 40.5371 323.744 43.2055 323.744 46.4981V324.451C323.744 327.744 321.073 330.412 317.777 330.412Z" fill="#188078"/>
<path d="M126.604 48.4551H117.176V323.043L314.934 324.6L320.397 318.304L315.61 59.2804L126.604 48.4551Z" fill="#EBEBEB"/>
<path d="M320.397 318.304H124.86V48.4551H117.176V324.6H314.934L320.397 318.304Z" fill="#E0E0E0"/>
<path opacity="0.2" d="M117.176 324.601L124.86 318.305H320.397L314.934 324.601H117.176Z" fill="black"/>
<path d="M337.244 309.446H144.031C125.207 266.042 121.877 155.622 124.86 48.4551H316.699C315.132 155.561 318.913 251.737 337.244 309.446Z" fill="white" stroke="#263238" stroke-miterlimit="10"/>
<path d="M158.813 91.8747H147.146V81.3223H183.909V91.8747H172.243V121.688H158.813V91.8747Z" fill="#263238"/>
<path d="M195.133 109.125C221.733 109.125 248.333 109.125 274.933 109.125C282.429 109.125 289.923 109.125 297.419 109.125C298.272 109.125 298.273 107.801 297.419 107.801C270.818 107.801 244.219 107.801 217.618 107.801C210.123 107.801 202.628 107.801 195.133 107.801C194.28 107.801 194.278 109.125 195.133 109.125Z" fill="#263238"/>
<path d="M150.89 136.754C169.942 136.754 188.994 136.754 208.045 136.754C227.097 136.754 246.149 136.754 265.201 136.754C275.94 136.754 286.679 136.754 297.419 136.754C298.272 136.754 298.274 135.43 297.419 135.43C278.367 135.43 259.316 135.43 240.264 135.43C221.212 135.43 202.161 135.43 183.109 135.43C172.369 135.43 161.629 135.43 150.89 135.43C150.037 135.43 150.036 136.754 150.89 136.754Z" fill="#263238"/>
<path d="M150.89 160.897C161.457 160.897 172.024 160.897 182.591 160.897C188.115 160.897 193.64 160.897 199.164 160.897C206.794 160.897 214.424 160.897 222.054 160.897C222.907 160.897 222.909 159.572 222.054 159.572C211.487 159.572 200.92 159.572 190.354 159.572C184.83 159.572 179.305 159.572 173.781 159.572C166.151 159.572 158.521 159.572 150.89 159.572C150.037 159.572 150.036 160.897 150.89 160.897Z" fill="#263238"/>
<path d="M153.732 185.039C167.459 185.039 181.185 185.039 194.912 185.039C205.474 185.039 216.036 185.039 226.597 185.039C235.385 185.039 244.173 185.039 252.96 185.039C253.813 185.039 253.815 183.715 252.96 183.715C239.234 183.715 225.508 183.715 211.781 183.715C201.219 183.715 190.657 183.715 180.096 183.715C171.308 183.715 162.52 183.715 153.732 183.715C152.879 183.715 152.877 185.039 153.732 185.039Z" fill="#263238"/>
<path d="M156.572 209.184C164.817 209.184 173.062 209.184 181.307 209.184C183.13 209.184 184.953 209.184 186.776 209.184C193.555 209.184 200.334 209.184 207.113 209.184C207.966 209.184 207.968 207.859 207.113 207.859C198.868 207.859 190.623 207.859 182.378 207.859C180.555 207.859 178.732 207.859 176.909 207.859C170.13 207.859 163.351 207.859 156.572 207.859C155.719 207.859 155.717 209.184 156.572 209.184Z" fill="#263238"/>
<path d="M215.912 209.184C227.84 209.184 239.768 209.184 251.695 209.184C259.39 209.184 267.084 209.184 274.778 209.184C282.906 209.184 291.035 209.184 299.164 209.184C300.017 209.184 300.018 207.859 299.164 207.859C287.236 207.859 275.308 207.859 263.38 207.859C255.686 207.859 247.991 207.859 240.298 207.859C232.17 207.859 224.04 207.859 215.912 207.859C215.059 207.859 215.057 209.184 215.912 209.184Z" fill="#263238"/>
<path d="M159.414 233.326C168.752 233.326 178.089 233.326 187.428 233.326C190.993 233.326 194.558 233.326 198.123 233.326C205.303 233.326 212.482 233.326 219.662 233.326C220.515 233.326 220.517 232.002 219.662 232.002C210.324 232.002 200.987 232.002 191.648 232.002C188.083 232.002 184.518 232.002 180.953 232.002C173.773 232.002 166.594 232.002 159.414 232.002C158.561 232.002 158.559 233.326 159.414 233.326Z" fill="#188078"/>
<path d="M162.255 257.469C175.568 257.469 188.881 257.469 202.194 257.469C212.097 257.469 222 257.469 231.902 257.469C240.539 257.469 249.175 257.469 257.811 257.469C258.664 257.469 258.666 256.145 257.811 256.145C244.498 256.145 231.185 256.145 217.872 256.145C207.97 256.145 198.067 256.145 188.165 256.145C179.528 256.145 170.892 256.145 162.255 256.145C161.402 256.145 161.401 257.469 162.255 257.469Z" fill="#263238"/>
<path d="M167.147 284.26C183.267 284.26 199.388 284.26 215.508 284.26C220.936 284.26 226.366 284.26 231.795 284.26C232.648 284.26 232.649 282.936 231.795 282.936C215.674 282.936 199.553 282.936 183.433 282.936C178.004 282.936 172.575 282.936 167.146 282.936C166.293 282.936 166.292 284.26 167.147 284.26Z" fill="#263238"/>
<path d="M250.951 91.3054C245.025 90.2485 238.943 90.3933 233.084 91.791C227.869 93.0343 222.261 95.1773 218.491 99.1374C215.116 102.683 213.363 108.295 215.833 112.828C218.103 116.994 223.073 118.554 227.479 119.157C233.514 119.983 239.716 119.732 245.691 118.576C250.824 117.584 256.877 116.115 260.607 112.176C263.685 108.927 264.552 104.173 263.751 99.873C262.919 95.4121 260.192 92.0462 256.34 89.7611C251.559 86.9241 245.853 86.2195 240.394 86.7554C233.593 87.423 226.928 89.4653 220.814 92.4833C220.048 92.8612 220.72 94.0038 221.483 93.6268C226.505 91.1482 231.879 89.4008 237.407 88.4834C242.274 87.6764 247.338 87.5845 252.051 89.2225C255.757 90.5107 259.43 92.9036 261.236 96.4814C263.088 100.149 263.292 104.905 261.474 108.626C259.304 113.068 254.433 114.939 249.957 116.204C244.516 117.74 238.857 118.439 233.206 118.287C228.657 118.164 223.364 117.799 219.545 115.032C215.369 112.006 215.171 106.433 217.73 102.263C220.704 97.413 226.633 94.938 231.884 93.4714C237.964 91.7734 244.387 91.4758 250.601 92.584C251.433 92.7314 251.791 91.4555 250.951 91.3054Z" fill="#188078"/>
<path d="M234.828 269.032C225.376 267.612 215.467 269.13 206.999 273.626C203.514 275.476 199.733 279.205 201.73 283.491C203.671 287.658 209.027 288.312 212.989 289.225C223.078 291.552 233.503 293.471 243.856 291.83C247.991 291.175 252.917 290.117 256.169 287.285C259.268 284.584 258.931 280.583 256.245 277.717C252.945 274.193 247.695 272.543 243.06 271.801C237.902 270.975 232.66 271.144 227.462 271.369C226.612 271.406 226.608 272.73 227.462 272.693C235.494 272.345 244.211 271.988 251.523 275.895C254.567 277.521 258.873 281.068 256.481 284.92C254.454 288.182 249.552 289.295 246.086 290.064C237.08 292.062 227.739 290.978 218.806 289.147C216.488 288.672 214.18 288.145 211.876 287.607C209.715 287.101 207.4 286.711 205.464 285.571C203.795 284.587 202.41 282.894 202.533 280.863C202.672 278.554 204.414 276.759 206.263 275.58C210.239 273.044 215.025 271.502 219.629 270.61C224.513 269.665 229.557 269.568 234.476 270.307C235.311 270.435 235.67 269.158 234.828 269.032Z" fill="#188078"/>
<path d="M269.42 274.854C282.868 274.854 296.316 274.854 309.765 274.854C310.618 274.854 310.619 273.529 309.765 273.529C296.316 273.529 282.868 273.529 269.42 273.529C268.567 273.529 268.565 274.854 269.42 274.854Z" fill="#188078"/>
<path d="M272.242 278.283C284.186 278.283 296.129 278.283 308.072 278.283C308.925 278.283 308.927 276.959 308.072 276.959C296.129 276.959 284.186 276.959 272.242 276.959C271.389 276.959 271.387 278.283 272.242 278.283Z" fill="#188078"/>
<path d="M256.233 58.0256H186.635V42.8251C186.635 39.1148 189.646 36.1074 193.36 36.1074H249.507C253.222 36.1074 256.233 39.1148 256.233 42.8251V58.0256Z" fill="#263238"/>
<path d="M208.777 38.498L205.529 28.0762H239.359L235.557 38.9218L208.777 38.498Z" fill="#263238"/>
<path d="M133.328 36.4316C149.705 36.4316 166.083 36.4316 182.46 36.4316" stroke="#188078" stroke-width="0.75" stroke-miterlimit="10" stroke-linejoin="round"/>
<path d="M171.821 146.278C179.455 140.341 186.618 133.822 194.251 127.885C194.924 127.363 193.979 126.431 193.313 126.948C185.68 132.886 178.517 139.404 170.884 145.341C170.211 145.864 171.155 146.795 171.821 146.278Z" fill="#188078"/>
<path d="M169.905 128.08C169.685 128.066 169.778 128.044 170.01 128.189C170.258 128.345 170.494 128.52 170.727 128.697C171.391 129.204 172.027 129.749 172.66 130.292C174.643 131.992 176.574 133.755 178.497 135.522C182.569 139.265 186.587 143.068 190.588 146.887C191.497 147.756 192.406 148.626 193.312 149.498C193.926 150.09 194.865 149.155 194.25 148.561C187.488 142.046 180.727 135.469 173.598 129.355C172.855 128.716 172.105 128.082 171.319 127.494C170.907 127.186 170.441 126.789 169.905 126.754C169.053 126.699 169.057 128.024 169.905 128.08Z" fill="#188078"/>
<path d="M229.838 233.326C238.125 233.326 246.413 233.326 254.7 233.326C267.883 233.326 281.067 233.326 294.25 233.326C297.242 233.326 300.234 233.326 303.226 233.326C304.079 233.326 304.08 232.002 303.226 232.002C294.938 232.002 286.651 232.002 278.363 232.002C265.18 232.002 251.996 232.002 238.813 232.002C235.822 232.002 232.829 232.002 229.838 232.002C228.985 232.002 228.983 233.326 229.838 233.326Z" fill="#263238"/>
<path d="M269.422 257.467C273.767 257.467 278.113 257.467 282.458 257.467C289.393 257.467 296.328 257.467 303.263 257.467C304.867 257.467 306.47 257.467 308.073 257.467C308.926 257.467 308.928 256.143 308.073 256.143C303.727 256.143 299.382 256.143 295.037 256.143C288.102 256.143 281.167 256.143 274.232 256.143C272.628 256.143 271.024 256.143 269.422 256.143C268.569 256.143 268.567 257.467 269.422 257.467Z" fill="#263238"/>
<path d="M266.123 185.039C275.771 185.039 285.421 185.039 295.07 185.039C296.435 185.039 297.8 185.039 299.165 185.039C300.018 185.039 300.02 183.715 299.165 183.715C289.516 183.715 279.866 183.715 270.217 183.715C268.852 183.715 267.487 183.715 266.123 183.715C265.269 183.715 265.269 185.039 266.123 185.039Z" fill="#263238"/>
<path d="M230.572 160.897C238.974 160.897 247.376 160.897 255.778 160.897C256.959 160.897 258.141 160.897 259.322 160.897C260.175 160.897 260.177 159.572 259.322 159.572C250.921 159.572 242.518 159.572 234.117 159.572C232.935 159.572 231.754 159.572 230.573 159.572C229.719 159.572 229.717 160.897 230.572 160.897Z" fill="#188078"/>
<path d="M269.422 160.746C278.104 160.746 286.788 160.746 295.471 160.746C296.702 160.746 297.933 160.746 299.166 160.746C300.019 160.746 300.02 159.422 299.166 159.422C290.483 159.422 281.799 159.422 273.117 159.422C271.885 159.422 270.654 159.422 269.422 159.422C268.569 159.422 268.567 160.746 269.422 160.746Z" fill="#263238"/>
<path d="M302.071 197.709C305.352 200.663 307.187 205.02 306.897 209.439C306.613 213.765 304.225 217.845 300.655 220.284C299.955 220.762 300.617 221.91 301.324 221.427C305.217 218.768 307.773 214.473 308.198 209.772C308.634 204.931 306.606 200.011 303.009 196.773C302.376 196.204 301.435 197.138 302.071 197.709Z" fill="#188078"/>
<path d="M308.893 217.947C307.631 218.481 306.369 219.014 305.107 219.547C304.475 219.814 303.844 220.081 303.214 220.347C302.726 220.553 302.191 220.851 301.653 220.888C301.184 220.919 301.144 220.582 301.181 220.185C301.236 219.586 301.408 218.983 301.527 218.393C301.801 217.034 302.076 215.675 302.35 214.316C302.518 213.483 301.241 213.127 301.072 213.963C300.748 215.572 300.422 217.181 300.098 218.79C299.862 219.958 299.485 221.699 301.032 222.142C301.626 222.311 302.269 222.157 302.828 221.936C303.553 221.647 304.269 221.328 304.989 221.024C306.514 220.379 308.039 219.735 309.564 219.091C309.896 218.95 309.962 218.467 309.802 218.185C309.604 217.841 309.221 217.809 308.893 217.947Z" fill="#188078"/>
<path d="M130.548 36.4316H122.906" stroke="#188078" stroke-width="0.75" stroke-miterlimit="10" stroke-linejoin="round"/>
<path d="M389.513 288.236C384.604 282.385 384.711 274.219 389.754 269.998C394.796 265.776 402.864 267.097 407.774 272.948C412.684 278.799 412.576 286.964 407.534 291.186C402.49 295.407 394.423 294.087 389.513 288.236Z" fill="#188078"/>
<path opacity="0.4" d="M389.513 288.236C384.604 282.385 384.711 274.219 389.754 269.998C394.796 265.776 402.864 267.097 407.774 272.948C412.684 278.799 412.576 286.964 407.534 291.186C402.49 295.407 394.423 294.087 389.513 288.236Z" fill="black"/>
<path d="M254.937 127.906L247.732 102.053L273.184 112.63L407.113 272.227L388.867 287.505L254.937 127.906Z" fill="#188078"/>
<path d="M254.455 104.836C253.888 107.429 252.29 108.788 249.635 108.894L254.936 127.906C254.936 127.906 259.955 130.694 259.675 124.408C259.675 124.408 265.155 126.259 264.878 120.052C264.878 120.052 269.638 121.195 269.418 116.252C269.418 116.252 273.38 117.016 273.184 112.629L254.455 104.836Z" fill="#EF8274"/>
<path opacity="0.3" d="M264.959 120.02L399.868 278.666L404.116 275.109C404.626 274.345 269.497 116.221 269.497 116.221C269.718 121.163 264.959 120.02 264.959 120.02Z" fill="white"/>
<path opacity="0.3" d="M259.736 124.453C259.891 127.919 258.434 128.625 257.096 128.562L391.061 286.098L395.309 282.542C395.794 281.815 273.318 138.432 261.593 124.707C260.583 124.737 259.736 124.453 259.736 124.453Z" fill="white"/>
<path d="M390.053 289.893L409.381 273.711L406.767 270.596L387.439 286.778L390.053 289.893Z" fill="#263238"/>
<path d="M357.228 349.167L357.246 365.886L348.821 366.489L345.859 350.783C349.714 348.219 353.505 347.607 357.228 349.167Z" fill="#FFB463"/>
<path d="M356.953 364.031C357.782 366.238 357.836 375.265 357.836 375.265L339.976 375.285C338.916 372.02 340.557 369.792 342.64 369.496C343.535 369.37 344.588 368.453 345.356 367.651C345.361 367.548 346.453 362.533 347.128 362.294C347.128 362.294 347.593 361.772 347.989 362.293C348.385 362.813 348.729 364.508 348.729 364.508C351.517 361.055 354.25 361.516 356.953 364.031Z" fill="#263238"/>
<path d="M357.168 366.652C355.15 365.91 352.985 366.192 351.225 367.425C350.917 367.641 350.624 367.136 350.93 366.923C352.804 365.609 355.173 365.301 357.322 366.091C357.673 366.219 357.521 366.782 357.168 366.652Z" fill="white"/>
<path d="M340.032 373.964L357.629 373.945C357.79 373.945 357.921 373.814 357.921 373.654C357.921 373.493 357.79 373.363 357.629 373.363L340.032 373.383C339.871 373.383 339.74 373.513 339.74 373.674C339.74 373.834 339.871 373.964 340.032 373.964Z" fill="white"/>
<path d="M320.556 346.988L320.576 365.857L312.469 366.473L308.48 348.812C311.736 346.398 315.516 345.215 320.556 346.988Z" fill="#FFB463"/>
<path d="M320.897 364.071C321.726 366.276 321.78 375.304 321.78 375.304L301.262 375.326C300.202 372.062 302.419 370.126 304.501 369.83C305.397 369.704 308.532 368.491 309.301 367.69C309.306 367.586 310.398 362.571 311.073 362.332C311.073 362.332 311.538 361.81 311.934 362.331C312.33 362.851 312.674 364.547 312.674 364.547C315.462 361.093 318.194 361.555 320.897 364.071Z" fill="#263238"/>
<path d="M320.791 366.692C318.773 365.95 316.608 366.232 314.848 367.464C314.54 367.681 314.247 367.175 314.553 366.962C316.427 365.648 318.796 365.34 320.945 366.13C321.296 366.258 321.144 366.821 320.791 366.692Z" fill="white"/>
<path d="M301.262 374.006L321.572 373.984C321.733 373.984 321.864 373.854 321.864 373.693C321.864 373.532 321.733 373.402 321.572 373.402L301.262 373.424C301.102 373.424 300.971 373.555 300.971 373.716C300.97 373.876 301.1 374.006 301.262 374.006Z" fill="white"/>
<path d="M358.834 358.45L342.255 359.433C338.535 346.006 334.86 297.859 334.48 283.405C334.025 266.134 328.475 222.788 333.383 213.768C338.291 204.748 360.494 211.931 360.494 211.931C360.494 211.931 357.727 264.711 358.834 281.543C359.792 296.132 361.275 339.016 358.834 358.45Z" fill="#263238"/>
<path d="M325.722 358.451L309.287 359.434C307.286 344.569 299.247 290.436 299.908 280.066C300.714 267.4 310.234 212.574 313.773 208.347C317.313 204.119 343.229 215.077 343.229 215.077C343.229 215.077 332.578 262.223 324.18 282.615C322.435 286.85 327.072 340.372 325.722 358.451Z" fill="#263238"/>
<g opacity="0.3">
<path d="M336.936 246.627C337.251 245.857 337.566 245.087 337.859 244.303C339.421 240.113 340.603 235.752 341.541 231.303C344.244 230.982 346.915 230.322 349.517 229.329C349.847 229.204 349.705 228.576 349.374 228.702C345.258 230.272 340.981 231.001 336.665 230.866C336.318 230.856 336.319 231.506 336.665 231.516C338.105 231.561 339.541 231.501 340.97 231.356C340.029 235.776 338.852 240.112 337.282 244.269C335.712 248.432 333.806 252.392 331.838 256.295C331.657 256.654 332.123 256.981 332.303 256.624C333.753 253.748 335.164 250.838 336.436 247.843C336.554 251.415 336.91 262.455 337.311 277.082C338.003 302.322 343.314 343.362 344.798 354.43H345.345C343.883 343.537 338.542 302.348 337.849 277.059C337.376 259.771 336.965 247.483 336.936 246.627Z" fill="white"/>
<path d="M356.58 281.092C351.8 280.78 347.014 280.935 342.255 281.557C341.913 281.602 341.911 282.252 342.255 282.207C347.014 281.585 351.801 281.429 356.58 281.742C356.927 281.765 356.925 281.115 356.58 281.092Z" fill="white"/>
<path d="M302.86 281.148C303.231 273.224 311.412 239.589 311.495 239.251C311.536 239.079 311.455 238.898 311.312 238.847C311.169 238.797 311.019 238.895 310.977 239.067C310.639 240.453 302.695 273.113 302.321 281.111C302 287.99 310.529 351.59 310.892 354.295C310.913 354.455 311.028 354.568 311.158 354.568C311.172 354.568 311.187 354.567 311.201 354.563C311.348 354.534 311.448 354.367 311.424 354.19C311.335 353.529 302.541 287.957 302.86 281.148Z" fill="white"/>
<path d="M307.509 235.769C313.671 232.963 315.664 224.807 317.131 217.832C317.216 217.426 316.696 217.254 316.611 217.659C315.198 224.371 313.323 232.428 307.365 235.142C307.044 235.288 307.185 235.916 307.509 235.769Z" fill="white"/>
<path d="M321.305 281.718C317.299 281.414 313.294 281.109 309.289 280.805C308.942 280.779 308.944 281.43 309.289 281.456C313.294 281.76 317.299 282.065 321.305 282.368C321.651 282.395 321.649 281.744 321.305 281.718Z" fill="white"/>
</g>
<path d="M327.41 106.515C327.011 106.42 326.59 106.862 326.463 107.471C326.337 108.08 326.558 108.627 326.957 108.721C327.357 108.816 327.778 108.374 327.904 107.765C328.073 107.156 327.811 106.609 327.41 106.515Z" fill="#263238"/>
<path d="M326.284 114.578C325.225 114.634 324.196 114.219 323.475 113.443C325.007 112.091 326.344 110.534 327.452 108.818L326.284 114.578Z" fill="#F98412"/>
<path d="M330.546 104.709C329.929 104.01 329.014 103.646 328.084 103.731C327.885 103.757 327.7 103.624 327.663 103.427C327.631 103.226 327.768 103.039 327.968 103.007C329.155 102.87 330.333 103.321 331.125 104.215C331.265 104.358 331.265 104.587 331.125 104.73C331.056 104.795 330.966 104.832 330.872 104.835C330.749 104.855 330.624 104.806 330.546 104.709Z" fill="#263238"/>
<path d="M334.564 125.55C335.659 129.943 335.827 134.609 329.514 136.112C329.514 136.112 323.464 141.84 335.038 141.84C345.55 141.84 347.097 136.112 347.097 136.112C343.141 132.35 344.246 121.997 345.35 116.354L334.564 125.55Z" fill="#FFB463"/>
<path d="M348.788 105.761C347.677 100.099 342.181 96.4095 336.512 97.5194C328.557 99.0116 325.275 109.931 325.516 116.994C325.78 124.834 334.344 130.152 341.226 125.518C345.814 122.438 346.602 118.013 348.591 110.604C349.037 109.028 349.104 107.369 348.788 105.761Z" fill="#FFB463"/>
<path d="M353.473 104.866C355.021 103.948 355.194 100.123 353.357 97.8448C353.573 99.1896 353.448 100.276 353.17 101.152C352.518 98.9079 350.409 96.5248 348.232 96.0895C342.972 95.0387 338.931 90.3095 337.237 87.7656C336.427 90.5302 338.721 93.1571 338.721 93.1571C337.09 93.1147 332.576 91.0132 331.744 89.0795C331.23 91.1024 331.496 93.2454 332.491 95.0811C330.386 94.6246 328.187 95.1208 326.482 96.4365C327.893 96.3535 329.265 96.9186 330.208 97.9711C329.084 98.2448 327.911 98.2448 326.788 97.9711C328.136 100.092 330.191 101.605 333.028 102.198C330.414 103.936 331.881 108.161 332.533 110.604C329.629 114.587 333.901 117.551 334.943 120.778C335.743 123.342 342.025 124.845 344.961 123.5C346.497 122.806 346.654 121.093 349.001 118.424C350.89 116.275 354.203 112.055 353.473 107.114C353.917 107.626 354.41 108.336 354.915 109.343C354.991 107.536 354.338 105.517 353.473 104.866Z" fill="#263238"/>
<path d="M333.007 106.716C330.786 107.368 329.588 110.573 329.461 112.622C329.314 114.871 330.818 116.363 332.828 114.871C334.359 113.722 335.469 112.1 335.985 110.258C336.553 108.04 335.227 106.064 333.007 106.716Z" fill="#FFB463"/>
<path d="M329.559 135.86C329.559 135.86 332.276 134.749 331.045 132.573C335.043 131.407 344.572 131.51 346.677 132.13C348.603 132.698 350.281 134.808 349.429 136.375L329.559 135.86Z" fill="#263238"/>
<path opacity="0.8" d="M329.559 135.86C329.559 135.86 332.276 134.749 331.045 132.573C335.043 131.407 344.572 131.51 346.677 132.13C348.603 132.698 350.281 134.808 349.429 136.375L329.559 135.86Z" fill="white"/>
<path d="M362.054 165.546C362.054 165.546 368.221 176.366 368.106 176.86L350.012 189.321L351.909 195.189C351.909 195.189 375.939 187.145 378.166 179.418C380.393 171.692 370.783 157.41 370.783 157.41L362.054 165.546Z" fill="#FFB463"/>
<path d="M354.017 188.777C354.017 188.777 352.67 186.564 350.581 186.081C348.492 185.598 346.952 184.656 345.374 184.405C343.796 184.153 345.185 185.801 346.102 186.528C347.018 187.256 348.05 188.089 347.391 188.689C346.734 189.289 339.255 190.947 338.437 191.882C337.619 192.817 338.913 192.926 338.913 192.926C338.913 192.926 337.108 193.379 337.092 194.141C337.087 194.339 337.4 194.807 338.255 194.73C340.179 194.557 344.197 193.985 344.197 193.985C343.966 194.013 339.057 195.073 338.342 195.327C337.408 195.66 337.137 196.292 337.348 196.827C337.648 197.589 343.78 196.482 344.071 196.616C344.071 196.616 340.519 197.136 340.151 198.125C339.784 199.113 342.037 198.909 343.99 198.351C345.78 197.84 349.425 197.306 351.194 196.61C353.374 195.753 354.645 194.688 354.758 192.496C354.872 190.301 354.017 188.777 354.017 188.777Z" fill="#FFB463"/>
<path opacity="0.3" d="M339.139 192.82C340.595 192.494 342.066 192.235 343.545 192.043" stroke="black" stroke-width="0.25" stroke-miterlimit="10" stroke-linecap="round" stroke-linejoin="round"/>
<path opacity="0.3" d="M345.456 196.459C344.556 194.757 344.172 192.787 344.365 190.871" stroke="black" stroke-width="0.25" stroke-miterlimit="10" stroke-linecap="round" stroke-linejoin="round"/>
<path opacity="0.3" d="M348.115 189.32C348.399 190.052 348.944 190.679 349.63 191.062C350.316 191.444 351.136 191.579 351.908 191.437" stroke="black" stroke-width="0.25" stroke-miterlimit="10" stroke-linecap="round" stroke-linejoin="round"/>
<path d="M351.884 154.809C353.178 160.154 355.838 165.073 359.608 169.081L374.15 158.004C374.15 158.004 364.937 138.322 357.686 136.661C350.279 134.958 349.401 145.118 351.884 154.809Z" fill="#263238"/>
<path opacity="0.8" d="M351.884 154.809C353.178 160.154 355.838 165.073 359.608 169.081L374.15 158.004C374.15 158.004 364.937 138.322 357.686 136.661C350.279 134.958 349.401 145.118 351.884 154.809Z" fill="white"/>
<path opacity="0.2" d="M351.506 153.074C351.611 153.642 351.737 154.22 351.884 154.798C353.177 160.144 355.838 165.062 359.608 169.07L360.249 168.577C359.986 162.418 358.661 155.334 354.725 151.445L351.506 153.074Z" fill="black"/>
<path d="M356.674 136.326C364.039 138.154 362.987 148.877 362.987 159.271C362.987 175.208 363.145 201.915 362.43 217.238C362.413 218.371 359.447 219.576 358.411 219.757C349.53 220.984 324.919 221.291 316.754 219.53C315.803 219.296 308.618 217.874 308.559 216.822C319.382 199.197 312.651 151.979 313.208 146.3C313.798 140.416 315.745 138.633 317.765 137.644C325.654 133.758 351.266 134.951 356.674 136.326Z" fill="#263238"/>
<path opacity="0.8" d="M356.674 136.326C364.039 138.154 362.987 148.877 362.987 159.271C362.987 175.208 363.145 201.915 362.43 217.238C362.413 218.371 359.447 219.576 358.411 219.757C349.53 220.984 324.919 221.291 316.754 219.53C315.803 219.296 308.618 217.874 308.559 216.822C319.382 199.197 312.651 151.979 313.208 146.3C313.798 140.416 315.745 138.633 317.765 137.644C325.654 133.758 351.266 134.951 356.674 136.326Z" fill="white"/>
<path d="M314.249 148.881C313.869 150.688 313.459 152.664 313.017 154.588C312.575 156.511 312.091 158.414 311.607 160.305C310.675 164.006 309.523 167.649 308.156 171.214C307.547 172.791 306.804 174.314 305.935 175.765C305.633 176.285 305.28 176.774 304.883 177.225L304.6 177.519L304.295 177.803C304.136 177.981 304.095 178.097 303.842 178.202C303.408 178.297 302.955 178.253 302.548 178.076C301.864 177.809 301.217 177.456 300.623 177.025C300.254 176.804 299.897 176.53 299.571 176.279C299.453 176.188 299.327 176.086 299.201 175.985C298.369 171.578 292.994 169.794 292.994 169.794L288.27 167.625L288.322 175.68L289.784 177.603L293.947 179.657C294.001 179.8 294.058 179.941 294.119 180.084C294.361 180.651 294.656 181.208 294.961 181.765C295.642 182.934 296.493 183.997 297.486 184.918C298.685 186.053 300.123 186.904 301.695 187.409C303.517 187.964 305.454 188.014 307.303 187.556C307.746 187.452 308.182 187.318 308.608 187.157C309.021 187.003 309.425 186.824 309.818 186.621C310.602 186.196 311.336 185.685 312.007 185.097C313.093 184.162 314.068 183.103 314.911 181.944C316.306 179.984 317.508 177.893 318.499 175.701C320.308 171.707 321.803 167.578 322.971 163.352C323.561 161.292 324.065 159.264 324.539 157.161C325.013 155.059 325.444 153.073 325.802 150.855L314.249 148.881Z" fill="#FFB463"/>
<path d="M311.649 144.521C309.035 150.781 307.129 157.313 305.967 163.996L322.602 172.677C322.602 172.677 337.554 158.426 331.24 145.813C327.632 138.551 316.5 133.769 311.649 144.521Z" fill="#263238"/>
<path opacity="0.8" d="M311.649 144.521C309.035 150.781 307.129 157.313 305.967 163.996L322.602 172.677C322.602 172.677 337.554 158.426 331.24 145.813C327.632 138.551 316.5 133.769 311.649 144.521Z" fill="white"/>
</svg>
