<svg xmlns="http://www.w3.org/2000/svg" width="16" height="16" fill="none"><path fill="#188078" fill-rule="evenodd" d="M2.33 13.004c.23.23.49.393.782.51l-.132.132a.5.5 0 0 0 .707.708l.583-.584c.631.063 1.41.063 2.36.063h2.74c.95 0 1.729 0 2.36-.063l.583.584a.5.5 0 0 0 .707-.708l-.132-.132a2.3 2.3 0 0 0 .782-.51c.45-.45.647-1.02.74-1.71.09-.67.09-1.522.09-2.59V8.5h.167a.5.5 0 1 0 0-1h-11.5V3.682a1.182 1.182 0 0 1 2.287-.42l-.433.348a.5.5 0 1 0 .625.78l1.666-1.333a.5.5 0 1 0-.624-.78l-.432.344a2.183 2.183 0 0 0-4.09 1.061V7.5h-.833a.5.5 0 0 0 0 1H1.5v.204c0 1.068 0 1.92.09 2.59.093.69.29 1.26.74 1.71M13.5 8.5h-11v.167c0 1.114.001 1.899.081 2.493.078.58.223.903.456 1.136.233.234.556.378 1.136.456.594.08 1.38.081 2.494.081h2.666c1.114 0 1.9 0 2.494-.08.58-.079.903-.223 1.136-.457.233-.233.378-.556.456-1.136.08-.594.081-1.38.081-2.493z" clip-rule="evenodd"/></svg>