<svg width="680" height="174" viewBox="0 0 680 174" fill="none" xmlns="http://www.w3.org/2000/svg">
<path d="M231.002 151.586L231.214 151.756V156.167L231.002 156.379H218.998C215.308 156.379 212.466 155.531 210.43 153.792C209.414 152.906 208.614 151.8 208.092 150.557C207.57 149.315 207.34 147.969 207.418 146.623C207.418 144.715 207.843 142.933 208.776 141.491C209.709 140.006 211.066 138.819 212.721 137.97C214.46 137.122 216.538 136.783 218.871 136.783H220.016V134.874H225.955V151.586H231.045H231.002ZM220.186 141.491H219.168C217.344 141.491 215.944 141.915 215.053 142.848C214.035 143.781 213.569 145.054 213.569 146.708C213.569 148.278 213.993 149.465 215.053 150.398C215.944 151.247 217.344 151.671 219.168 151.671H220.186V141.491ZM216.496 132.371C215.789 132.393 215.103 132.134 214.587 131.65C214.079 131.062 213.807 130.307 213.823 129.529C213.823 128.596 214.12 127.96 214.587 127.409C215.011 126.857 215.69 126.688 216.496 126.688C217.344 126.688 217.98 126.942 218.447 127.409C218.871 127.875 219.168 128.596 219.168 129.529C219.168 130.463 218.913 131.099 218.447 131.65C218.186 131.895 217.879 132.085 217.544 132.208C217.209 132.332 216.853 132.388 216.496 132.371ZM223.197 132.371C222.491 132.393 221.805 132.134 221.289 131.65C220.796 131.056 220.539 130.301 220.568 129.529C220.568 128.596 220.822 127.96 221.289 127.409C221.713 126.857 222.392 126.688 223.197 126.688C224.046 126.688 224.682 126.942 225.149 127.409C225.573 127.96 225.87 128.596 225.87 129.529C225.87 130.463 225.615 131.099 225.149 131.65C224.888 131.895 224.581 132.085 224.246 132.208C223.911 132.332 223.554 132.388 223.197 132.371Z" fill="#28B16D"/>
<path d="M230.662 156.379C230.636 156.38 230.61 156.375 230.586 156.364C230.562 156.353 230.541 156.336 230.525 156.316C230.508 156.295 230.497 156.271 230.491 156.245C230.486 156.219 230.486 156.193 230.493 156.167V151.756L230.662 151.586H237.534V136.783H243.43V156.379H230.662ZM233.886 166.305C233.526 166.316 233.168 166.253 232.833 166.122C232.497 165.991 232.192 165.793 231.935 165.541C231.442 164.947 231.185 164.192 231.214 163.42C231.214 162.53 231.468 161.893 231.935 161.3C232.402 160.791 233.038 160.579 233.886 160.579C234.734 160.579 235.328 160.875 235.795 161.342C236.261 161.766 236.558 162.53 236.558 163.463C236.558 164.354 236.261 164.99 235.795 165.584C235.264 166.042 234.588 166.297 233.886 166.305ZM240.588 166.305C240.228 166.316 239.87 166.253 239.534 166.122C239.199 165.991 238.894 165.793 238.637 165.541C238.144 164.947 237.887 164.192 237.916 163.42C237.916 162.53 238.213 161.893 238.637 161.3C239.103 160.791 239.74 160.579 240.588 160.579C241.436 160.579 242.03 160.875 242.497 161.342C242.963 161.893 243.26 162.53 243.26 163.463C243.26 164.354 242.963 164.99 242.497 165.584C241.966 166.042 241.289 166.297 240.588 166.305ZM248.562 151.586H261.796C261.372 149.55 260.736 147.557 259.803 145.69C259.052 144.249 258.046 142.955 256.833 141.873C255.561 140.685 254.076 139.752 252.422 139.073L254.628 133.559C258.148 134.959 260.99 137.165 263.111 140.091C265.232 143.06 266.759 146.878 267.692 151.756V156.379H248.477V151.544H248.562V151.586ZM296.747 151.586L296.917 151.756V156.167L296.747 156.379H291.785C291.857 157.669 291.648 158.96 291.172 160.161C290.696 161.362 289.964 162.445 289.028 163.336C287.161 165.032 284.616 165.838 281.308 165.838C279.738 165.838 278.169 165.669 276.642 165.372C275.294 165.1 274.002 164.598 272.825 163.887L275.115 159.561C276.26 160.112 277.236 160.494 278.169 160.791C279.102 160.96 280.078 161.13 281.138 161.13C282.58 161.13 283.768 160.791 284.616 159.942C285.465 159.094 285.804 158.034 285.804 156.549V156.379H282.029C280.833 156.446 279.635 156.265 278.512 155.849C277.388 155.433 276.362 154.791 275.497 153.962C273.927 152.392 273.206 150.144 273.206 147.175C273.164 145.239 273.708 143.336 274.768 141.716C275.828 140.095 277.354 138.834 279.145 138.098C281.096 137.249 283.301 136.825 285.804 136.825H291.742V151.586H296.747ZM285.889 151.586V141.491H284.616C282.92 141.491 281.562 141.915 280.672 142.933C279.738 143.866 279.272 145.266 279.272 147.005C279.272 148.532 279.654 149.762 280.29 150.483C280.926 151.204 281.944 151.586 283.259 151.586H285.889Z" fill="#28B16D"/>
<path d="M320.628 151.586L320.798 151.756V156.167L320.628 156.379H315.538C312.993 156.252 310.448 155.531 308.243 154.174C305.825 155.616 303.365 156.379 300.862 156.379H296.281C296.255 156.38 296.229 156.375 296.205 156.364C296.181 156.353 296.16 156.336 296.143 156.316C296.127 156.295 296.115 156.271 296.11 156.245C296.104 156.22 296.105 156.193 296.112 156.167V151.756L296.281 151.586H300.226L302.177 151.417L303.874 150.865C302.899 150.063 302.068 149.102 301.414 148.023C299.645 145.383 298.433 142.41 297.851 139.286C300.971 136.671 304.893 135.204 308.964 135.129C312.739 135.129 316.047 135.977 318.889 137.546C318.889 140.388 318.338 143.061 317.15 145.436C315.963 147.811 314.393 149.678 312.484 150.865C313.545 151.417 314.775 151.714 316.047 151.714H320.628V151.586ZM308.412 148.448C309.855 147.7 311.074 146.585 311.945 145.214C312.817 143.843 313.31 142.266 313.375 140.643C311.04 139.82 308.509 139.731 306.122 140.388C305.274 140.558 304.468 140.94 303.831 141.491C304.171 142.933 304.807 144.333 305.528 145.606C306.292 146.878 307.394 147.726 308.412 148.448Z" fill="#28B16D"/>
<path d="M361.984 151.586C362.153 151.586 362.153 151.671 362.153 151.756V156.167L361.984 156.379H348.665C347.491 156.335 346.338 156.048 345.279 155.537C344.221 155.026 343.28 154.302 342.515 153.41C341.03 155.446 338.824 156.379 335.898 156.379H320.373C320.344 156.388 320.312 156.389 320.282 156.382C320.252 156.374 320.225 156.359 320.203 156.337C320.181 156.315 320.166 156.288 320.159 156.258C320.151 156.228 320.152 156.197 320.161 156.167V151.756L320.373 151.586H325.336V139.837H331.189V151.586H334.583C335.855 151.586 336.916 151.204 337.425 150.483C338.103 149.762 338.358 148.532 338.358 147.005V139.794H344.254V147.429L344.169 149.211C344.805 150.059 345.441 150.653 346.078 151.035C346.714 151.417 347.562 151.586 348.58 151.586H351.04V136.783H356.936V151.586H361.984Z" fill="#28B16D"/>
<path d="M361.518 156.379C361.491 156.38 361.465 156.375 361.441 156.364C361.417 156.353 361.396 156.336 361.38 156.316C361.363 156.295 361.352 156.271 361.346 156.245C361.341 156.219 361.341 156.193 361.348 156.167V151.756L361.518 151.586H366.48V126.306H372.376V156.379H361.518ZM380.351 126.306H386.247V156.379H380.351V126.306Z" fill="#28B16D"/>
<path fill-rule="evenodd" clip-rule="evenodd" d="M149.644 108.315C155.439 108.315 161.177 107.174 166.531 104.957C171.885 102.741 176.75 99.4917 180.848 95.3958C184.945 91.2999 188.196 86.4374 190.414 81.0858C192.631 75.7343 193.773 69.9985 193.773 64.2061C193.773 58.4136 192.631 52.6778 190.414 47.3263C188.196 41.9747 184.945 37.1122 180.848 33.0163C176.75 28.9204 171.885 25.6713 166.531 23.4547C161.177 21.238 155.439 20.0971 149.644 20.0971C137.94 20.0971 126.715 24.7442 118.439 33.0163C110.164 41.2883 105.514 52.5076 105.514 64.2061C105.514 75.9045 110.164 87.1238 118.439 95.3958C126.715 103.668 137.94 108.315 149.644 108.315ZM164.005 10.4401C172.538 12.6844 180.416 16.9227 186.99 22.8061C193.563 28.6894 198.645 36.0494 201.815 44.28C204.986 52.5105 206.155 61.3762 205.226 70.1468C204.298 78.9175 201.298 87.3422 196.474 94.7271C191.65 102.112 185.14 108.246 177.48 112.624C169.82 117.001 161.229 119.498 152.415 119.907C143.601 120.316 134.816 118.627 126.783 114.978C118.75 111.329 111.699 105.825 106.211 98.9191C106.128 99.0106 106.041 99.0977 105.949 99.1801L75.4855 116.754C74.9319 117.083 74.3187 117.298 73.6812 117.389C73.0438 117.479 72.3948 117.442 71.7716 117.28C71.1485 117.119 70.5636 116.835 70.0507 116.446C69.5378 116.057 69.1071 115.57 68.7834 115.014L65.1277 108.663C64.4914 107.553 64.3172 106.238 64.6429 105.001C64.9686 103.763 65.768 102.704 66.8685 102.051L97.4196 84.3901L97.7677 84.2161C94.0605 74.6445 93.0767 64.2339 94.9252 54.1377C96.7737 44.0415 101.382 34.654 108.241 27.0151C115.099 19.3762 123.939 13.7842 133.782 10.8586C143.625 7.93309 154.085 7.78822 164.005 10.4401ZM149.644 64.1191C144.421 64.1191 140.243 68.2951 140.243 73.4281V85.2601C140.244 86.1681 139.889 87.0404 139.254 87.6905C138.62 88.3407 137.757 88.7174 136.849 88.7401H124.402C123.842 88.7288 123.289 88.6073 122.776 88.3825C122.263 88.1578 121.799 87.8342 121.411 87.4302C121.023 87.0262 120.719 86.5498 120.515 86.0282C120.311 85.5066 120.213 84.9499 120.224 84.3901V59.1601C120.224 52.8091 120.224 52.2001 122.574 50.8951L144.334 38.2801C146.423 37.1491 147.816 36.2791 149.557 36.2791C151.384 36.2791 152.777 37.1491 154.779 38.2801L176.626 50.8951C179.063 52.2871 179.063 52.8961 179.063 59.1601V84.3901C179.063 85.5288 178.617 86.6223 177.819 87.4356C177.022 88.2489 175.937 88.7173 174.798 88.7401H162.351C161.443 88.7174 160.58 88.3407 159.946 87.6905C159.311 87.0404 158.957 86.1681 158.957 85.2601V73.5151C158.957 68.3821 154.779 64.2061 149.644 64.2061V64.1191ZM625.491 48.5461H614.176C611.304 48.5461 609.389 50.6341 609.389 53.5051V82.6501C609.389 94.2211 603.992 100.92 592.59 100.92H576.488C568.828 100.92 562.561 97.2661 560.037 91.6111C560.472 89.0011 560.734 86.1301 560.734 83.0851V53.5051C560.734 50.6341 558.819 48.5461 556.033 48.5461H544.544C541.759 48.5461 539.757 50.6341 539.757 53.5051V82.6501C539.757 94.2211 534.36 100.92 522.958 100.92H479.351V63.5101C479.351 60.4651 479.351 58.5511 476.566 56.2021C467.462 48.9173 456.01 45.205 444.361 45.7621C420.512 45.7621 402.756 59.2471 402.756 82.1281C402.756 105.879 419.032 117.711 437.92 117.711H458.636V123.192C458.636 134.85 450.541 139.983 439.487 139.983C432.785 139.983 427.911 138.069 424.255 136.242C421.905 135.024 420.077 133.719 418.771 133.719C416.943 133.719 414.942 134.85 414.942 137.373V145.551C414.942 147.378 415.986 149.64 418.597 151.38C422.775 154.425 430.261 156.861 440.531 156.861C460.463 156.861 479.351 144.855 479.351 121.974V117.711H527.397C540.279 117.711 549.941 113.013 555.424 104.139C560.211 113.883 569.96 117.711 579.099 117.711H596.942C617.658 117.711 630.191 105.531 630.191 82.9111V53.5921C630.191 50.7211 628.19 48.6331 625.404 48.6331M290.126 70.3831C292.215 72.4711 295.174 72.3841 297.35 70.2091L305.445 62.1181C307.621 59.9431 307.708 56.8981 305.706 54.8101L297.176 46.3711C295.087 44.2831 292.128 44.3701 289.952 46.5451L281.857 54.6361C279.681 56.8111 279.594 59.8561 281.596 61.8571L290.126 70.3831ZM322.94 70.3831C325.029 72.4711 327.989 72.3841 330.165 70.2091L338.259 62.1181C340.435 59.9431 340.522 56.8981 338.433 54.8101L329.99 46.3711C327.902 44.2831 324.855 44.3701 322.679 46.5451L314.671 54.6361C312.495 56.8111 312.321 59.8561 314.41 61.8571L322.94 70.3831ZM385 48.6331H373.598C370.812 48.6331 368.81 50.7211 368.81 53.5921V82.6501C368.81 94.2211 363.414 100.92 352.012 100.92H264.972C259.923 100.92 254.527 99.1801 251.045 95.9611V52.2001C251.045 49.3291 247.477 47.8501 244.952 49.3291L234.508 55.3321C232.158 56.7241 230.504 58.2031 230.504 61.4221V97.2661C230.504 99.8761 231.2 102.486 233.724 105.183C238.25 110.403 249.217 117.711 265.233 117.711H356.625C377.253 117.711 389.787 105.531 389.787 82.9111V53.5921C389.787 50.7211 387.785 48.6331 385.087 48.6331H385ZM620.269 131.37C618.18 129.282 615.221 129.369 613.045 131.544L604.95 139.635C602.774 141.81 602.687 144.855 604.689 146.856L613.219 155.382C615.308 157.383 618.267 157.296 620.443 155.121L628.538 147.03C630.714 144.855 630.801 141.897 628.712 139.809L620.269 131.37ZM550.724 131.37C548.722 129.282 545.676 129.369 543.5 131.544L535.405 139.635C533.229 141.81 533.142 144.855 535.231 146.856L543.674 155.382C545.763 157.383 548.809 157.296 550.985 155.121L558.993 147.117C561.256 144.855 561.343 141.897 559.254 139.809L550.724 131.37ZM517.997 131.37C515.908 129.282 512.862 129.369 510.686 131.544L502.678 139.635C500.502 141.81 500.415 144.855 502.417 146.856L510.947 155.382C513.036 157.383 515.995 157.296 518.171 155.121L526.266 147.117C528.442 144.855 528.529 141.897 526.44 139.809L517.997 131.37ZM424.081 81.3451C424.081 67.5991 433.133 61.5961 444.013 61.5961C449.671 61.5961 455.241 62.7271 458.723 65.7721V100.92H442.707C431.392 100.92 424.081 94.9171 424.081 81.3451Z" fill="#28B16D"/>
</svg>
