<svg xmlns="http://www.w3.org/2000/svg" width="16" height="16" fill="none"><path fill="#188078" fill-rule="evenodd" d="M13.833 7.61c.298.072.569.199.797.427.303.304.427.681.483 1.1.054.397.054.896.054 1.495V14a.5.5 0 1 1-1 0v-1.833H1.833V14a.5.5 0 0 1-1 0v-3.368c0-.599 0-1.098.054-1.495.056-.419.18-.796.483-1.1.229-.228.499-.355.797-.428V4.833c-.001-.388-.002-.738.17-1.067s.43-.507.712-.702l.047-.033A8.57 8.57 0 0 1 8 1.5a8.57 8.57 0 0 1 4.904 1.531l.047.033c.282.195.54.373.712.702.172.33.171.68.17 1.067v2.776m-1.798-.11h-.868v-.421c0-.178-.01-.417-.145-.634-.14-.224-.356-.336-.533-.411C9.793 5.737 8.935 5.5 8 5.5s-1.793.237-2.49.534c-.176.075-.392.187-.531.411-.135.217-.146.456-.146.634V7.5h-.868q-.435-.002-.798.006V4.907c0-.505.012-.592.057-.678.046-.088.093-.134.442-.376A7.57 7.57 0 0 1 8 2.5c1.613 0 3.107.5 4.334 1.353.349.242.396.288.443.376.044.086.056.173.056.678v2.599q-.364-.008-.798-.006m-6.202 0h4.334v-.421q0-.064-.003-.094l-.067-.031C9.492 6.695 8.769 6.5 8 6.5s-1.492.195-2.097.454l-.067.03-.003.095zm8.334 3.667v-.5c0-.643-.001-1.075-.045-1.397-.041-.307-.113-.439-.2-.526-.086-.087-.218-.158-.526-.2-.322-.043-.753-.044-1.396-.044H4c-.643 0-1.074.001-1.396.044-.308.042-.44.113-.527.2-.086.087-.158.219-.2.526-.043.322-.044.754-.044 1.397v.5z" clip-rule="evenodd"/></svg>