<svg xmlns="http://www.w3.org/2000/svg" width="16" height="16" fill="none"><path fill="#020A0A" d="M4.833 6a.5.5 0 0 1 .5-.5h2a.5.5 0 1 1 0 1h-2a.5.5 0 0 1-.5-.5M4.833 8.667a.5.5 0 0 1 .5-.5h2a.5.5 0 1 1 0 1h-2a.5.5 0 0 1-.5-.5"/><path fill="#020A0A" fill-rule="evenodd" d="m8.886 2.309-3.401-.987c-.743-.216-1.356-.394-1.847-.46-.515-.069-1.003-.03-1.42.297-.412.325-.574.792-.647 1.315C1.5 2.979 1.5 3.635 1.5 4.439v9.728h-.167a.5.5 0 1 0 0 1h13.334a.5.5 0 1 0 0-1H14.5V9.622c0-.453 0-.836-.036-1.149-.039-.331-.123-.635-.326-.909-.204-.273-.47-.441-.777-.573-.29-.125-.656-.235-1.09-.365l-1.104-.331v-.877c0-.481 0-.884-.037-1.211-.04-.346-.125-.66-.33-.942-.208-.284-.481-.457-.797-.592-.296-.126-.672-.235-1.117-.364m2.28 5.03.79.236c.469.141.78.235 1.008.334.217.093.311.171.371.252s.108.193.135.428c.03.248.03.572.03 1.062v4.516h-2.333zm-1 6.828V5.446c0-.517 0-.862-.03-1.127-.029-.252-.08-.375-.144-.464-.064-.087-.16-.168-.381-.262-.234-.1-.552-.193-1.032-.332l-3.333-.968c-.793-.23-1.333-.385-1.74-.44-.395-.052-.558.005-.67.092-.115.09-.216.25-.275.668-.06.427-.061 1.013-.061 1.865v9.689h1.667v-1.53c0-.289 0-.553.029-.769.031-.236.106-.487.312-.693s.457-.28.694-.313c.215-.029.48-.029.768-.029h.726c.289 0 .554 0 .769.03.237.031.487.106.693.312s.281.457.313.693c.029.216.029.48.029.769v1.53zm-5-1.5v1.5H7.5v-1.5c0-.329-.001-.525-.02-.665a.5.5 0 0 0-.028-.118v-.002H7.45l-.007-.004a.5.5 0 0 0-.111-.025 6 6 0 0 0-.665-.02H6c-.328 0-.524.001-.665.02a.5.5 0 0 0-.111.025l-.007.003-.002.001v.002l-.004.007a.5.5 0 0 0-.024.11c-.02.141-.02.337-.02.666" clip-rule="evenodd"/></svg>