<svg xmlns="http://www.w3.org/2000/svg" width="16" height="16" fill="none"><path fill="#020A0A" d="M4 .667c.368 0 .667.298.667.666v.061c.731-.06 1.609-.06 2.647-.06h1.372c1.038 0 1.916 0 2.647.06v-.06a.667.667 0 0 1 1.334 0v.299a2.96 2.96 0 0 1 1.321.817c.52.562.761 1.258.881 2.091.119.819.13 1.848.13 3.125v1a.667.667 0 1 1-1.333 0v-.999q.001-.748-.01-1.345A.33.33 0 0 0 13.323 6H2.676a.33.33 0 0 0-.331.322 92 92 0 0 0-.012 1.84v.343c0 1.47.002 2.51.1 3.298.096.774.275 1.203.558 1.508.275.298.652.482 1.344.583.717.104 1.668.106 3.032.106a.667.667 0 0 1 0 1.333h-.053c-1.299 0-2.346 0-3.17-.12-.86-.124-1.573-.391-2.132-.996-.552-.597-.79-1.346-.903-2.25C1 11.088 1 9.965 1 8.552v-.435c0-1.413 0-2.537.11-3.417.112-.904.35-1.652.902-2.25a2.96 2.96 0 0 1 1.321-.816v-.3c0-.368.299-.666.667-.666"/><path fill="#E8123D" d="M8.667 12.837a.667.667 0 1 1 0-1.333h3v-.396c0-.117 0-.261.014-.379v-.002c.011-.084.059-.468.436-.651.378-.184.711.018.783.061l.313.226c.25.197.593.467.854.72.13.127.264.272.37.426.094.137.23.37.23.658 0 .287-.136.52-.23.657a3 3 0 0 1-.37.425c-.26.254-.604.524-.854.72l-.313.227c-.072.044-.405.245-.783.062-.377-.183-.425-.567-.436-.652v-.002a3 3 0 0 1-.014-.378v-.389z"/></svg>