<svg xmlns="http://www.w3.org/2000/svg" width="40" height="40" fill="none"><g clip-path="url(#a)"><path fill="#020A0A" d="m39.964 38.54-4.766-18.75a1.19 1.19 0 0 0-.5-.696c-1.52-.984-7.83-2.724-13.526-11.093v-.97h5.86c.646 0 1.171-.524 1.171-1.172V1.172C28.203.525 27.678 0 27.031 0H20c-.647 0-1.172.525-1.172 1.172v6.829c-4.038 5.911-8.564 8.604-13.415 11.029a1.18 1.18 0 0 0-.611.76L.036 38.54A1.173 1.173 0 0 0 1.18 40h37.642c.78 0 1.328-.731 1.143-1.46M21.172 2.343h4.687v2.344h-4.687zm-1.175 8.055c3.224 4.388 6.633 6.955 9.246 8.507H10.665a32.9 32.9 0 0 0 9.332-8.507M6.244 23.629c1.832 5.074 1.163 7.231-2.941 11.572zm17.272 14.027h-7.032V25.938h7.032zm2.343 0v-12.89c0-.648-.524-1.172-1.172-1.172h-9.375c-.647 0-1.171.524-1.171 1.172v12.89H4.178c5.61-5.565 6.852-9.114 3.636-16.406h24.372c-3.21 7.277-1.99 10.824 3.636 16.406zm7.896-14.03 2.943 11.578c-4.113-4.348-4.776-6.573-2.943-11.579"/></g><defs><clipPath id="a"><path fill="#fff" d="M0 0h40v40H0z"/></clipPath></defs></svg>