<svg xmlns="http://www.w3.org/2000/svg" width="239" height="75" fill="none"><path fill="#AFAFAF" d="M238.482 73.387a.5.5 0 1 1-.662.75zM0 4.567 4.502.952l.88 5.706zm238.151 69.195-.331.375a271 271 0 0 0-2.187-1.913l.327-.378.327-.378q1.103.954 2.195 1.92zm-6.631-5.682-.32.385a285 285 0 0 0-4.507-3.67l.312-.39.312-.391a291 291 0 0 1 4.523 3.682zm-9.103-7.26-.304.398a285 285 0 0 0-4.651-3.485l.296-.403.296-.404a296 296 0 0 1 4.667 3.497zm-9.388-6.887-.288.41a291 291 0 0 0-4.787-3.295l.279-.415.279-.415a288 288 0 0 1 4.804 3.306zm-9.658-6.503-.271.42a292 292 0 0 0-4.917-3.098l.263-.426.262-.425a289 289 0 0 1 4.933 3.109zm-9.913-6.108-.254.43a289 289 0 0 0-5.037-2.897l.245-.436.245-.436a290 290 0 0 1 5.055 2.908zm-10.151-5.705-.236.441a290 290 0 0 0-5.149-2.692l.227-.446.227-.445a287 287 0 0 1 5.167 2.702zm-10.371-5.29-.219.45a288 288 0 0 0-5.254-2.484l.21-.454.209-.454q2.653 1.221 5.272 2.492zm-10.576-4.87-.2.458a290 290 0 0 0-5.35-2.272l.191-.462.191-.462a291 291 0 0 1 5.368 2.28zm-10.762-4.444-.181.466a292 292 0 0 0-5.437-2.057l.172-.47.172-.47q2.744 1.008 5.456 2.065zM140.668 17l-.163.472a294 294 0 0 0-5.514-1.84l.154-.476.153-.475q2.782.898 5.533 1.846zm-11.081-3.577-.144.479q-1.39-.42-2.788-.825l.14-.48.139-.48q1.403.407 2.798.827zm-2.792-.826-.14.48a302 302 0 0 0-2.796-.798l.135-.481.135-.482q1.402.393 2.805.8zm-8.422-2.314-.125.484a294 294 0 0 0-5.642-1.4l.116-.487.116-.487q2.83.674 5.66 1.406zM107.046 7.59l-.106.488a292 292 0 0 0-5.693-1.176l.097-.49.096-.492q2.856.561 5.712 1.181zM95.62 5.346l-.087.493A291 291 0 0 0 89.8 4.89l.077-.494.077-.494q2.875.447 5.754.952zM84.114 3.561l-.067.495q-2.885-.388-5.766-.718l.056-.497.057-.497q2.892.33 5.787.721zM72.546 2.237l-.047.498a289 289 0 0 0-5.79-.486l.036-.499.037-.498q2.904.214 5.81.488zM60.934 1.38l-.026.5a288 288 0 0 0-5.806-.253l.016-.5.017-.5q2.91.098 5.826.254zM49.297.991l-.006.5q-2.91-.039-5.812-.019l-.003-.5-.004-.5q2.913-.02 5.832.019zm-11.643.08.014.5q-2.909.08-5.808.216l-.023-.5-.024-.499Q34.723.65 37.64.572zm-11.63.55.034.499q-2.903.195-5.795.45l-.044-.498-.043-.498q2.903-.255 5.814-.452zM14.425 2.64l.054.497q-2.892.313-5.772.683l-.064-.496-.063-.496a290 290 0 0 1 5.791-.685zm224.057 70.748a.5.5 0 1 1-.662.75zM0 4.567 4.502.952l.88 5.706zm238.151 69.195-.331.375a271 271 0 0 0-2.187-1.913l.327-.378.327-.378q1.103.954 2.195 1.92zm-6.631-5.682-.32.385a285 285 0 0 0-4.507-3.67l.312-.39.312-.391a291 291 0 0 1 4.523 3.682zm-9.103-7.26-.304.398a285 285 0 0 0-4.651-3.485l.296-.403.296-.404a296 296 0 0 1 4.667 3.497zm-9.388-6.887-.288.41a291 291 0 0 0-4.787-3.295l.279-.415.279-.415a288 288 0 0 1 4.804 3.306zm-9.658-6.503-.271.42a292 292 0 0 0-4.917-3.098l.263-.426.262-.425a289 289 0 0 1 4.933 3.109zm-9.913-6.108-.254.43a289 289 0 0 0-5.037-2.897l.245-.436.245-.436a290 290 0 0 1 5.055 2.908zm-10.151-5.705-.236.441a290 290 0 0 0-5.149-2.692l.227-.446.227-.445a287 287 0 0 1 5.167 2.702zm-10.371-5.29-.219.45a288 288 0 0 0-5.254-2.484l.21-.454.209-.454q2.653 1.221 5.272 2.492zm-10.576-4.87-.2.458a290 290 0 0 0-5.35-2.272l.191-.462.191-.462a291 291 0 0 1 5.368 2.28zm-10.762-4.444-.181.466a292 292 0 0 0-5.437-2.057l.172-.47.172-.47q2.744 1.008 5.456 2.065zM140.668 17l-.163.472a294 294 0 0 0-5.514-1.84l.154-.476.153-.475q2.782.898 5.533 1.846zm-11.081-3.577-.144.479q-1.39-.42-2.788-.825l.14-.48.139-.48q1.403.407 2.798.827zm-2.792-.826-.14.48a302 302 0 0 0-2.796-.798l.135-.481.135-.482q1.402.393 2.805.8zm-8.422-2.314-.125.484a294 294 0 0 0-5.642-1.4l.116-.487.116-.487q2.83.674 5.66 1.406zM107.046 7.59l-.106.488a292 292 0 0 0-5.693-1.176l.097-.49.096-.492q2.856.561 5.712 1.181zM95.62 5.346l-.087.493A291 291 0 0 0 89.8 4.89l.077-.494.077-.494q2.875.447 5.754.952zM84.114 3.561l-.067.495q-2.885-.388-5.766-.718l.056-.497.057-.497q2.892.33 5.787.721zM72.546 2.237l-.047.498a289 289 0 0 0-5.79-.486l.036-.499.037-.498q2.904.214 5.81.488zM60.934 1.38l-.026.5a288 288 0 0 0-5.806-.253l.016-.5.017-.5q2.91.098 5.826.254zM49.297.991l-.006.5q-2.91-.039-5.812-.019l-.003-.5-.004-.5q2.913-.02 5.832.019zm-11.643.08.014.5q-2.909.08-5.808.216l-.023-.5-.024-.499Q34.723.65 37.64.572zm-11.63.55.034.499q-2.903.195-5.795.45l-.044-.498-.043-.498q2.903-.255 5.814-.452zM14.425 2.64l.054.497q-2.892.313-5.772.683l-.064-.496-.063-.496a290 290 0 0 1 5.791-.685z"/></svg>