<svg xmlns="http://www.w3.org/2000/svg" width="246" height="53" fill="none"><path fill="#AFAFAF" d="M245.27 41.93a.5.5 0 0 0-.269-.962zM.624 0 3.1 5.215 6.38.462zm244.512 41.45-.135-.481q-1.4.39-2.802.768l.13.483.13.483q1.408-.379 2.811-.771zm-8.444 2.226-.121-.485q-2.818.698-5.655 1.34l.11.487.111.488q2.846-.645 5.675-1.345zm-11.357 2.57-.1-.49q-2.844.585-5.705 1.11l.091.493.09.491q2.87-.528 5.725-1.114zm-11.45 2.11-.081-.493q-2.865.468-5.745.88l.071.495.071.494q2.89-.413 5.764-.883zm-11.527 1.647-.061-.497q-2.88.352-5.775.648l.051.498.05.497q2.906-.296 5.796-.65zm-11.584 1.18-.04-.498q-2.893.237-5.797.415l.031.499.031.499q2.913-.18 5.816-.416zm-11.621.714-.021-.5q-2.899.12-5.808.18l.01.5.011.5q2.92-.06 5.828-.18zm-11.641.245v-.5q-2.901.002-5.812-.053l-.009.5-.01.5q2.92.055 5.832.053zm-11.641-.223.02-.5q-2.9-.113-5.805-.285l-.03.5-.029.498q2.915.172 5.825.287zm-11.623-.688.04-.498a292 292 0 0 1-5.79-.517l-.05.498-.049.497q2.908.289 5.81.519zm-11.586-1.15.059-.496q-2.88-.343-5.765-.745l-.069.495-.069.495q2.895.403 5.785.748zm-11.532-1.606.078-.494q-1.434-.229-2.869-.472l-.083.493-.084.493q1.44.244 2.879.474zM118.256 48l.083-.493q-1.434-.243-2.864-.5l-.088.492-.089.492q1.434.258 2.874.502zm-8.588-1.586.098-.49a293 293 0 0 1-5.689-1.197l-.108.489-.107.488q2.841.627 5.708 1.2zm-11.37-2.508.117-.486A293 293 0 0 1 92.778 42l-.127.483-.127.483q2.816.74 5.656 1.426zm-11.262-2.958.136-.481a291 291 0 0 1-5.575-1.644l-.146.479-.146.478q2.784.85 5.594 1.649zM75.9 37.545l.155-.476a289 289 0 0 1-5.504-1.865l-.165.472-.165.472q2.748.962 5.523 1.872zm-10.99-3.848.175-.469a289 289 0 0 1-5.424-2.084l-.184.465-.184.465q2.707 1.071 5.443 2.091zM54.086 29.41l.193-.461a289 289 0 0 1-5.336-2.302l-.203.457-.203.457q2.663 1.18 5.355 2.31zM43.44 24.692l.212-.453a288 288 0 0 1-5.24-2.515l-.22.449-.221.449q2.613 1.286 5.257 2.523zm-10.445-5.144.23-.444q-2.584-1.338-5.134-2.724l-.239.44-.239.439a290 290 0 0 0 5.152 2.733zm-10.23-5.56.248-.435a288 288 0 0 1-5.02-2.929l-.256.43-.257.429q2.502 1.493 5.037 2.939zm-9.997-5.97.265-.423a289 289 0 0 1-4.898-3.129l-.274.419-.273.418a290 290 0 0 0 4.915 3.14zM245.27 41.932a.5.5 0 0 0-.269-.963zM.624 0 3.1 5.214 6.38.462zm244.512 41.448-.135-.481q-1.4.39-2.802.768l.13.483.13.483q1.408-.379 2.811-.771zm-8.444 2.226-.121-.485q-2.818.698-5.655 1.34l.11.487.111.488q2.846-.645 5.675-1.345zm-11.357 2.57-.1-.49q-2.844.585-5.705 1.11l.091.493.09.491q2.87-.528 5.725-1.114zm-11.45 2.11-.081-.493q-2.865.468-5.745.88l.071.495.071.494q2.89-.413 5.764-.883zm-11.527 1.647-.061-.497q-2.88.352-5.775.648l.051.498.05.497q2.906-.296 5.796-.65zm-11.584 1.18-.04-.498q-2.893.237-5.797.415l.031.499.031.499q2.913-.18 5.816-.416zm-11.621.714-.021-.5q-2.899.12-5.808.18l.01.5.011.5q2.92-.06 5.828-.18zm-11.641.245v-.5q-2.901.002-5.812-.053l-.009.5-.01.5q2.92.055 5.832.053zm-11.641-.223.02-.5q-2.9-.113-5.805-.285l-.03.5-.029.498q2.915.172 5.825.287zm-11.623-.688.04-.498a292 292 0 0 1-5.79-.517l-.05.498-.049.497q2.908.289 5.81.519zm-11.586-1.15.059-.496q-2.88-.343-5.765-.745l-.069.495-.069.495q2.895.403 5.785.748zm-11.532-1.606.078-.494q-1.434-.229-2.869-.472l-.083.493-.084.493q1.44.244 2.879.474zM118.256 48l.083-.493q-1.434-.243-2.864-.5l-.088.492-.089.492q1.434.258 2.874.502zm-8.588-1.586.098-.49a293 293 0 0 1-5.689-1.197l-.108.489-.107.488q2.841.627 5.708 1.2zm-11.37-2.508.117-.486A293 293 0 0 1 92.778 42l-.127.483-.127.483q2.816.74 5.656 1.426zm-11.262-2.958.136-.481a291 291 0 0 1-5.575-1.644l-.146.479-.146.478q2.784.85 5.594 1.649zM75.9 37.545l.155-.476a289 289 0 0 1-5.504-1.865l-.165.472-.165.472q2.748.962 5.523 1.872zm-10.99-3.848.175-.469a289 289 0 0 1-5.424-2.084l-.184.465-.184.465q2.707 1.071 5.443 2.091zM54.086 29.41l.193-.461a289 289 0 0 1-5.336-2.302l-.203.457-.203.457q2.663 1.18 5.355 2.31zM43.44 24.692l.212-.453a288 288 0 0 1-5.24-2.515l-.22.449-.221.449q2.613 1.286 5.257 2.523zm-10.445-5.144.23-.444q-2.584-1.338-5.134-2.724l-.239.44-.239.439a290 290 0 0 0 5.152 2.733zm-10.23-5.56.248-.435a288 288 0 0 1-5.02-2.929l-.256.43-.257.429q2.502 1.493 5.037 2.939zm-9.997-5.97.265-.423a289 289 0 0 1-4.898-3.129l-.274.419-.273.418a290 290 0 0 0 4.915 3.14z"/></svg>