<svg xmlns="http://www.w3.org/2000/svg" width="500" height="401" fill="none"><path fill="#EBEBEB" d="M426.27 54.259s-7.248-5.573-17.821 11.961c-10.572 17.534-14.835 27.777-14.835 27.777s-2.723 3.638-5.164.959-5.523-10.004-10.065-9.049c-4.711.991-6.599 6.034-6.259 13.668s.471 24.386.477 25.901c.006 1.487-.997 3.606-2.952 2.047s-12.843-15.575-19.185-10.01-1.9 26.675-1.459 28.992-.073 3.257-1.193 3.742c-1.121.486-4.336-4.571-7.596-8.43s-7.717-7.764-11.107-4.247-5.497 18.969 7.477 45.237l6.808 11.778 13.663.216c29.268-1.319 41.783-10.624 43.226-15.291 1.444-4.667-4.127-6.685-9.081-7.677s-10.934-1.367-11.05-2.583.459-2.12 2.701-2.852 22.874-7.034 24.686-15.274-15.719-11.009-18.028-11.969-.937-2.861.368-3.574c1.329-.726 16.064-8.698 22.913-12.086s10.355-7.476 8.948-12.079c-1.356-4.439-9.259-3.602-12.784-4.446-3.524-.845-1.653-4.986-1.653-4.986s6.913-8.678 17.165-26.401 1.643-21.431 1.643-21.431"/><path fill="#E0E0E0" d="M416.775 69.946s-.06.133-.196.382l-.613 1.1-2.392 4.21c-2.081 3.654-5.131 8.919-8.923 15.411-7.58 12.987-18.202 30.838-29.996 50.516-11.798 19.684-22.461 37.512-30.106 50.459l-9.038 15.341-2.46 4.169-.649 1.079c-.148.242-.234.36-.234.36s.06-.133.196-.382l.613-1.1 2.392-4.209c2.081-3.653 5.13-8.918 8.923-15.41 7.58-12.987 18.203-30.84 30.002-50.525 11.794-19.678 22.456-37.503 30.101-50.45l9.039-15.342 2.461-4.17.649-1.079c.145-.242.231-.36.231-.36"/><path fill="#E0E0E0" d="M382.284 96.328c.029-.006.125.331.276.945.154.614.35 1.507.582 2.613.46 2.214 1.017 5.287 1.571 8.689l1.385 8.715.436 2.637c.106.622.151.97.122.976s-.128-.329-.284-.943a61 61 0 0 1-.569-2.617c-.438-2.219-.955-5.298-1.508-8.7l-1.447-8.702-.45-2.636c-.1-.623-.143-.971-.114-.977M387.886 121.234c-.024-.114 6.261-1.542 14.037-3.188 7.778-1.647 14.102-2.889 14.126-2.775s-6.26 1.542-14.038 3.189c-7.777 1.645-14.101 2.888-14.125 2.774M368.408 150.641c.003-.029.361-.019 1.005.025l2.723.204c2.298.169 5.474.388 8.986.502 3.513.122 6.696.122 9 .103l2.73-.02c.645-.001 1.003.012 1.004.041s-.354.072-.997.123c-.644.051-1.576.109-2.729.154-2.306.095-5.499.143-9.022.021a124 124 0 0 1-8.999-.627 74 74 0 0 1-2.713-.338c-.64-.094-.991-.16-.988-.188M358.383 129.229c.026-.013.195.272.477.797l1.16 2.242a491 491 0 0 1 3.682 7.467 482 482 0 0 1 3.571 7.522l1.039 2.301c.237.547.355.856.329.869s-.195-.272-.477-.797l-1.16-2.242a487 487 0 0 1-3.683-7.469 497 497 0 0 1-3.571-7.521l-1.039-2.301c-.236-.547-.355-.856-.328-.868M337.888 153.004c.026-.013.239.353.6 1.026l1.497 2.868c1.247 2.43 2.944 5.8 4.795 9.533a819 819 0 0 1 4.685 9.59l1.376 2.928c.317.695.479 1.086.453 1.099s-.238-.353-.6-1.026l-1.497-2.868c-1.247-2.43-2.944-5.8-4.796-9.535a803 803 0 0 1-4.684-9.588l-1.376-2.928c-.316-.695-.479-1.086-.453-1.099M351.157 179.311c.002-.029.455-.028 1.273 0l3.461.134c2.922.11 6.959.246 11.419.271 4.462.031 8.5-.047 11.423-.124l3.462-.088c.818-.018 1.271-.014 1.273.015s-.449.081-1.264.149c-.816.068-1.998.148-3.46.223-2.923.153-6.968.279-11.438.248-4.468-.024-8.51-.208-11.431-.395-1.46-.097-2.642-.187-3.456-.268-.814-.079-1.264-.136-1.262-.165M63.337 87.775l-5.748.031 1.38 255.519 5.748-.031zM77.104 87.7l-5.748.032 1.38 255.519 5.747-.031zM197.374 87.052l-5.748.03 1.38 255.52 5.748-.031zM211.128 86.995l-5.748.03 1.354 255.519 5.748-.03z"/><path fill="#E0E0E0" d="m211.14 86.977-153.551.83.031 5.83 153.551-.829zM211.423 139.437l-153.55.829.009 1.741 153.55-.829zM211.691 188.883l-153.551.829.01 1.742 153.55-.829zM211.957 238.328l-153.55.829.009 1.742 153.551-.829zM212.225 287.774l-153.551.829.01 1.741 153.55-.829z"/><path fill="#EBEBEB" d="m148.055 259.265-27.201.147.156 28.855 27.201-.147z"/><path fill="#F5F5F5" d="m175.128 259.119-27.202.147.156 28.855 27.202-.147z"/><path fill="#E0E0E0" d="M120.88 267.314c18.074.178 36.201.028 54.274-.261.272-.004.271-.422-.002-.424-18.074-.095-36.203-.051-54.273.321-.235.006-.233.362.001.364"/><path fill="#EBEBEB" d="m140.192 150.645-19.923.108.114 21.134 19.923-.108z"/><path fill="#F5F5F5" d="m160.02 150.538-19.923.108.114 21.134 19.923-.108z"/><path fill="#E0E0E0" d="M120.286 156.591c13.24.109 26.512.032 39.751-.183.272-.004.271-.422-.002-.423-13.24-.073-26.513-.008-39.751.243-.233.004-.232.361.002.363"/><path fill="#EBEBEB" d="m144.044 171.427-36.197.195.093 17.223 36.197-.195z"/><path fill="#F5F5F5" d="m180.069 171.232-36.197.196.093 17.223 36.197-.196z"/><path fill="#E0E0E0" d="M107.859 176.413c24.046.272 48.176.028 72.221-.357.272-.004.271-.422-.002-.423-24.048-.127-48.179-.113-72.221.417-.233.005-.231.36.002.363"/><path fill="#EBEBEB" d="m117.922 104.58-9.092.05.192 35.452 9.092-.05z"/><path fill="#E0E0E0" d="m108.705 114.215-9.092.049.14 25.776 9.091-.049zM132.198 111.146l-14.127.076.155 28.73 14.127-.076z"/><path fill="#EBEBEB" d="m136.456 111.135-4.488.023.152 28.73 4.488-.023z"/><path fill="#E0E0E0" d="m140.994 117.739-4.488.024.119 22.091 4.488-.024zM115.979 208.389l-8.412-3.449-12.61 30.753 8.411 3.449z"/><path fill="#EBEBEB" d="m123.878 203.566-9.092.049.192 35.452 9.092-.049z"/><path fill="#E0E0E0" d="m142.7 210.107-14.127.076.155 28.73 14.127-.076z"/><path fill="#EBEBEB" d="m128.513 199.54-3.091.017.212 39.374 3.091-.017z"/><path fill="#F5F5F5" d="m125.454 205.692-1.545.008.18 33.239 1.545-.008zM142.979 237.362l.008 1.545 33.239-.179-.008-1.545z"/><path fill="#EBEBEB" d="m179.03 227.984-36.232.196.049 9.191 36.232-.196z"/><path fill="#E0E0E0" d="m171.843 218.762-29.096.157.05 9.191 29.096-.157z"/><path fill="#263238" d="M478.439 343.367c0 .144-101.341.26-226.323.26-125.025 0-226.343-.117-226.343-.26s101.318-.26 226.343-.26c124.982-.001 226.323.116 226.323.26"/><path fill="#455A64" d="M332.269 343.039H167.731c-6.378 0-11.549-5.171-11.549-11.549V64.966c0-6.379 5.171-11.549 11.549-11.549H332.27c6.379 0 11.549 5.171 11.549 11.549V331.49c0 6.379-5.171 11.549-11.55 11.549"/><path fill="#263238" d="M255.75 329.573c0 4.277-3.223 7.744-7.2 7.744-3.976 0-7.2-3.467-7.2-7.744s3.223-7.744 7.2-7.744c3.976 0 7.2 3.467 7.2 7.744M277.041 64.958h-54.083a1.215 1.215 0 0 1-1.215-1.215v-.769c0-.671.544-1.215 1.215-1.215h54.083c.671 0 1.215.544 1.215 1.215v.769c0 .67-.544 1.215-1.215 1.215M338.383 70.037H162.58v244.35h175.803z"/><path fill="#fff" d="M292.743 289.171s.22-.029.647-.059c.43-.007 1.059-.103 1.88-.247.807-.2 1.813-.46 2.902-1.01a12.3 12.3 0 0 0 3.411-2.408 12.4 12.4 0 0 0 2.856-4.353c.703-1.784 1.012-3.886.814-6.121-.211-2.214-1.027-4.56-2.596-6.55a12.5 12.5 0 0 0-6.525-4.381c-.673-.2-1.374-.306-2.084-.404a28 28 0 0 0-2.186-.064l-4.56.008-9.674.015-21.345.024-48.91.02c-2.124.022-4.233.554-6.066 1.578-1.814 1.044-3.404 2.493-4.481 4.264-1.1 1.751-1.766 3.761-1.873 5.799-.141 2.047.145 4.087.907 5.947.772 1.851 1.998 3.481 3.49 4.761a12.55 12.55 0 0 0 5.177 2.593c1.87.484 3.826.305 5.756.341l5.707.005 39.946.056 26.931.083 7.322.049 1.904.026c.431.01.65.028.65.028s-.22.018-.649.027l-1.904.026-7.322.049-26.931.083-39.946.056-5.707.005-2.904.002c-.494-.029-.994-.034-1.489-.089-.49-.09-.995-.116-1.477-.26a13.05 13.05 0 0 1-5.389-2.692c-1.555-1.329-2.831-3.024-3.637-4.951-.797-1.93-1.095-4.076-.95-6.176.111-2.122.803-4.217 1.948-6.042 1.122-1.845 2.775-3.356 4.666-4.443 1.909-1.068 4.108-1.623 6.319-1.645l48.91.02 21.345.024 9.674.015 4.56.008c.74-.013 1.488.028 2.225.075.732.103 1.452.216 2.145.424a12.8 12.8 0 0 1 6.687 4.533c1.601 2.05 2.423 4.461 2.624 6.727.188 2.27-.143 4.427-.873 6.238a12.6 12.6 0 0 1-2.944 4.406 12.4 12.4 0 0 1-3.487 2.404c-1.109.543-2.13.789-2.947.974-.832.129-1.466.207-1.898.197-.429.012-.649.005-.649.005"/><path fill="#fff" d="m227.934 274.583-.621.774c-.46-.495-1.117-.802-1.756-.802-1.261 0-2.251.973-2.251 2.215s.99 2.224 2.251 2.224c.63 0 1.278-.288 1.756-.747l.63.702c-.64.63-1.549 1.035-2.439 1.035-1.846 0-3.277-1.396-3.277-3.205 0-1.791 1.449-3.169 3.313-3.169.89.001 1.782.37 2.394.973M235.044 276.788c0 1.801-1.459 3.196-3.34 3.196-1.882 0-3.341-1.396-3.341-3.196 0-1.81 1.459-3.178 3.341-3.178 1.881.001 3.34 1.379 3.34 3.178m-5.6 0c0 1.252 1.035 2.242 2.268 2.242s2.241-.99 2.241-2.242a2.22 2.22 0 0 0-2.241-2.224c-1.242.001-2.268.973-2.268 2.224M240.597 279.94l-3.358-4.52v4.52h-1.063v-6.302h1.044l3.377 4.528v-4.528h1.044v6.302zM244.367 274.592v1.818h2.863v.945h-2.863v2.584h-1.063v-6.302h4.232l-.009.954zM248.479 279.94v-6.302h1.063v6.302zM254.041 278.032c-.09.009-.188.009-.288.009h-1.494v1.899h-1.063v-6.302h2.557c1.611 0 2.539.783 2.539 2.151 0 1.009-.468 1.72-1.306 2.044l1.414 2.106h-1.207zm-.288-.946c.973 0 1.53-.414 1.53-1.27 0-.828-.558-1.225-1.53-1.225h-1.494v2.494h1.494zM263.383 279.94l-.009-4.708-1.989 4.051h-.693l-1.99-4.051v4.708h-.999v-6.302h1.261l2.079 4.186 2.071-4.186h1.251v6.302zM267.09 274.592v1.701h3.079v.955h-3.079v1.737h3.547v.954h-4.609v-6.302h4.502v.954zM274.517 273.638c1.891 0 3.259 1.323 3.259 3.15 0 1.819-1.377 3.151-3.286 3.151h-2.557v-6.302zm-1.521 5.348h1.549c1.224 0 2.16-.909 2.16-2.188 0-1.288-.963-2.206-2.206-2.206h-1.503z"/><path fill="#188078" d="m182.551 155.225 133.16-.967 3.711 90.532-137.882-1.278z"/><path fill="#188078" d="m182.551 155.225 67.603-54.702 65.557 53.735"/><path fill="#000" d="m182.551 155.225 67.603-54.702 65.557 53.735" opacity=".3"/><path fill="#263238" d="M181.54 243.512c-.166-.156 10.494-11.795 23.808-25.994 13.318-14.204 24.245-25.588 24.411-25.432s-10.492 11.793-23.81 25.996c-13.313 14.199-24.242 25.586-24.409 25.43M319.422 244.79c-.17.151-10.552-11.253-23.185-25.469-12.638-14.221-22.741-25.868-22.571-26.019s10.55 11.251 23.187 25.471c12.634 14.217 22.74 25.866 22.569 26.017"/><path fill="#000" d="m315.711 154.258-66.866 53.416-66.294-52.449" opacity=".5"/><path fill="#EBEBEB" d="m189.257 160.172-.194-38.736 116.626-2.853 1.273 42.38-58.124 46.012z"/><path fill="#188078" d="M250.466 193.059q-1.654 0-3.324-.189c-7.701-.872-14.601-4.691-19.428-10.754-4.828-6.061-7.006-13.641-6.134-21.341 1.801-15.897 16.2-27.368 32.096-25.562 7.7.872 14.6 4.691 19.428 10.753s7.006 13.641 6.134 21.342-4.691 14.6-10.754 19.428c-5.187 4.131-11.484 6.323-18.018 6.323m-.077-57.032c-14.047 0-26.196 10.579-27.815 24.861-.842 7.435 1.261 14.753 5.923 20.607 4.662 5.852 11.323 9.54 18.758 10.382 7.433.847 14.753-1.261 20.607-5.922 5.852-4.662 9.54-11.323 10.382-18.759.843-7.435-1.26-14.753-5.922-20.606-4.661-5.853-11.323-9.54-18.759-10.383a28 28 0 0 0-3.174-.18"/><path fill="#188078" d="m230.688 168.071 4.848-5.942 11.343 8.194 18.432-21.725 5.557 4.887-23.705 27.321z"/><path fill="#263238" d="M375.928 207.339c.096.746 1.119 1.096 1.767.715s.895-1.23.786-1.974-.505-1.41-.892-2.055c1.167.659 2.867-.055 3.214-1.348.348-1.294-.766-2.763-2.106-2.778.937-.193 1.897-.465 2.619-1.092.722-.628 1.137-1.7.744-2.572s-1.754-1.208-2.35-.46c.494-.323 1.003-.659 1.329-1.151s.424-1.186.073-1.661c-.406-.549-1.237-.592-1.875-.346s-1.165.71-1.764 1.038c-1.427.78-3.28.71-4.644-.176l-3.733 3.086zM355.992 190.414c-2.076.642-3.676 2.605-3.886 4.767-.077.791.039 1.649.556 2.253.619.725 1.695.923 2.627.718s1.749-.749 2.517-1.314c1.082-.796 2.196-1.793 2.352-3.128.153-1.309-.75-2.604-1.96-3.125-1.21-.522-2.64-.355-3.828.216"/><path fill="#263238" d="M359.234 208.882c-.387 1.307-.848 2.617-1.654 3.716s-2.011 1.971-3.368 2.095-2.826-.65-3.246-1.946c-.226.776-.868 1.436-1.658 1.607s-1.688-.202-2.059-.919-.119-1.717.586-2.112c-.802.452-1.8.908-2.594.441-.344-.203-.582-.556-.704-.936-.404-1.256.378-2.574 1.241-3.572s1.891-1.983 2.107-3.285c.173-1.045-.218-2.088-.474-3.115-.286-1.146-.406-2.356-.145-3.508s.941-2.242 1.97-2.821 2.417-.561 3.328.19l.17 1.703z"/><path fill="#EB996E" d="M374.779 228.699s2.335 24.65.374 27.861-25.958 36.763-25.958 36.763l.056.04c-.466.192-.962.389-1.525.594a7.8 7.8 0 0 1-2.605.461c-1.077.008-2.509-.04-3.284-.31-.96-.334-1.826.673-1.302 1.432.524.76 3.147 1.743 6.403 1.426s-.404 3.303-1.714 4.647c-1.31 1.343-5.169 5.689-5.075 6.419.138 1.07 1.31 1.12 2.587-.252 1.293-1.389 5.397-5.216 6.073-4.49.666.715-6.098 7.462-6.098 7.462s-1.679 1.208-.926 2.074c1.359 1.561 8.02-6.142 8.636-6.89.428-.52 1.191.242.701.776-.504.55-6.903 6.573-5.535 8.175 1.049 1.229 5.539-6.284 7.56-6.796s-3.983 5.352-2.932 6.485c.391.422.742.682 3.704-3.183 1.662-2.169 4.355-6.767 6.451-10.484 3.153-3.408 34.197-37.125 34.435-43.42.251-6.633 1.439-29.067 1.439-29.067z"/><path fill="#188078" d="m337.745 338.418-.284-9.151 17.138-.641.557 13.383-1.06.108c-4.719.439-24.026 1.901-27.223 1.061-3.566-.936 10.872-4.76 10.872-4.76"/><path fill="#fff" d="M330.7 340.54s-5.048 1.663-4.38 2.48 20.234.073 28.836-1.01l-.042-.382-22.815 1.062s-.6-2.145-1.599-2.15" opacity=".4"/><path fill="#263238" d="M355.383 341.608c0 .007-.101.022-.293.043l-.844.083-3.11.252c-2.627.195-6.26.415-10.277.571-4.018.155-7.658.216-10.292.226l-3.12-.011-.848-.018c-.194-.006-.296-.013-.296-.02s.102-.015.295-.022l.848-.021 3.118-.055c2.633-.047 6.27-.131 10.286-.286 4.014-.156 7.647-.353 10.275-.51l3.113-.186.847-.044c.195-.009.297-.01.298-.002"/><path fill="#263238" d="M332.314 342.956c-.063.01-.14-.732-.638-1.465-.486-.742-1.141-1.098-1.107-1.152.01-.052.757.243 1.28 1.037.531.788.517 1.59.465 1.58M337.272 340.198c-.047.033-.3-.253-.565-.637s-.441-.722-.394-.755.3.253.565.637c.264.385.441.723.394.755M338.631 339.412c-.037.044-.314-.126-.619-.38s-.523-.496-.487-.54.314.126.62.38c.305.254.523.496.486.54M339.447 337.761c.003.057-.396.124-.89.148s-.897-.003-.9-.06.396-.123.89-.148.897.003.9.06M339.706 336.609c.021.05-.408.264-.987.328-.579.068-1.045-.044-1.036-.098.007-.06.462-.044 1.012-.108.551-.061.99-.178 1.011-.122"/><path fill="#263238" d="M336.634 338.726c.002.023-.419.091-1.102.035a6.5 6.5 0 0 1-1.182-.214c-.217-.068-.444-.117-.682-.251-.112-.069-.237-.166-.286-.332-.052-.163.029-.352.15-.446 1.032-.585 2.108-.033 2.52.496.226.27.334.536.387.721.051.187.052.294.04.296-.038.016-.091-.431-.537-.92a2 2 0 0 0-.964-.576c-.393-.1-.948-.111-1.309.139-.17.136-.094.339.105.448.186.11.423.172.629.241.422.128.814.206 1.145.252.664.092 1.084.077 1.086.111"/><path fill="#263238" d="M336.35 338.791c-.015.013-.188-.262-.156-.76.018-.244.096-.536.27-.816.185-.252.422-.598.896-.596.257.023.392.309.359.496a1.2 1.2 0 0 1-.169.499c-.153.281-.33.511-.495.686-.333.35-.6.49-.613.47-.02-.026.212-.206.502-.566.144-.18.3-.407.436-.678.143-.238.23-.66-.048-.7-.277-.016-.548.269-.708.495-.164.245-.25.505-.284.728-.067.451.047.732.01.742M354.855 336.932c-.002.039-.493-.028-1.264.093a5.55 5.55 0 0 0-2.719 1.243 5.54 5.54 0 0 0-1.634 2.505c-.234.745-.24 1.239-.279 1.236-.013 0-.023-.123-.014-.346s.05-.544.152-.931a5.3 5.3 0 0 1 1.639-2.621 5.3 5.3 0 0 1 2.835-1.232 4.5 4.5 0 0 1 .943-.012c.222.024.342.052.341.065M352.807 329.868c.057-.003.184 1.57.282 3.514.099 1.944.132 3.522.075 3.525s-.184-1.57-.282-3.514c-.099-1.944-.132-3.522-.075-3.525M346.717 340.519c.009.053-1.1.279-2.492.343-1.392.068-2.518-.051-2.514-.106.003-.06 1.125-.034 2.504-.102 1.379-.063 2.493-.195 2.502-.135"/><path fill="#263238" d="M350.075 340.387c.043.04-.083.241-.187.502-.108.26-.158.491-.218.49-.056.002-.099-.267.025-.568.122-.302.341-.465.38-.424M351.282 338.763c.042.039-.062.221-.232.408s-.343.306-.385.267.061-.221.232-.408c.17-.186.342-.306.385-.267M353.066 337.975c-.01.059-.238.065-.486.163-.251.092-.425.239-.471.202-.047-.03.088-.279.397-.396.308-.119.575-.023.56.031M354.342 337.586c.023.053-.072.144-.212.205s-.273.067-.296.014.072-.144.212-.205c.14-.06.273-.066.296-.014"/><path fill="#000" d="m354.814 336.474-17.13.365-.052-2.064 17.277.609z" opacity=".3"/><path fill="#263238" d="m402.275 276.341-54.183-.741s-15.085 1.442-15.085 21.037l1.912 38.674h23.083l-1.575-37.061c1.295.016 18.775.582 18.775.582z"/><path fill="#455A64" d="M334.92 335.311c-.018 0-.043-.23-.073-.669l-.108-1.921-.407-7.063c-.355-5.963-1.032-14.19-1.48-23.303-.161-4.551-.507-8.914.035-12.883.147-.988.312-1.941.595-2.86.288-.911.672-1.755 1.103-2.536a14.7 14.7 0 0 1 3.143-3.799c1.146-.989 2.329-1.692 3.4-2.225 1.092-.493 2.064-.838 2.878-1.046l1.085-.261.807-.124c.437-.064.666-.088.669-.071s-.222.077-.65.174l-.792.172-1.063.305c-.797.235-1.746.604-2.806 1.112-1.039.548-2.183 1.258-3.286 2.24a14.6 14.6 0 0 0-3.009 3.734 13.6 13.6 0 0 0-1.042 2.458c-.262.873-.422 1.826-.558 2.791-.508 3.887-.153 8.245.009 12.794.447 9.1 1.066 17.334 1.327 23.307.143 2.986.21 5.404.242 7.076l.01 1.925c-.001.441-.011.672-.029.673"/><path fill="#188078" d="m438.326 338.435-9.135.606-1.244-17.104 13.355-1.028.145 1.056c.605 4.701 2.746 23.944 2.019 27.169-.81 3.595-5.14-10.699-5.14-10.699"/><path fill="#fff" d="M440.696 345.401s1.84 4.987 2.632 4.29c.793-.696-.639-20.224-2.025-28.783l-.38.055 1.864 22.764s-2.122.675-2.091 1.674" opacity=".4"/><path fill="#263238" d="M440.892 320.696c.007-.001.025.1.053.292l.113.841.362 3.099c.287 2.619.635 6.242.933 10.25.297 4.01.486 7.645.588 10.278l.099 3.118.012.848c.001.194-.003.296-.01.296s-.018-.101-.032-.294l-.051-.847-.165-3.114c-.14-2.63-.352-6.261-.648-10.269-.298-4.007-.623-7.63-.872-10.251l-.296-3.105-.074-.845c-.014-.194-.019-.296-.012-.297"/><path fill="#263238" d="M443.052 343.703c.013.063-.726.166-1.441.69-.724.511-1.057 1.179-1.112 1.147-.052-.009.216-.765.991-1.316.768-.559 1.571-.573 1.562-.521M440.123 338.844c.034.046-.242.309-.617.587s-.706.467-.741.42c-.034-.046.242-.309.616-.587.376-.277.708-.466.742-.42M439.288 337.513c.045.035-.115.318-.358.632s-.477.54-.522.505.115-.318.358-.632.477-.54.522-.505M437.611 336.756c.057-.005.137.391.179.884s.029.897-.028.901-.137-.391-.179-.884c-.042-.492-.03-.896.028-.901M436.449 336.539c.05-.023.278.398.363.974.088.577-.008 1.046-.062 1.038-.06-.005-.06-.46-.144-1.008-.08-.547-.213-.982-.157-1.004"/><path fill="#263238" d="M438.672 339.534c.023-.003.106.415.074 1.1a6.5 6.5 0 0 1-.172 1.189c-.061.22-.101.448-.227.69-.065.114-.158.242-.322.297-.161.057-.353-.017-.451-.134-.621-1.011-.108-2.106.407-2.536.262-.235.524-.353.707-.412.185-.058.292-.062.295-.05.017.038-.427.106-.901.569-.232.229-.45.565-.541.984-.087.396-.077.951.185 1.303.142.165.342.082.444-.12.103-.19.157-.429.218-.637.113-.426.177-.82.212-1.154.068-.667.039-1.087.072-1.089"/><path fill="#263238" d="M438.748 339.815c.013.015-.256.198-.754.183a1.8 1.8 0 0 1-.825-.241c-.258-.176-.613-.401-.627-.874.014-.257.295-.403.483-.376.194.006.366.08.505.151.286.143.522.312.703.47.362.32.511.583.491.596-.025.021-.213-.205-.583-.482a4 4 0 0 0-.693-.412c-.243-.134-.668-.206-.698.073-.006.277.288.538.52.69.25.155.514.232.737.258.452.051.73-.072.741-.036M436.238 321.388c.039.001-.011.493.137 1.26a5.54 5.54 0 0 0 1.338 2.674 5.54 5.54 0 0 0 2.561 1.544c.752.207 1.247.196 1.245.235 0 .013-.122.028-.345.026a4.5 4.5 0 0 1-.936-.119 5.3 5.3 0 0 1-2.677-1.546 5.3 5.3 0 0 1-1.331-2.79 4.5 4.5 0 0 1-.045-.942c.016-.222.041-.343.053-.342M429.251 323.683c-.005-.057 1.563-.239 3.502-.406 1.94-.167 3.516-.256 3.52-.199s-1.563.239-3.502.406-3.515.256-3.52.199M440.11 329.394c.053-.011.318 1.09.431 2.478.117 1.389.037 2.518-.017 2.516-.06-.001-.074-1.123-.19-2.499-.112-1.375-.284-2.484-.224-2.495"/><path fill="#263238" d="M439.859 326.043c.039-.045.243.074.508.169.263.099.496.141.497.2.004.055-.264.108-.569-.005-.305-.111-.475-.325-.436-.364M438.194 324.895c.037-.044.223.054.416.217.192.164.318.332.281.376s-.223-.054-.416-.217c-.192-.164-.318-.333-.281-.376M437.343 323.14c.059.008.074.235.18.48.101.247.254.416.218.464-.028.048-.282-.078-.41-.383s-.042-.575.012-.561M436.911 321.878c.052-.025.147.067.212.205s.076.27.025.294c-.052.025-.147-.067-.212-.205-.066-.138-.077-.27-.025-.294"/><path fill="#000" d="m435.782 321.445.968 17.107-2.061.124v-17.288z" opacity=".3"/><path fill="#263238" d="m382.299 321.521.012.016s46.164-25.208 51.395-33.412c5.394-8.459 1.546-16.401 1.546-16.401l-38.85 5.184-27.627 27.674c-6.023 4.774-16.875 14.739-16.875 24.566 0 16.823 21.747 14.074 37.359 14.11 21.346.048 45.295.147 45.295.147l.06-22.931z"/><path fill="#455A64" d="M371.336 326.318c.049.113 2.595-.885 5.686-2.231s5.557-2.529 5.507-2.642c-.049-.113-2.595.885-5.686 2.231s-5.557 2.528-5.507 2.642M374.966 320.696c-.004.124 1.804.283 4.037.356 2.234.073 4.048.031 4.052-.092.004-.124-1.803-.283-4.038-.355-2.232-.074-4.047-.033-4.051.091M393.352 280.779c.012.013-.138.178-.435.481l-1.317 1.305-4.91 4.728-16.333 15.454c-3.186 3.021-6.292 5.833-8.983 8.506-2.679 2.682-4.884 5.311-6.363 7.759a20.9 20.9 0 0 0-2.624 6.204l-.225 1.04-.109.773c-.063.418-.104.638-.122.637s-.012-.224.018-.648l.06-.785c.042-.308.112-.661.18-1.059.312-1.58 1.007-3.864 2.506-6.351 1.46-2.507 3.662-5.19 6.338-7.907 2.69-2.709 5.78-5.525 8.967-8.548l16.437-15.343 5.023-4.607 1.384-1.233c.322-.28.496-.419.508-.406"/><path fill="#FFBE9D" d="M379.486 230.686c-4.13 2.229-9.282.391-11.069-3.948-.971-2.359-1.754-4.284-1.754-4.284s-5.963 2.114-8.999-3.349c-1.707-3.07-4.113-8.315-5.894-12.321a10.64 10.64 0 0 1 .964-10.364c4.89-6.173 8.767-5.138 16.54-3.875l1.154.188 12.511 27.746a7.906 7.906 0 0 1-3.453 10.207"/><path fill="#263238" d="M355.583 209.487a.907.907 0 1 0-1.711-.604.907.907 0 0 0 1.711.604M353.121 208.573c.138.049.453-.658 1.209-1.071.75-.424 1.517-.318 1.548-.461.018-.065-.161-.191-.499-.244a2.1 2.1 0 0 0-1.301.25c-.469.26-.769.661-.899.973-.135.315-.123.533-.058.553M362.155 205.028a.907.907 0 1 0 1.57.91.907.907 0 0 0-1.57-.91M361.4 204.823c.138.049.453-.658 1.209-1.071.75-.424 1.517-.318 1.548-.461.018-.065-.161-.191-.499-.244a2.1 2.1 0 0 0-1.301.25 2.1 2.1 0 0 0-.899.972c-.134.316-.122.534-.058.554M362.045 212.845c-.027-.062-.547.096-1.365.402-.21.085-.389.124-.461.026-.1-.101-.138-.354-.164-.644l-.232-1.863c-.356-2.64-.753-4.764-.887-4.746s.046 2.172.402 4.812l.27 1.857c.051.268.058.61.336.882a.59.59 0 0 0 .512.132c.153-.031.265-.091.362-.138.782-.387 1.253-.657 1.227-.72"/><path fill="#EB996E" d="M366.611 222.38s3.629-1.594 6.07-5.908c0 0 .442 4.873-5.314 7.34z"/><path fill="#FFBE9D" d="M372.927 198.888c.093-.094 4.399-2.652 5.681 2.055 1.108 4.069-3.492 4.769-3.548 4.641s-2.133-6.696-2.133-6.696"/><path fill="#EB996E" d="M375.888 203.194c.013-.019.085.022.219.033.13.01.335-.026.51-.176.355-.302.46-1.082.22-1.789a2.4 2.4 0 0 0-.547-.9c-.224-.241-.481-.371-.701-.332a.37.37 0 0 0-.331.333c-.012.128.041.196.023.21-.007.014-.107-.034-.135-.206a.46.46 0 0 1 .063-.3.55.55 0 0 1 .338-.237c.307-.09.679.086.93.342.268.251.499.595.634.997.264.792.134 1.673-.368 2.043a.78.78 0 0 1-.657.126c-.156-.053-.209-.132-.198-.144"/><path fill="#188078" d="M370.93 230.013s10.752-18.039 27.373-2.857c10.845 9.906 28.544 30.322 34.867 38.323 1.418 1.794 3.635 4.517 2.082 6.196-4.739 5.128-17.658 16.605-41.573 8.042l-22.662-31.59a15.645 15.645 0 0 1-.087-18.114"/><path fill="#188078" d="m384.715 221.427-3.033-4.956-15.481 12.318 2.892 4.652z"/><path fill="#000" d="M384.051 222.066s-12.188 10.541-12.365 10.367-4.868-3.563-4.868-3.563l4.296 2.408z" opacity=".3"/><path fill="#263238" d="M384.841 221.369c-.017-.026-.293.126-.777.424-.483.299-1.17.75-2.006 1.325-1.674 1.148-3.926 2.818-6.408 4.658a184 184 0 0 1-4.642 3.342l.199-.009a191 191 0 0 0-3.507-1.862c-.852-.437-1.347-.669-1.366-.633s.441.336 1.261.831 2.002 1.185 3.428 2.002l.099.057.1-.066a105 105 0 0 0 4.694-3.301l6.327-4.762 1.92-1.438c.453-.341.695-.542.678-.568"/><path fill="#FFBE9D" d="m318.747 268.692-2.941-1.197s-1.895-.437-4.984-1.912a7.8 7.8 0 0 1-2.155-1.535c-.76-.763-1.73-1.817-2.081-2.559-.435-.918-1.76-.83-1.934.076s.962 3.466 3.471 5.566c2.508 2.1-2.639 2.027-4.516 2.034-1.876.007-7.681.301-8.136.88-.667.848.119 1.72 1.993 1.669 1.897-.051 7.504.193 7.46 1.184-.043.976-9.596.882-9.596.882s-2.039-.351-2.128.793c-.161 2.063 10.002 1.415 10.968 1.33.671-.059.662 1.019-.062 1.044-.745.026-9.527-.316-9.71 1.783-.141 1.61 8.364-.455 10.146.628s-6.609.91-6.681 2.454c-.027.575.033 1.007 4.866.411 4.95-.611 18.091-4.449 18.091-4.449l-2.216-9.205"/><path fill="#FFBE9D" d="M376.193 236.281s-15.81 21.8-19.475 22.652-44.415 7.254-44.415 7.254l2.038 13.301s50.584-1.415 55.491-5.885 19.7-27.201 19.7-27.201z"/><path fill="#EB996E" d="M365.063 273.219c-.017.019.108.18.42.366.311.177.83.37 1.495.318.655-.04 1.463-.416 1.949-1.173.498-.721.671-1.85.133-2.773-.258-.454-.675-.822-1.165-.974-.483-.149-1.002-.112-1.421.109-.882.465-1.013 1.568-.595 2.145a1.25 1.25 0 0 0 1.466.438c.357-.149.44-.371.42-.377-.028-.028-.156.135-.473.211-.291.076-.862.023-1.146-.443-.287-.442-.137-1.301.516-1.606.316-.158.726-.181 1.099-.06.37.12.699.407.911.779.442.754.318 1.69-.091 2.326a2.3 2.3 0 0 1-1.638 1.081c-1.203.155-1.852-.448-1.88-.367"/><path fill="#188078" d="m394.242 242.918-15.014 25.752-17.293-14.324s11.976-19.613 17.641-25.697z"/><path fill="#455A64" d="M351.217 292.079c.023-.129 1.997.578 3.502 2.565 1.527 1.971 1.695 4.061 1.564 4.05-.156.04-.539-1.885-1.977-3.733-1.41-1.87-3.169-2.742-3.089-2.882"/><path fill="#263238" d="M369.129 201.229c.179.423.633.667 1.081.766s.914.088 1.365.173c.71.135 1.37.519 1.838 1.069.204.24.376.513.628.702s.623.27.878.086c.403-.291.219-.92-.004-1.364l-2.799-5.584-5.299 1.151 2.278 2.653"/><path fill="#263238" d="M351.816 194.9c.614-.735 1.526-1.331 2.243-.697s1.026 1.604 1.245 2.535c.219.932.392 1.906.931 2.698a3.42 3.42 0 0 0 3.125 1.445 3.42 3.42 0 0 0 2.747-2.076c.721 1.084 1.462 2.19 2.504 2.971 1.041.782 2.457 1.191 3.669.714 1.211-.477 1.991-2.03 1.364-3.171.697.527 1.531.927 2.405.923s1.78-.484 2.104-1.297c.323-.812-.123-1.898-.975-2.094.974.639 2.353.646 3.273-.069.92-.714 1.241-2.135.634-3.129s-2.111-1.334-3.035-.625c.654-.398 1.34-.828 1.696-1.506.357-.678.223-1.676-.472-1.998-.835-.387-1.726.384-2.631.551-1.477.271-2.686-1.059-3.882-1.967-2.16-1.642-5.085-2.084-7.743-1.544s-5.069 1.983-7.109 3.771c-1.337 1.17-2.633 2.873-2.093 4.565M354.954 205.679c.01.435-.417.8-.91 1.004-.499.191-1.059.22-1.351-.103-.291-.313-.007-1.037.773-1.348s1.484.02 1.488.447"/><path fill="#263238" d="M362.876 201.883c-.084.43-.617.698-1.147.952-.543.225-1.099.443-1.475.218-.174-.121-.236-.39-.105-.724.126-.331.462-.706.943-.92s.984-.214 1.315-.087c.336.125.495.351.469.561M365.173 211.098c.13-.053.465.963-.038 2.099-.493 1.141-1.467 1.584-1.516 1.453-.084-.126.625-.685 1.039-1.661.437-.967.366-1.867.515-1.891"/><path fill="#455A64" d="M376.709 195.119c.007.014-.068.066-.228.141a2.2 2.2 0 0 1-.759.159c-.645.025-1.809-.242-2.422-1.435l.274.056c-.749.714-1.925 1.28-3.299 1.313-1.35.043-2.938-.435-4.036-1.674l.444-.176c.041.687-.383 1.344-.942 1.701a2.9 2.9 0 0 1-1.942.467c-1.171-.176-2.035-.937-2.721-1.663-.692-.745-1.243-1.525-1.882-2.14-.626-.623-1.342-1.08-2.092-1.21-.749-.138-1.485.015-2.099.258-1.24.506-2.026 1.343-2.566 1.872-.535.551-.825.867-.855.841-.025-.021.21-.378.705-.977.503-.576 1.256-1.481 2.574-2.076.65-.282 1.452-.48 2.313-.344.866.129 1.683.641 2.353 1.29.687.644 1.256 1.432 1.921 2.136.655.695 1.464 1.359 2.413 1.496 1.101.151 2.37-.629 2.314-1.63l-.041-.735.486.559c.96 1.105 2.397 1.574 3.644 1.559 1.267-.004 2.357-.492 3.073-1.12l.177-.155.097.211c.474 1.036 1.51 1.363 2.11 1.389.639.027.97-.159.986-.113"/><path fill="#263238" d="M396.752 238.941c-.05.001-.045-.597-.232-1.646a11.6 11.6 0 0 0-1.634-4.152c-1.003-1.585-2.636-3.279-4.943-4.237-2.28-.96-5.177-1.194-7.9-.275-1.356.457-2.568 1.195-3.638 2.038-1.071.839-1.993 1.786-2.799 2.749-1.612 1.932-2.779 3.906-3.797 5.529-1.004 1.636-1.823 2.96-2.429 3.85-.296.449-.545.785-.711 1.015-.168.228-.264.342-.279.332-.032-.022.271-.533.819-1.455l2.284-3.931c.98-1.65 2.118-3.655 3.743-5.646 1.625-1.957 3.768-3.982 6.64-4.975 2.855-.963 5.88-.702 8.254.327 2.407 1.029 4.074 2.825 5.068 4.485a11 11 0 0 1 1.521 4.315c.064.538.084.959.07 1.244-.006.285-.019.433-.037.433"/><path fill="#FAFAFA" d="M392.339 248.358c-.046.009.077-.411-.403-.814-.228-.202-.568-.335-1.01-.38-.431-.062-.984-.033-1.561-.282-1.181-.486-1.949-1.86-2.345-3.33-.206-.739-.368-1.515-.645-2.264-.271-.747-.686-1.466-1.351-1.937-.66-.477-1.473-.691-2.262-.786-.795-.095-1.578-.063-2.338-.042-1.506.057-2.967-.004-4.04-.598-1.061-.575-1.625-1.461-1.769-2.11a2.1 2.1 0 0 1-.049-.759q.05-.257.077-.254c.053.003-.035.369.166.956.189.578.751 1.353 1.744 1.839.985.497 2.354.531 3.853.446 1.475-.058 3.331-.202 4.922.886.778.551 1.246 1.389 1.525 2.184.288.802.44 1.591.629 2.315.356 1.422 1.041 2.671 2.031 3.118.476.234.997.24 1.457.331.461.072.873.266 1.103.52.242.246.335.521.331.701 0 .181-.053.264-.065.26M386.368 256.914c-.053.014-.08-.337-.428-.799-.333-.465-1.038-.972-2.039-1.265-.984-.329-2.281-.294-3.686-.752-.694-.226-1.426-.661-1.9-1.35-.476-.671-.732-1.446-1.164-2.079-.878-1.278-2.465-1.709-3.796-2.037-1.365-.319-2.663-.663-3.562-1.352-.897-.676-1.326-1.542-1.418-2.154-.094-.623.059-.954.08-.944.048.005-.029.341.118.901.143.551.586 1.315 1.435 1.899.846.592 2.076.889 3.457 1.183.691.155 1.434.34 2.164.664.725.321 1.459.814 1.952 1.547.484.721.734 1.49 1.151 2.079.403.592 1.004.966 1.642 1.191 1.283.452 2.6.463 3.643.855 1.042.354 1.784.956 2.093 1.502.163.267.227.505.256.663q.029.243.002.248M413.971 243.362c.016.002.013.146-.034.417a3.8 3.8 0 0 1-.434 1.121c-.507.925-1.67 2.006-3.367 2.786-.84.397-1.79.745-2.768 1.178-.974.434-1.985.971-2.805 1.82-1.705 1.678-2.537 4.277-3.731 6.822-.602 1.275-1.313 2.515-2.321 3.455-.252.233-.5.465-.789.644a5 5 0 0 1-.854.521 8.2 8.2 0 0 1-1.813.626c-2.431.515-4.641.386-6.372.935-1.749.475-2.869 1.557-3.35 2.425-.499.881-.452 1.489-.515 1.476-.014 0-.034-.144-.008-.418.024-.273.107-.681.344-1.153.445-.943 1.601-2.139 3.421-2.682 1.792-.613 4.05-.526 6.37-1.05a8 8 0 0 0 1.702-.605c.279-.128.533-.303.785-.488.266-.165.495-.383.727-.601.932-.876 1.613-2.058 2.203-3.31 1.177-2.492 2.03-5.159 3.863-6.938.889-.899 1.973-1.451 2.97-1.875 1.006-.425 1.956-.75 2.788-1.118 1.666-.716 2.811-1.707 3.347-2.557.55-.85.585-1.447.641-1.431M424.047 255.735s-.02.638-.636 1.56c-.593.929-1.856 1.995-3.651 2.767-1.781.815-4.098 1.19-6.299 2.376-1.097.59-2.074 1.475-2.727 2.659-.674 1.172-1.103 2.542-1.688 3.909-1.163 2.777-3.263 4.93-5.506 6.216a12.57 12.57 0 0 1-6.586 1.685c-1.958-.048-3.499-.5-4.497-.918a9 9 0 0 1-1.125-.542c-.246-.144-.371-.227-.362-.243.022-.041.549.241 1.559.595 1.004.354 2.525.74 4.429.74 1.893.006 4.183-.45 6.341-1.732 2.15-1.264 4.152-3.336 5.27-6.008.572-1.332 1.007-2.722 1.724-3.958.695-1.253 1.784-2.225 2.938-2.825 2.322-1.213 4.643-1.541 6.386-2.294 1.769-.711 3.009-1.688 3.629-2.545.642-.848.741-1.466.801-1.442M433.121 265.511c.054.106-1.781.567-4.025 2.44a13.5 13.5 0 0 0-3.17 3.934c-.455.838-.779 1.792-1.198 2.784-.416.975-.995 2.037-2.006 2.712-1 .671-2.157.888-3.213 1.01-1.067.119-2.082.154-3.025.311a17.3 17.3 0 0 0-4.849 1.526c-2.622 1.292-3.91 2.636-3.977 2.549-.02-.02.278-.37.904-.914a15.7 15.7 0 0 1 2.907-1.964 16.7 16.7 0 0 1 4.938-1.671c.975-.175 2.007-.22 3.043-.344 1.03-.124 2.1-.341 2.98-.934.883-.587 1.418-1.536 1.83-2.485.412-.954.756-1.938 1.243-2.807a13.3 13.3 0 0 1 3.359-3.993c1.175-.922 2.258-1.475 3.027-1.782q.582-.228.902-.31.32-.087.33-.062M392.968 246.995c-.038-.095 1.102-.224 2.286-1.441.586-.595 1.156-1.432 1.599-2.45.445-1.017.748-2.223 1.07-3.494.324-1.273.664-2.502 1.187-3.552.521-1.046 1.193-1.885 1.878-2.45.686-.567 1.364-.858 1.845-.967.483-.111.758-.083.76-.059.033.098-1.12.145-2.362 1.303-.613.565-1.218 1.379-1.689 2.382s-.792 2.203-1.115 3.472-.645 2.501-1.137 3.562c-.49 1.058-1.125 1.921-1.781 2.518-.657.599-1.316.928-1.788 1.067-.473.141-.75.134-.753.109M390.106 229.036c-.132-.022.194-1.51 1.43-2.85 1.225-1.352 2.678-1.807 2.712-1.678.067.141-1.194.773-2.328 2.03-1.15 1.24-1.668 2.552-1.814 2.498M383.089 218.756c.057.044-.546.939-1.568 2.351-.526.697-1.084 1.561-1.882 2.444-.406.43-.899.857-1.521 1.129-.626.277-1.332.331-2.003.328-.675-.002-1.314-.043-1.903.035a4.5 4.5 0 0 0-1.611.543 4.5 4.5 0 0 0-1.925 2.123c-.656 1.574-.304 2.702-.409 2.698-.029.008-.142-.247-.202-.744a4.55 4.55 0 0 1 .27-2.092 4.7 4.7 0 0 1 2.026-2.4 4.8 4.8 0 0 1 1.782-.633c.656-.093 1.32-.052 1.973-.051.652.003 1.27-.047 1.801-.276.534-.226.986-.596 1.375-.992.767-.809 1.377-1.671 1.936-2.335 1.097-1.355 1.804-2.171 1.861-2.128"/><path fill="#000" d="m396.369 242.173-7.59 30.75-6.638-9.252z" opacity=".2"/><path fill="#455A64" d="M429.294 343.398c-.144 0-.26-5.11-.26-11.413 0-6.305.116-11.414.26-11.414s.26 5.109.26 11.414c0 6.303-.117 11.413-.26 11.413"/><path fill="#188078" d="M91.193 286.727c3.011.132 5.824 1.791 7.792 4.075s3.161 5.144 3.915 8.062c1.459 5.646.476 12.286-1.179 17.878-6.08-2.232-9.785-8.768-11.456-12.202-2.642-5.427-4.12-16.84.928-17.813M110.439 323.646c-1.901-2.779-1.913-6.622-.366-9.613s4.488-5.132 7.715-6.093c1.492-.444 3.221-.621 4.508.254 1.203.819 1.713 2.409 1.544 3.855-.168 1.446-.913 2.763-1.788 3.927-3 3.99-6.636 7.3-11.613 7.67"/><path fill="#263238" d="M110.947 342.476c-.03.004-.118-.414-.263-1.173l-.6-3.216c-.458-2.704-1.189-6.549-.575-10.788.591-4.22 2.304-7.818 4.086-9.96.877-1.084 1.715-1.849 2.334-2.318.299-.247.563-.399.73-.515q.26-.168.274-.151c.066.076-1.434.983-3.102 3.169-1.689 2.15-3.321 5.686-3.903 9.836-.604 4.152.067 7.962.451 10.68.206 1.365.373 2.471.467 3.239.096.766.129 1.193.101 1.197"/><path fill="#263238" d="M93.087 295.319c.014-.006.096.154.242.464l.617 1.363a277 277 0 0 1 2.172 5.055 511 511 0 0 1 6.713 16.864 513 513 0 0 1 6.121 17.091 279 279 0 0 1 1.715 5.227l.439 1.43c.096.328.14.503.126.508-.014.004-.085-.161-.207-.481l-.514-1.405-1.841-5.182a908 908 0 0 0-6.234-17.04 922 922 0 0 0-6.594-16.9l-2.047-5.105-.544-1.394c-.12-.318-.177-.49-.164-.495"/><path fill="#188078" d="M103.815 329.959c-3.544-6.151-10.222-10.38-17.299-10.955-1.802-.146-3.973.139-4.79 1.75-.82 1.615.24 3.543 1.457 4.884 5.063 5.579 13.691 7.583 20.694 4.806"/><path fill="#263238" d="M89.22 323.854c.003-.029.404-.009 1.129.051.363.028.808.064 1.316.164.507.099 1.098.159 1.725.34.632.161 1.329.322 2.05.588.736.224 1.49.546 2.283.89 1.565.727 3.225 1.675 4.802 2.902a24.4 24.4 0 0 1 3.956 3.982c.515.695 1.006 1.353 1.388 2.021.423.642.735 1.287 1.029 1.869.315.572.499 1.137.704 1.612.207.475.335.902.437 1.252.21.697.312 1.085.284 1.093-.09.031-.51-1.53-1.692-3.822-.307-.566-.63-1.193-1.059-1.818-.389-.65-.883-1.29-1.397-1.967a25.4 25.4 0 0 0-3.91-3.89c-1.549-1.205-3.172-2.146-4.704-2.882-.776-.348-1.514-.678-2.234-.913-.706-.277-1.39-.452-2.01-.63-2.495-.65-4.107-.75-4.096-.842"/></svg>