<svg width="500" height="401" viewBox="0 0 500 401" fill="none" xmlns="http://www.w3.org/2000/svg">
<path d="M426.27 54.259C426.27 54.259 419.022 48.686 408.449 66.22C397.877 83.754 393.614 93.997 393.614 93.997C393.614 93.997 390.891 97.635 388.45 94.956C386.009 92.277 382.927 84.952 378.385 85.907C373.674 86.898 371.786 91.941 372.126 99.575C372.466 107.209 372.597 123.961 372.603 125.476C372.609 126.963 371.606 129.082 369.651 127.523C367.696 125.965 356.808 111.948 350.466 117.513C344.124 123.077 348.566 144.188 349.007 146.505C349.448 148.822 348.934 149.762 347.814 150.247C346.693 150.733 343.478 145.676 340.218 141.817C336.958 137.957 332.501 134.053 329.111 137.57C325.721 141.087 323.614 156.539 336.588 182.807L343.396 194.585L357.059 194.801C386.327 193.482 398.842 184.177 400.285 179.51C401.729 174.843 396.158 172.825 391.204 171.833C386.25 170.841 380.27 170.466 380.154 169.25C380.038 168.034 380.613 167.13 382.855 166.398C385.097 165.666 405.729 159.364 407.541 151.124C409.353 142.884 391.822 140.115 389.513 139.155C387.204 138.195 388.576 136.294 389.881 135.581C391.21 134.855 405.945 126.883 412.794 123.495C419.643 120.108 423.149 116.019 421.742 111.416C420.386 106.977 412.483 107.814 408.958 106.97C405.434 106.125 407.305 101.984 407.305 101.984C407.305 101.984 414.218 93.306 424.47 75.583C434.722 57.86 426.113 54.152 426.113 54.152" fill="#EBEBEB"/>
<path d="M416.775 69.946C416.775 69.946 416.715 70.079 416.579 70.328C416.433 70.59 416.229 70.956 415.966 71.428C415.41 72.406 414.606 73.822 413.574 75.638C411.493 79.292 408.443 84.557 404.651 91.049C397.071 104.036 386.449 121.887 374.655 141.565C362.857 161.249 352.194 179.077 344.549 192.024C340.74 198.49 337.654 203.728 335.511 207.365C334.45 209.163 333.622 210.566 333.051 211.534C332.773 211.997 332.557 212.355 332.402 212.613C332.254 212.855 332.168 212.973 332.168 212.973C332.168 212.973 332.228 212.84 332.364 212.591C332.51 212.328 332.714 211.963 332.977 211.491C333.533 210.513 334.337 209.098 335.369 207.282C337.45 203.629 340.499 198.364 344.292 191.872C351.872 178.885 362.495 161.032 374.294 141.347C386.088 121.669 396.75 103.844 404.395 90.897C408.205 84.431 411.29 79.193 413.434 75.555C414.495 73.756 415.323 72.354 415.895 71.385C416.173 70.922 416.389 70.563 416.544 70.306C416.689 70.064 416.775 69.946 416.775 69.946Z" fill="#E0E0E0"/>
<path d="M382.284 96.328C382.313 96.322 382.409 96.659 382.56 97.273C382.714 97.887 382.91 98.78 383.142 99.886C383.602 102.1 384.159 105.173 384.713 108.575C385.246 111.932 385.729 114.968 386.098 117.29C386.271 118.336 386.417 119.218 386.534 119.927C386.64 120.549 386.685 120.897 386.656 120.903C386.628 120.909 386.528 120.574 386.372 119.96C386.22 119.346 386.023 118.452 385.803 117.343C385.365 115.124 384.848 112.045 384.295 108.643C383.738 105.292 383.233 102.26 382.848 99.941C382.67 98.896 382.519 98.014 382.398 97.305C382.298 96.682 382.255 96.334 382.284 96.328Z" fill="#E0E0E0"/>
<path d="M387.886 121.234C387.862 121.12 394.147 119.692 401.923 118.046C409.701 116.399 416.025 115.157 416.049 115.271C416.073 115.385 409.789 116.813 402.011 118.46C394.234 120.105 387.91 121.348 387.886 121.234Z" fill="#E0E0E0"/>
<path d="M368.408 150.641C368.411 150.612 368.769 150.622 369.413 150.666C370.143 150.721 371.054 150.789 372.136 150.87C374.434 151.039 377.61 151.258 381.122 151.372C384.635 151.494 387.818 151.494 390.122 151.475C391.207 151.467 392.12 151.461 392.852 151.455C393.497 151.454 393.855 151.467 393.856 151.496C393.857 151.525 393.502 151.568 392.859 151.619C392.215 151.67 391.283 151.728 390.13 151.773C387.824 151.868 384.631 151.916 381.108 151.794C377.586 151.68 374.405 151.412 372.109 151.167C370.962 151.04 370.035 150.926 369.396 150.829C368.756 150.735 368.405 150.669 368.408 150.641Z" fill="#E0E0E0"/>
<path d="M358.383 129.229C358.409 129.216 358.578 129.501 358.86 130.026C359.175 130.636 359.563 131.385 360.02 132.268C360.983 134.17 362.286 136.809 363.702 139.735C365.119 142.662 366.38 145.323 367.273 147.257C367.682 148.164 368.029 148.932 368.312 149.558C368.549 150.105 368.667 150.414 368.641 150.427C368.615 150.44 368.446 150.155 368.164 149.63C367.849 149.02 367.461 148.271 367.004 147.388C366.041 145.487 364.738 142.847 363.321 139.919C361.905 136.993 360.644 134.332 359.75 132.398C359.341 131.491 358.994 130.723 358.711 130.097C358.475 129.55 358.356 129.241 358.383 129.229Z" fill="#E0E0E0"/>
<path d="M337.888 153.004C337.914 152.991 338.127 153.357 338.488 154.03C338.878 154.777 339.381 155.741 339.985 156.898C341.232 159.328 342.929 162.698 344.78 166.431C346.631 170.166 348.286 173.557 349.465 176.021C350.02 177.202 350.483 178.186 350.841 178.949C351.158 179.644 351.32 180.035 351.294 180.048C351.268 180.061 351.056 179.695 350.694 179.022C350.304 178.275 349.801 177.311 349.197 176.154C347.95 173.724 346.253 170.354 344.401 166.619C342.55 162.886 340.896 159.495 339.717 157.031C339.162 155.85 338.699 154.866 338.341 154.103C338.025 153.408 337.862 153.017 337.888 153.004Z" fill="#E0E0E0"/>
<path d="M351.157 179.311C351.159 179.282 351.612 179.283 352.43 179.311C353.323 179.346 354.488 179.391 355.891 179.445C358.813 179.555 362.85 179.691 367.31 179.716C371.772 179.747 375.81 179.669 378.733 179.592C380.137 179.556 381.302 179.526 382.195 179.504C383.013 179.486 383.466 179.49 383.468 179.519C383.47 179.548 383.019 179.6 382.204 179.668C381.388 179.736 380.206 179.816 378.744 179.891C375.821 180.044 371.776 180.17 367.306 180.139C362.838 180.115 358.796 179.931 355.875 179.744C354.415 179.647 353.233 179.557 352.419 179.476C351.605 179.397 351.155 179.34 351.157 179.311Z" fill="#E0E0E0"/>
<path d="M63.3369 87.7753L57.5889 87.8063L58.9687 343.325L64.7167 343.294L63.3369 87.7753Z" fill="#E0E0E0"/>
<path d="M77.1035 87.7007L71.3555 87.7318L72.7353 343.251L78.4833 343.22L77.1035 87.7007Z" fill="#E0E0E0"/>
<path d="M197.374 87.0516L191.626 87.0827L193.006 342.602L198.754 342.571L197.374 87.0516Z" fill="#E0E0E0"/>
<path d="M211.128 86.9946L205.38 87.025L206.734 342.544L212.482 342.514L211.128 86.9946Z" fill="#E0E0E0"/>
<path d="M211.14 86.9772L57.5889 87.8064L57.6204 93.6374L211.171 92.8082L211.14 86.9772Z" fill="#E0E0E0"/>
<path d="M211.423 139.437L57.8721 140.266L57.8815 142.007L211.432 141.178L211.423 139.437Z" fill="#E0E0E0"/>
<path d="M211.691 188.883L58.1396 189.712L58.1491 191.454L211.7 190.625L211.691 188.883Z" fill="#E0E0E0"/>
<path d="M211.957 238.328L58.4062 239.157L58.4157 240.899L211.967 240.07L211.957 238.328Z" fill="#E0E0E0"/>
<path d="M212.225 287.774L58.6738 288.603L58.6832 290.344L212.234 289.515L212.225 287.774Z" fill="#E0E0E0"/>
<path d="M148.055 259.265L120.854 259.412L121.01 288.267L148.211 288.12L148.055 259.265Z" fill="#EBEBEB"/>
<path d="M175.128 259.119L147.926 259.266L148.082 288.121L175.284 287.974L175.128 259.119Z" fill="#F5F5F5"/>
<path d="M120.88 267.314C138.954 267.492 157.081 267.342 175.154 267.053C175.426 267.049 175.425 266.631 175.152 266.629C157.078 266.534 138.949 266.578 120.879 266.95C120.644 266.956 120.646 267.312 120.88 267.314Z" fill="#E0E0E0"/>
<path d="M140.192 150.645L120.269 150.753L120.383 171.887L140.306 171.779L140.192 150.645Z" fill="#EBEBEB"/>
<path d="M160.02 150.538L140.097 150.646L140.211 171.78L160.134 171.672L160.02 150.538Z" fill="#F5F5F5"/>
<path d="M120.286 156.591C133.526 156.7 146.798 156.623 160.037 156.408C160.309 156.404 160.308 155.986 160.035 155.985C146.795 155.912 133.522 155.977 120.284 156.228C120.051 156.232 120.052 156.589 120.286 156.591Z" fill="#E0E0E0"/>
<path d="M144.044 171.427L107.847 171.622L107.94 188.845L144.137 188.65L144.044 171.427Z" fill="#EBEBEB"/>
<path d="M180.069 171.232L143.872 171.428L143.965 188.651L180.162 188.455L180.069 171.232Z" fill="#F5F5F5"/>
<path d="M107.859 176.413C131.905 176.685 156.035 176.441 180.08 176.056C180.352 176.052 180.351 175.634 180.078 175.633C156.03 175.506 131.899 175.52 107.857 176.05C107.624 176.055 107.626 176.41 107.859 176.413Z" fill="#E0E0E0"/>
<path d="M117.922 104.58L108.83 104.63L109.022 140.082L118.114 140.032L117.922 104.58Z" fill="#EBEBEB"/>
<path d="M108.705 114.215L99.6133 114.264L99.7525 140.04L108.844 139.991L108.705 114.215Z" fill="#E0E0E0"/>
<path d="M132.198 111.146L118.071 111.222L118.226 139.952L132.353 139.876L132.198 111.146Z" fill="#E0E0E0"/>
<path d="M136.456 111.135L131.968 111.158L132.12 139.888L136.608 139.865L136.456 111.135Z" fill="#EBEBEB"/>
<path d="M140.994 117.739L136.506 117.763L136.625 139.854L141.113 139.83L140.994 117.739Z" fill="#E0E0E0"/>
<path d="M115.979 208.389L107.567 204.94L94.9565 235.693L103.368 239.142L115.979 208.389Z" fill="#E0E0E0"/>
<path d="M123.878 203.566L114.786 203.615L114.978 239.067L124.07 239.018L123.878 203.566Z" fill="#EBEBEB"/>
<path d="M142.7 210.107L128.573 210.183L128.728 238.913L142.855 238.837L142.7 210.107Z" fill="#E0E0E0"/>
<path d="M128.513 199.54L125.422 199.557L125.634 238.931L128.725 238.914L128.513 199.54Z" fill="#EBEBEB"/>
<path d="M125.454 205.692L123.909 205.7L124.089 238.939L125.634 238.931L125.454 205.692Z" fill="#F5F5F5"/>
<path d="M142.979 237.362L142.987 238.907L176.226 238.728L176.218 237.183L142.979 237.362Z" fill="#F5F5F5"/>
<path d="M179.03 227.984L142.798 228.18L142.847 237.371L179.079 237.175L179.03 227.984Z" fill="#EBEBEB"/>
<path d="M171.843 218.762L142.747 218.919L142.797 228.11L171.893 227.953L171.843 218.762Z" fill="#E0E0E0"/>
<path d="M478.439 343.367C478.439 343.511 377.098 343.627 252.116 343.627C127.091 343.627 25.7725 343.51 25.7725 343.367C25.7725 343.224 127.091 343.107 252.116 343.107C377.098 343.106 478.439 343.223 478.439 343.367Z" fill="#263238"/>
<path d="M332.269 343.039H167.731C161.353 343.039 156.182 337.868 156.182 331.49V64.966C156.182 58.587 161.353 53.417 167.731 53.417H332.27C338.649 53.417 343.819 58.588 343.819 64.966V331.49C343.819 337.869 338.648 343.039 332.269 343.039Z" fill="#455A64"/>
<path d="M255.75 329.573C255.75 333.85 252.527 337.317 248.55 337.317C244.574 337.317 241.35 333.85 241.35 329.573C241.35 325.296 244.573 321.829 248.55 321.829C252.526 321.829 255.75 325.296 255.75 329.573Z" fill="#263238"/>
<path d="M277.041 64.958H222.958C222.287 64.958 221.743 64.414 221.743 63.743V62.974C221.743 62.303 222.287 61.759 222.958 61.759H277.041C277.712 61.759 278.256 62.303 278.256 62.974V63.743C278.256 64.413 277.712 64.958 277.041 64.958Z" fill="#263238"/>
<path d="M338.383 70.037H162.58V314.387H338.383V70.037Z" fill="#263238"/>
<path d="M292.743 289.171C292.743 289.171 292.963 289.142 293.39 289.112C293.82 289.105 294.449 289.009 295.27 288.865C296.077 288.665 297.083 288.405 298.172 287.855C299.265 287.33 300.468 286.567 301.583 285.447C302.7 284.339 303.752 282.887 304.439 281.094C305.142 279.31 305.451 277.208 305.253 274.973C305.042 272.759 304.226 270.413 302.657 268.423C301.119 266.422 298.837 264.791 296.132 264.042C295.459 263.842 294.758 263.736 294.048 263.638C293.333 263.597 292.611 263.559 291.862 263.574C290.374 263.577 288.854 263.579 287.302 263.582C284.199 263.587 280.97 263.592 277.628 263.597C270.942 263.605 263.799 263.613 256.283 263.621C241.248 263.627 224.721 263.634 207.373 263.641C205.249 263.663 203.14 264.195 201.307 265.219C199.493 266.263 197.903 267.712 196.826 269.483C195.726 271.234 195.06 273.244 194.953 275.282C194.812 277.329 195.098 279.369 195.86 281.229C196.632 283.08 197.858 284.71 199.35 285.99C200.854 287.262 202.654 288.136 204.527 288.583C206.397 289.067 208.353 288.888 210.283 288.924C212.208 288.926 214.111 288.927 215.99 288.929C231.022 288.95 244.56 288.969 255.936 288.985C267.294 289.02 276.49 289.048 282.867 289.068C286.032 289.089 288.497 289.106 290.189 289.117C291.013 289.128 291.646 289.137 292.093 289.143C292.524 289.153 292.743 289.171 292.743 289.171C292.743 289.171 292.523 289.189 292.094 289.198C291.647 289.204 291.014 289.213 290.19 289.224C288.497 289.235 286.035 289.252 282.868 289.273C276.492 289.293 267.295 289.321 255.937 289.356C244.561 289.372 231.023 289.391 215.991 289.412C214.111 289.414 212.209 289.415 210.284 289.417C209.321 289.418 208.354 289.418 207.38 289.419C206.886 289.39 206.386 289.385 205.891 289.33C205.401 289.24 204.896 289.214 204.414 289.07C202.465 288.608 200.591 287.699 199.025 286.378C197.47 285.049 196.194 283.354 195.388 281.427C194.591 279.497 194.293 277.351 194.438 275.251C194.549 273.129 195.241 271.034 196.386 269.209C197.508 267.364 199.161 265.853 201.052 264.766C202.961 263.698 205.16 263.143 207.371 263.121C224.719 263.128 241.246 263.135 256.281 263.141C263.797 263.149 270.94 263.158 277.626 263.165C280.968 263.17 284.197 263.175 287.3 263.18C288.852 263.183 290.372 263.185 291.86 263.188C292.6 263.175 293.348 263.216 294.085 263.263C294.817 263.366 295.537 263.479 296.23 263.687C299.013 264.47 301.349 266.158 302.917 268.22C304.518 270.27 305.34 272.681 305.541 274.947C305.729 277.217 305.398 279.374 304.668 281.185C303.953 283.008 302.869 284.476 301.724 285.591C300.58 286.718 299.35 287.478 298.237 287.995C297.128 288.538 296.107 288.784 295.29 288.969C294.458 289.098 293.824 289.176 293.392 289.166C292.963 289.178 292.743 289.171 292.743 289.171Z" fill="white"/>
<path d="M227.934 274.583L227.313 275.357C226.853 274.862 226.196 274.555 225.557 274.555C224.296 274.555 223.306 275.528 223.306 276.77C223.306 278.012 224.296 278.994 225.557 278.994C226.187 278.994 226.835 278.706 227.313 278.247L227.943 278.949C227.303 279.579 226.394 279.984 225.504 279.984C223.658 279.984 222.227 278.588 222.227 276.779C222.227 274.988 223.676 273.61 225.54 273.61C226.43 273.611 227.322 273.98 227.934 274.583Z" fill="white"/>
<path d="M235.044 276.788C235.044 278.589 233.585 279.984 231.704 279.984C229.822 279.984 228.363 278.588 228.363 276.788C228.363 274.978 229.822 273.61 231.704 273.61C233.585 273.611 235.044 274.989 235.044 276.788ZM229.444 276.788C229.444 278.04 230.479 279.03 231.712 279.03C232.945 279.03 233.953 278.04 233.953 276.788C233.953 275.537 232.945 274.564 231.712 274.564C230.47 274.565 229.444 275.537 229.444 276.788Z" fill="white"/>
<path d="M240.597 279.94L237.239 275.42V279.94H236.176V273.638H237.22L240.597 278.166V273.638H241.641V279.94H240.597Z" fill="white"/>
<path d="M244.367 274.592V276.41H247.23V277.355H244.367V279.939H243.304V273.637H247.536L247.527 274.591H244.367V274.592Z" fill="white"/>
<path d="M248.479 279.94V273.638H249.542V279.94H248.479Z" fill="white"/>
<path d="M254.041 278.032C253.951 278.041 253.853 278.041 253.753 278.041H252.259V279.94H251.196V273.638H253.753C255.364 273.638 256.292 274.421 256.292 275.789C256.292 276.798 255.824 277.509 254.986 277.833L256.4 279.939H255.193L254.041 278.032ZM253.753 277.086C254.726 277.086 255.283 276.672 255.283 275.816C255.283 274.988 254.725 274.591 253.753 274.591H252.259V277.085H253.753V277.086Z" fill="white"/>
<path d="M263.383 279.94L263.374 275.232L261.385 279.283H260.692L258.702 275.232V279.94H257.703V273.638H258.964L261.043 277.824L263.114 273.638H264.365V279.94H263.383Z" fill="white"/>
<path d="M267.09 274.592V276.293H270.169V277.248H267.09V278.985H270.637V279.939H266.028V273.637H270.53V274.591H267.09V274.592Z" fill="white"/>
<path d="M274.517 273.638C276.408 273.638 277.776 274.961 277.776 276.788C277.776 278.607 276.399 279.939 274.49 279.939H271.933V273.637H274.517V273.638ZM272.996 278.986H274.545C275.769 278.986 276.705 278.077 276.705 276.798C276.705 275.51 275.742 274.592 274.499 274.592H272.996V278.986Z" fill="white"/>
<path d="M182.551 155.225L315.711 154.258L319.422 244.79L181.54 243.512L182.551 155.225Z" fill="#188078"/>
<path d="M182.551 155.225L250.154 100.523L315.711 154.258" fill="#188078"/>
<g opacity="0.3">
<path d="M182.551 155.225L250.154 100.523L315.711 154.258" fill="black"/>
</g>
<path d="M181.54 243.512C181.374 243.356 192.034 231.717 205.348 217.518C218.666 203.314 229.593 191.93 229.759 192.086C229.925 192.242 219.267 203.879 205.949 218.082C192.636 232.281 181.707 243.668 181.54 243.512Z" fill="#263238"/>
<path d="M319.422 244.79C319.252 244.941 308.87 233.537 296.237 219.321C283.599 205.1 273.496 193.453 273.666 193.302C273.836 193.151 284.216 204.553 296.853 218.773C309.487 232.99 319.593 244.639 319.422 244.79Z" fill="#263238"/>
<g opacity="0.5">
<path d="M315.711 154.258L248.845 207.674L182.551 155.225" fill="black"/>
</g>
<path d="M189.257 160.172L189.063 121.436L305.689 118.583L306.962 160.963L248.838 206.975L189.257 160.172Z" fill="#EBEBEB"/>
<path d="M250.466 193.059C249.364 193.059 248.254 192.996 247.142 192.87C239.441 191.998 232.541 188.179 227.714 182.116C222.886 176.055 220.708 168.475 221.58 160.775C223.381 144.878 237.78 133.407 253.676 135.213C261.376 136.085 268.276 139.904 273.104 145.966C277.932 152.028 280.11 159.607 279.238 167.308C278.366 175.008 274.547 181.908 268.484 186.736C263.297 190.867 257 193.059 250.466 193.059ZM250.389 136.027C236.342 136.027 224.193 146.606 222.574 160.888C221.732 168.323 223.835 175.641 228.497 181.495C233.159 187.347 239.82 191.035 247.255 191.877C254.688 192.724 262.008 190.616 267.862 185.955C273.714 181.293 277.402 174.632 278.244 167.196C279.087 159.761 276.984 152.443 272.322 146.59C267.661 140.737 260.999 137.05 253.563 136.207C252.498 136.086 251.437 136.027 250.389 136.027Z" fill="#188078"/>
<path d="M230.688 168.071L235.536 162.129L246.879 170.323L265.311 148.598L270.868 153.485L247.163 180.806L230.688 168.071Z" fill="#188078"/>
<path d="M375.928 207.339C376.024 208.085 377.047 208.435 377.695 208.054C378.343 207.673 378.59 206.824 378.481 206.08C378.372 205.336 377.976 204.67 377.589 204.025C378.756 204.684 380.456 203.97 380.803 202.677C381.151 201.383 380.037 199.914 378.697 199.899C379.634 199.706 380.594 199.434 381.316 198.807C382.038 198.179 382.453 197.107 382.06 196.235C381.667 195.363 380.306 195.027 379.71 195.775C380.204 195.452 380.713 195.116 381.039 194.624C381.365 194.132 381.463 193.438 381.112 192.963C380.706 192.414 379.875 192.371 379.237 192.617C378.599 192.863 378.072 193.327 377.473 193.655C376.046 194.435 374.193 194.365 372.829 193.479L369.096 196.565L375.928 207.339Z" fill="#263238"/>
<path d="M355.992 190.414C353.916 191.056 352.316 193.019 352.106 195.181C352.029 195.972 352.145 196.83 352.662 197.434C353.281 198.159 354.357 198.357 355.289 198.152C356.221 197.947 357.038 197.403 357.806 196.838C358.888 196.042 360.002 195.045 360.158 193.71C360.311 192.401 359.408 191.106 358.198 190.585C356.988 190.063 355.558 190.23 354.37 190.801" fill="#263238"/>
<path d="M359.234 208.882C358.847 210.189 358.386 211.499 357.58 212.598C356.774 213.697 355.569 214.569 354.212 214.693C352.855 214.817 351.386 214.043 350.966 212.747C350.74 213.523 350.098 214.183 349.308 214.354C348.518 214.525 347.62 214.152 347.249 213.435C346.877 212.718 347.13 211.718 347.835 211.323C347.033 211.775 346.035 212.231 345.241 211.764C344.897 211.561 344.659 211.208 344.537 210.828C344.133 209.572 344.915 208.254 345.778 207.256C346.641 206.258 347.669 205.273 347.885 203.971C348.058 202.926 347.667 201.883 347.411 200.856C347.125 199.71 347.005 198.5 347.266 197.348C347.527 196.196 348.207 195.106 349.236 194.527C350.265 193.948 351.653 193.966 352.564 194.717L352.734 196.42L359.234 208.882Z" fill="#263238"/>
<path d="M374.779 228.699C374.779 228.699 377.114 253.349 375.153 256.56C373.192 259.771 349.195 293.323 349.195 293.323L349.251 293.363C348.785 293.555 348.289 293.752 347.726 293.957C346.891 294.26 346.009 294.411 345.121 294.418C344.044 294.426 342.612 294.378 341.837 294.108C340.877 293.774 340.011 294.781 340.535 295.54C341.059 296.3 343.682 297.283 346.938 296.966C350.194 296.649 346.534 300.269 345.224 301.613C343.914 302.956 340.055 307.302 340.149 308.032C340.287 309.102 341.459 309.152 342.736 307.78C344.029 306.391 348.133 302.564 348.809 303.29C349.475 304.005 342.711 310.752 342.711 310.752C342.711 310.752 341.032 311.96 341.785 312.826C343.144 314.387 349.805 306.684 350.421 305.936C350.849 305.416 351.612 306.178 351.122 306.712C350.618 307.262 344.219 313.285 345.587 314.887C346.636 316.116 351.126 308.603 353.147 308.091C355.169 307.579 349.164 313.443 350.215 314.576C350.606 314.998 350.957 315.258 353.919 311.393C355.581 309.224 358.274 304.626 360.37 300.909C363.523 297.501 394.567 263.784 394.805 257.489C395.056 250.856 396.244 228.422 396.244 228.422L374.779 228.699Z" fill="#EB996E"/>
<path d="M337.745 338.418L337.461 329.267L354.599 328.626L355.156 342.009L354.096 342.117C349.377 342.556 330.07 344.018 326.873 343.178C323.307 342.242 337.745 338.418 337.745 338.418Z" fill="#188078"/>
<g opacity="0.4">
<path d="M330.7 340.54C330.7 340.54 325.652 342.203 326.32 343.02C326.988 343.837 346.554 343.093 355.156 342.01L355.114 341.628L332.299 342.69C332.299 342.69 331.699 340.545 330.7 340.54Z" fill="white"/>
</g>
<path d="M355.383 341.608C355.383 341.615 355.282 341.63 355.09 341.651C354.836 341.676 354.559 341.703 354.246 341.734C353.401 341.803 352.362 341.887 351.136 341.986C348.509 342.181 344.876 342.401 340.859 342.557C336.841 342.712 333.201 342.773 330.567 342.783C329.337 342.779 328.295 342.775 327.447 342.772C327.132 342.765 326.854 342.76 326.599 342.754C326.405 342.748 326.303 342.741 326.303 342.734C326.303 342.727 326.405 342.719 326.598 342.712C326.853 342.705 327.131 342.699 327.446 342.691C328.293 342.676 329.335 342.658 330.564 342.636C333.197 342.589 336.834 342.505 340.85 342.35C344.864 342.194 348.497 341.997 351.125 341.84C352.352 341.767 353.392 341.704 354.238 341.654C354.552 341.637 354.831 341.623 355.085 341.61C355.28 341.601 355.382 341.6 355.383 341.608Z" fill="#263238"/>
<path d="M332.314 342.956C332.251 342.966 332.174 342.224 331.676 341.491C331.19 340.749 330.535 340.393 330.569 340.339C330.579 340.287 331.326 340.582 331.849 341.376C332.38 342.164 332.366 342.966 332.314 342.956Z" fill="#263238"/>
<path d="M337.272 340.198C337.225 340.231 336.972 339.945 336.707 339.561C336.442 339.177 336.266 338.839 336.313 338.806C336.36 338.773 336.613 339.059 336.878 339.443C337.142 339.828 337.319 340.166 337.272 340.198Z" fill="#263238"/>
<path d="M338.631 339.412C338.594 339.456 338.317 339.286 338.012 339.032C337.707 338.778 337.489 338.536 337.525 338.492C337.562 338.448 337.839 338.618 338.145 338.872C338.45 339.126 338.668 339.368 338.631 339.412Z" fill="#263238"/>
<path d="M339.447 337.761C339.45 337.818 339.051 337.885 338.557 337.909C338.063 337.933 337.66 337.906 337.657 337.849C337.654 337.792 338.053 337.726 338.547 337.701C339.041 337.677 339.444 337.704 339.447 337.761Z" fill="#263238"/>
<path d="M339.706 336.609C339.727 336.659 339.298 336.873 338.719 336.937C338.14 337.005 337.674 336.893 337.683 336.839C337.69 336.779 338.145 336.795 338.695 336.731C339.246 336.67 339.685 336.553 339.706 336.609Z" fill="#263238"/>
<path d="M336.634 338.726C336.636 338.749 336.215 338.817 335.532 338.761C335.191 338.733 334.787 338.668 334.35 338.547C334.133 338.479 333.906 338.43 333.668 338.296C333.556 338.227 333.431 338.13 333.382 337.964C333.33 337.801 333.411 337.612 333.532 337.518C334.564 336.933 335.64 337.485 336.052 338.014C336.278 338.284 336.386 338.55 336.439 338.735C336.49 338.922 336.491 339.029 336.479 339.031C336.441 339.047 336.388 338.6 335.942 338.111C335.722 337.871 335.394 337.642 334.978 337.535C334.585 337.435 334.03 337.424 333.669 337.674C333.499 337.81 333.575 338.013 333.774 338.122C333.96 338.232 334.197 338.294 334.403 338.363C334.825 338.491 335.217 338.569 335.548 338.615C336.212 338.707 336.632 338.692 336.634 338.726Z" fill="#263238"/>
<path d="M336.35 338.791C336.335 338.804 336.162 338.529 336.194 338.031C336.212 337.787 336.29 337.495 336.464 337.215C336.649 336.963 336.886 336.617 337.36 336.619C337.617 336.642 337.752 336.928 337.719 337.115C337.706 337.309 337.626 337.478 337.55 337.614C337.397 337.895 337.22 338.125 337.055 338.3C336.722 338.65 336.455 338.79 336.442 338.77C336.422 338.744 336.654 338.564 336.944 338.204C337.088 338.024 337.244 337.797 337.38 337.526C337.523 337.288 337.61 336.866 337.332 336.826C337.055 336.81 336.784 337.095 336.624 337.321C336.46 337.566 336.374 337.826 336.34 338.049C336.273 338.5 336.387 338.781 336.35 338.791Z" fill="#263238"/>
<path d="M354.855 336.932C354.853 336.971 354.362 336.904 353.591 337.025C352.827 337.14 351.772 337.495 350.872 338.268C349.973 339.043 349.465 340.034 349.238 340.773C349.004 341.518 348.998 342.012 348.959 342.009C348.946 342.009 348.936 341.886 348.945 341.663C348.954 341.441 348.995 341.119 349.097 340.732C349.293 339.963 349.798 338.919 350.736 338.111C351.674 337.304 352.781 336.959 353.571 336.879C353.969 336.836 354.293 336.843 354.514 336.867C354.736 336.891 354.856 336.919 354.855 336.932Z" fill="#263238"/>
<path d="M352.807 329.868C352.864 329.865 352.991 331.438 353.089 333.382C353.188 335.326 353.221 336.904 353.164 336.907C353.107 336.91 352.98 335.337 352.882 333.393C352.783 331.449 352.75 329.871 352.807 329.868Z" fill="#263238"/>
<path d="M346.717 340.519C346.726 340.572 345.617 340.798 344.225 340.862C342.833 340.93 341.707 340.811 341.711 340.756C341.714 340.696 342.836 340.722 344.215 340.654C345.594 340.591 346.708 340.459 346.717 340.519Z" fill="#263238"/>
<path d="M350.075 340.387C350.118 340.427 349.992 340.628 349.888 340.889C349.78 341.149 349.73 341.38 349.67 341.379C349.614 341.381 349.571 341.112 349.695 340.811C349.817 340.509 350.036 340.346 350.075 340.387Z" fill="#263238"/>
<path d="M351.282 338.763C351.324 338.802 351.22 338.984 351.05 339.171C350.88 339.357 350.707 339.477 350.665 339.438C350.623 339.399 350.726 339.217 350.897 339.03C351.067 338.844 351.239 338.724 351.282 338.763Z" fill="#263238"/>
<path d="M353.066 337.975C353.056 338.034 352.828 338.04 352.58 338.138C352.329 338.23 352.155 338.377 352.109 338.34C352.062 338.31 352.197 338.061 352.506 337.944C352.814 337.825 353.081 337.921 353.066 337.975Z" fill="#263238"/>
<path d="M354.342 337.586C354.365 337.639 354.27 337.73 354.13 337.791C353.99 337.852 353.857 337.858 353.834 337.805C353.811 337.752 353.906 337.661 354.046 337.6C354.186 337.54 354.319 337.534 354.342 337.586Z" fill="#263238"/>
<g opacity="0.3">
<path d="M354.814 336.474L337.684 336.839L337.632 334.775L354.909 335.384L354.814 336.474Z" fill="black"/>
</g>
<path d="M402.275 276.341L348.092 275.6C348.092 275.6 333.007 277.042 333.007 296.637L334.919 335.311H358.002L356.427 298.25C357.722 298.266 375.202 298.832 375.202 298.832L402.275 276.341Z" fill="#263238"/>
<path d="M334.92 335.311C334.902 335.311 334.877 335.081 334.847 334.642C334.819 334.149 334.783 333.512 334.739 332.721C334.639 330.991 334.501 328.593 334.332 325.658C333.977 319.695 333.3 311.468 332.852 302.355C332.691 297.804 332.345 293.441 332.887 289.472C333.034 288.484 333.199 287.531 333.482 286.612C333.77 285.701 334.154 284.857 334.585 284.076C335.477 282.529 336.583 281.262 337.728 280.277C338.874 279.288 340.057 278.585 341.128 278.052C342.22 277.559 343.192 277.214 344.006 277.006C344.406 276.91 344.767 276.823 345.091 276.745C345.396 276.698 345.664 276.657 345.898 276.621C346.335 276.557 346.564 276.533 346.567 276.55C346.57 276.567 346.345 276.627 345.917 276.724C345.687 276.774 345.424 276.831 345.125 276.896C344.808 276.987 344.454 277.088 344.062 277.201C343.265 277.436 342.316 277.805 341.256 278.313C340.217 278.861 339.073 279.571 337.97 280.553C336.869 281.532 335.81 282.778 334.961 284.287C334.551 285.048 334.188 285.868 333.919 286.745C333.657 287.618 333.497 288.571 333.361 289.536C332.853 293.423 333.208 297.781 333.37 302.33C333.817 311.43 334.436 319.664 334.697 325.637C334.84 328.623 334.907 331.041 334.939 332.713C334.943 333.506 334.947 334.145 334.949 334.638C334.948 335.079 334.938 335.31 334.92 335.311Z" fill="#455A64"/>
<path d="M438.326 338.435L429.191 339.041L427.947 321.937L441.302 320.909L441.447 321.965C442.052 326.666 444.193 345.909 443.466 349.134C442.656 352.729 438.326 338.435 438.326 338.435Z" fill="#188078"/>
<g opacity="0.4">
<path d="M440.696 345.401C440.696 345.401 442.536 350.388 443.328 349.691C444.121 348.995 442.689 329.467 441.303 320.908L440.923 320.963L442.787 343.727C442.787 343.727 440.665 344.402 440.696 345.401Z" fill="white"/>
</g>
<path d="M440.892 320.696C440.899 320.695 440.917 320.796 440.945 320.988C440.979 321.24 441.016 321.517 441.058 321.829C441.156 322.671 441.277 323.706 441.42 324.928C441.707 327.547 442.055 331.17 442.353 335.178C442.65 339.188 442.839 342.823 442.941 345.456C442.98 346.685 443.013 347.727 443.04 348.574C443.044 348.889 443.049 349.167 443.052 349.422C443.053 349.616 443.049 349.718 443.042 349.718C443.035 349.718 443.024 349.617 443.01 349.424C442.994 349.17 442.978 348.891 442.959 348.577C442.914 347.731 442.859 346.69 442.794 345.463C442.654 342.833 442.442 339.202 442.146 335.194C441.848 331.187 441.523 327.564 441.274 324.943C441.157 323.719 441.058 322.682 440.978 321.838C440.95 321.524 440.926 321.247 440.904 320.993C440.89 320.799 440.885 320.697 440.892 320.696Z" fill="#263238"/>
<path d="M443.052 343.703C443.065 343.766 442.326 343.869 441.611 344.393C440.887 344.904 440.554 345.572 440.499 345.54C440.447 345.531 440.715 344.775 441.49 344.224C442.258 343.665 443.061 343.651 443.052 343.703Z" fill="#263238"/>
<path d="M440.123 338.844C440.157 338.89 439.881 339.153 439.506 339.431C439.131 339.709 438.8 339.898 438.765 339.851C438.731 339.805 439.007 339.542 439.381 339.264C439.757 338.987 440.089 338.798 440.123 338.844Z" fill="#263238"/>
<path d="M439.288 337.513C439.333 337.548 439.173 337.831 438.93 338.145C438.687 338.459 438.453 338.685 438.408 338.65C438.363 338.615 438.523 338.332 438.766 338.018C439.009 337.704 439.243 337.478 439.288 337.513Z" fill="#263238"/>
<path d="M437.611 336.756C437.668 336.751 437.748 337.147 437.79 337.64C437.832 338.133 437.819 338.537 437.762 338.541C437.705 338.546 437.625 338.15 437.583 337.657C437.541 337.165 437.553 336.761 437.611 336.756Z" fill="#263238"/>
<path d="M436.449 336.539C436.499 336.516 436.727 336.937 436.812 337.513C436.9 338.09 436.804 338.559 436.75 338.551C436.69 338.546 436.69 338.091 436.606 337.543C436.526 336.996 436.393 336.561 436.449 336.539Z" fill="#263238"/>
<path d="M438.672 339.534C438.695 339.531 438.778 339.949 438.746 340.634C438.73 340.975 438.679 341.382 438.574 341.823C438.513 342.043 438.473 342.271 438.347 342.513C438.282 342.627 438.189 342.755 438.025 342.81C437.864 342.867 437.672 342.793 437.574 342.676C436.953 341.665 437.466 340.57 437.981 340.14C438.243 339.905 438.505 339.787 438.688 339.728C438.873 339.67 438.98 339.666 438.983 339.678C439 339.716 438.556 339.784 438.082 340.247C437.85 340.476 437.632 340.812 437.541 341.231C437.454 341.627 437.464 342.182 437.726 342.534C437.868 342.699 438.068 342.616 438.17 342.414C438.273 342.224 438.327 341.985 438.388 341.777C438.501 341.351 438.565 340.957 438.6 340.623C438.668 339.956 438.639 339.536 438.672 339.534Z" fill="#263238"/>
<path d="M438.748 339.815C438.761 339.83 438.492 340.013 437.994 339.998C437.749 339.989 437.455 339.921 437.169 339.757C436.911 339.581 436.556 339.356 436.542 338.883C436.556 338.626 436.837 338.48 437.025 338.507C437.219 338.513 437.391 338.587 437.53 338.658C437.816 338.801 438.052 338.97 438.233 339.128C438.595 339.448 438.744 339.711 438.724 339.724C438.699 339.745 438.511 339.519 438.141 339.242C437.956 339.104 437.723 338.957 437.448 338.83C437.205 338.696 436.78 338.624 436.75 338.903C436.744 339.18 437.038 339.441 437.27 339.593C437.52 339.748 437.784 339.825 438.007 339.851C438.459 339.902 438.737 339.779 438.748 339.815Z" fill="#263238"/>
<path d="M436.238 321.388C436.277 321.389 436.227 321.881 436.375 322.648C436.516 323.407 436.908 324.449 437.713 325.322C438.52 326.193 439.528 326.666 440.274 326.866C441.026 327.073 441.521 327.062 441.519 327.101C441.519 327.114 441.397 327.129 441.174 327.127C440.951 327.125 440.628 327.096 440.238 327.008C439.463 326.84 438.402 326.371 437.561 325.462C436.722 324.553 436.338 323.458 436.23 322.672C436.173 322.276 436.169 321.951 436.185 321.73C436.201 321.508 436.226 321.387 436.238 321.388Z" fill="#263238"/>
<path d="M429.251 323.683C429.246 323.626 430.814 323.444 432.753 323.277C434.693 323.11 436.269 323.021 436.273 323.078C436.278 323.135 434.71 323.317 432.771 323.484C430.832 323.651 429.256 323.74 429.251 323.683Z" fill="#263238"/>
<path d="M440.11 329.394C440.163 329.383 440.428 330.484 440.541 331.872C440.658 333.261 440.578 334.39 440.524 334.388C440.464 334.387 440.45 333.265 440.334 331.889C440.222 330.514 440.05 329.405 440.11 329.394Z" fill="#263238"/>
<path d="M439.859 326.043C439.898 325.998 440.102 326.117 440.367 326.212C440.63 326.311 440.863 326.353 440.864 326.412C440.868 326.467 440.6 326.52 440.295 326.407C439.99 326.296 439.82 326.082 439.859 326.043Z" fill="#263238"/>
<path d="M438.194 324.895C438.231 324.851 438.417 324.949 438.61 325.112C438.802 325.276 438.928 325.444 438.891 325.488C438.854 325.532 438.668 325.434 438.475 325.271C438.283 325.107 438.157 324.938 438.194 324.895Z" fill="#263238"/>
<path d="M437.343 323.14C437.402 323.148 437.417 323.375 437.523 323.62C437.624 323.867 437.777 324.036 437.741 324.084C437.713 324.132 437.459 324.006 437.331 323.701C437.203 323.396 437.289 323.126 437.343 323.14Z" fill="#263238"/>
<path d="M436.911 321.878C436.963 321.853 437.058 321.945 437.123 322.083C437.188 322.221 437.199 322.353 437.148 322.377C437.096 322.402 437.001 322.31 436.936 322.172C436.87 322.034 436.859 321.902 436.911 321.878Z" fill="#263238"/>
<g opacity="0.3">
<path d="M435.782 321.445L436.75 338.552L434.689 338.676V321.388L435.782 321.445Z" fill="black"/>
</g>
<path d="M382.299 321.521L382.311 321.537C382.311 321.537 428.475 296.329 433.706 288.125C439.1 279.666 435.252 271.724 435.252 271.724L396.402 276.908L368.775 304.582C362.752 309.356 351.9 319.321 351.9 329.148C351.9 345.971 373.647 343.222 389.259 343.258C410.605 343.306 434.554 343.405 434.554 343.405L434.614 320.474L382.299 321.521Z" fill="#263238"/>
<path d="M371.336 326.318C371.385 326.431 373.931 325.433 377.022 324.087C380.113 322.741 382.579 321.558 382.529 321.445C382.48 321.332 379.934 322.33 376.843 323.676C373.752 325.022 371.286 326.204 371.336 326.318Z" fill="#455A64"/>
<path d="M374.966 320.696C374.962 320.82 376.77 320.979 379.003 321.052C381.237 321.125 383.051 321.083 383.055 320.96C383.059 320.836 381.252 320.677 379.017 320.605C376.785 320.531 374.97 320.572 374.966 320.696Z" fill="#455A64"/>
<path d="M393.352 280.779C393.364 280.792 393.214 280.957 392.917 281.26C392.577 281.597 392.141 282.029 391.6 282.565C390.394 283.726 388.728 285.33 386.69 287.293C382.468 291.288 376.714 296.732 370.357 302.747C367.171 305.768 364.065 308.58 361.374 311.253C358.695 313.935 356.49 316.564 355.011 319.012C353.493 321.441 352.757 323.667 352.387 325.216C352.304 325.599 352.229 325.945 352.162 326.256C352.121 326.547 352.085 326.803 352.053 327.029C351.99 327.447 351.949 327.667 351.931 327.666C351.913 327.665 351.919 327.442 351.949 327.018C351.967 326.789 351.987 326.529 352.009 326.233C352.051 325.925 352.121 325.572 352.189 325.174C352.501 323.594 353.196 321.31 354.695 318.823C356.155 316.316 358.357 313.633 361.033 310.916C363.723 308.207 366.813 305.391 370 302.368C376.398 296.396 382.188 290.991 386.437 287.025C388.522 285.113 390.226 283.55 391.46 282.418C392.028 281.912 392.487 281.503 392.844 281.185C393.166 280.905 393.34 280.766 393.352 280.779Z" fill="#455A64"/>
<path d="M379.486 230.686C375.356 232.915 370.204 231.077 368.417 226.738C367.446 224.379 366.663 222.454 366.663 222.454C366.663 222.454 360.7 224.568 357.664 219.105C355.957 216.035 353.551 210.79 351.77 206.784C350.264 203.396 350.628 199.471 352.734 196.42C357.624 190.247 361.501 191.282 369.274 192.545L370.428 192.733L382.939 220.479C384.644 224.259 383.137 228.716 379.486 230.686Z" fill="#FFBE9D"/>
<path d="M355.583 209.487C355.75 209.014 355.502 208.496 355.029 208.329C354.556 208.162 354.038 208.41 353.871 208.883C353.704 209.356 353.952 209.874 354.425 210.041C354.898 210.208 355.417 209.96 355.583 209.487Z" fill="#263238"/>
<path d="M353.121 208.573C353.259 208.622 353.574 207.915 354.33 207.502C355.08 207.078 355.847 207.184 355.878 207.041C355.896 206.976 355.717 206.85 355.379 206.797C355.046 206.743 354.547 206.786 354.078 207.047C353.609 207.307 353.309 207.708 353.179 208.02C353.044 208.335 353.056 208.553 353.121 208.573Z" fill="#263238"/>
<path d="M362.155 205.028C361.904 205.462 362.052 206.017 362.486 206.268C362.92 206.519 363.475 206.371 363.726 205.937C363.977 205.503 363.829 204.948 363.395 204.697C362.962 204.446 362.407 204.595 362.155 205.028Z" fill="#263238"/>
<path d="M361.4 204.823C361.538 204.872 361.853 204.165 362.609 203.752C363.359 203.328 364.126 203.434 364.157 203.291C364.175 203.226 363.996 203.1 363.658 203.047C363.325 202.993 362.826 203.036 362.357 203.297C361.888 203.557 361.588 203.958 361.458 204.269C361.324 204.585 361.336 204.803 361.4 204.823Z" fill="#263238"/>
<path d="M362.045 212.845C362.018 212.783 361.498 212.941 360.68 213.247C360.47 213.332 360.291 213.371 360.219 213.273C360.119 213.172 360.081 212.919 360.055 212.629C359.98 212.023 359.903 211.409 359.823 210.766C359.467 208.126 359.07 206.002 358.936 206.02C358.802 206.038 358.982 208.192 359.338 210.832C359.431 211.473 359.52 212.085 359.608 212.689C359.659 212.957 359.666 213.299 359.944 213.571C360.087 213.705 360.307 213.739 360.456 213.703C360.609 213.672 360.721 213.612 360.818 213.565C361.6 213.178 362.071 212.908 362.045 212.845Z" fill="#263238"/>
<path d="M366.611 222.38C366.611 222.38 370.24 220.786 372.681 216.472C372.681 216.472 373.123 221.345 367.367 223.812L366.611 222.38Z" fill="#EB996E"/>
<path d="M372.927 198.888C373.02 198.794 377.326 196.236 378.608 200.943C379.716 205.012 375.116 205.712 375.06 205.584C375.003 205.456 372.927 198.888 372.927 198.888Z" fill="#FFBE9D"/>
<path d="M375.888 203.194C375.901 203.175 375.973 203.216 376.107 203.227C376.237 203.237 376.442 203.201 376.617 203.051C376.972 202.749 377.077 201.969 376.837 201.262C376.717 200.904 376.518 200.595 376.29 200.362C376.066 200.121 375.809 199.991 375.589 200.03C375.366 200.058 375.265 200.236 375.258 200.363C375.246 200.491 375.299 200.559 375.281 200.573C375.274 200.587 375.174 200.539 375.146 200.367C375.134 200.284 375.145 200.175 375.209 200.067C375.274 199.957 375.397 199.868 375.547 199.83C375.854 199.74 376.226 199.916 376.477 200.172C376.745 200.423 376.976 200.767 377.111 201.169C377.375 201.961 377.245 202.842 376.743 203.212C376.496 203.384 376.237 203.386 376.086 203.338C375.93 203.285 375.877 203.206 375.888 203.194Z" fill="#EB996E"/>
<path d="M370.93 230.013C370.93 230.013 381.682 211.974 398.303 227.156C409.148 237.062 426.847 257.478 433.17 265.479C434.588 267.273 436.805 269.996 435.252 271.675C430.513 276.803 417.594 288.28 393.679 279.717L371.017 248.127C367.14 242.722 367.105 235.456 370.93 230.013Z" fill="#188078"/>
<path d="M384.715 221.427L381.682 216.471L366.201 228.789L369.093 233.441L384.715 221.427Z" fill="#188078"/>
<g opacity="0.3">
<path d="M384.051 222.066C384.051 222.066 371.863 232.607 371.686 232.433C371.509 232.259 366.818 228.87 366.818 228.87L371.114 231.278L384.051 222.066Z" fill="black"/>
</g>
<path d="M384.841 221.369C384.824 221.343 384.548 221.495 384.064 221.793C383.581 222.092 382.894 222.543 382.058 223.118C380.384 224.266 378.132 225.936 375.65 227.776C373.961 229.027 372.369 230.176 371.008 231.118L371.207 231.109C369.761 230.326 368.552 229.684 367.7 229.247C366.848 228.81 366.353 228.578 366.334 228.614C366.315 228.65 366.775 228.95 367.595 229.445C368.415 229.94 369.597 230.63 371.023 231.447L371.122 231.504L371.222 231.438C372.611 230.525 374.225 229.39 375.916 228.137C378.34 226.313 380.532 224.663 382.243 223.375C382.99 222.816 383.629 222.336 384.163 221.937C384.616 221.596 384.858 221.395 384.841 221.369Z" fill="#263238"/>
<path d="M318.747 268.692L315.806 267.495C315.806 267.495 313.911 267.058 310.822 265.583C310.02 265.2 309.294 264.677 308.667 264.048C307.907 263.285 306.937 262.231 306.586 261.489C306.151 260.571 304.826 260.659 304.652 261.565C304.478 262.471 305.614 265.031 308.123 267.131C310.631 269.231 305.484 269.158 303.607 269.165C301.731 269.172 295.926 269.466 295.471 270.045C294.804 270.893 295.59 271.765 297.464 271.714C299.361 271.663 304.968 271.907 304.924 272.898C304.881 273.874 295.328 273.78 295.328 273.78C295.328 273.78 293.289 273.429 293.2 274.573C293.039 276.636 303.202 275.988 304.168 275.903C304.839 275.844 304.83 276.922 304.106 276.947C303.361 276.973 294.579 276.631 294.396 278.73C294.255 280.34 302.76 278.275 304.542 279.358C306.324 280.441 297.933 280.268 297.861 281.812C297.834 282.387 297.894 282.819 302.727 282.223C307.677 281.612 320.818 277.774 320.818 277.774L318.602 268.569" fill="#FFBE9D"/>
<path d="M376.193 236.281C376.193 236.281 360.383 258.081 356.718 258.933C353.053 259.785 312.303 266.187 312.303 266.187L314.341 279.488C314.341 279.488 364.925 278.073 369.832 273.603C374.738 269.133 389.532 246.402 389.532 246.402L376.193 236.281Z" fill="#FFBE9D"/>
<path d="M365.063 273.219C365.046 273.238 365.171 273.399 365.483 273.585C365.794 273.762 366.313 273.955 366.978 273.903C367.633 273.863 368.441 273.487 368.927 272.73C369.425 272.009 369.598 270.88 369.06 269.957C368.802 269.503 368.385 269.135 367.895 268.983C367.412 268.834 366.893 268.871 366.474 269.092C365.592 269.557 365.461 270.66 365.879 271.237C366.328 271.848 367.02 271.811 367.345 271.675C367.702 271.526 367.785 271.304 367.765 271.298C367.737 271.27 367.609 271.433 367.292 271.509C367.001 271.585 366.43 271.532 366.146 271.066C365.859 270.624 366.009 269.765 366.662 269.46C366.978 269.302 367.388 269.279 367.761 269.4C368.131 269.52 368.46 269.807 368.672 270.179C369.114 270.933 368.99 271.869 368.581 272.505C368.179 273.165 367.522 273.509 366.943 273.586C365.74 273.741 365.091 273.138 365.063 273.219Z" fill="#EB996E"/>
<path d="M394.242 242.918L379.228 268.67L361.935 254.346C361.935 254.346 373.911 234.733 379.576 228.649L394.242 242.918Z" fill="#188078"/>
<path d="M351.217 292.079C351.24 291.95 353.214 292.657 354.719 294.644C356.246 296.615 356.414 298.705 356.283 298.694C356.127 298.734 355.744 296.809 354.306 294.961C352.896 293.091 351.137 292.219 351.217 292.079Z" fill="#455A64"/>
<path d="M369.129 201.229C369.308 201.652 369.762 201.896 370.21 201.995C370.658 202.094 371.124 202.083 371.575 202.168C372.285 202.303 372.945 202.687 373.413 203.237C373.617 203.477 373.789 203.75 374.041 203.939C374.293 204.127 374.664 204.209 374.919 204.025C375.322 203.734 375.138 203.105 374.915 202.661C373.982 200.8 373.049 198.938 372.116 197.077L366.817 198.228L369.095 200.881" fill="#263238"/>
<path d="M351.816 194.9C352.43 194.165 353.342 193.569 354.059 194.203C354.776 194.837 355.085 195.807 355.304 196.738C355.523 197.67 355.696 198.644 356.235 199.436C356.913 200.433 358.162 201.01 359.36 200.881C360.559 200.752 361.656 199.923 362.107 198.805C362.828 199.889 363.569 200.995 364.611 201.776C365.652 202.558 367.068 202.967 368.28 202.49C369.491 202.013 370.271 200.46 369.644 199.319C370.341 199.846 371.175 200.246 372.049 200.242C372.923 200.238 373.829 199.758 374.153 198.945C374.476 198.133 374.03 197.047 373.178 196.851C374.152 197.49 375.531 197.497 376.451 196.782C377.371 196.068 377.692 194.647 377.085 193.653C376.478 192.659 374.974 192.319 374.05 193.028C374.704 192.63 375.39 192.2 375.746 191.522C376.103 190.844 375.969 189.846 375.274 189.524C374.439 189.137 373.548 189.908 372.643 190.075C371.166 190.346 369.957 189.016 368.761 188.108C366.601 186.466 363.676 186.024 361.018 186.564C358.359 187.104 355.949 188.547 353.909 190.335C352.572 191.505 351.276 193.208 351.816 194.9Z" fill="#263238"/>
<path d="M354.954 205.679C354.964 206.114 354.537 206.479 354.044 206.683C353.545 206.874 352.985 206.903 352.693 206.58C352.402 206.267 352.686 205.543 353.466 205.232C354.246 204.921 354.95 205.252 354.954 205.679Z" fill="#263238"/>
<path d="M362.876 201.883C362.792 202.313 362.259 202.581 361.729 202.835C361.186 203.06 360.63 203.278 360.254 203.053C360.08 202.932 360.018 202.663 360.149 202.329C360.275 201.998 360.611 201.623 361.092 201.409C361.573 201.194 362.076 201.195 362.407 201.322C362.743 201.447 362.902 201.673 362.876 201.883Z" fill="#263238"/>
<path d="M365.173 211.098C365.303 211.045 365.638 212.061 365.135 213.197C364.642 214.338 363.668 214.781 363.619 214.65C363.535 214.524 364.244 213.965 364.658 212.989C365.095 212.022 365.024 211.122 365.173 211.098Z" fill="#263238"/>
<path d="M376.709 195.119C376.716 195.133 376.641 195.185 376.481 195.26C376.319 195.325 376.065 195.407 375.722 195.419C375.077 195.444 373.913 195.177 373.3 193.984L373.574 194.04C372.825 194.754 371.649 195.32 370.275 195.353C368.925 195.396 367.337 194.918 366.239 193.679L366.683 193.503C366.724 194.19 366.3 194.847 365.741 195.204C365.182 195.573 364.494 195.757 363.799 195.671C362.628 195.495 361.764 194.734 361.078 194.008C360.386 193.263 359.835 192.483 359.196 191.868C358.57 191.245 357.854 190.788 357.104 190.658C356.355 190.52 355.619 190.673 355.005 190.916C353.765 191.422 352.979 192.259 352.439 192.788C351.904 193.339 351.614 193.655 351.584 193.629C351.559 193.608 351.794 193.251 352.289 192.652C352.792 192.076 353.545 191.171 354.863 190.576C355.513 190.294 356.315 190.096 357.176 190.232C358.042 190.361 358.859 190.873 359.529 191.522C360.216 192.166 360.785 192.954 361.45 193.658C362.105 194.353 362.914 195.017 363.863 195.154C364.964 195.305 366.233 194.525 366.177 193.524L366.136 192.789L366.622 193.348C367.582 194.453 369.019 194.922 370.266 194.907C371.533 194.903 372.623 194.415 373.339 193.787L373.516 193.632L373.613 193.843C374.087 194.879 375.123 195.206 375.723 195.232C376.362 195.259 376.693 195.073 376.709 195.119Z" fill="#455A64"/>
<path d="M396.752 238.941C396.702 238.942 396.707 238.344 396.52 237.295C396.328 236.254 395.907 234.743 394.886 233.143C393.883 231.558 392.25 229.864 389.943 228.906C387.663 227.946 384.766 227.712 382.043 228.631C380.687 229.088 379.475 229.826 378.405 230.669C377.334 231.508 376.412 232.455 375.606 233.418C373.994 235.35 372.827 237.324 371.809 238.947C370.805 240.583 369.986 241.907 369.38 242.797C369.084 243.246 368.835 243.582 368.669 243.812C368.501 244.04 368.405 244.154 368.39 244.144C368.358 244.122 368.661 243.611 369.209 242.689C369.793 241.684 370.563 240.359 371.493 238.758C372.473 237.108 373.611 235.103 375.236 233.112C376.861 231.155 379.004 229.13 381.876 228.137C384.731 227.174 387.756 227.435 390.13 228.464C392.537 229.493 394.204 231.289 395.198 232.949C396.21 234.626 396.585 236.194 396.719 237.264C396.783 237.802 396.803 238.223 396.789 238.508C396.783 238.793 396.77 238.941 396.752 238.941Z" fill="#263238"/>
<path d="M392.339 248.358C392.293 248.367 392.416 247.947 391.936 247.544C391.708 247.342 391.368 247.209 390.926 247.164C390.495 247.102 389.942 247.131 389.365 246.882C388.184 246.396 387.416 245.022 387.02 243.552C386.814 242.813 386.652 242.037 386.375 241.288C386.104 240.541 385.689 239.822 385.024 239.351C384.364 238.874 383.551 238.66 382.762 238.565C381.967 238.47 381.184 238.502 380.424 238.523C378.918 238.58 377.457 238.519 376.384 237.925C375.323 237.35 374.759 236.464 374.615 235.815C374.53 235.49 374.55 235.226 374.566 235.056C374.599 234.885 374.626 234.799 374.643 234.802C374.696 234.805 374.608 235.171 374.809 235.758C374.998 236.336 375.56 237.111 376.553 237.597C377.538 238.094 378.907 238.128 380.406 238.043C381.881 237.985 383.737 237.841 385.328 238.929C386.106 239.48 386.574 240.318 386.853 241.113C387.141 241.915 387.293 242.704 387.482 243.428C387.838 244.85 388.523 246.099 389.513 246.546C389.989 246.78 390.51 246.786 390.97 246.877C391.431 246.949 391.843 247.143 392.073 247.397C392.315 247.643 392.408 247.918 392.404 248.098C392.404 248.279 392.351 248.362 392.339 248.358Z" fill="#FAFAFA"/>
<path d="M386.368 256.914C386.315 256.928 386.288 256.577 385.94 256.115C385.607 255.65 384.902 255.143 383.901 254.85C382.917 254.521 381.62 254.556 380.215 254.098C379.521 253.872 378.789 253.437 378.315 252.748C377.839 252.077 377.583 251.302 377.151 250.669C376.273 249.391 374.686 248.96 373.355 248.632C371.99 248.313 370.692 247.969 369.793 247.28C368.896 246.604 368.467 245.738 368.375 245.126C368.281 244.503 368.434 244.172 368.455 244.182C368.503 244.187 368.426 244.523 368.573 245.083C368.716 245.634 369.159 246.398 370.008 246.982C370.854 247.574 372.084 247.871 373.465 248.165C374.156 248.32 374.899 248.505 375.629 248.829C376.354 249.15 377.088 249.643 377.581 250.376C378.065 251.097 378.315 251.866 378.732 252.455C379.135 253.047 379.736 253.421 380.374 253.646C381.657 254.098 382.974 254.109 384.017 254.501C385.059 254.855 385.801 255.457 386.11 256.003C386.273 256.27 386.337 256.508 386.366 256.666C386.385 256.828 386.386 256.911 386.368 256.914Z" fill="#FAFAFA"/>
<path d="M413.971 243.362C413.987 243.364 413.984 243.508 413.937 243.779C413.882 244.047 413.765 244.443 413.503 244.9C412.996 245.825 411.833 246.906 410.136 247.686C409.296 248.083 408.346 248.431 407.368 248.864C406.394 249.298 405.383 249.835 404.563 250.684C402.858 252.362 402.026 254.961 400.832 257.506C400.23 258.781 399.519 260.021 398.511 260.961C398.259 261.194 398.011 261.426 397.722 261.605C397.448 261.802 397.17 261.989 396.868 262.126C396.276 262.419 395.659 262.613 395.055 262.752C392.624 263.267 390.414 263.138 388.683 263.687C386.934 264.162 385.814 265.244 385.333 266.112C384.834 266.993 384.881 267.601 384.818 267.588C384.804 267.588 384.784 267.444 384.81 267.17C384.834 266.897 384.917 266.489 385.154 266.017C385.599 265.074 386.755 263.878 388.575 263.335C390.367 262.722 392.625 262.809 394.945 262.285C395.522 262.145 396.1 261.956 396.647 261.68C396.926 261.552 397.18 261.377 397.432 261.192C397.698 261.027 397.927 260.809 398.159 260.591C399.091 259.715 399.772 258.533 400.362 257.281C401.539 254.789 402.392 252.122 404.225 250.343C405.114 249.444 406.198 248.892 407.195 248.468C408.201 248.043 409.151 247.718 409.983 247.35C411.649 246.634 412.794 245.643 413.33 244.793C413.88 243.943 413.915 243.346 413.971 243.362Z" fill="#FAFAFA"/>
<path d="M424.047 255.735C424.047 255.735 424.027 256.373 423.411 257.295C422.818 258.224 421.555 259.29 419.76 260.062C417.979 260.877 415.662 261.252 413.461 262.438C412.364 263.028 411.387 263.913 410.734 265.097C410.06 266.269 409.631 267.639 409.046 269.006C407.883 271.783 405.783 273.936 403.54 275.222C401.285 276.53 398.897 276.962 396.954 276.907C394.996 276.859 393.455 276.407 392.457 275.989C391.953 275.786 391.579 275.59 391.332 275.447C391.086 275.303 390.961 275.22 390.97 275.204C390.992 275.163 391.519 275.445 392.529 275.799C393.533 276.153 395.054 276.539 396.958 276.539C398.851 276.545 401.141 276.089 403.299 274.807C405.449 273.543 407.451 271.471 408.569 268.799C409.141 267.467 409.576 266.077 410.293 264.841C410.988 263.588 412.077 262.616 413.231 262.016C415.553 260.803 417.874 260.475 419.617 259.722C421.386 259.011 422.626 258.034 423.246 257.177C423.888 256.329 423.987 255.711 424.047 255.735Z" fill="#FAFAFA"/>
<path d="M433.121 265.511C433.175 265.617 431.34 266.078 429.096 267.951C427.995 268.89 426.818 270.193 425.926 271.885C425.471 272.723 425.147 273.677 424.728 274.669C424.312 275.644 423.733 276.706 422.722 277.381C421.722 278.052 420.565 278.269 419.509 278.391C418.442 278.51 417.427 278.545 416.484 278.702C414.588 279 412.942 279.594 411.635 280.228C409.013 281.52 407.725 282.864 407.658 282.777C407.638 282.757 407.936 282.407 408.562 281.863C409.187 281.321 410.154 280.597 411.469 279.899C412.783 279.208 414.459 278.561 416.407 278.228C417.382 278.053 418.414 278.008 419.45 277.884C420.48 277.76 421.55 277.543 422.43 276.95C423.313 276.363 423.848 275.414 424.26 274.465C424.672 273.511 425.016 272.527 425.503 271.658C426.453 269.913 427.7 268.594 428.862 267.665C430.037 266.743 431.12 266.19 431.889 265.883C432.276 265.732 432.579 265.626 432.791 265.573C433.003 265.516 433.115 265.493 433.121 265.511Z" fill="#FAFAFA"/>
<path d="M392.968 246.995C392.93 246.9 394.07 246.771 395.254 245.554C395.84 244.959 396.41 244.122 396.853 243.104C397.298 242.087 397.601 240.881 397.923 239.61C398.247 238.337 398.587 237.108 399.11 236.058C399.631 235.012 400.303 234.173 400.988 233.608C401.674 233.041 402.352 232.75 402.833 232.641C403.316 232.53 403.591 232.558 403.593 232.582C403.626 232.68 402.473 232.727 401.231 233.885C400.618 234.45 400.013 235.264 399.542 236.267C399.07 237.27 398.75 238.47 398.427 239.739C398.104 241.009 397.782 242.24 397.29 243.301C396.8 244.359 396.165 245.222 395.509 245.819C394.852 246.418 394.193 246.747 393.721 246.886C393.248 247.027 392.971 247.02 392.968 246.995Z" fill="#FAFAFA"/>
<path d="M390.106 229.036C389.974 229.014 390.3 227.526 391.536 226.186C392.761 224.834 394.214 224.379 394.248 224.508C394.315 224.649 393.054 225.281 391.92 226.538C390.77 227.778 390.252 229.09 390.106 229.036Z" fill="#FAFAFA"/>
<path d="M383.089 218.756C383.146 218.8 382.543 219.695 381.521 221.107C380.995 221.804 380.437 222.668 379.639 223.551C379.233 223.981 378.74 224.408 378.118 224.68C377.492 224.957 376.786 225.011 376.115 225.008C375.44 225.006 374.801 224.965 374.212 225.043C373.626 225.12 373.077 225.317 372.601 225.586C371.638 226.122 371.004 226.944 370.676 227.709C370.02 229.283 370.372 230.411 370.267 230.407C370.238 230.415 370.125 230.16 370.065 229.663C370.009 229.171 370.018 228.423 370.335 227.571C370.643 226.725 371.311 225.785 372.361 225.171C372.88 224.862 373.486 224.631 374.143 224.538C374.799 224.445 375.463 224.486 376.116 224.487C376.768 224.49 377.386 224.44 377.917 224.211C378.451 223.985 378.903 223.615 379.292 223.219C380.059 222.41 380.669 221.548 381.228 220.884C382.325 219.529 383.032 218.713 383.089 218.756Z" fill="#FAFAFA"/>
<g opacity="0.2">
<path d="M396.369 242.173L388.779 272.923L382.141 263.671L396.369 242.173Z" fill="black"/>
</g>
<path d="M429.294 343.398C429.15 343.398 429.034 338.288 429.034 331.985C429.034 325.68 429.15 320.571 429.294 320.571C429.438 320.571 429.554 325.68 429.554 331.985C429.554 338.288 429.437 343.398 429.294 343.398Z" fill="#455A64"/>
<path d="M91.1932 286.727C94.2042 286.859 97.0172 288.518 98.9852 290.802C100.952 293.086 102.146 295.946 102.9 298.864C104.359 304.51 103.376 311.15 101.721 316.742C95.6412 314.51 91.9362 307.974 90.2652 304.54C87.6232 299.113 86.1452 287.7 91.1932 286.727Z" fill="#188078"/>
<path d="M110.439 323.646C108.538 320.867 108.526 317.024 110.073 314.033C111.62 311.042 114.561 308.901 117.788 307.94C119.28 307.496 121.009 307.319 122.296 308.194C123.499 309.013 124.009 310.603 123.84 312.049C123.672 313.495 122.927 314.812 122.052 315.976C119.052 319.966 115.416 323.276 110.439 323.646Z" fill="#188078"/>
<path d="M110.947 342.476C110.917 342.48 110.829 342.062 110.684 341.303C110.528 340.466 110.327 339.385 110.084 338.087C109.626 335.383 108.895 331.538 109.509 327.299C110.1 323.079 111.813 319.481 113.595 317.339C114.472 316.255 115.31 315.49 115.929 315.021C116.228 314.774 116.492 314.622 116.659 314.506C116.831 314.395 116.924 314.343 116.933 314.355C116.999 314.431 115.499 315.338 113.831 317.524C112.142 319.674 110.51 323.21 109.928 327.36C109.324 331.512 109.995 335.322 110.379 338.04C110.585 339.405 110.752 340.511 110.846 341.279C110.942 342.045 110.975 342.472 110.947 342.476Z" fill="#263238"/>
<path d="M93.0868 295.319C93.1008 295.313 93.1828 295.473 93.3288 295.783C93.4878 296.135 93.6928 296.587 93.9458 297.146C94.4748 298.333 95.2178 300.06 96.1178 302.201C97.9188 306.483 100.324 312.434 102.831 319.065C105.337 325.699 107.47 331.753 108.952 336.156C109.694 338.357 110.278 340.144 110.667 341.383C110.847 341.97 110.992 342.444 111.106 342.813C111.202 343.141 111.246 343.316 111.232 343.321C111.218 343.325 111.147 343.16 111.025 342.84C110.892 342.477 110.722 342.012 110.511 341.435C110.059 340.162 109.434 338.404 108.67 336.253C107.117 331.877 104.941 325.843 102.436 319.213C99.9298 312.587 97.5708 306.623 95.8418 302.313C94.9928 300.195 94.2978 298.463 93.7948 297.208C93.5718 296.636 93.3918 296.174 93.2508 295.814C93.1308 295.496 93.0738 295.324 93.0868 295.319Z" fill="#263238"/>
<path d="M103.815 329.959C100.271 323.808 93.5925 319.579 86.5165 319.004C84.7145 318.858 82.5435 319.143 81.7255 320.754C80.9065 322.369 81.9665 324.297 83.1835 325.638C88.2465 331.217 96.8745 333.221 103.877 330.444" fill="#188078"/>
<path d="M89.2208 323.854C89.2228 323.825 89.6238 323.845 90.3488 323.905C90.7118 323.933 91.1568 323.969 91.6648 324.069C92.1718 324.168 92.7628 324.228 93.3898 324.409C94.0218 324.57 94.7188 324.731 95.4398 324.997C96.1758 325.221 96.9298 325.543 97.7228 325.887C99.2878 326.614 100.948 327.562 102.525 328.789C104.09 330.031 105.41 331.415 106.481 332.771C106.996 333.466 107.487 334.124 107.869 334.792C108.292 335.434 108.604 336.079 108.898 336.661C109.213 337.233 109.397 337.798 109.602 338.273C109.809 338.748 109.937 339.175 110.039 339.525C110.249 340.222 110.351 340.61 110.323 340.618C110.233 340.649 109.813 339.088 108.631 336.796C108.324 336.23 108.001 335.603 107.572 334.978C107.183 334.328 106.689 333.688 106.175 333.011C105.105 331.692 103.802 330.341 102.265 329.121C100.716 327.916 99.0928 326.975 97.5608 326.239C96.7848 325.891 96.0468 325.561 95.3268 325.326C94.6208 325.049 93.9378 324.874 93.3178 324.696C90.8218 324.046 89.2098 323.946 89.2208 323.854Z" fill="#263238"/>
</svg>
