<?xml version="1.0" encoding="utf-8"?>
<!-- Generator: Adobe Illustrator 26.3.1, SVG Export Plug-In . SVG Version: 6.00 Build 0)  -->
<svg version="1.1" id="Capa_1" xmlns="http://www.w3.org/2000/svg" xmlns:xlink="http://www.w3.org/1999/xlink" x="0px" y="0px"
	 viewBox="0 0 432 327.42" style="enable-background:new 0 0 432 327.42;" xml:space="preserve">
<style type="text/css">
	.st0{fill:#4F008C;}
</style>
<path class="st0" d="M112.7,109.81c-4.75-5.9-11.81-9.11-20.53-9.11c-17.97,0-30.93,14.24-30.93,34.65
	c0,20.53,12.96,34.9,30.93,34.9c8.85,0,15.78-3.21,20.53-9.24v32.98h15.66V102.5H112.7V109.81z M112.7,143.82
	c-3.34,6.93-9.24,11.81-17.84,11.81c-10.39,0-17.32-7.57-17.32-20.27c0-12.45,6.93-20.02,17.32-20.02c8.47,0,14.5,4.75,17.84,11.68
	V143.82z M142.35,102.5h29.51v65.83h-16.04v-51.71h-13.47V102.5z M155.82,72.09h16.04v18.22h-16.04V72.09z M210.1,102.5h21.05v14.12
	H210.1v31.57c0,4.11,2.18,6.03,5.78,6.03h15.27v14.11h-16.55c-13.99,0-20.53-7.19-20.53-18.09v-33.62h-11.93V102.5h11.93V80.81
	h16.04V102.5z M281.06,102.5h-34.01v14.12h33.36c3.72,0,5.77,2.05,5.77,6.03v3.34l-26.56,3.34c-11.55,1.41-18.48,9.11-18.48,20.28
	c0,12.32,9.37,20.66,23.1,20.66c9.75,0,17.32-3.59,21.94-10.01v8.08h15.78v-47.61C301.98,109.04,294.54,102.5,281.06,102.5z
	 M286.2,146.64c-2.69,6.55-10.14,11.04-18.09,11.04c-6.93,0-10.91-2.95-10.91-8.08c0-4.75,3.08-7.7,8.73-8.47l20.27-2.82V146.64z
	 M343.17,102.5h19.12v14.12h-19.12v51.71h-16.04v-51.71h-11.81V102.5h11.81V90.18c0-10.91,6.54-18.09,20.53-18.09h20.4V86.2h-18.99
	c-3.72,0-5.9,1.92-5.9,5.9V102.5z M155.47,218.78h8.28v5.73h-7.71c-1.51,0-2.4,0.78-2.4,2.4v4.22h7.76v5.73h-7.76v20.99h-6.51
	v-20.99h-4.79v-5.73h4.79v-5C147.14,221.7,149.79,218.78,155.47,218.78z M180.99,231.12h2.66v5.73h-3.28
	c-3.44,0-5.62,1.46-6.77,3.18v17.81h-6.51v-26.72h6.51v3.91C175.31,232.69,177.76,231.12,180.99,231.12z M200.31,230.4
	c-8.44,0-14.17,5.89-14.17,14.06c0,8.23,5.73,14.17,14.17,14.17c8.49,0,14.17-5.94,14.17-14.17
	C214.48,236.28,208.8,230.4,200.31,230.4z M200.31,252.79c-4.74,0-7.55-3.28-7.55-8.33c0-4.95,2.81-8.23,7.55-8.23
	c4.69,0,7.55,3.28,7.55,8.23C207.87,249.51,205,252.79,200.31,252.79z M258.07,239.3v18.54h-6.15v-16.46c0-2.92-1.41-5.05-4.53-5.05
	c-2.08,0-4.22,1.3-5.42,3.07v18.44h-6.15v-16.46c0-2.92-1.35-5.05-4.53-5.05c-2.24,0-4.58,1.51-5.73,3.59v17.92h-6.09v-26.72h6.09
	v2.92c2.03-2.29,5-3.65,8.23-3.65c3.49,0,5.99,1.67,7.29,4.37c2.03-2.71,5.26-4.37,8.85-4.37C255,230.4,258.07,233.99,258.07,239.3z
	 M320.04,214.84v9.37h-9.17v-9.37H320.04z M357.81,245.18l8.12,2.71c-0.69,2.5-2.01,4.93-4.17,7.01c-2.71,2.64-6.67,4.51-11.8,4.51
	c-5,0-9.51-1.87-12.71-5.07c-3.26-3.26-5.28-7.78-5.28-13.05c0-5.28,1.94-9.79,5.14-13.05c3.19-3.19,7.64-5.07,12.57-5.07
	c5.35,0,9.37,1.94,12.15,4.65c1.94,2.01,3.26,4.44,3.89,6.87l-8.26,2.78c-0.42-1.32-1.04-2.64-2.08-3.68
	c-1.25-1.25-2.99-2.08-5.49-2.08c-2.36,0-4.51,0.83-6.11,2.43c-1.6,1.67-2.57,4.03-2.57,7.15c0,3.06,0.97,5.49,2.57,7.15
	c1.6,1.6,3.82,2.5,6.18,2.5c2.57,0,4.37-0.9,5.69-2.15C356.77,247.75,357.47,246.43,357.81,245.18z M320.04,224.21h9.17v8.89h-9.17
	V224.21z M310.88,233.1h9.17v13.54c0,1.6,0.35,2.78,1.04,3.47c0.83,0.76,1.94,1.11,3.47,1.11c2.15,0,3.82-0.76,4.65-1.39v7.5
	c-1.11,0.97-3.68,2.08-7.29,2.08c-3.54,0-6.39-1.04-8.33-2.99c-1.74-1.81-2.71-4.37-2.71-7.57V233.1z M302.55,241.43
	c1.81,1.81,2.78,4.17,2.78,6.8c0,2.92-1.11,5.42-2.99,7.29c-2.5,2.43-6.32,3.89-10.97,3.89c-4.79,0-9.03-1.67-11.66-4.44
	c-1.67-1.67-2.78-3.75-2.99-6.11l7.92-1.74c0.07,1.25,0.56,2.36,1.39,3.19c1.18,1.25,3.06,2.01,5.35,2.01c3.19,0,5.14-1.25,5.14-3.4
	c0-1.74-1.18-2.71-3.82-3.33l-5.28-1.25c-3.19-0.76-5.62-2.01-7.29-3.68s-2.5-3.82-2.5-6.39c0-2.92,1.18-5.55,3.26-7.5
	c2.43-2.22,5.97-3.61,10.21-3.61c4.58,0,8.47,1.6,10.97,4.1c1.6,1.6,2.64,3.54,2.85,5.76l-7.71,1.74c-0.14-1.11-0.62-2.08-1.32-2.85
	c-1.11-1.11-2.78-1.74-4.72-1.74c-3.12,0-5.07,1.39-5.07,3.4c0,1.53,1.25,2.64,3.47,3.06l5.35,1.04
	C298.17,238.31,300.74,239.63,302.55,241.43z"/>
</svg>
