<svg xmlns="http://www.w3.org/2000/svg" width="750" height="500" fill="none"><path fill="#F5F5F5" d="m219.882 122.262-112.204 75.055 110.515 165.217 112.205-75.055z"/><path fill="#E0E0E0" d="m272.419 279.659-1.274 7.881-55.778-8.035 1.273-7.881z"/><path fill="#E0E0E0" d="m244.328 251.546 8.004 1.154-8.874 54.917-8.005-1.152zM192.952 181.745c.08.12-11.165 7.781-25.112 17.11-13.952 9.332-25.324 16.798-25.404 16.678s11.162-7.779 25.115-17.111c13.947-9.329 25.321-16.796 25.401-16.677M234.216 171.387c.08.12-18.619 12.767-41.759 28.244-23.149 15.483-41.973 27.934-42.053 27.814-.08-.119 18.615-12.764 41.763-28.247 23.14-15.477 41.969-27.93 42.049-27.811M242.487 183.753c.08.12-18.619 12.767-41.759 28.244-23.149 15.483-41.973 27.934-42.053 27.814s18.615-12.764 41.763-28.247c23.141-15.477 41.969-27.93 42.049-27.811M250.758 196.12c.08.12-18.619 12.767-41.759 28.244-23.149 15.483-41.973 27.934-42.053 27.814-.08-.119 18.615-12.764 41.763-28.247 23.141-15.478 41.969-27.931 42.049-27.811M259.03 208.485c.08.12-18.619 12.766-41.759 28.244-23.149 15.483-41.973 27.934-42.053 27.814s18.615-12.764 41.763-28.247c23.14-15.477 41.969-27.93 42.049-27.811"/><path fill="#F5F5F5" d="m595.078 232.976-94.232 63.033 92.814 138.754 94.232-63.033z"/><path fill="#E0E0E0" d="m639.198 365.18-1.069 6.618-46.845-6.749 1.07-6.618z"/><path fill="#E0E0E0" d="m615.607 341.568 6.722.969-7.453 46.121-6.722-.968zM572.46 282.948c.08.12-9.353 6.569-21.067 14.404-11.718 7.837-21.278 14.092-21.358 13.972s9.351-6.568 21.069-14.405c11.713-7.834 21.276-14.09 21.356-13.971M607.114 274.249c.08.12-15.613 10.756-35.047 23.755-19.441 13.003-35.26 23.444-35.34 23.324s15.61-10.754 35.051-23.757c19.433-12.998 35.256-23.441 35.336-23.322M614.06 284.635c.08.12-15.613 10.757-35.047 23.755-19.441 13.003-35.26 23.444-35.34 23.324s15.61-10.754 35.051-23.757c19.433-12.999 35.256-23.442 35.336-23.322M621.006 295.02c.08.12-15.613 10.756-35.047 23.755-19.441 13.003-35.26 23.444-35.34 23.324s15.61-10.754 35.051-23.757c19.433-12.998 35.256-23.441 35.336-23.322M627.954 305.405c.08.12-15.613 10.756-35.047 23.755-19.441 13.003-35.26 23.444-35.34 23.324s15.61-10.754 35.051-23.757c19.433-12.998 35.256-23.442 35.336-23.322"/><path fill="#F5F5F5" d="M445.99 128.328 343.172 73.34l-80.969 151.395 102.818 54.989z"/><path fill="#E0E0E0" d="m347.422 232.368-6.523 2.234-16.558-45.774 6.524-2.234z"/><path fill="#E0E0E0" d="m357.423 199.528 2.377 6.569-45.46 15.569-2.376-6.569zM389.724 131.993c-.081.151-10.509-5.27-23.29-12.105-12.785-6.838-23.081-12.501-23-12.652s10.507 5.269 23.292 12.106c12.781 6.836 23.079 12.501 22.998 12.651M414.397 159.227c-.081.151-17.34-8.923-38.544-20.263-21.212-11.345-38.337-20.66-38.256-20.811s17.336 8.921 38.548 20.266c21.204 11.34 38.333 20.657 38.252 20.808M408.336 170.559c-.081.151-17.34-8.923-38.544-20.264-21.212-11.345-38.337-20.66-38.256-20.811s17.336 8.921 38.548 20.266c21.204 11.34 38.332 20.658 38.252 20.809M402.276 181.89c-.081.151-17.34-8.923-38.544-20.264-21.212-11.344-38.337-20.66-38.256-20.811.08-.151 17.336 8.921 38.548 20.266 21.204 11.341 38.333 20.659 38.252 20.809M396.215 193.222c-.081.151-17.339-8.923-38.544-20.264-21.212-11.344-38.337-20.66-38.256-20.811s17.336 8.921 38.548 20.266c21.204 11.341 38.332 20.659 38.252 20.809"/><path fill="#263238" d="M663.667 439.828c0 .144-129.251.26-288.653.26-159.457 0-288.68-.117-288.68-.26s129.223-.26 288.68-.26c159.402 0 288.653.117 288.653.26"/><path fill="#E8505B" d="M118.287 377.201c3.381.119 6.555 1.954 8.785 4.499s3.597 5.743 4.472 9.012c1.692 6.323.652 13.786-1.151 20.078-6.846-2.447-11.067-9.747-12.976-13.586-3.018-6.066-4.787-18.862.87-20.003M140.243 418.454c-2.16-3.101-2.211-7.414-.503-10.786s4.988-5.803 8.601-6.913c1.671-.513 3.609-.729 5.062.242 1.359.907 1.946 2.688 1.77 4.312s-.998 3.111-1.969 4.425c-3.329 4.507-7.378 8.257-12.961 8.72"/><path fill="#263238" d="M140.995 439.584c-.033.005-.137-.464-.306-1.314l-.704-3.604c-.54-3.03-1.397-7.339-.749-12.103.623-4.743 2.511-8.797 4.49-11.218.974-1.225 1.907-2.092 2.597-2.625.334-.281.628-.453.815-.585.191-.126.296-.185.306-.172.075.085-1.6 1.117-3.451 3.586-1.875 2.429-3.672 6.414-4.286 11.077-.638 4.667.152 8.937.609 11.983.245 1.53.442 2.77.556 3.631.113.861.155 1.34.123 1.344"/><path fill="#263238" d="M120.494 386.826c.015-.007.11.172.276.518l.705 1.524a312 312 0 0 1 2.486 5.653 574 574 0 0 1 7.697 18.864 573 573 0 0 1 7.034 19.124 307 307 0 0 1 1.975 5.851l.506 1.601c.111.368.161.563.146.569-.016.005-.096-.18-.236-.538l-.59-1.572-2.117-5.799a1026 1026 0 0 0-7.161-19.065 1027 1027 0 0 0-7.564-18.905l-2.347-5.71-.624-1.559c-.136-.358-.201-.549-.186-.556"/><path fill="#E8505B" d="M132.869 425.604c-4.037-6.869-11.575-11.553-19.522-12.129-2.024-.147-4.458.194-5.36 2.011-.904 1.82.305 3.975 1.684 5.468 5.736 6.213 15.44 8.379 23.274 5.195"/><path fill="#263238" d="M116.43 418.892c.002-.033.452-.014 1.267.047.408.028.907.064 1.478.171.57.106 1.233.168 1.939.365.711.174 1.495.348 2.307.641.828.245 1.678.599 2.571.977 1.764.801 3.635 1.849 5.417 3.212a27.4 27.4 0 0 1 4.478 4.431c.584.775 1.142 1.509 1.577 2.255.481.717.838 1.438 1.173 2.088.359.639.571 1.271.806 1.802.237.531.385 1.009.503 1.401.243.781.361 1.215.33 1.224-.101.035-.588-1.713-1.936-4.273-.35-.633-.719-1.333-1.207-2.03-.442-.726-1.004-1.439-1.587-2.194a28.5 28.5 0 0 0-4.426-4.328c-1.75-1.338-3.581-2.379-5.308-3.189-.874-.383-1.706-.746-2.517-1.003-.794-.304-1.564-.494-2.261-.688-2.805-.71-4.615-.806-4.604-.909"/><path fill="#E8505B" d="m298.958 234.545-35.361 181.799-4.629 23.799 236.063-1.165c10.594-.052 19.983-9.459 23.392-23.435l41.859-171.637c2.587-10.61-3.09-21.645-11.133-21.636l-238.923.251c-5.275.007-9.887 4.929-11.268 12.024"/><path fill="#000" d="m298.958 234.545-35.361 181.799-4.629 23.799 236.063-1.165c10.594-.052 19.983-9.459 23.392-23.435l41.859-171.637c2.587-10.61-3.09-21.645-11.133-21.636l-238.923.251c-5.275.007-9.887 4.929-11.268 12.024" opacity=".5"/><path fill="#E8505B" d="m472.387 404.026-24.994-201.408c-1.024-8.253-7.598-14.409-15.36-14.383l-54.806.179c-4.056.013-7.945 1.738-10.827 4.801l-26.025 27.665-152.426.795c-9.315.049-16.471 8.862-15.236 18.765l23.206 186.153c1.027 8.241 7.589 14.389 15.34 14.373l265.647-.525c29.587.613 32.411-8.125 32.411-8.125-33.907 7.515-36.927-28.267-36.93-28.29"/><g fill="#fff" opacity=".5"><path d="m357.842 363.718-8.959 9.622-69.003-62.075 8.96-9.622z"/><path d="m345.128 299.51 9.902 8.907-62.435 67.057-9.902-8.908z"/></g><path fill="#E8505B" d="M510.319 103.785a1.87 1.87 0 0 1-1.131-1.636l-.399-9.284a1.862 1.862 0 0 1 2.292-1.896c1.492.352 3.138.027 4.515-.892 1.268-.846 2.119-2.092 2.334-3.419.216-1.322-.193-2.785-1.122-4.015-.995-1.317-2.465-2.204-3.941-2.373-3.011-.347-6.262 1.96-7.099 5.038a1.865 1.865 0 0 1-2.289 1.311 1.857 1.857 0 0 1-1.312-2.29c1.314-4.838 6.306-8.322 11.128-7.767 2.5.288 4.869 1.684 6.489 3.83 1.542 2.04 2.208 4.542 1.829 6.866-.382 2.345-1.82 4.503-3.946 5.922a9.76 9.76 0 0 1-5.06 1.652l.31 7.156a1.866 1.866 0 0 1-2.598 1.797M513.055 107.577a1.527 1.527 0 1 1-3.046.208 1.527 1.527 0 0 1 3.046-.208"/><path fill="#263238" d="M478.186 90.694c.012 0 .043-.206.09-.609l.196-1.788c.045-.791.247-1.747.484-2.874.132-.56.2-1.183.405-1.813l.62-2.019c.968-2.808 2.461-6.176 4.973-9.526 2.494-3.343 6.001-6.646 10.502-9.148 2.217-1.322 4.752-2.243 7.41-3.056 2.699-.639 5.56-1.187 8.549-1.116 1.495-.08 3.002.139 4.538.268.767.073 1.522.278 2.293.412.771.142 1.546.293 2.301.555 3.087.792 6.086 2.248 8.944 4.053 5.737 3.609 10.568 9.481 13.218 16.599 1.329 3.561 1.965 7.465 1.96 11.408.079 3.951-.686 7.964-2.092 11.742l-.451 1.142-.059.151.061.141 7.351 16.933.421-.478-14.976-5.754-.185-.071-.145.141a33.5 33.5 0 0 1-14.142 8.165c-5.04 1.421-10.116 1.494-14.733.673a32.9 32.9 0 0 1-12.267-4.864c-3.484-2.275-6.278-5.041-8.432-7.852-2.138-2.842-3.546-5.756-4.61-8.359-.936-2.66-1.51-5.021-1.788-6.975l-.314-2.601-.05-1.911-.039-1.171q-.018-.396-.033-.398-.013 0-.024.397l-.015 1.174q-.002.794-.003 1.922l.265 2.622c.246 1.973.792 4.363 1.709 7.062 1.044 2.641 2.443 5.604 4.585 8.5a34.5 34.5 0 0 0 8.492 8.019 33.3 33.3 0 0 0 12.429 5.005c4.686.854 9.847.801 14.98-.629 5.118-1.426 10.182-4.185 14.426-8.281l-.331.07 14.968 5.777.755.291-.333-.769-7.342-16.937.002.291.461-1.167c1.438-3.861 2.217-7.966 2.136-12.004.003-4.03-.653-8.021-2.015-11.658-2.715-7.271-7.658-13.246-13.51-16.908-2.915-1.832-5.974-3.302-9.117-4.1-.769-.263-1.558-.414-2.342-.556-.784-.134-1.553-.339-2.333-.411-1.561-.125-3.094-.34-4.612-.253-3.038-.058-5.944.51-8.68 1.175-2.696.839-5.263 1.79-7.505 3.144-4.551 2.567-8.081 5.942-10.576 9.349-2.514 3.413-3.987 6.836-4.924 9.682l-.595 2.045c-.197.638-.256 1.267-.378 1.833-.217 1.14-.399 2.104-.422 2.901l-.13 1.8q-.037.61-.021.614"/></svg>