<svg xmlns="http://www.w3.org/2000/svg" width="16" height="16" fill="none"><path fill="#fff" d="M11.133 1.928a.641.641 0 0 0-.907-.907L7.021 4.226a.641.641 0 1 0 .907.907zM14.979 1.928a.64.64 0 1 0-.907-.907L8.944 6.15a.641.641 0 0 0 .907.907zM13.697 7.056a.641.641 0 0 0-.907-.907l-1.923 1.923a.641.641 0 0 0 .907.907zM9.785 9.641c-.158-.496-.634-.75-1.13-.833l-1.276-.214c-.132-.022-.19-.11-.203-.152l-.704-1.42c-.225-.455-.609-.855-1.14-.855s-.916.399-1.143.854l-.705 1.42c-.02.052-.088.153-.2.153l-1.274.214c-.497.083-.972.338-1.13.834-.156.494.083.977.438 1.334l.991 1c.04.023.112.108.076.266l-.284 1.238c-.122.531-.103 1.154.362 1.496.468.344 1.067.171 1.534-.108l1.193-.712a.28.28 0 0 1 .282-.002l1.196.714c.467.278 1.067.454 1.534.11.466-.343.483-.967.361-1.498l-.283-1.236a.29.29 0 0 1 .075-.268l.99-.999h.001c.357-.358.596-.84.439-1.336"/></svg>