<svg xmlns="http://www.w3.org/2000/svg" width="1440" height="452" fill="none"><g clip-path="url(#a)"><path fill="#FAFAFA" d="M234.305 0c14.181 0 23.244 6.962 30.519 12.559 9.12 7.006 15.687 12.061 32.53 8.188 38.212-8.83 804.816-9.487 839.156-3.51 9.96 1.734 17.83 3.884 24.15 5.61 15.42 4.214 16.4 4.132 21.11-1.77 12.93-16.167 28.74-18.042 36.04-16.623l18.27 3.578-13.13 13.22c-.1.103-10.96 11.288-15.6 26.652q.12.319.24.653H1440V452H0V48.557h242.062l.576-2.24c-3.125-15.953-15.458-29.41-15.599-29.563L211.506.02z"/></g><defs><clipPath id="a"><path fill="#fff" d="M0 0h1440v452H0z"/></clipPath></defs></svg>