<svg xmlns="http://www.w3.org/2000/svg" width="204" height="59" fill="none"><path fill="#000" d="M196.396 59H7.554C3.4 59 0 55.68 0 51.625V7.375C0 3.321 3.401 0 7.554 0h188.842c4.153 0 7.554 3.32 7.554 7.375v44.25c0 4.054-3.401 7.375-7.554 7.375"/><path fill="#A6A6A6" d="M196.396 1.182c3.498 0 6.344 2.778 6.344 6.193v44.25c0 3.415-2.846 6.193-6.344 6.193H7.554c-3.498 0-6.344-2.778-6.344-6.193V7.375c0-3.415 2.846-6.193 6.344-6.193zm0-1.182H7.554C3.4 0 0 3.32 0 7.375v44.25C0 55.679 3.401 59 7.554 59h188.842c4.153 0 7.554-3.32 7.554-7.375V7.375c0-4.054-3.401-7.375-7.554-7.375"/><path fill="#fff" stroke="#fff" stroke-miterlimit="10" stroke-width=".16" d="M71.636 15.11c0 1.231-.378 2.218-1.122 2.953q-1.286 1.31-3.335 1.311c-1.305 0-2.42-.446-3.333-1.325-.916-.893-1.373-1.988-1.373-3.299q0-1.964 1.373-3.291c.914-.887 2.028-1.333 3.333-1.333.65 0 1.269.13 1.86.374.59.245 1.069.577 1.416.987l-.79.778c-.605-.7-1.43-1.044-2.486-1.044q-1.427-.001-2.478.98-1.04.983-1.04 2.55c0 1.043.347 1.9 1.04 2.556.7.648 1.526.98 2.478.98 1.01 0 1.86-.332 2.53-.987q.661-.649.76-1.794h-3.29V14.44h4.389c.052.23.067.454.067.67Zm6.962-3.695h-4.122v2.802h3.716v1.066h-3.716v2.802h4.122v1.086h-5.29V10.33h5.29zm4.914 7.756h-1.167v-7.756h-2.529v-1.086h6.226v1.086h-2.53zm7.036 0V10.33h1.165v8.842zm6.33 0H95.72v-7.756h-2.538v-1.086h6.234v1.086h-2.538zm14.326-1.137q-1.34 1.34-3.32 1.34c-1.328 0-2.434-.446-3.327-1.34q-1.337-1.34-1.336-3.284-.001-1.944 1.336-3.284c.893-.894 1.999-1.34 3.327-1.34 1.312 0 2.419.446 3.312 1.348.899.9 1.343 1.987 1.343 3.276q0 1.944-1.335 3.284Zm-5.784-.741c.672.662 1.49.993 2.464.993.967 0 1.792-.332 2.457-.993.67-.662 1.01-1.512 1.01-2.543 0-1.03-.34-1.88-1.01-2.542-.665-.662-1.49-.994-2.457-.994-.974 0-1.792.332-2.464.994s-1.011 1.511-1.011 2.542.34 1.88 1.011 2.543Zm8.756 1.878V10.33h1.416l4.404 6.877h.051l-.051-1.7V10.33h1.165v8.842h-1.216l-4.611-7.216h-.051l.051 1.707v5.51h-1.158Z"/><path fill="#fff" d="M102.934 32.085c-3.548 0-6.447 2.636-6.447 6.274 0 3.608 2.899 6.273 6.447 6.273 3.556 0 6.455-2.665 6.455-6.273 0-3.638-2.899-6.274-6.455-6.274m0 10.076c-1.947 0-3.622-1.57-3.622-3.802 0-2.262 1.675-3.804 3.622-3.804s3.63 1.542 3.63 3.804c0 2.233-1.683 3.802-3.63 3.802M88.868 32.085c-3.556 0-6.448 2.636-6.448 6.274 0 3.608 2.892 6.273 6.448 6.273 3.553 0 6.447-2.665 6.447-6.273 0-3.638-2.894-6.274-6.447-6.274m0 10.076c-1.95 0-3.63-1.57-3.63-3.802 0-2.262 1.68-3.804 3.63-3.804 1.946 0 3.622 1.542 3.622 3.804 0 2.233-1.676 3.802-3.622 3.802m-16.74-8.153v2.666h6.521c-.19 1.49-.7 2.585-1.482 3.348-.952.922-2.434 1.945-5.038 1.945-4.013 0-7.156-3.162-7.156-7.08s3.143-7.08 7.156-7.08c2.17 0 3.748.828 4.913 1.901l1.924-1.879c-1.63-1.519-3.797-2.686-6.837-2.686-5.503 0-10.128 4.372-10.128 9.744 0 5.373 4.625 9.745 10.128 9.745 2.974 0 5.208-.952 6.964-2.737 1.8-1.757 2.36-4.227 2.36-6.222 0-.62-.052-1.19-.147-1.665zm68.448 2.067c-.53-1.403-2.168-3.99-5.503-3.99-3.304 0-6.056 2.542-6.056 6.274 0 3.514 2.723 6.273 6.374 6.273 2.951 0 4.655-1.758 5.355-2.78l-2.19-1.426c-.731 1.043-1.726 1.735-3.165 1.735-1.43 0-2.455-.64-3.112-1.901l8.594-3.472zm-8.762 2.089a3.48 3.48 0 0 1 3.356-3.658c1.122 0 2.073.547 2.391 1.33zm-6.985 6.086h2.825V25.812h-2.825zm-4.627-10.768h-.094c-.635-.733-1.845-1.397-3.379-1.397-3.218 0-6.16 2.758-6.16 6.294 0 3.516 2.942 6.253 6.16 6.253 1.534 0 2.744-.67 3.379-1.426h.094v.9c0 2.399-1.312 3.688-3.429 3.688-1.726 0-2.797-1.217-3.239-2.24l-2.457 1c.708 1.664 2.584 3.71 5.696 3.71 3.312 0 6.107-1.903 6.107-6.532V32.466h-2.678zm-3.231 8.679c-1.947 0-3.577-1.591-3.577-3.782 0-2.21 1.63-3.824 3.577-3.824 1.919 0 3.431 1.614 3.431 3.824 0 2.19-1.512 3.782-3.431 3.782m36.832-16.349h-6.757V44.25h2.818v-6.986h3.939c3.129 0 6.198-2.21 6.198-5.727 0-3.514-3.077-5.725-6.198-5.725m.074 8.887h-4.013v-6.322h4.013c2.103 0 3.304 1.706 3.304 3.16 0 1.427-1.201 3.162-3.304 3.162m17.416-2.65c-2.035 0-4.152.878-5.023 2.824l2.501 1.023c.538-1.023 1.527-1.355 2.573-1.355 1.462 0 2.945.857 2.967 2.37v.194c-.51-.287-1.601-.713-2.944-.713-2.693 0-5.437 1.447-5.437 4.148 0 2.47 2.206 4.062 4.686 4.062 1.896 0 2.942-.835 3.599-1.807h.096v1.425h2.721v-7.072c0-3.27-2.5-5.098-5.739-5.098m-.339 10.105c-.922 0-2.206-.447-2.206-1.562 0-1.427 1.601-1.975 2.987-1.975 1.241 0 1.823.268 2.576.62-.221 1.707-1.726 2.916-3.357 2.916m15.993-9.7-3.239 7.992h-.096l-3.348-7.992h-3.039l5.031 11.169-2.871 6.215h2.944l7.752-17.385zM161.549 44.25h2.825V25.812h-2.825zM45.653 27.153 19.43 12.15a2.5 2.5 0 0 0-2.519 0 2.45 2.45 0 0 0-1.231 2.142v30.04a2.45 2.45 0 0 0 1.238 2.137 2.5 2.5 0 0 0 2.518 0l26.216-15a2.462 2.462 0 0 0 0-4.32zM33.18 31.08l2.956 2.956-13.828 7.916zM22.306 16.672l13.833 7.917-2.958 2.956zm16.08 16.078-3.438-3.438 3.438-3.437 6.004 3.437z"/></svg>