<svg xmlns="http://www.w3.org/2000/svg" width="48" height="48" fill="none"><path fill="#188078" fill-rule="evenodd" d="M37.962 9.3a31.19 31.19 0 0 0-27.923 0c-2.327 1.158-2.89 1.493-3.44 2.382-.535.865-.598 1.748-.598 5.03v14.577c0 3.281.063 4.164.599 5.03.55.889 1.112 1.223 3.44 2.382a31.2 31.2 0 0 0 27.922 0c2.327-1.159 2.89-1.493 3.44-2.382.535-.866.599-1.749.599-5.03V16.712c0-3.282-.064-4.165-.6-5.03-.55-.89-1.112-1.224-3.439-2.383M8.255 5.718a35.19 35.19 0 0 1 31.723.116c2.029 1.008 3.623 1.801 4.825 3.741 1.203 1.944 1.2 4.04 1.198 6.74v15.368c.003 2.701.005 4.797-1.199 6.74-1.2 1.94-2.796 2.734-4.824 3.742l-.233.116a35.2 35.2 0 0 1-31.49 0q-.116-.06-.232-.116C5.995 41.158 4.4 40.365 3.2 38.425 1.995 36.48 1.998 34.385 2 31.685V16.315c-.002-2.7-.005-4.796 1.199-6.74 1.2-1.94 2.795-2.733 4.824-3.741z" clip-rule="evenodd"/><g fill="#188078" opacity=".4"><path d="M13.5 11.5a4 4 0 1 0 0 8 4 4 0 0 0 0-8M24.16 29.973c-4.493-3.329-10.117-5.083-15.87-4.968-1.352-.002-2.7.092-4.035.282a1.51 1.51 0 0 0-1.314 1.492c.02 3.426.108 6.183.532 8.407.433 2.27 1.387 3.794 2.913 5.286 1.512 1.152 3.272 1.839 5.229 2.602.464.182.94.367 1.426.565C15.79 44 19.308 44 23.79 44h.143c2.752 0 5.13 0 7.173-.078.464-.018.896-.241 1.172-.607.277-.365.37-.834.251-1.273-1.278-4.757-4.22-8.995-8.368-12.07M30.583 29.824c-.686.216-.87 1.057-.4 1.592 2.506 2.863 4.334 6.222 5.313 9.863.2.747.19 1.157 0 1.887 2.473-.406 3.97-1.176 5.932-2.515 2.12-2.073 2.986-4.706 3.263-8.333a1.49 1.49 0 0 0-.851-1.457c-2.543-1.227-5.2-1.863-7.892-1.86a17.6 17.6 0 0 0-5.365.823"/></g></svg>