<svg xmlns="http://www.w3.org/2000/svg" width="16" height="16" fill="none"><path fill="#767676" fill-rule="evenodd" d="M8 4.5a2.833 2.833 0 1 0 0 5.667A2.833 2.833 0 0 0 8 4.5M6.167 7.333a1.833 1.833 0 1 1 3.666 0 1.833 1.833 0 0 1-3.666 0" clip-rule="evenodd"/><path fill="#767676" fill-rule="evenodd" d="M8 .833c-2.55 0-4.984 1.51-6.002 3.89-.948 2.216-.435 4.102.634 5.717.876 1.324 2.153 2.505 3.306 3.571q.33.306.642.598h.001c.384.36.893.558 1.42.558s1.036-.198 1.42-.557q.293-.275.605-.561c1.165-1.074 2.46-2.268 3.346-3.608 1.067-1.617 1.579-3.505.632-5.718C12.985 2.343 10.552.833 8 .833M2.918 5.116c.853-1.992 2.91-3.283 5.084-3.283s4.23 1.29 5.083 3.283c.782 1.827.387 3.359-.547 4.774-.811 1.23-2 2.326-3.17 3.405q-.317.292-.63.585a1.08 1.08 0 0 1-.736.287c-.277 0-.54-.105-.736-.287q-.333-.313-.672-.626c-1.154-1.069-2.324-2.152-3.127-3.366-.935-1.413-1.331-2.943-.549-4.772" clip-rule="evenodd"/></svg>