<svg xmlns="http://www.w3.org/2000/svg" width="140" height="40" fill="none"><g clip-path="url(#a)"><path fill="#000" d="M25.954 19.554c-.01.445.08.886.263 1.291a2.87 2.87 0 0 0 1.62 1.52c.345.135.712.205 1.082.207v5.346a8.12 8.12 0 0 1-5.61-2.195 13.6 13.6 0 0 1-3.023 1.59 18.8 18.8 0 0 1-3.593.97 22 22 0 0 1-3.854.309 19 19 0 0 1-3.807-.399 14.9 14.9 0 0 1-3.47-1.189 10.6 10.6 0 0 1-2.853-2.01 8.8 8.8 0 0 1-1.927-2.89 9.8 9.8 0 0 1-.708-3.829v-.8h5.36v.71c-.015.772.216 1.529.662 2.16a5.56 5.56 0 0 0 1.76 1.575 9.1 9.1 0 0 0 2.545.971c.988.225 1.995.351 3.007.376q.206.001.824-.067.712-.08 1.413-.232a15 15 0 0 0 1.687-.48 8.4 8.4 0 0 0 1.619-.755 4.4 4.4 0 0 0 1.208-1.073c.318-.417.487-.929.479-1.453v-8.38h5.32zM12.482 6.278l3.172-3.174 3.83 3.816-3.83 3.817-3.172-3.184-3.216 3.177-3.81-3.817 3.81-3.816z"/><path fill="#000" d="M40.143 22.572H28.875v5.346h11.268zM42.47 29.06l3.193 3.196 3.192-3.196 3.834 3.814-3.834 3.838-3.192-3.177-3.192 3.177-3.834-3.838z"/><path fill="#000" d="M48.423 19.554c-.01.444.076.884.25 1.291.153.355.379.675.661.939.277.252.599.449.949.581.345.135.712.205 1.082.207v5.346a8.1 8.1 0 0 1-3.079-.584 8.4 8.4 0 0 1-2.544-1.611 8.4 8.4 0 0 1-2.557 1.61 8.05 8.05 0 0 1-3.079.585v-5.346c.37-.002.738-.072 1.083-.207.352-.134.678-.331.96-.581.29-.263.521-.583.682-.939.183-.405.273-.846.264-1.29v-8.728h5.337z"/><path fill="#000" d="M59.645 19.554c-.01.444.076.884.25 1.291.153.355.378.675.661.939.277.252.599.449.949.581.345.135.712.205 1.082.207v5.346a8.1 8.1 0 0 1-3.079-.584 8.4 8.4 0 0 1-2.544-1.611 8.4 8.4 0 0 1-2.545 1.61 8.1 8.1 0 0 1-3.08.585v-5.346c.371-.002.738-.072 1.084-.207.351-.134.676-.33.957-.581.294-.262.53-.581.694-.939.182-.405.272-.846.262-1.29v-8.728h5.339zM56.906 29.15l3.856 3.838-3.856 3.816-3.808-3.816z"/><path fill="#000" d="M62.543 22.572c.466.017.933-.025 1.388-.126a2.8 2.8 0 0 0 1.106-.514c.318-.252.57-.578.731-.95a3.5 3.5 0 0 0 .261-1.428v-4.067a8 8 0 0 1 .65-3.22 8.34 8.34 0 0 1 4.426-4.422 8.3 8.3 0 0 1 6.442 0 8.4 8.4 0 0 1 2.638 1.793 8.6 8.6 0 0 1 1.79 2.64 7.9 7.9 0 0 1 .662 3.221v4.136a8 8 0 0 1-.662 3.245 8.47 8.47 0 0 1-4.425 4.444 7.9 7.9 0 0 1-3.216.663 8.1 8.1 0 0 1-3.093-.619 8.3 8.3 0 0 1-2.565-1.645 7.05 7.05 0 0 1-2.84 1.726c-1.072.307-2.18.463-3.295.464zM71.37 15.6v3.953c-.009.444.077.884.252 1.291.155.36.384.682.67.948.561.513 1.284.812 2.043.846.367.015.734-.035 1.083-.149a2.6 2.6 0 0 0 .96-.546 2.7 2.7 0 0 0 .673-.971c.177-.452.262-.934.25-1.419v-3.953a3.6 3.6 0 0 0-.25-1.416 2.8 2.8 0 0 0-.673-.982 2.6 2.6 0 0 0-.96-.559 3 3 0 0 0-1.083-.148c-.372.014-.739.092-1.085.231-.354.145-.68.354-.957.617-.284.273-.512.599-.671.96a3.15 3.15 0 0 0-.252 1.29"/><path fill="#47C0B5" d="m139.849 1.218-2.892-.565c-1.153-.228-3.648.073-5.7 2.626-.746.932-.901.946-3.341.28a39 39 0 0 0-3.819-.886c-5.431-.944-19.131-.842-25.175.554-2.666.613-3.703-.185-5.147-1.293C92.624 1.049 91.19-.05 88.948-.05h-3.607l2.465 2.646c.018.02 1.972 2.148 2.467 4.67l-1.943 7.55c-.394 1.49-.62 3.019-.673 4.56v1.148c.058 1.54.287 3.07.684 4.56.992 3.85 1.56 6.064 1.982 7.336-.424 2.612-2.488 4.86-2.508 4.88l-2.486 2.65h3.617c2.241 0 3.673-1.1 4.827-1.984 1.443-1.108 2.483-1.908 5.146-1.292 6.045 1.393 19.747 1.497 25.178.554a39 39 0 0 0 3.817-.887c2.44-.666 2.595-.652 3.341.278 2.052 2.556 4.546 2.856 5.7 2.626l2.866-.565-2.052-2.084a11.9 11.9 0 0 1-1.851-2.68l-.016-.026a2.84 2.84 0 0 1-.44-1.867c.428-1.425 1.368-4.489 1.514-4.965 1.368-4.393 1.406-9.612.086-13.961l-.228-.734c-.732-2.415-1.188-3.912-1.537-4.847a11.5 11.5 0 0 1 2.467-4.21z"/><path fill="#fff" d="M122.218 15.765h-7.622v7.621h7.622zM111.738 15.765h-7.622v7.621h7.622z"/></g><defs><clipPath id="a"><path fill="#fff" d="M0 0h140v40H0z"/></clipPath></defs></svg>