<svg xmlns="http://www.w3.org/2000/svg" width="43" height="32" fill="none"><path fill="#47C0B5" d="M43 1.014 40.72.562c-.91-.183-2.878.058-4.496 2.1-.588.747-.71.758-2.635.225a30 30 0 0 0-3.012-.71c-4.284-.754-15.09-.672-19.857.444-2.102.49-2.92-.148-4.059-1.034C5.753.879 4.621 0 2.854 0H.01l1.944 2.117c.014.017 1.556 1.718 1.946 3.736l-1.532 6.04a16.7 16.7 0 0 0-.53 3.647v.92c.045 1.232.226 2.456.539 3.647.782 3.08 1.23 4.851 1.563 5.87-.335 2.09-1.963 3.887-1.979 3.904L0 32h2.852c1.768 0 2.898-.88 3.808-1.587 1.138-.886 1.958-1.526 4.059-1.034 4.767 1.115 15.574 1.198 19.858.443a30 30 0 0 0 3.01-.709c1.924-.533 2.047-.522 2.635.223 1.618 2.044 3.586 2.285 4.496 2.1l2.26-.452-1.618-1.667a9.5 9.5 0 0 1-1.46-2.145l-.013-.02a2.3 2.3 0 0 1-.347-1.493c.338-1.14 1.079-3.591 1.194-3.972 1.08-3.515 1.11-7.69.068-11.17l-.18-.587C40.046 8 39.686 6.8 39.41 6.053a9.25 9.25 0 0 1 1.946-3.368z"/><path fill="#fff" d="M29.095 12.652h-6.012v6.096h6.012zM20.83 12.652h-6.013v6.096h6.012z"/></svg>