<svg width="64" height="64" viewBox="0 0 64 64" fill="none" xmlns="http://www.w3.org/2000/svg">
<rect width="64" height="64" rx="32" fill="#188078"/>
<path d="M51 18.8873L49.0378 18.4915C48.2548 18.3319 46.5619 18.5426 45.1691 20.3299C44.6631 20.9826 44.5579 20.9921 42.9021 20.5262C42.0488 20.2744 41.1837 20.0672 40.3101 19.9054C36.624 19.2447 27.3268 19.3165 23.2245 20.2932C21.4155 20.7224 20.7114 20.1639 19.7318 19.3884C18.9504 18.7692 17.977 18 16.4558 18H14.0077L15.6805 19.8527C15.6929 19.8671 17.0191 21.356 17.3549 23.1209L16.0365 28.4062C15.7688 29.4491 15.6157 30.5197 15.58 31.5979V32.4021C15.619 33.4805 15.7747 34.551 16.0442 35.5938C16.7174 38.2891 17.1027 39.8386 17.389 40.7291C17.1011 42.5578 15.7007 44.1313 15.6867 44.1457L14 46H16.4543C17.9754 46 18.9473 45.2308 19.7303 44.6117C20.7098 43.8361 21.4155 43.276 23.2229 43.7068C27.3253 44.6819 36.624 44.7553 40.3101 44.0946C41.1831 43.9327 42.0477 43.7255 42.9005 43.4738C44.5563 43.0079 44.6616 43.0174 45.1676 43.6685C46.5603 45.4574 48.2532 45.6681 49.0363 45.5069L50.9814 45.1111L49.5887 43.6526C49.0884 43.0894 48.6656 42.4579 48.3322 41.7759L48.3213 41.7584C48.0783 41.3714 47.9728 40.9095 48.0227 40.4514C48.3136 39.454 48.9512 37.3092 49.0502 36.9757C49.9787 33.9006 50.005 30.2478 49.109 27.203L48.9543 26.6892C48.4575 24.9992 48.148 23.9508 47.9113 23.2965C48.2589 22.202 48.8298 21.197 49.5856 20.349L51 18.8873Z" fill="white"/>
<path d="M39.035 29.0701H33.8618V34.4049H39.035V29.0701Z" fill="#188078"/>
<path d="M31.9228 29.0701H26.7496V34.4049H31.9228V29.0701Z" fill="#188078"/>
</svg>
