<svg xmlns="http://www.w3.org/2000/svg" width="72" height="24" fill="none"><g clip-path="url(#a)"><path fill="#82BC00" d="M0 13.842h30.46V24H0z"/><path fill="#00A1DF" d="M0 0h30.46v10.153H0z"/><path fill="#000" d="m60.916 21.925-.133.028a4.6 4.6 0 0 1-.988.124c-.793 0-1.733-.404-1.733-2.327 0-.988.17-2.294 1.643-2.294.37.019.735.086 1.087.2l.114.038zm.247-9.578-.247.042v3.567l-.21-.062h-.06c-.437-.14-.891-.22-1.35-.238-2.968 0-3.595 2.247-3.595 4.127 0 2.579 1.425 4.06 3.97 4.06.902.023 1.8-.104 2.66-.375.731-.233.997-.57.997-1.282v-10.19c-.712.137-1.424.25-2.16.37m8.548 9.625-.124.034-.475.118a4.5 4.5 0 0 1-1.092.176c-.698 0-1.116-.347-1.116-.95 0-.38.171-1.016 1.31-1.016h1.473zm-1.035-6.396c-1.023.03-2.035.215-3.002.55l-.76.233.252 1.71.74-.242a8.7 8.7 0 0 1 2.465-.413c.333 0 1.33 0 1.33 1.078v.474H68.32c-2.517 0-3.69.803-3.69 2.527 0 1.476 1.073 2.35 2.887 2.35a9 9 0 0 0 2.009-.27h.071l.223.038c.708.128 1.425.251 2.152.399v-5.68c0-1.828-1.102-2.754-3.272-2.754M52.168 21.99l-.123.034-.475.118a4.4 4.4 0 0 1-1.088.176c-.698 0-1.116-.347-1.116-.95 0-.38.171-1.016 1.31-1.016h1.473zm-1.035-6.396a10 10 0 0 0-3.02.55l-.76.233.256 1.71.736-.242a8.7 8.7 0 0 1 2.47-.413c.323 0 1.32 0 1.32 1.078v.474h-1.382c-2.517 0-3.695.803-3.695 2.527 0 1.476 1.078 2.35 2.888 2.35a9 9 0 0 0 2.013-.27h.071l.224.038c.707.128 1.424.251 2.15.399v-5.68c0-1.833-1.1-2.754-3.271-2.754m-8.496 0a6.1 6.1 0 0 0-2.45.55l-.09.043-.077-.042a3.7 3.7 0 0 0-2.204-.532c-.878 0-1.752.129-2.592.384-.77.238-1.069.604-1.069 1.297v6.449h2.413v-5.955l.114-.038c.34-.122.697-.187 1.058-.19q1.047 0 1.045 1.092v5.09h2.375V18.55a1.4 1.4 0 0 0-.086-.504l-.076-.157.162-.07a2.85 2.85 0 0 1 1.173-.248.95.95 0 0 1 1.054.85q.015.121 0 .242v5.082h2.375V18.41c0-1.9-1.017-2.797-3.116-2.797M67.973 6.62a8 8 0 0 1-1.425-.129h-.133V2.982q.003-.241-.066-.475l-.076-.147.152-.071a.6.6 0 0 0 .114-.043h.028l.157-.052h.071q.611-.15 1.24-.143c1.472 0 1.643 1.306 1.643 2.299 0 1.9-.95 2.322-1.734 2.322M67.96 0h-.048c-1.382 0-2.807.375-3.324 1.12a2.2 2.2 0 0 0-.432 1.35v3.585a.95.95 0 0 1-.076.446l-.076.161h-4.37V4.17C59.582 1.54 58.02.095 55.769.095h-2.199l-.256 1.733h2.189c1.15 0 1.752.983 1.752 2.484v2.507l-.156-.076a1.4 1.4 0 0 0-.518-.071h-3.8c-.07.475-.16 1.097-.26 1.724h11.62c.39-.072.86-.143 1.254-.214a6.6 6.6 0 0 0 2.441.437c2.527 0 4.156-1.686 4.156-4.274S70.419.057 67.959 0M47.58 9.445h.105c2.522 0 3.695-.83 3.695-2.887 0-1.477-1.078-2.655-2.888-2.655h-2.327a.99.99 0 0 1-1.106-.869 1 1 0 0 1 0-.19c0-.474.17-1.02 1.306-1.02h5.081c.105-.665.166-1.074.261-1.729h-5.28c-2.46 0-3.686 1.026-3.686 2.754 0 1.729 1.083 2.584 2.888 2.584h2.336a1.093 1.093 0 0 1 1.111 1.077v.048c0 .385-.17 1.173-1.306 1.173h-9.213c-1.144 0-1.952-.655-1.952-2.156V4.516c0-1.577.623-2.555 1.952-2.555h2.228c.095-.67.156-1.087.251-1.733h-3.015c-2.256 0-3.8 1.515-3.866 4.146V5.55c.057 2.631 1.61 3.885 3.866 3.885h6.235z"/></g><defs><clipPath id="a"><path fill="#fff" d="M0 0h72v24H0z"/></clipPath></defs></svg>