<svg xmlns="http://www.w3.org/2000/svg" width="41" height="24" fill="none"><g clip-path="url(#a)"><mask id="b" width="41" height="24" x="0" y="0" maskUnits="userSpaceOnUse" style="mask-type:luminance"><path fill="#fff" d="M41 0H0v24h41z"/></mask><g fill="#9FE7F5" mask="url(#b)"><path fill-rule="evenodd" d="M14.044 6.9a2.2 2.2 0 0 1-.117-.718c0-.254.039-.481.117-.705q.123-.335.347-.59t.534-.398q.317-.15.699-.15c.254 0 .505.05.728.15q.34.145.586.399a1.83 1.83 0 0 1 .535 1.294c0 .247-.047.494-.142.717q-.14.33-.393.573-.247.243-.586.387a1.9 1.9 0 0 1-.728.14c-.262 0-.487-.047-.699-.14a1.68 1.68 0 0 1-.88-.96m5.665 2.948h-1.974l-.186-.705a3.3 3.3 0 0 1-.81.579 2.7 2.7 0 0 1-.523.185q-.276.075-.576.075-.534 0-1.027-.133a4 4 0 0 1-.916-.376 4 4 0 0 1-.77-.59 4 4 0 0 1-.598-.768 3.8 3.8 0 0 1-.382-.908 3.9 3.9 0 0 1-.135-1.024q0-.804.3-1.492a3.76 3.76 0 0 1 2.03-2.006 3.8 3.8 0 0 1 1.498-.295 2.7 2.7 0 0 1 1.25.3q.265.14.476.336.211.19.37.416v-.971h1.973V9.85zM22.26 6.899a2.2 2.2 0 0 1-.119-.717c0-.255.04-.482.118-.706q.123-.335.347-.59a1.61 1.61 0 0 1 1.233-.55c.254.001.505.052.728.152q.34.145.586.399a1.84 1.84 0 0 1 .535 1.295v.08q-.018.365-.17.683a1.8 1.8 0 0 1-.394.555 1.9 1.9 0 0 1-.58.365q-.33.133-.705.133c-.25 0-.487-.046-.7-.139a1.67 1.67 0 0 1-.88-.96m3.316 2.226a4 4 0 0 1-.364.312 2.9 2.9 0 0 1-.95.469q-.27.075-.576.075a3.6 3.6 0 0 1-1.474-.295 3.6 3.6 0 0 1-1.156-.804 3.8 3.8 0 0 1-.758-1.208 4.1 4.1 0 0 1-.27-1.492c0-.533.09-1.034.27-1.492q.276-.695.758-1.203.486-.514 1.156-.804.675-.294 1.474-.295.322 0 .587.058.27.053.487.156.222.104.404.249.188.144.353.318V.32h2.254v9.53h-1.897z" clip-rule="evenodd"/><path d="M29.36 2.609q0-.538.234-1.013a2.7 2.7 0 0 1 .628-.826q.393-.36.904-.561Q31.637 0 32.196 0h.534v2.002l-.464.02c-.082 0-.23.04-.305.071a.6.6 0 0 0-.2.116.6.6 0 0 0-.14.18.46.46 0 0 0-.053.219v.665h1.227v1.983h-1.227V9.85H29.36V5.257h-1.063V3.274h1.063zM11.33 4.366a3 3 0 0 0-.499-1.03 2.36 2.36 0 0 0-.827-.693q-.5-.254-1.168-.254-.423 0-.799.104-.375.104-.68.266-.306.161-.53.358-.217.197-.328.376a3 3 0 0 0-.387-.468 2 2 0 0 0-.458-.347 2 2 0 0 0-.552-.214q-.3-.075-.67-.075-.47 0-.822.105-.346.098-.598.254a1.77 1.77 0 0 0-.67.717v-.007A1.37 1.37 0 0 1 .4 4.05V9.85h2.254V5.604a1.3 1.3 0 0 1 .123-.474q.113-.214.27-.365a1.15 1.15 0 0 1 .78-.324q.248 0 .44.093a.9.9 0 0 1 .336.249q.141.157.21.37.077.213.077.463v4.233H7.09V5.616q0-.26.088-.475a1.14 1.14 0 0 1 .599-.612q.2-.087.423-.087.246 0 .446.093.205.086.346.249a1.283 1.283 0 0 1 .3.833V9.85h2.202V5.616q0-.664-.165-1.249zM38.59 8.839l.011-.038a1.37 1.37 0 0 1 1.931-.77V2.504h-2.254V6.69q0 .323-.141.555a1.3 1.3 0 0 1-.352.382 1.695 1.695 0 0 1-.916.283q-.247 0-.47-.098a1.3 1.3 0 0 1-.382-.266 1.4 1.4 0 0 1-.264-.393 1.2 1.2 0 0 1-.094-.474V2.505h-2.201v4.233q0 .664.181 1.254.183.585.535 1.024.358.44.874.694.517.255 1.186.254a3.2 3.2 0 0 0 1.55-.387q.305-.168.51-.365.206-.203.294-.381z"/><path d="M39.899 10.305c.608 0 1.101-.485 1.101-1.085 0-.599-.493-1.085-1.101-1.085-.609 0-1.102.486-1.102 1.085 0 .6.493 1.085 1.102 1.085M1.102 3.983c.608 0 1.101-.486 1.101-1.085 0-.6-.493-1.085-1.101-1.085C.493 1.813 0 2.299 0 2.898c0 .6.493 1.085 1.102 1.085M23.947 16.938q.001-.79-.27-1.427v-.001a3 3 0 0 0-.748-1.07 3.16 3.16 0 0 0-1.159-.664h-.003a4.5 4.5 0 0 0-1.45-.225q-.786 0-1.46.232a3.3 3.3 0 0 0-1.157.669q-.49.439-.76 1.07v.001a3.6 3.6 0 0 0-.265 1.416c0 .52.095 1.032.286 1.473h-.299c-.307 0-.52-.09-.67-.25h-.001l-.001-.001c-.148-.154-.24-.4-.24-.779v-.443q0-.79-.271-1.427v-.001a3 3 0 0 0-.75-1.07 3.3 3.3 0 0 0-1.158-.67h-.001a4.6 4.6 0 0 0-1.452-.22c-.523 0-1.015.074-1.46.226a3.3 3.3 0 0 0-1.157.67 3 3 0 0 0-.762 1.069v.002a3.7 3.7 0 0 0-.265 1.42c0 .52.086 1.012.264 1.439v.002q.27.636.763 1.071.489.436 1.156.663.668.227 1.46.226.742 0 1.38-.203a2.6 2.6 0 0 1-.119.45.5.5 0 0 1-.073.13c-.15.16-.364.25-.677.25h-.24v1.96l.242-.003a3.8 3.8 0 0 0 1.31-.222c.391-.149.726-.358.996-.629q.404-.406.607-.954c.057-.156.099-.386.13-.596q.021-.152.036-.293.43.106.934.11h3.678q.786 0 1.453-.225.673-.226 1.158-.658v-.001q.485-.44.75-1.076v-.002q.27-.642.27-1.438zm-10.522.609v.002l-.001.002q-.1.27-.28.456v.001l-.002.001q-.17.184-.436.29a1.6 1.6 0 0 1-.601.108c-.226 0-.41-.037-.581-.107a1.32 1.32 0 0 1-.745-.754 1.7 1.7 0 0 1-.104-.607c0-.227.036-.42.104-.595q.111-.274.293-.462.186-.192.445-.298.263-.106.594-.107.33.001.595.107h.002l.002.001q.265.102.435.28l.001.001.002.001q.177.178.276.448v.002l.002.002q.103.268.104.621c0 .237-.036.43-.104.609zm8.434-1.313-.226.08v.002l.001.002q.104.267.105.62a1.7 1.7 0 0 1-.105.617v.003q-.1.269-.278.454-.179.181-.448.295a1.6 1.6 0 0 1-.592.106 1.5 1.5 0 0 1-.58-.106 1.5 1.5 0 0 1-.451-.297 1.4 1.4 0 0 1-.295-.457 1.7 1.7 0 0 1-.104-.614c0-.226.036-.42.103-.594q.111-.274.293-.462l.001-.001.002-.002q.178-.19.442-.296.265-.106.589-.107c.216 0 .422.037.593.106l.003.002h.003q.266.102.443.282.177.178.276.448l.226-.08zM19.575 13.056l.001.002.001.001c.206.161.455.235.732.235q.413.002.727-.231h.001l.002-.003a.89.89 0 0 0 .362-.73.86.86 0 0 0-.355-.728 1.22 1.22 0 0 0-.737-.236c-.274 0-.522.075-.73.233a.88.88 0 0 0-.357.73c0 .298.121.541.353.727M7.751 13.926q-.817-.378-1.826-.377-.79 0-1.457.225h-.001a3.2 3.2 0 0 0-1.16.665q-.484.439-.755 1.07v.001a3.65 3.65 0 0 0-.264 1.428q0 .855.32 1.55a3.6 3.6 0 0 0-.61.164 3 3 0 0 0-1.087.687 2.9 2.9 0 0 0-.654 1.016v.003a3.6 3.6 0 0 0-.213 1.24q.001.39.07.754a1.37 1.37 0 0 1 2.148-.441 2 2 0 0 1-.027-.33c0-.293.063-.524.175-.704s.282-.327.525-.436c.15-.066.34-.104.58-.104h4.378V18.41H5.93q-.336-.001-.599-.107a1.4 1.4 0 0 1-.442-.294 1.3 1.3 0 0 1-.284-.456q-.099-.277-.1-.618c0-.228.035-.443.1-.622q.106-.27.283-.449.179-.18.438-.282h.003q.166-.067.361-.09v1.1h2.203v-2.604l-.137-.064zM38.434 18.221a1.35 1.35 0 0 1-.749-.595 1.3 1.3 0 0 1-.247.38 1.24 1.24 0 0 1-.444.292h-.002q-.256.106-.593.107c-.226 0-.41-.037-.581-.107a1.32 1.32 0 0 1-.745-.754 1.7 1.7 0 0 1-.104-.607c0-.227.036-.42.104-.594a1.5 1.5 0 0 1 .296-.465q.177-.19.442-.296t.589-.107c.215 0 .422.037.593.106l.003.001h.003q.264.103.434.28l.002.002.001.001q.155.158.255.389a1.375 1.375 0 0 1 2.268-.109 3.4 3.4 0 0 0-.19-.635v-.003a3.05 3.05 0 0 0-1.914-1.733h-.003a4.5 4.5 0 0 0-1.45-.225q-.786 0-1.454.227h-.002a3.5 3.5 0 0 0-1.16.668h-.001l-.002.002a3 3 0 0 0-.755 1.076v.001q-.27.636-.27 1.416v.443c0 .38-.093.625-.24.779h-.002v.001c-.15.16-.363.25-.671.25h-.138a1 1 0 0 0-.109-.006c-.308 0-.522-.09-.671-.245-.15-.159-.242-.407-.242-.785v-.432q.002-.796-.27-1.438v-.002a2.9 2.9 0 0 0-.755-1.07l-.002-.001-.001-.002a3.3 3.3 0 0 0-1.15-.662h-.001a4.6 4.6 0 0 0-1.458-.22h-1.375v1.928h1.38q.33.001.595.107.266.106.436.29l.002.001.001.002q.18.186.285.457.099.269.1.61c0 .23-.035.444-.1.623q-.105.27-.283.45l-.002.001-.002.002a1.1 1.1 0 0 1-.433.283 1.7 1.7 0 0 1-.598.103h-2.522v1.933h2.516a4.5 4.5 0 0 0 1.459-.226 3.3 3.3 0 0 0 .938-.49q.362.309.842.493.572.218 1.292.223h.026999999999999996v.002l.241-.002a3.8 3.8 0 0 0 1.31-.223q.479-.184.843-.49.419.309.95.487.666.225 1.452.225t1.453-.225q.672-.227 1.157-.658v-.002q.485-.44.756-1.076v-.002q.124-.3.189-.633c-.34.453-.948.663-1.522.479"/><path d="M1.35 24c.609 0 1.102-.486 1.102-1.085 0-.6-.493-1.085-1.101-1.085-.609 0-1.102.486-1.102 1.085 0 .6.493 1.085 1.102 1.085M38.86 18.029c.608 0 1.1-.486 1.1-1.085 0-.6-.492-1.085-1.1-1.085s-1.102.486-1.102 1.085c0 .6.493 1.085 1.101 1.085"/></g></g><defs><clipPath id="a"><path fill="#fff" d="M0 0h41v24H0z"/></clipPath></defs></svg>