<svg xmlns="http://www.w3.org/2000/svg" width="126" height="36" fill="none"><g clip-path="url(#a)"><path fill="#999" d="M23.358 17.599c-.008.4.073.797.238 1.162a2.59 2.59 0 0 0 1.457 1.368c.31.121.64.184.974.185v4.812a7.3 7.3 0 0 1-5.049-1.975c-.843.59-1.757 1.07-2.72 1.43-1.047.398-2.13.69-3.234.874a20 20 0 0 1-3.469.278 17 17 0 0 1-3.427-.359 13.4 13.4 0 0 1-3.123-1.07 9.6 9.6 0 0 1-2.567-1.81 7.9 7.9 0 0 1-1.734-2.601 8.8 8.8 0 0 1-.637-3.445v-.72h4.824v.638a3.25 3.25 0 0 0 .595 1.944 5 5 0 0 0 1.585 1.418c.715.405 1.487.7 2.29.874.889.203 1.795.316 2.707.338q.184 0 .74-.06.643-.073 1.273-.209.771-.171 1.518-.432a7.6 7.6 0 0 0 1.457-.68 3.9 3.9 0 0 0 1.087-.965 2.1 2.1 0 0 0 .43-1.308V9.745h4.79zM11.235 5.65l2.854-2.858 3.448 3.435-3.448 3.435-2.854-2.865L8.34 9.657 4.91 6.222l3.43-3.435z"/><path fill="#999" d="M36.13 20.314H25.987v4.812h10.141zM38.224 26.154l2.873 2.876 2.873-2.876 3.45 3.433-3.45 3.454-2.873-2.86-2.873 2.86-3.45-3.454z"/><path fill="#999" d="M43.58 17.599c-.008.399.069.795.225 1.162.139.32.342.607.596.844.249.227.539.405.853.524.311.121.641.184.975.185v4.812c-.95.008-1.89-.17-2.771-.526a7.5 7.5 0 0 1-2.29-1.45 7.5 7.5 0 0 1-2.301 1.45 7.2 7.2 0 0 1-2.771.526v-4.812a2.814 2.814 0 0 0 1.838-.71c.26-.235.47-.523.614-.843.165-.365.246-.762.238-1.162V9.745h4.803z"/><path fill="#999" d="M53.68 17.599c-.008.399.069.795.225 1.162.139.32.341.607.596.844.249.227.538.405.853.524.31.121.641.184.975.185v4.812c-.95.008-1.891-.17-2.772-.526a7.5 7.5 0 0 1-2.29-1.45 7.5 7.5 0 0 1-2.29 1.45 7.3 7.3 0 0 1-2.771.526v-4.812c.333 0 .664-.064.974-.185.317-.12.61-.298.862-.524.265-.235.477-.523.625-.844.164-.365.244-.762.235-1.162V9.745h4.805zM51.215 26.235l3.47 3.454-3.47 3.435-3.427-3.435z"/><path fill="#999" d="M56.289 20.314c.42.017.84-.021 1.25-.112a2.5 2.5 0 0 0 .994-.463c.287-.227.513-.52.658-.855.168-.407.248-.845.236-1.285v-3.66a7.2 7.2 0 0 1 .585-2.9 7.5 7.5 0 0 1 3.982-3.979 7.47 7.47 0 0 1 5.799 0c.886.382 1.692.93 2.373 1.615a7.7 7.7 0 0 1 1.612 2.375c.399.914.602 1.902.595 2.9v3.722a7.2 7.2 0 0 1-.595 2.92 7.63 7.63 0 0 1-3.983 4c-.912.4-1.898.603-2.894.596-.956 0-1.901-.19-2.784-.556a7.4 7.4 0 0 1-2.309-1.481 6.34 6.34 0 0 1-2.556 1.553c-.965.276-1.962.417-2.965.418zm7.943-6.273v3.558c-.008.399.07.795.227 1.162.14.323.345.613.603.853a2.9 2.9 0 0 0 1.839.76c.33.015.66-.03.974-.133.32-.1.614-.268.864-.492.264-.243.47-.541.606-.874.16-.406.236-.84.225-1.276V14.04a3.3 3.3 0 0 0-.225-1.274 2.55 2.55 0 0 0-.606-.885 2.3 2.3 0 0 0-.864-.502 2.7 2.7 0 0 0-.974-.134 2.9 2.9 0 0 0-.977.209c-.319.13-.611.318-.862.554-.255.246-.46.54-.603.864a2.8 2.8 0 0 0-.227 1.162"/><path fill="#47C0B5" d="m125.864 1.096-2.602-.509c-1.039-.205-3.284.066-5.131 2.364-.671.84-.81.852-3.006.252a35 35 0 0 0-3.438-.798c-4.888-.85-17.217-.757-22.658.499-2.399.552-3.332-.166-4.631-1.163C83.36.944 82.07-.044 80.053-.044h-3.246l2.218 2.382c.016.018 1.775 1.932 2.22 4.202l-1.748 6.795a18.5 18.5 0 0 0-.605 4.104v1.034c.051 1.386.258 2.762.615 4.103.893 3.465 1.404 5.458 1.784 6.603-.382 2.35-2.24 4.374-2.258 4.392l-2.237 2.385h3.255c2.017 0 3.306-.99 4.345-1.786 1.299-.997 2.234-1.717 4.631-1.163 5.44 1.254 17.772 1.348 22.66.499a35 35 0 0 0 3.436-.798c2.195-.6 2.335-.587 3.006.25 1.847 2.3 4.092 2.57 5.13 2.364l2.58-.51-1.847-1.875a10.7 10.7 0 0 1-1.666-2.412l-.015-.023a2.57 2.57 0 0 1-.396-1.68c.386-1.283 1.232-4.04 1.363-4.47 1.231-3.953 1.266-8.65.078-12.564l-.205-.66c-.659-2.174-1.069-3.522-1.383-4.363a10.4 10.4 0 0 1 2.22-3.79z"/><path fill="#fff" d="M109.996 14.189h-6.86v6.858h6.86zM100.565 14.189h-6.86v6.858h6.86z"/></g><defs><clipPath id="a"><path fill="#fff" d="M0 0h126v36H0z"/></clipPath></defs></svg>