<svg xmlns="http://www.w3.org/2000/svg" width="39" height="24" fill="none"><g clip-path="url(#a)"><path fill="#FFA11C" fill-rule="evenodd" d="m27.308 24 .6-.016.594-.045.583-.077.579-.105.563-.134.555-.162.543-.19.534-.215.52-.242.503-.264.489-.291.476-.311.457-.336.44-.357.426-.376.405-.402.39-.416.366-.437.347-.453.327-.47.303-.49.284-.502.256-.518.236-.534.208-.549.186-.559.157-.57.13-.579.103-.595.075-.6.043-.61.015-.618-.015-.617-.043-.607-.075-.6-.103-.587-.13-.578-.157-.567-.186-.559-.208-.542-.236-.53-.256-.518-.284-.498-.303-.49-.327-.469-.347-.449-.366-.438-.39-.416-.405-.397-.426-.377-.44-.357-.457-.335-.476-.312-.489-.287-.504-.263-.52-.243-.533-.215-.543-.19-.555-.162-.563-.134-.579-.106-.583-.076-.594-.045-.6-.016-.6.016-.595.045-.583.076-.575.106-.563.134-.555.162-.54.19-.533.215-.516.243-.5.263-.488.287-.472.312-.457.335-.44.357-.422.377-.406.397-.386.416-.366.438-.347.45-.323.469-.303.49-.28.497-.259.518-.232.53-.209.542-.181.56-.158.566-.13.578-.102.587-.075.6-.043.607-.016.617.016.617.043.612.075.599.102.595.13.579.158.57.181.56.209.548.232.534.26.518.279.502.303.49.323.47.347.453.366.437.386.416.406.402.421.376.441.357.457.336.472.311.488.291.5.264.516.242.534.215.539.19.555.162.563.134.575.105.582.077.595.045z" clip-rule="evenodd"/><path fill="#E50020" fill-rule="evenodd" d="m11.692 24 .6-.016.595-.045.583-.077.575-.105.563-.134.554-.162.54-.19.533-.215.516-.242.5-.264.488-.291.473-.311.456-.336.441-.357.422-.376.405-.402.386-.416.366-.437.347-.453.322-.47.304-.49.28-.502.26-.518.231-.534.21-.549.18-.559.158-.57.13-.579.102-.595.075-.6.043-.61.016-.618-.016-.617-.043-.607-.075-.6-.102-.587-.13-.578-.157-.567-.182-.559-.209-.542-.232-.53-.26-.518-.28-.498-.303-.49-.322-.469-.347-.449-.366-.438-.386-.416-.405-.397-.422-.377-.44-.357-.457-.335-.473-.312-.488-.287-.5-.263-.516-.243-.533-.215-.54-.19-.555-.162-.562-.134-.575-.106-.583-.076-.594-.045-.6-.016-.6.016-.595.045-.583.076-.579.106-.563.134-.555.162-.543.19-.534.215-.52.243-.503.263-.489.287-.476.312-.457.335-.44.357-.426.377-.405.397-.39.416-.366.438-.346.45-.327.469-.303.49-.284.497-.256.518-.236.53-.209.542-.184.56-.158.566-.13.578-.103.587-.074.6-.044.607-.015.617.015.617.044.612.074.599.103.595.13.579.158.57.184.56.209.548.236.534.256.518.284.502.303.49.327.47.346.453.366.437.39.416.405.402.426.376.44.357.457.336.476.311.489.291.504.264.52.242.533.215.543.19.555.162.563.134.58.105.582.077.594.045z" clip-rule="evenodd"/><path fill="#FFA11C" fill-rule="evenodd" d="M18.134 4.602h6.202V3.95h-5.669zm-.929 1.45h7.13V5.4h-6.756zm-.693 1.445h7.822v-.652h-7.547zm-.477 1.449h8.298v-.652h-8.1l-.201.652zm.276 7.002h8.044v-.653h-8.24l.2.652zm.595 1.45h7.449v-.651H16.61zm.834 1.442h6.615v-.651h-7.012l.4.65zm1.15 1.452h5.464v-.653h-6.02l.556.655zm-3.134-9.902h8.58v-.65h-8.458zm5.23 4.114h3.268v-.652H21.1l-.118.652zm.258-1.448h3.012V12.4h-2.894zm-5.704-.654h.85v.656h-.812z" clip-rule="evenodd"/><path fill="#fff" fill-rule="evenodd" d="m13.953 11.614-.055-.004-.056-.008-.05-.009-.052-.008-.047-.008-.052-.008-.051-.009-.056-.008-.055-.008-.063-.004-.07-.004-.075-.004h-.083l-.09.004-.103.008-.113.008-.08.013-.074.012-.067.024-.059.024-.055.029-.052.032-.039.04-.035.037-.024.044-.02.045-.008.048v.05l.012.052.016.053.032.053.039.052.079.077.094.061.11.053.119.045.126.04.13.045.13.048.126.053.118.069.11.085.099.1.082.126.063.154.04.182.015.219-.016.255-.027.19-.047.166-.064.153-.079.134-.09.117-.103.101-.11.09-.122.076-.126.06-.13.053-.133.04-.139.033-.133.024-.13.012-.13.008-.122.005h-.17l-.157-.005h-.138l-.13-.004-.118-.004-.106-.008-.095-.008-.09-.013-.083-.008-.075-.016-.074-.013-.067-.02-.067-.016-.063-.025-.062-.024-.067-.024.177-.891.036.008.043.013.055.016.067.016.07.016.08.017.086.02.095.016.099.016.102.016.106.012.11.013.114.004.114.004h.114l.114-.004.114-.024.09-.032.071-.045.056-.057.04-.057.03-.064.02-.065.016-.06.008-.118-.036-.1-.066-.082-.099-.068-.118-.061-.138-.06-.153-.057-.154-.065-.157-.072-.15-.086-.138-.105-.126-.126-.098-.153-.071-.183-.036-.218.005-.26.019-.157.027-.15.04-.137.047-.13.063-.12.07-.107.083-.1.099-.09.114-.076.126-.065.142-.06.157-.045.178-.037.192-.028.213-.016.232-.004h.146l.133.004.122.004.11.004.099.008.09.008.08.009.07.008.067.008.055.013.051.008.048.008.039.008.035.004.036.008.031.005-.2.914z" clip-rule="evenodd"/><path stroke="#fff" stroke-miterlimit="2.613" stroke-width=".216" d="m13.953 11.614-.055-.004-.056-.008-.05-.009-.052-.008-.047-.008-.052-.008-.051-.009-.056-.008-.055-.008-.063-.004-.07-.004-.075-.004h-.083l-.09.004-.103.008-.113.008-.08.013-.074.012-.067.024-.059.024-.055.029-.052.032-.039.04-.035.037-.024.044-.02.045-.008.048v.05l.012.052.016.053.032.053.039.052.079.077.094.061.11.053.119.045.126.04.13.045.13.048.126.053.118.069.11.085.099.1.082.126.063.154.04.182.015.219-.016.255-.027.19-.047.166-.064.153-.079.134-.09.117-.103.101-.11.09-.122.076-.126.06-.13.053-.133.04-.139.033-.133.024-.13.012-.13.008-.122.005h-.17l-.157-.005h-.138l-.13-.004-.118-.004-.106-.008-.095-.008-.09-.013-.083-.008-.075-.016-.074-.013-.067-.02-.067-.016-.063-.025-.062-.024-.067-.024.177-.891.036.008.043.013.055.016.067.016.07.016.08.017.086.02.095.016.099.016.102.016.106.012.11.013.114.004.114.004h.114l.114-.004.114-.024.09-.032.071-.045.056-.057.04-.057.03-.064.02-.065.016-.06.008-.118-.036-.1-.066-.082-.099-.068-.118-.061-.138-.06-.153-.057-.154-.065-.157-.072-.15-.086-.138-.105-.126-.126-.098-.153-.071-.183-.036-.218.005-.26.019-.157.027-.15.04-.137.047-.13.063-.12.07-.107.083-.1.099-.09.114-.076.126-.065.142-.06.157-.045.178-.037.192-.028.213-.016.232-.004h.146l.133.004.122.004.11.004.099.008.09.008.08.009.07.008.067.008.055.013.051.008.048.008.039.008.035.004.036.008.031.005-.2.914"/><path fill="#fff" fill-rule="evenodd" d="M14.886 9.699h1.09l-.161.98h.657l-.141.914-.693-.02-.378 2.258-.004.081.02.069.04.053.05.044.071.029.079.024.087.016.094.008.087-.004.079-.008.07-.013.063-.016.051-.016.036-.013.023-.008.008-.004-.138.754-.027.02-.028.017-.027.017-.027.016-.028.012-.031.013-.035.012-.036.013-.04.012-.038.008-.048.008-.047.008-.052.009-.059.008-.062.008-.067.008h-.3l-.157-.012-.138-.016-.126-.024-.106-.029-.09-.036-.076-.04-.066-.049-.052-.053-.039-.057-.027-.068-.02-.069-.012-.077-.004-.085v-.089l.012-.093.012-.101.752-4.417z" clip-rule="evenodd"/><path stroke="#fff" stroke-miterlimit="2.613" stroke-width=".216" d="M14.886 9.699h1.09l-.161.98h.657l-.141.914-.693-.02-.378 2.258-.004.081.02.069.04.053.05.044.071.029.079.024.087.016.094.008.087-.004.079-.008.07-.013.063-.016.051-.016.036-.013.023-.008.008-.004-.138.754-.027.02-.028.017-.027.017-.027.016-.028.012-.031.013-.035.012-.036.013-.04.012-.038.008-.048.008-.047.008-.052.009-.059.008-.062.008-.067.008h-.3l-.157-.012-.138-.016-.126-.024-.106-.029-.09-.036-.076-.04-.066-.049-.052-.053-.039-.057-.027-.068-.02-.069-.012-.077-.004-.085v-.089l.012-.093.012-.101.752-4.417"/><path fill="#fff" fill-rule="evenodd" d="m17.343 13.12-.012.068-.005.073.008.077.017.076.027.077.031.073.044.077.047.068.055.069.06.06.063.062.07.049.071.044.08.037.078.028.078.016.102.016.1.012.101.012.102.009.103.004h.106l.102-.004.106-.008.106-.016.106-.02.11-.025.106-.036.11-.045.114-.048.11-.065.114-.069-.157.996-.063.032-.063.033-.063.024-.06.024-.058.02-.063.02-.063.017-.067.012-.07.012-.079.008-.082.009-.091.008-.102.004h-.106l-.122.004h-.126l-.193-.004-.2-.02-.2-.029-.2-.048-.192-.061-.186-.077-.177-.1-.166-.118-.153-.137-.133-.166-.114-.187-.095-.214-.067-.24-.043-.273-.012-.3.02-.332.016-.13.023-.149.032-.158.043-.17.058-.174.071-.174.09-.178.111-.17.126-.162.153-.154.174-.137.2-.121.228-.102.256-.072.284-.05.318-.016.154.004.161.017.161.028.162.04.157.062.154.072.141.098.13.113.118.137.099.162.078.186.056.215.031.243.004.274-.027.308-.06.343-.019.246h-2.868l.182-.797h1.724l.008-.101-.003-.098-.009-.09-.015-.08-.028-.077-.027-.068-.04-.061-.039-.057-.047-.049-.052-.04-.059-.037-.06-.032-.062-.024-.063-.016-.066-.012-.071-.008-.075.004-.07.012-.067.017-.067.024-.067.032-.059.036-.059.045-.051.048-.051.057-.048.061-.043.065-.035.068-.036.073-.027.081-.024.08-.015.086-.158.838" clip-rule="evenodd"/><path stroke="#fff" stroke-miterlimit="2.613" stroke-width=".216" d="m17.343 13.12-.012.068-.005.073.008.077.017.076.027.077.031.073.044.077.047.068.055.069.06.06.063.062.07.049.071.044.08.037.078.028.078.016.102.016.1.012.101.012.102.009.103.004h.106l.102-.004.106-.008.106-.016.106-.02.11-.025.106-.036.11-.045.114-.048.11-.065.114-.069-.157.996-.063.032-.063.033-.063.024-.06.024-.058.02-.063.02-.063.017-.067.012-.07.012-.079.008-.082.009-.091.008-.102.004h-.106l-.122.004h-.126l-.193-.004-.2-.02-.2-.029-.2-.048-.192-.061-.186-.077-.177-.1-.166-.118-.153-.137-.133-.166-.114-.187-.095-.214-.067-.24-.043-.273-.012-.3.02-.332.016-.13.023-.149.032-.158.043-.17.058-.174.071-.174.09-.178.111-.17.126-.162.153-.154.174-.137.2-.121.228-.102.256-.072.284-.05.318-.016.154.004.161.017.161.028.162.04.157.062.154.072.141.098.13.113.118.137.099.162.078.186.056.215.031.243.004.274-.027.308-.06.343-.019.246h-2.868l.182-.797h1.724l.008-.101-.003-.098-.009-.09-.015-.08-.028-.077-.027-.068-.04-.061-.039-.057-.047-.049-.052-.04-.059-.037-.06-.032-.062-.024-.063-.016-.066-.012-.071-.008-.075.004-.07.012-.067.017-.067.024-.067.032-.059.036-.059.045-.051.048-.051.057-.048.061-.043.065-.035.068-.036.073-.027.081-.024.08-.015.086-.158.838"/><path fill="#fff" fill-rule="evenodd" d="m26.732 10.921-.051-.028-.052-.024-.055-.028-.059-.028-.059-.024-.067-.024-.066-.024-.071-.024-.073-.022-.074-.016-.083-.016-.083-.012-.09-.009-.091-.008h-.292l-.102.008-.106.013-.11.02-.11.032-.11.044-.11.057-.11.073-.106.09-.103.105-.098.13-.095.149-.087.178-.083.206-.074.227-.063.259-.023.145-.016.142-.008.142.004.137.012.137.027.13.035.122.044.12.058.11.071.105.083.094.095.085.106.072.122.062.134.052.15.037.05.012.06.012.07.008.08.009.086.008h.189l.098-.008.103-.013.102-.02.099-.028.098-.033.098-.044.091-.053.083-.064.079-.073-.178 1.08-.023.021-.023.024-.032.028-.035.024-.043.033-.056.028-.063.028-.07.024-.091.028-.103.02-.118.016-.138.017-.153.008-.178.004-.2-.004-.22-.012-.182-.02-.181-.041-.182-.06-.18-.082-.174-.097-.165-.121-.157-.142-.146-.162-.13-.183-.11-.205-.095-.227-.07-.247-.048-.274-.016-.288.008-.316.044-.336.03-.166.036-.162.04-.157.039-.15.043-.141.052-.142.051-.134.055-.125.06-.126.058-.117.067-.113.07-.106.072-.101.078-.098.079-.089.083-.085.09-.08.091-.077.095-.069.098-.064.107-.061.106-.053.107-.045.115-.044.122-.04.122-.033.126-.028.133-.024.134-.02.14-.017.142-.008.15-.004.126.004.122.008.118.013.118.016.11.017.106.024.102.02.095.024.09.024.079.024.075.024.062.025.056.02.047.016.036.016.023.008-.2 1.121z" clip-rule="evenodd"/><path stroke="#fff" stroke-miterlimit="2.613" stroke-width=".216" d="m26.732 10.921-.051-.028-.052-.024-.055-.028-.059-.028-.059-.024-.067-.024-.066-.024-.071-.024-.073-.022-.074-.016-.083-.016-.083-.012-.09-.009-.091-.008h-.292l-.102.008-.106.013-.11.02-.11.032-.11.044-.11.057-.11.073-.106.09-.103.105-.098.13-.095.149-.087.178-.083.206-.074.227-.063.259-.023.145-.016.142-.008.142.004.137.012.137.027.13.035.122.044.12.058.11.071.105.083.094.095.085.106.072.122.062.134.052.15.037.05.012.06.012.07.008.08.009.086.008h.189l.098-.008.103-.013.102-.02.099-.028.098-.033.098-.044.091-.053.083-.064.079-.073-.178 1.08-.023.021-.023.024-.032.028-.035.024-.043.033-.056.028-.063.028-.07.024-.091.028-.103.02-.118.016-.138.017-.153.008-.178.004-.2-.004-.22-.012-.182-.02-.181-.041-.182-.06-.18-.082-.174-.097-.165-.121-.157-.142-.146-.162-.13-.183-.11-.205-.095-.227-.07-.247-.048-.274-.016-.288.008-.316.044-.336.03-.166.036-.162.04-.157.039-.15.043-.141.052-.142.051-.134.055-.125.06-.126.058-.117.067-.113.07-.106.072-.101.078-.098.079-.089.083-.085.09-.08.091-.077.095-.069.098-.064.107-.061.106-.053.107-.045.115-.044.122-.04.122-.033.126-.028.133-.024.134-.02.14-.017.142-.008.15-.004.126.004.122.008.118.013.118.016.11.017.106.024.102.02.095.024.09.024.079.024.075.024.062.025.056.02.047.016.036.016.023.008-.2 1.121"/><path fill="#fff" fill-rule="evenodd" d="M36.425 15.014h-1.09l.078-.45v-.04l-.063.081-.067.073-.066.064-.071.057-.07.053-.072.044-.07.037-.075.036-.075.028-.074.02-.075.02-.079.013-.078.012-.075.009-.079.004h-.078l-.205-.017-.189-.044-.173-.069-.158-.093-.142-.117-.126-.137-.11-.15-.095-.17-.078-.182-.063-.19-.043-.199-.032-.205-.012-.206.004-.21.02-.206.036-.206.058-.239.071-.226.083-.206.098-.194.102-.183.118-.162.123-.145.13-.134.138-.117.145-.101.15-.09.149-.068.157-.057.158-.036.157-.024.161-.008.114.004.11.012.103.02.095.029.09.032.08.036.078.045.07.044.063.05.06.052.051.053.047.053.04.052.035.053.032.049.023.048.276-1.59h1.071l-.89 5.294z" clip-rule="evenodd"/><path stroke="#fff" stroke-miterlimit="2.613" stroke-width=".216" d="M36.425 15.014h-1.09l.078-.45v-.04l-.063.081-.067.073-.066.064-.071.057-.07.053-.072.044-.07.037-.075.036-.075.028-.074.02-.075.02-.079.013-.078.012-.075.009-.079.004h-.078l-.205-.017-.189-.044-.173-.069-.158-.093-.142-.117-.126-.137-.11-.15-.095-.17-.078-.182-.063-.19-.043-.199-.032-.205-.012-.206.004-.21.02-.206.036-.206.058-.239.071-.226.083-.206.098-.194.102-.183.118-.162.123-.145.13-.134.138-.117.145-.101.15-.09.149-.068.157-.057.158-.036.157-.024.161-.008.114.004.11.012.103.02.095.029.09.032.08.036.078.045.07.044.063.05.06.052.051.053.047.053.04.052.035.053.032.049.023.048.276-1.59h1.071l-.89 5.294"/><path fill="#FFA11C" fill-rule="evenodd" d="m34.642 14.034.11-.008.102-.024.095-.028.09-.045.084-.049.078-.06.075-.07.067-.072.058-.08.056-.09.051-.093.043-.098.04-.101.031-.106.028-.109.02-.109.02-.113.012-.117v-.11l-.005-.112-.012-.106-.016-.1-.027-.098-.031-.093-.04-.081-.047-.077-.051-.065-.06-.057-.066-.049-.071-.032-.075-.02-.082-.008-.107.008-.098.016-.09.033-.092.04-.078.053-.079.064-.067.069-.066.077-.06.089-.054.093-.052.098-.043.105-.04.11-.03.108-.032.117-.023.118-.02.178.008.194.027.198.051.19.079.166.102.134.13.089z" clip-rule="evenodd"/><path fill="#fff" fill-rule="evenodd" d="m10.465 14.116-.158.899h-.992l.027-.166.02-.15.016-.113.016-.061-.055.064-.063.065-.075.06-.082.058-.095.057-.099.048-.102.05-.106.04-.114.036-.114.028-.114.024-.118.016-.114.008-.114.004-.11-.012-.106-.016-.138-.036-.126-.04-.11-.054-.098-.06-.087-.065-.079-.073-.062-.077-.056-.08-.047-.085-.04-.09-.03-.089-.024-.089-.016-.093-.012-.093-.008-.09v-.089l.012-.157.023-.15.04-.142.05-.137.064-.13.07-.117.083-.113.095-.101.098-.094.11-.085.114-.077.118-.064.126-.057.13-.045.133-.036.138-.024h.008l.02-.004.027-.004.043-.004.048-.008.055-.005.06-.008.066-.008.067-.008.067-.008.07-.005.063-.008.063-.004.059-.004.055-.004h.134l.094.004.087.004h.087l.07.004.056.004.04.004h.011l.008-.028.024-.072.019-.085.008-.077-.016-.09-.035-.08-.048-.073-.062-.061-.075-.053-.083-.036-.095-.024-.102-.008-.11-.005-.118-.004h-.122l-.126.005-.13.008-.126.012-.126.012-.122.017-.118.016-.114.02-.102.02-.095.021-.086.024-.071.024-.056.029-.043.024.28-.976.086-.037.087-.032.095-.027.094-.02.095-.021.103-.017.102-.016.106-.009.11-.008.114-.004.118-.004h.378l.138.004.138.004.11.008.118.02.122.028.126.037.122.048.119.057.117.069.11.077.1.089.086.097.079.11.059.12.04.13.023.137v.154l-.024.162-.4 2.137z" clip-rule="evenodd"/><path stroke="#fff" stroke-miterlimit="2.613" stroke-width=".216" d="m10.465 14.116-.158.899h-.992l.027-.166.02-.15.016-.113.016-.061-.055.064-.063.065-.075.06-.082.058-.095.057-.099.048-.102.05-.106.04-.114.036-.114.028-.114.024-.118.016-.114.008-.114.004-.11-.012-.106-.016-.138-.036-.126-.04-.11-.054-.098-.06-.087-.065-.079-.073-.062-.077-.056-.08-.047-.085-.04-.09-.03-.089-.024-.089-.016-.093-.012-.093-.008-.09v-.089l.012-.157.023-.15.04-.142.05-.137.064-.13.07-.117.083-.113.095-.101.098-.094.11-.085.114-.077.118-.064.126-.057.13-.045.133-.036.138-.024h.008l.02-.004.027-.004.043-.004.048-.008.055-.005.06-.008.066-.008.067-.008.067-.008.07-.005.063-.008.063-.004.059-.004.055-.004h.134l.094.004.087.004h.087l.07.004.056.004.04.004h.011l.008-.028.024-.072.019-.085.008-.077-.016-.09-.035-.08-.048-.073-.062-.061-.075-.053-.083-.036-.095-.024-.102-.008-.11-.005-.118-.004h-.122l-.126.005-.13.008-.126.012-.126.012-.122.017-.118.016-.114.02-.102.02-.095.021-.086.024-.071.024-.056.029-.043.024.28-.976.086-.037.087-.032.095-.027.094-.02.095-.021.103-.017.102-.016.106-.009.11-.008.114-.004.118-.004h.378l.138.004.138.004.11.008.118.02.122.028.126.037.122.048.119.057.117.069.11.077.1.089.086.097.079.11.059.12.04.13.023.137v.154l-.024.162-.4 2.137"/><path fill="#E50020" fill-rule="evenodd" d="m9.516 13.059-.004-.02-.016-.021-.024-.013-.04-.008-.042-.008-.052-.004H9.22l-.063.004-.066.008-.063.008-.063.009-.058.008-.056.012-.047.013-.043.012-.028.008-.032.01-.043.017-.043.02-.052.024-.051.028-.055.028-.051.032-.055.04-.052.041-.047.049-.044.049-.039.052-.027.057-.024.065-.012.065-.004.137.02.109.04.08.05.062.06.04.067.024.062.013.064.004.118-.004.106-.013.102-.016.091-.024.079-.028.074-.037.067-.036.06-.044.05-.04.048-.05.04-.044.03-.049.028-.048.024-.05.02-.044.012-.044.03-.118.028-.133.024-.13.019-.105z" clip-rule="evenodd"/><path fill="#fff" fill-rule="evenodd" d="M2.18 15.014H1.11l.893-5.315h1.862l.178 3.154L5.33 9.699h1.945l-.914 5.315h-1.07l.677-3.971h-.043l-1.6 3.97h-1.21l-.007-.165-.028-.442-.035-.627-.041-.72-.04-.725-.035-.636-.027-.461-.008-.194h-.06z" clip-rule="evenodd"/><path stroke="#fff" stroke-miterlimit="2.613" stroke-width=".216" d="M2.18 15.014H1.11l.893-5.315h1.862l.178 3.154L5.33 9.699h1.945l-.914 5.315h-1.07l.677-3.971h-.043l-1.6 3.97h-1.21l-.007-.165-.028-.442-.035-.627-.041-.72-.04-.725-.035-.636-.027-.461-.008-.194h-.06z"/><path fill="#fff" fill-rule="evenodd" d="m30.002 14.116-.162.899h-.985l.008-.166.004-.146v-.109l.008-.048-.052.06-.059.062-.07.057-.08.056-.082.053-.095.049-.098.049-.098.04-.107.032-.11.033-.11.02-.11.016-.114.008-.11.004-.106-.012-.106-.016-.141-.036-.126-.04-.11-.053-.102-.06-.087-.066-.075-.073-.062-.076-.056-.081-.047-.085-.035-.09-.032-.089-.02-.089-.016-.093-.012-.093-.008-.09v-.089l.008-.157.024-.15.035-.142.051-.137.059-.13.075-.117.082-.113.091-.101.102-.094.106-.085.114-.076.122-.065.122-.057.13-.044.13-.037.134-.024h.008l.02-.004.027-.004.04-.004.05-.008.056-.004.059-.009.063-.008.067-.008.07-.008.067-.005.067-.008.063-.004.055-.004.055-.004h.138l.095.004.09.004h.087l.075.004.063.004.035.005h.016l.008-.029.012-.072.012-.085.008-.077-.016-.09-.031-.08-.051-.073-.06-.06-.07-.054-.083-.036-.087-.024-.095-.008-.11-.004-.118-.004h-.122l-.126.004-.13.008-.126.012-.126.013-.122.016-.118.016-.114.021-.102.02-.095.02-.087.024-.07.024-.055.029-.044.024.276-.976.086-.037.091-.032.09-.028.095-.02.1-.021.098-.016.102-.017.106-.008.11-.008.115-.004.114-.005h.37l.133.005.134.004.11.008.118.02.122.028.126.036.122.049.122.057.118.068.11.077.099.09.09.097.079.109.059.121.043.13.027.137v.153l-.02.162-.413 2.138z" clip-rule="evenodd"/><path fill="#fff" fill-rule="evenodd" d="m29.866 15.019.161-.9-.047-.008-.162.9.024-.025v.056l.02-.004z" clip-rule="evenodd"/><path fill="#fff" fill-rule="evenodd" d="m28.83 15.014.025.028h.988v-.054h-.988l.023.029h-.047l-.004.028h.028l-.024-.028z" clip-rule="evenodd"/><path fill="#fff" fill-rule="evenodd" d="m28.894 14.56-.035-.032-.016.066-.004.109v.145l-.008.166h.047l.008-.166.008-.146-.004-.108v-.033l-.035-.032z" clip-rule="evenodd"/><path fill="#fff" fill-rule="evenodd" d="m27.362 15.078.11.017.106.012.11-.004.114-.008.114-.017.11-.02.11-.033.11-.032.1-.04.101-.049.095-.049.083-.057.082-.056.071-.057.063-.065.051-.06-.04-.033-.05.06-.056.057-.07.057-.075.057-.083.049-.095.048-.094.049-.1.04-.102.033-.11.032-.11.02-.106.016-.114.008-.11.005-.106-.013-.103-.016-.008.049z" clip-rule="evenodd"/><path fill="#fff" fill-rule="evenodd" d="m26.41 13.852.003.089.008.089.012.097.016.093.02.09.032.093.035.093.051.085.056.085.063.077.079.077.09.064.102.065.114.053.13.04.142.036.008-.048-.142-.037-.122-.04L27 14.9l-.103-.057-.083-.064-.07-.069-.063-.077-.055-.076-.044-.085-.035-.086-.031-.085-.02-.089-.016-.093-.012-.09-.008-.088.004-.09z" clip-rule="evenodd"/><path fill="#fff" fill-rule="evenodd" d="m27.822 12.297-.138.024-.133.037-.13.044-.126.057-.122.065-.118.081-.106.085-.103.098-.095.1-.082.114-.079.12-.06.135-.05.137-.036.145-.023.154-.012.158h.055l.004-.158.023-.146.036-.137.051-.138.059-.125.07-.113.083-.114.087-.1.102-.09.107-.085.11-.073.122-.064.118-.057.13-.045.126-.036.13-.024z" clip-rule="evenodd"/><path fill="#fff" fill-rule="evenodd" d="M28.634 12.212h-.043l-.056.009-.055.004-.063.004-.066.008-.067.004-.07.008-.067.009-.064.008-.058.008-.056.004-.051.008-.04.005-.03.004-.017.004h-.01v.049h.008l.023-.005.024-.004.04-.004.05-.008.056-.004.059-.008.063-.009.067-.008.07-.008.067-.004.067-.008.062-.005.056-.004h.098v-.057z" clip-rule="evenodd"/><path fill="#fff" fill-rule="evenodd" d="m29.166 12.257.023-.02h-.017l-.036-.005-.062-.004-.075-.008h-.177l-.095-.008h-.095v.057h.189l.09.008h.162l.063.004.035.004h.016l.02.004.003-.024-.047-.008z" clip-rule="evenodd"/><path fill="#fff" fill-rule="evenodd" d="m29.203 11.998-.004.077-.012.08-.012.073-.008.029.047.008.008-.028.012-.073.012-.09.012-.076z" clip-rule="evenodd"/><path fill="#fff" fill-rule="evenodd" d="M28.737 11.597v.005l.09.004.083.024.079.036.067.049.055.057.047.068.032.073.016.085h.047l-.016-.093-.031-.09-.056-.076-.062-.066-.075-.056-.087-.037-.09-.024-.1-.012z" clip-rule="evenodd"/><path fill="#fff" fill-rule="evenodd" d="m27.048 11.791.039.025.04-.02.05-.029.067-.024.087-.024.095-.02.102-.02.114-.021.114-.016.122-.016.127-.013.126-.012.13-.008h.366l.11.004v-.049l-.11-.004-.118-.008h-.122l-.126.008-.13.008-.126.012-.127.013-.122.016-.122.016-.114.02-.102.02-.095.021-.087.024-.074.025-.06.028-.047.028.04.024z" clip-rule="evenodd"/><path fill="#fff" fill-rule="evenodd" d="m27.339 10.795-.015.021-.276.976.048.008.275-.976-.016.02zl-.012.005-.004.016z" clip-rule="evenodd"/><path fill="#fff" fill-rule="evenodd" d="m29.09 10.61-.133-.008-.133-.004h-.37l-.115.008-.114.004-.11.008-.106.008-.106.017-.098.016-.1.02-.094.02-.095.029-.09.032-.087.037.015.048.087-.036.09-.032.087-.028.095-.021.099-.02.099-.016.098-.017.106-.008.11-.008.114-.004h.485l.133.004h.133zm1.35 1.372.02-.166v-.154l-.027-.142-.044-.133-.062-.126-.079-.113-.095-.101-.098-.09-.114-.076-.118-.073-.126-.057-.122-.049-.13-.036-.122-.028-.122-.02-.11-.008v.049l.11.008.114.02.122.028.122.036.122.049.118.057.118.064.107.077.098.09.087.092.078.106.056.117.043.126.027.133v.154l-.02.158z" clip-rule="evenodd"/><path fill="#fff" fill-rule="evenodd" d="m30.028 14.119.413-2.138-.047-.008-.413 2.137z" clip-rule="evenodd"/><path fill="#FFA11C" fill-rule="evenodd" d="m29.052 13.059-.008-.025-.016-.02-.028-.012-.04-.012-.042-.004-.052-.005h-.06l-.058.005-.062.008-.063.008-.063.008-.06.008-.059.013-.05.008-.052.012-.04.009-.027.004-.031.012-.04.012-.043.017-.051.025-.048.024-.055.028-.051.036-.052.036-.051.045-.044.045-.043.052-.035.056-.027.062-.024.064-.012.069-.004.137.02.109.03.08.048.062.059.04.066.024.067.012.067.005.118-.005.11-.012.103-.02.09-.029.087-.032.075-.036.07-.04.063-.05.055-.044.048-.053.043-.048.036-.053.027-.049.02-.048.016-.05.012-.044.016-.113.02-.117.016-.113z" clip-rule="evenodd"/><path fill="#fff" fill-rule="evenodd" d="m37.16 14.46.009-.094.031-.109.055-.097.067-.085.083-.069.094-.048.103-.033.11-.012.11.012.102.033.095.048.083.069.066.085.056.097.031.11.008.093h-.118l-.004-.073-.023-.09-.04-.08-.051-.069-.063-.057-.075-.04-.087-.028-.09-.008-.091.008-.087.028-.075.04-.062.057-.052.069-.039.08-.023.09-.008.073z" clip-rule="evenodd"/><path fill="#fff" fill-rule="evenodd" d="M37.515 14.46v-.244h.217l.047.004.044.009.031.012.028.016.02.024.016.024.008.029.003.028-.004.036-.007.028-.012.025-.008.008h-.166l.016-.004.028-.004.023-.008.02-.009.016-.012.008-.012.008-.02v-.028l-.004-.02-.008-.017-.012-.008-.012-.008-.02-.004-.019-.004h-.161v.157z" clip-rule="evenodd"/><path fill="#fff" fill-rule="evenodd" d="m37.161 14.459-.004.024.012.117.032.11.055.097.067.08.082.07.095.052.102.032.11.012.11-.012.103-.032.095-.053.082-.068.067-.081.055-.098.031-.109.012-.117-.004-.024h-.118l.004.024-.008.097-.023.09-.04.076-.051.069-.063.057-.074.044-.087.028-.09.009-.092-.008-.086-.029-.075-.044-.063-.057-.05-.069-.04-.077-.024-.089-.008-.097v-.024z" clip-rule="evenodd"/><path fill="#fff" fill-rule="evenodd" d="M37.515 14.46v.246h.1V14.5h.097l.118.206h.079l-.118-.206h.027l.028-.008.023-.008.02-.017.007-.012h-.165l-.02.004h-.098v-.004z" clip-rule="evenodd"/><path stroke="#fff" stroke-miterlimit="2.613" stroke-width=".216" d="M37.615 14.706h-.099v-.49h.217l.047.005.044.008.03.012.029.016.02.024.015.024.008.029.004.028-.004.036-.008.028-.012.025-.016.02-.02.016-.023.008-.028.009h-.027l.118.205h-.078l-.118-.205h-.1v.205m.1-.242.035-.009.027-.004.023-.008.02-.008.016-.013.008-.011.008-.02v-.029l-.004-.02-.008-.016-.012-.008-.012-.009-.02-.004-.019-.004h-.161v.162h.099m-.556.017.012-.117.031-.11.056-.097.066-.085.083-.068.095-.049.102-.032.11-.012.11.012.102.032.095.049.082.068.067.085.055.098.032.109.012.117-.012.117-.032.11-.055.097-.067.08-.082.07-.095.052-.102.032-.11.012-.11-.012-.102-.032-.095-.053-.083-.068-.066-.081-.056-.098-.031-.109zm.556.473.09-.009.087-.028.075-.045.062-.057.052-.069.039-.076.023-.09.008-.097-.008-.097-.023-.09-.04-.08-.05-.069-.063-.056-.075-.04-.087-.029-.09-.008-.091.008-.087.029-.075.04-.062.056-.052.069-.039.08-.023.09-.008.097.008.098.023.089.04.076.05.07.063.056.075.044.087.03z"/><path fill="#fff" fill-rule="evenodd" d="M30.3 15.014h1.11l.4-2.303.015-.09.024-.089.024-.089.031-.089.04-.09.047-.084.051-.081.063-.077.07-.068.08-.065.09-.06.102-.05.114-.04.126-.032.138-.024.153-.008h.099l.177-1.04-.11.008-.106.012-.099.02-.095.028-.086.033-.083.04-.079.045-.074.049-.071.056-.067.057-.062.065-.063.065-.06.069-.058.076-.06.073-.055.08.118-.731h-1.106l-.734 4.335z" clip-rule="evenodd"/><path stroke="#fff" stroke-miterlimit="2.613" stroke-width=".216" d="M30.3 15.014h1.11l.4-2.303.015-.09.024-.089.024-.089.031-.089.04-.09.047-.084.051-.081.063-.077.07-.068.08-.065.09-.06.102-.05.114-.04.126-.032.138-.024.153-.008h.099l.177-1.04-.11.008-.106.012-.099.02-.095.028-.086.033-.083.04-.079.045-.074.049-.071.056-.067.057-.062.065-.063.065-.06.069-.058.076-.06.073-.055.08.118-.731h-1.106l-.734 4.335"/><path fill="#fff" fill-rule="evenodd" d="M19.874 15.014h1.13l.378-2.304.016-.089.02-.085.02-.085.027-.08.031-.082.04-.076.047-.073.055-.069.063-.06.07-.062.087-.048.095-.045.11-.036.122-.033.133-.02.154-.012h.012l.016.004.02.004h.02l.02.004.016.004.012.004h.004l.004-.016.012-.048.016-.073.02-.09.027-.105.028-.113.035-.113.035-.113.032-.077.039-.077.04-.077.039-.068.035-.06.027-.05.02-.027.008-.013h-.004l-.015-.004-.02-.004-.027-.004h-.028l-.031-.004-.027-.004h-.03l-.122.008-.11.012-.102.02-.095.025-.09.032-.084.04-.074.041-.071.049-.067.053-.062.06-.06.062-.059.068-.059.069-.055.077-.059.08-.06.081.143-.732h-1.13l-.733 4.335z" clip-rule="evenodd"/><path stroke="#fff" stroke-miterlimit="2.613" stroke-width=".216" d="M19.874 15.014h1.13l.378-2.304.016-.089.02-.085.02-.085.027-.08.031-.082.04-.076.047-.073.055-.069.063-.06.07-.062.087-.048.095-.045.11-.036.122-.033.133-.02.154-.012h.012l.016.004.02.004h.02l.02.004.016.004.012.004h.004l.004-.016.012-.048.016-.073.02-.09.027-.105.028-.113.035-.113.035-.113.032-.077.039-.077.04-.077.039-.068.035-.06.027-.05.02-.027.008-.013h-.004l-.015-.004-.02-.004-.027-.004h-.028l-.031-.004-.027-.004h-.03l-.122.008-.11.012-.102.02-.095.025-.09.032-.084.04-.074.041-.071.049-.067.053-.062.06-.06.062-.059.068-.059.069-.055.077-.059.08-.06.081.143-.732h-1.13l-.733 4.335"/><path fill="#FFA11C" fill-rule="evenodd" d="M37.17 19.272v-.016l.03-.106.056-.093.067-.081.082-.065.095-.048.102-.028.11-.013.11.013.103.028.095.048.082.065.067.08.055.094.032.106v.016h-.112l-.024-.085-.039-.077-.051-.068-.064-.057-.074-.045-.087-.028-.09-.008-.092.008-.086.028-.075.045-.063.057-.051.068-.04.077-.023.085z" clip-rule="evenodd"/><path fill="#FFA11C" fill-rule="evenodd" d="M37.515 19.272v-.142h.267l.044.008.03.008.028.017.02.02.016.024.008.028.004.036h-.083v-.02l-.004-.02-.008-.017-.012-.008-.012-.008-.02-.004-.019-.005h-.161v.081zm-.357.089.012-.089h.114v.004l-.008.085zm.357 0v-.089h.1v.08h.097l.035-.007.028-.005.023-.008.02-.008.016-.012.008-.013.008-.02v-.005h.079l-.004.028-.008.024-.012.02-.016.017zm.635 0-.008-.085v-.002h.114l.012.09z" clip-rule="evenodd"/><path fill="#FFA11C" fill-rule="evenodd" d="M37.158 19.361v.013l.012.117.031.109.056.097.066.085.083.069.095.049.102.032.11.012.11-.012.103-.032.094-.05.083-.068.067-.085.054-.097.032-.11.012-.116v-.013h-.118v.013l-.008.097-.024.09-.039.076-.051.069-.063.056-.075.045-.087.028-.09.008-.09-.008-.088-.028-.074-.044-.063-.058-.051-.068-.04-.077-.023-.089-.008-.097v-.013z" clip-rule="evenodd"/><path fill="#FFA11C" fill-rule="evenodd" d="M37.515 19.361v.235h.1v-.206h.097l.118.206h.079l-.118-.206h.027l.028-.008.023-.009.02-.016h-.374z" clip-rule="evenodd"/></g><defs><clipPath id="a"><path fill="#fff" d="M0 0h39v24H0z"/></clipPath></defs></svg>