<svg xmlns="http://www.w3.org/2000/svg" width="343" height="554" fill="none"><path fill="#AFAFAF" d="M318.276 75.72a.5.5 0 0 1 0 1zM43 76.22l-.38-.325zm70 154.779-5.031 2.832.063-5.773zm205.276-154.78v.5q-1.363 0-2.921-.096l.03-.499.031-.499q1.533.095 2.86.095zm-8.874-.69-.065.496c-1.845-.239-3.82-.535-5.916-.882l.082-.493.081-.494c2.087.346 4.051.64 5.882.877zm-11.734-1.912-.091.492a446 446 0 0 1-5.814-1.13l.098-.49.098-.49q3.01.605 5.801 1.127zm-11.618-2.32-.102.489q-2.843-.596-5.834-1.24l.105-.489.105-.489q2.99.644 5.829 1.239zm-11.69-2.511-.107.488q-2.834-.619-5.773-1.266l.107-.488.107-.488q2.94.646 5.772 1.265zm-11.58-2.543-.107.488-5.851-1.284.106-.488.107-.489 5.853 1.284zM251.151 63.7l-.106.488q-2.88-.624-5.823-1.253l.104-.489.105-.489q2.944.63 5.826 1.254zm-11.656-2.489-.103.49a1370 1370 0 0 0-5.807-1.206l.1-.49.101-.49q2.93.602 5.811 1.207zM227.83 58.82l-.099.49q-2.888-.578-5.814-1.146l.096-.49.095-.492q2.928.57 5.82 1.148zm-11.671-2.265-.092.492a865 865 0 0 0-5.844-1.076l.088-.492.089-.492q2.939.53 5.851 1.077zm-11.708-2.111-.085.492a720 720 0 0 0-5.866-.988l.081-.493.081-.494q2.946.484 5.875.99zm-11.743-1.927-.076.494a616 616 0 0 0-5.882-.882l.071-.495.072-.495q2.95.428 5.892.884zM180.93 50.81l-.067.495q-2.947-.396-5.895-.758l.061-.496.061-.497q2.954.364 5.906.76zm-11.813-1.45-.055.498a449 449 0 0 0-5.91-.613l.048-.498.048-.498q2.958.288 5.924.615zm-11.843-1.145-.041.498a383 383 0 0 0-5.929-.443l.033-.499.034-.499q2.965.198 5.944.445zm-11.868-.79-.024.499q-2.987-.15-5.948-.243l.015-.5.016-.5q2.971.094 5.966.244zm-11.883-.372-.006.5a271 271 0 0 0-5.961-.004l-.005-.5-.005-.5q2.974-.03 5.982.004zm-11.912.129.018.5q-2.99.102-5.93.28l-.03-.498-.031-.5q2.956-.18 5.956-.282zm-11.885.73.045.497a184 184 0 0 0-5.87.623l-.061-.496-.06-.496q2.92-.358 5.901-.626zm-11.805 1.456.078.494q-2.956.47-5.832 1.046l-.099-.49-.098-.49a150 150 0 0 1 5.872-1.053zm-11.638 2.34.12.485q-2.92.72-5.739 1.566l-.144-.48-.143-.478a121 121 0 0 1 5.787-1.579zm-11.405 3.434.17.47a96 96 0 0 0-5.479 2.17l-.198-.458-.2-.46a97 97 0 0 1 5.537-2.192zm-10.902 4.737.23.444a78 78 0 0 0-5.142 2.908l-.263-.425-.263-.426a79 79 0 0 1 5.208-2.945zm-10.095 6.248.297.402a67 67 0 0 0-4.592 3.708l-.332-.374-.33-.375a68 68 0 0 1 4.66-3.764zm-8.891 7.871.364.342a62 62 0 0 0-1.974 2.204L43 76.22l-.38-.325q.978-1.145 2.005-2.24zM43 76.22l.38.324a83 83 0 0 0-1.892 2.299l-.391-.311-.392-.311a84 84 0 0 1 1.915-2.326zm-5.464 7.137.412.283a90 90 0 0 0-3.208 5.029l-.43-.255-.43-.255a91 91 0 0 1 3.243-5.084zM31.419 93.67l.445.227a98 98 0 0 0-2.546 5.398l-.459-.2-.458-.2a99 99 0 0 1 2.572-5.452zm-4.79 10.994.47.172a104 104 0 0 0-1.892 5.663l-.479-.145-.478-.145a105 105 0 0 1 1.91-5.717zm-3.476 11.478.486.118a108 108 0 0 0-1.245 5.84l-.491-.091-.492-.091q.546-2.968 1.256-5.894zm-2.175 11.794.496.063q-.378 2.96-.594 5.941l-.499-.036-.498-.036q.217-3.008.6-5.996zm-.863 11.96.5.008q-.05 2.987.068 5.97l-.5.02-.5.02q-.119-3.012-.068-6.026zm.476 11.982.498-.048q.29 2.975.75 5.922l-.493.077-.494.078a103 103 0 0 1-.758-5.98zm1.862 11.846.489-.107a96 96 0 0 0 1.46 5.785l-.48.138-.482.137a96 96 0 0 1-1.475-5.846zm3.303 11.526.47-.169a89 89 0 0 0 2.195 5.545l-.459.2-.458.199a90 90 0 0 1-2.22-5.607zm4.788 10.988.444-.231a83 83 0 0 0 2.94 5.185l-.426.262-.426.262a84 84 0 0 1-2.976-5.247zm6.288 10.203.405-.293a79 79 0 0 0 3.671 4.694l-.381.323-.382.323a80 80 0 0 1-3.718-4.754zm7.74 9.154.355-.351a77 77 0 0 0 4.348 4.081l-.328.377-.328.378a78 78 0 0 1-4.404-4.134zm9.048 7.861.297-.402a78 78 0 0 0 4.91 3.363l-.266.423-.267.423a80 80 0 0 1-4.972-3.406zm10.12 6.391.235-.441a84 84 0 0 0 5.353 2.61l-.203.457-.204.457a85 85 0 0 1-5.416-2.642zm10.945 4.876.172-.47a93 93 0 0 0 5.682 1.873l-.141.479-.141.48a94 94 0 0 1-5.743-1.893zm11.51 3.399.112-.487q2.847.655 5.828 1.167l-.084.493-.084.492a107 107 0 0 1-5.884-1.177zm11.794 2.027.058-.496q2.936.344 5.993.551l-.034.499-.034.499a123 123 0 0 1-6.042-.556zM318.276 75.72a.5.5 0 0 1 0 1zM43 76.22l-.38-.325zm70 154.779-5.031 2.832.063-5.773zm205.276-154.78v.5q-1.363 0-2.921-.096l.03-.499.031-.499q1.533.095 2.86.095zm-8.874-.69-.065.496c-1.845-.239-3.82-.535-5.916-.882l.082-.493.081-.494c2.087.346 4.051.64 5.882.877zm-11.734-1.912-.091.492a446 446 0 0 1-5.814-1.13l.098-.49.098-.49q3.01.605 5.801 1.127zm-11.618-2.32-.102.489q-2.843-.596-5.834-1.24l.105-.489.105-.489q2.99.644 5.829 1.239zm-11.69-2.511-.107.488q-2.834-.619-5.773-1.266l.107-.488.107-.488q2.94.646 5.772 1.265zm-11.58-2.543-.107.488-5.851-1.284.106-.488.107-.489 5.853 1.284zM251.151 63.7l-.106.488q-2.88-.624-5.823-1.253l.104-.489.105-.489q2.944.63 5.826 1.254zm-11.656-2.489-.103.49a1370 1370 0 0 0-5.807-1.206l.1-.49.101-.49q2.93.602 5.811 1.207zM227.83 58.82l-.099.49q-2.888-.578-5.814-1.146l.096-.49.095-.492q2.928.57 5.82 1.148zm-11.671-2.265-.092.492a865 865 0 0 0-5.844-1.076l.088-.492.089-.492q2.939.53 5.851 1.077zm-11.708-2.111-.085.492a720 720 0 0 0-5.866-.988l.081-.493.081-.494q2.946.484 5.875.99zm-11.743-1.927-.076.494a616 616 0 0 0-5.882-.882l.071-.495.072-.495q2.95.428 5.892.884zM180.93 50.81l-.067.495q-2.947-.396-5.895-.758l.061-.496.061-.497q2.954.364 5.906.76zm-11.813-1.45-.055.498a449 449 0 0 0-5.91-.613l.048-.498.048-.498q2.958.288 5.924.615zm-11.843-1.145-.041.498a383 383 0 0 0-5.929-.443l.033-.499.034-.499q2.965.198 5.944.445zm-11.868-.79-.024.499q-2.987-.15-5.948-.243l.015-.5.016-.5q2.971.094 5.966.244zm-11.883-.372-.006.5a271 271 0 0 0-5.961-.004l-.005-.5-.005-.5q2.974-.03 5.982.004zm-11.912.129.018.5q-2.99.102-5.93.28l-.03-.498-.031-.5q2.956-.18 5.956-.282zm-11.885.73.045.497a184 184 0 0 0-5.87.623l-.061-.496-.06-.496q2.92-.358 5.901-.626zm-11.805 1.456.078.494q-2.956.47-5.832 1.046l-.099-.49-.098-.49a150 150 0 0 1 5.872-1.053zm-11.638 2.34.12.485q-2.92.72-5.739 1.566l-.144-.48-.143-.478a121 121 0 0 1 5.787-1.579zm-11.405 3.434.17.47a96 96 0 0 0-5.479 2.17l-.198-.458-.2-.46a97 97 0 0 1 5.537-2.192zm-10.902 4.737.23.444a78 78 0 0 0-5.142 2.908l-.263-.425-.263-.426a79 79 0 0 1 5.208-2.945zm-10.095 6.248.297.402a67 67 0 0 0-4.592 3.708l-.332-.374-.33-.375a68 68 0 0 1 4.66-3.764zm-8.891 7.871.364.342a62 62 0 0 0-1.974 2.204L43 76.22l-.38-.325q.978-1.145 2.005-2.24zM43 76.22l.38.324a83 83 0 0 0-1.892 2.299l-.391-.311-.392-.311a84 84 0 0 1 1.915-2.326zm-5.464 7.137.412.283a90 90 0 0 0-3.208 5.029l-.43-.255-.43-.255a91 91 0 0 1 3.243-5.084zM31.419 93.67l.445.227a98 98 0 0 0-2.546 5.398l-.459-.2-.458-.2a99 99 0 0 1 2.572-5.452zm-4.79 10.994.47.172a104 104 0 0 0-1.892 5.663l-.479-.145-.478-.145a105 105 0 0 1 1.91-5.717zm-3.476 11.478.486.118a108 108 0 0 0-1.245 5.84l-.491-.091-.492-.091q.546-2.968 1.256-5.894zm-2.175 11.794.496.063q-.378 2.96-.594 5.941l-.499-.036-.498-.036q.217-3.008.6-5.996zm-.863 11.96.5.008q-.05 2.987.068 5.97l-.5.02-.5.02q-.119-3.012-.068-6.026zm.476 11.982.498-.048q.29 2.975.75 5.922l-.493.077-.494.078a103 103 0 0 1-.758-5.98zm1.862 11.846.489-.107a96 96 0 0 0 1.46 5.785l-.48.138-.482.137a96 96 0 0 1-1.475-5.846zm3.303 11.526.47-.169a89 89 0 0 0 2.195 5.545l-.459.2-.458.199a90 90 0 0 1-2.22-5.607zm4.788 10.988.444-.231a83 83 0 0 0 2.94 5.185l-.426.262-.426.262a84 84 0 0 1-2.976-5.247zm6.288 10.203.405-.293a79 79 0 0 0 3.671 4.694l-.381.323-.382.323a80 80 0 0 1-3.718-4.754zm7.74 9.154.355-.351a77 77 0 0 0 4.348 4.081l-.328.377-.328.378a78 78 0 0 1-4.404-4.134zm9.048 7.861.297-.402a78 78 0 0 0 4.91 3.363l-.266.423-.267.423a80 80 0 0 1-4.972-3.406zm10.12 6.391.235-.441a84 84 0 0 0 5.353 2.61l-.203.457-.204.457a85 85 0 0 1-5.416-2.642zm10.945 4.876.172-.47a93 93 0 0 0 5.682 1.873l-.141.479-.141.48a94 94 0 0 1-5.743-1.893zm11.51 3.399.112-.487q2.847.655 5.828 1.167l-.084.493-.084.492a107 107 0 0 1-5.884-1.177zm11.794 2.027.058-.496q2.936.344 5.993.551l-.034.499-.034.499a123 123 0 0 1-6.042-.556zM100.5 385.001a.5.5 0 0 1 0 1zm-76 70.499h.5zm76 84.001-4.6 3.489-.722-5.728zm0-154v.5q-1.463 0-2.918.036l-.012-.5-.012-.5q1.466-.036 2.942-.036zm-8.779.327.038.499q-2.926.221-5.795.597l-.065-.496-.065-.496q2.897-.379 5.85-.602zm-11.605 1.53.094.492a91 91 0 0 0-5.68 1.275l-.125-.484-.126-.484a93 93 0 0 1 5.743-1.29zm-11.325 2.943.158.474a77 77 0 0 0-5.445 2.048l-.194-.461-.194-.461q2.701-1.133 5.516-2.075zm-10.78 4.546.23.443a66 66 0 0 0-5.031 2.903l-.269-.421-.269-.422a67 67 0 0 1 5.107-2.947zm-9.853 6.3.307.394a59 59 0 0 0-4.396 3.787l-.345-.362-.345-.362a60 60 0 0 1 4.471-3.852zm-8.464 8.064.38.325a57 57 0 0 0-3.545 4.595l-.411-.285-.41-.285a58 58 0 0 1 3.607-4.675zm-6.661 9.603.437.242a60 60 0 0 0-2.564 5.211l-.459-.199-.458-.199a61 61 0 0 1 2.606-5.297zm-4.668 10.721.474.157a70 70 0 0 0-1.589 5.59l-.486-.117-.486-.117a71 71 0 0 1 1.612-5.669zm-2.747 11.368.493.08a84 84 0 0 0-.725 5.785l-.498-.045-.498-.045q.275-3.008.734-5.855zm-1.076 11.649.5.015Q25 454.015 25 455.5h-1q0-1.499.043-2.962zM24.5 455.5h.5q0 1.475.003 3.069l-.5.002-.5.001Q24 456.976 24 455.5zm.067 9.23.5-.01c.039 1.971.101 4.024.2 6.137l-.499.024-.5.023c-.1-2.124-.162-4.186-.201-6.164zm.592 12.291.499-.041c.164 2.007.369 4.049.625 6.11l-.497.061-.496.062a147 147 0 0 1-.629-6.151zm1.535 12.221.492-.086c.35 2.002.758 4.007 1.23 6.003l-.487.115-.486.115a105 105 0 0 1-1.242-6.06zm2.853 11.974.477-.149a76 76 0 0 0 2.043 5.765l-.464.186-.464.187a77 77 0 0 1-2.07-5.841zm4.61 11.403.445-.229a57 57 0 0 0 3.076 5.267l-.417.276-.418.275a58 58 0 0 1-3.13-5.36zm6.791 10.239.381-.324a47 47 0 0 0 4.228 4.378l-.336.37-.336.37a48 48 0 0 1-4.318-4.471zm9.089 8.248.284-.412a47 47 0 0 0 5.22 3.124l-.228.445-.229.444a48 48 0 0 1-5.331-3.19zm10.923 5.634.174-.469q2.757 1.021 5.807 1.789l-.122.485-.122.485a57 57 0 0 1-5.91-1.821zm11.886 3.011.075-.494q2.917.445 6.077.667l-.035.499-.034.499a76 76 0 0 1-6.158-.677zm12.269.878v-.5q2.957-.002 6.116-.195l.03.499.032.499q-3.188.195-6.178.197zM100.5 385.001a.5.5 0 0 1 0 1zm-76 70.499h.5zm76 84.001-4.6 3.489-.722-5.728zm0-154v.5q-1.463 0-2.918.036l-.012-.5-.012-.5q1.466-.036 2.942-.036zm-8.779.327.038.499q-2.926.221-5.795.597l-.065-.496-.065-.496q2.897-.379 5.85-.602zm-11.605 1.53.094.492a91 91 0 0 0-5.68 1.275l-.125-.484-.126-.484a93 93 0 0 1 5.743-1.29zm-11.325 2.943.158.474a77 77 0 0 0-5.445 2.048l-.194-.461-.194-.461q2.701-1.133 5.516-2.075zm-10.78 4.546.23.443a66 66 0 0 0-5.031 2.903l-.269-.421-.269-.422a67 67 0 0 1 5.107-2.947zm-9.853 6.3.307.394a59 59 0 0 0-4.396 3.787l-.345-.362-.345-.362a60 60 0 0 1 4.471-3.852zm-8.464 8.064.38.325a57 57 0 0 0-3.545 4.595l-.411-.285-.41-.285a58 58 0 0 1 3.607-4.675zm-6.661 9.603.437.242a60 60 0 0 0-2.564 5.211l-.459-.199-.458-.199a61 61 0 0 1 2.606-5.297zm-4.668 10.721.474.157a70 70 0 0 0-1.589 5.59l-.486-.117-.486-.117a71 71 0 0 1 1.612-5.669zm-2.747 11.368.493.08a84 84 0 0 0-.725 5.785l-.498-.045-.498-.045q.275-3.008.734-5.855zm-1.076 11.649.5.015Q25 454.015 25 455.5h-1q0-1.499.043-2.962zM24.5 455.5h.5q0 1.475.003 3.069l-.5.002-.5.001Q24 456.976 24 455.5zm.067 9.23.5-.01c.039 1.971.101 4.024.2 6.137l-.499.024-.5.023c-.1-2.124-.162-4.186-.201-6.164zm.592 12.291.499-.041c.164 2.007.369 4.049.625 6.11l-.497.061-.496.062a147 147 0 0 1-.629-6.151zm1.535 12.221.492-.086c.35 2.002.758 4.007 1.23 6.003l-.487.115-.486.115a105 105 0 0 1-1.242-6.06zm2.853 11.974.477-.149a76 76 0 0 0 2.043 5.765l-.464.186-.464.187a77 77 0 0 1-2.07-5.841zm4.61 11.403.445-.229a57 57 0 0 0 3.076 5.267l-.417.276-.418.275a58 58 0 0 1-3.13-5.36zm6.791 10.239.381-.324a47 47 0 0 0 4.228 4.378l-.336.37-.336.37a48 48 0 0 1-4.318-4.471zm9.089 8.248.284-.412a47 47 0 0 0 5.22 3.124l-.228.445-.229.444a48 48 0 0 1-5.331-3.19zm10.923 5.634.174-.469q2.757 1.021 5.807 1.789l-.122.485-.122.485a57 57 0 0 1-5.91-1.821zm11.886 3.011.075-.494q2.917.445 6.077.667l-.035.499-.034.499a76 76 0 0 1-6.158-.677zm12.269.878v-.5q2.957-.002 6.116-.195l.03.499.032.499q-3.188.195-6.178.197z"/><path fill="#AFAFAF" d="M103.5 230.001a.5.5 0 0 1 0 1zm-76 70.499h.5zm76 84.001-4.6 3.489-.722-5.728zm0-154v.5q-1.463 0-2.918.036l-.012-.5-.012-.5q1.466-.036 2.942-.036zm-8.78.327.039.499q-2.926.221-5.795.597l-.065-.496-.065-.496q2.897-.379 5.85-.602zm-11.605 1.53.095.492a91 91 0 0 0-5.68 1.275l-.126-.484-.125-.484a93 93 0 0 1 5.742-1.29zm-11.325 2.943.159.474a77 77 0 0 0-5.446 2.048l-.194-.461-.193-.461q2.7-1.133 5.516-2.075zm-10.78 4.546.23.443a66 66 0 0 0-5.03 2.903l-.27-.421-.268-.422a67 67 0 0 1 5.107-2.947zm-9.852 6.3.307.394a59 59 0 0 0-4.397 3.787l-.344-.362-.345-.362a60 60 0 0 1 4.471-3.852zm-8.464 8.064.38.325a57 57 0 0 0-3.545 4.595l-.411-.285-.411-.285a58 58 0 0 1 3.607-4.675zm-6.662 9.603.438.242a60 60 0 0 0-2.564 5.211l-.459-.199-.459-.199a61 61 0 0 1 2.607-5.297zm-4.668 10.721.475.157a70 70 0 0 0-1.589 5.59l-.486-.117-.486-.117a71 71 0 0 1 1.612-5.669zm-2.747 11.368.494.08a84 84 0 0 0-.725 5.785l-.498-.045-.498-.045q.274-3.008.734-5.855zm-1.075 11.649.5.015Q28 299.015 28 300.5h-1q0-1.499.042-2.962zM27.5 300.5h.5q0 1.475.003 3.069l-.5.002-.5.001q-.004-1.596-.003-3.072zm.067 9.23.5-.01c.039 1.971.101 4.024.2 6.137l-.5.024-.499.023c-.1-2.124-.162-4.186-.201-6.164zm.592 12.291.498-.041c.165 2.007.37 4.049.625 6.11l-.496.061-.496.062a147 147 0 0 1-.63-6.151zm1.534 12.221.493-.086c.35 2.002.758 4.007 1.23 6.003l-.487.115-.486.115a105 105 0 0 1-1.242-6.06zm2.854 11.974.477-.149a76 76 0 0 0 2.043 5.765l-.464.186-.464.187a77 77 0 0 1-2.07-5.841zm4.61 11.403.444-.229a57 57 0 0 0 3.077 5.267l-.418.276-.417.275a58 58 0 0 1-3.13-5.36zm6.79 10.239.382-.324a47 47 0 0 0 4.228 4.378l-.336.37-.336.37a48 48 0 0 1-4.318-4.471zm9.09 8.248.284-.412a47 47 0 0 0 5.22 3.124l-.228.445-.229.444a48 48 0 0 1-5.331-3.19zm10.923 5.634.173-.469a56 56 0 0 0 5.808 1.789l-.122.485-.122.485a57 57 0 0 1-5.91-1.821zm11.886 3.011.075-.494q2.917.445 6.077.667l-.035.499-.034.499a76 76 0 0 1-6.159-.677zm12.268.878v-.5q2.959-.002 6.117-.195l.03.499.031.499q-3.187.195-6.177.197zM103.5 230.001a.5.5 0 0 1 0 1zm-76 70.499h.5zm76 84.001-4.6 3.489-.722-5.728zm0-154v.5q-1.463 0-2.918.036l-.012-.5-.012-.5q1.466-.036 2.942-.036zm-8.78.327.039.499q-2.926.221-5.795.597l-.065-.496-.065-.496q2.897-.379 5.85-.602zm-11.605 1.53.095.492a91 91 0 0 0-5.68 1.275l-.126-.484-.125-.484a93 93 0 0 1 5.742-1.29zm-11.325 2.943.159.474a77 77 0 0 0-5.446 2.048l-.194-.461-.193-.461q2.7-1.133 5.516-2.075zm-10.78 4.546.23.443a66 66 0 0 0-5.03 2.903l-.27-.421-.268-.422a67 67 0 0 1 5.107-2.947zm-9.852 6.3.307.394a59 59 0 0 0-4.397 3.787l-.344-.362-.345-.362a60 60 0 0 1 4.471-3.852zm-8.464 8.064.38.325a57 57 0 0 0-3.545 4.595l-.411-.285-.411-.285a58 58 0 0 1 3.607-4.675zm-6.662 9.603.438.242a60 60 0 0 0-2.564 5.211l-.459-.199-.459-.199a61 61 0 0 1 2.607-5.297zm-4.668 10.721.475.157a70 70 0 0 0-1.589 5.59l-.486-.117-.486-.117a71 71 0 0 1 1.612-5.669zm-2.747 11.368.494.08a84 84 0 0 0-.725 5.785l-.498-.045-.498-.045q.274-3.008.734-5.855zm-1.075 11.649.5.015Q28 299.015 28 300.5h-1q0-1.499.042-2.962zM27.5 300.5h.5q0 1.475.003 3.069l-.5.002-.5.001q-.004-1.596-.003-3.072zm.067 9.23.5-.01c.039 1.971.101 4.024.2 6.137l-.5.024-.499.023c-.1-2.124-.162-4.186-.201-6.164zm.592 12.291.498-.041c.165 2.007.37 4.049.625 6.11l-.496.061-.496.062a147 147 0 0 1-.63-6.151zm1.534 12.221.493-.086c.35 2.002.758 4.007 1.23 6.003l-.487.115-.486.115a105 105 0 0 1-1.242-6.06zm2.854 11.974.477-.149a76 76 0 0 0 2.043 5.765l-.464.186-.464.187a77 77 0 0 1-2.07-5.841zm4.61 11.403.444-.229a57 57 0 0 0 3.077 5.267l-.418.276-.417.275a58 58 0 0 1-3.13-5.36zm6.79 10.239.382-.324a47 47 0 0 0 4.228 4.378l-.336.37-.336.37a48 48 0 0 1-4.318-4.471zm9.09 8.248.284-.412a47 47 0 0 0 5.22 3.124l-.228.445-.229.444a48 48 0 0 1-5.331-3.19zm10.923 5.634.173-.469a56 56 0 0 0 5.808 1.789l-.122.485-.122.485a57 57 0 0 1-5.91-1.821zm11.886 3.011.075-.494q2.917.445 6.077.667l-.035.499-.034.499a76 76 0 0 1-6.159-.677zm12.268.878v-.5q2.959-.002 6.117-.195l.03.499.031.499q-3.187.195-6.177.197z"/></svg>