<svg width="343" height="554" viewBox="0 0 343 554" fill="none" xmlns="http://www.w3.org/2000/svg">
<path d="M318.276 75.7196C318.552 75.7196 318.776 75.9434 318.776 76.2196C318.776 76.4957 318.552 76.7196 318.276 76.7196L318.276 75.7196ZM42.9997 76.2196L42.6195 75.8949L42.9997 76.2196ZM113 230.999L107.969 233.831L108.032 228.058L113 230.999ZM318.276 76.2196L318.276 76.7196C317.368 76.7196 316.393 76.6867 315.355 76.6234L315.385 76.1243L315.416 75.6252C316.438 75.6875 317.392 75.7196 318.276 75.7196L318.276 76.2196ZM309.402 75.5293L309.337 76.0252C307.492 75.7861 305.517 75.4897 303.421 75.143L303.503 74.6497L303.584 74.1564C305.671 74.5016 307.635 74.7962 309.466 75.0335L309.402 75.5293ZM297.668 73.6172L297.577 74.1087C295.711 73.7602 293.772 73.3826 291.763 72.9796L291.861 72.4894L291.959 71.9992C293.965 72.4014 295.9 72.7781 297.76 73.1258L297.668 73.6172ZM286.05 71.2963L285.948 71.7856C284.053 71.3888 282.108 70.9746 280.114 70.5458L280.219 70.057L280.324 69.5681C282.317 69.9967 284.261 70.4105 286.153 70.8069L286.05 71.2963ZM274.36 68.7857L274.253 69.2742C272.364 68.8617 270.439 68.4391 268.48 68.0083L268.587 67.52L268.694 67.0316C270.654 67.4624 272.578 67.8849 274.466 68.2973L274.36 68.7857ZM262.78 66.2426L262.673 66.7309C260.751 66.3082 258.799 65.8796 256.822 65.447L256.928 64.9586L257.035 64.4701C259.013 64.9029 260.965 65.3315 262.888 65.7543L262.78 66.2426ZM251.151 63.7005L251.045 64.1891C249.125 63.7733 247.184 63.3551 245.222 62.9361L245.326 62.4471L245.431 61.9582C247.394 62.3774 249.336 62.7958 251.257 63.2118L251.151 63.7005ZM239.495 61.2122L239.392 61.7016C237.473 61.2989 235.536 60.8966 233.585 60.496L233.685 60.0062L233.786 59.5164C235.739 59.9173 237.677 60.3199 239.597 60.7229L239.495 61.2122ZM227.83 58.8192L227.731 59.3095C225.806 58.9242 223.867 58.5418 221.917 58.1631L222.013 57.6723L222.108 57.1815C224.06 57.5605 226 57.9433 227.928 58.3289L227.83 58.8192ZM216.159 56.5544L216.067 57.0458C214.128 56.682 212.179 56.3229 210.223 55.9698L210.311 55.4777L210.4 54.9857C212.359 55.3393 214.31 55.6987 216.251 56.063L216.159 56.5544ZM204.451 54.4427L204.366 54.9354C202.417 54.5989 200.461 54.2691 198.5 53.9472L198.581 53.4538L198.662 52.9604C200.626 53.2828 202.585 53.613 204.537 53.95L204.451 54.4427ZM192.708 52.5163L192.632 53.0104C190.674 52.7071 188.713 52.4125 186.75 52.1278L186.821 51.6329L186.893 51.1381C188.86 51.4234 190.824 51.7184 192.785 52.0222L192.708 52.5163ZM180.93 50.8096L180.863 51.3051C178.899 51.0413 176.933 50.7882 174.968 50.5469L175.029 50.0506L175.09 49.5544C177.059 49.7961 179.028 50.0497 180.996 50.314L180.93 50.8096ZM169.117 49.3609L169.062 49.8579C167.09 49.6403 165.119 49.4355 163.152 49.2448L163.2 48.7471L163.248 48.2495C165.22 48.4407 167.195 48.6458 169.172 48.864L169.117 49.3609ZM157.274 48.2149L157.233 48.7132C155.251 48.5498 153.275 48.4017 151.304 48.27L151.337 47.7711L151.371 47.2722C153.347 47.4043 155.329 47.5528 157.315 47.7166L157.274 48.2149ZM145.406 47.4243L145.382 47.9237C143.391 47.8243 141.408 47.7431 139.434 47.681L139.449 47.1812L139.465 46.6815C141.445 46.7438 143.435 46.8253 145.431 46.9249L145.406 47.4243ZM133.523 47.0531L133.517 47.5531C131.518 47.5301 129.531 47.5284 127.556 47.5491L127.551 47.0492L127.546 46.5492C129.528 46.5284 131.523 46.5301 133.528 46.5531L133.523 47.0531ZM121.611 47.1816L121.629 47.6813C119.636 47.75 117.659 47.8434 115.699 47.9628L115.669 47.4637L115.638 46.9647C117.608 46.8447 119.594 46.7509 121.594 46.6819L121.611 47.1816ZM109.726 47.9114L109.771 48.4094C107.794 48.5878 105.837 48.795 103.901 49.0324L103.84 48.5361L103.78 48.0399C105.726 47.8011 107.694 47.5928 109.681 47.4135L109.726 47.9114ZM97.9205 49.3684L97.9991 49.8622C96.0288 50.176 94.0838 50.5241 92.1665 50.9081L92.0683 50.4179L91.9701 49.9276C93.901 49.5409 95.859 49.1904 97.8418 48.8746L97.9205 49.3684ZM86.2835 51.7076L86.4033 52.1931C84.4569 52.6732 82.5431 53.1944 80.6642 53.7585L80.5205 53.2796L80.3767 52.8007C82.2722 52.2317 84.202 51.7061 86.1638 51.2222L86.2835 51.7076ZM74.8777 55.142L75.0477 55.6122C73.1806 56.2873 71.3536 57.0101 69.5691 57.7825L69.3705 57.3237L69.1718 56.8648C70.976 56.0839 72.8221 55.3536 74.7077 54.6718L74.8777 55.142ZM63.976 59.879L64.2057 60.3231C62.4416 61.2358 60.7266 62.2044 59.0636 63.2312L58.8009 62.8057L58.5382 62.3803C60.2235 61.3398 61.9605 60.3588 63.7462 59.435L63.976 59.879ZM53.8813 66.1267L54.1781 66.5291C52.5888 67.7012 51.057 68.9365 49.5855 70.2373L49.2544 69.8627L48.9232 69.4881C50.4173 68.1672 51.9722 66.9135 53.5845 65.7243L53.8813 66.1267ZM44.9896 73.998L45.3541 74.3404C44.68 75.0579 44.0219 75.7924 43.38 76.5442L42.9997 76.2196L42.6195 75.8949C43.2717 75.131 43.9404 74.3847 44.6252 73.6557L44.9896 73.998ZM42.9997 76.2196L43.38 76.5442C42.7367 77.2977 42.1061 78.064 41.4884 78.8425L41.0967 78.5318L40.705 78.221C41.3301 77.4332 41.9683 76.6576 42.6195 75.8949L42.9997 76.2196ZM37.5358 83.3574L37.9481 83.6403C36.8271 85.2743 35.7575 86.9519 34.7401 88.6687L34.31 88.4138L33.8798 88.1589C34.9083 86.4235 35.9898 84.7272 37.1235 83.0746L37.5358 83.3574ZM31.4185 93.669L31.8639 93.8961C30.9632 95.6628 30.1142 97.4634 29.3178 99.2937L28.8593 99.0942L28.4008 98.8947C29.2053 97.046 30.0629 95.227 30.973 93.4419L31.4185 93.669ZM26.6299 104.663L27.0994 104.835C26.4161 106.699 25.7849 108.588 25.2068 110.498L24.7283 110.353L24.2497 110.208C24.8333 108.28 25.4705 106.373 26.1605 104.491L26.6299 104.663ZM23.1527 116.141L23.6386 116.259C23.1706 118.19 22.7555 120.138 22.3942 122.099L21.9025 122.008L21.4108 121.917C21.7754 119.939 22.1944 117.973 22.6667 116.023L23.1527 116.141ZM20.9781 127.935L21.4741 127.998C21.2218 129.971 21.0235 131.953 20.88 133.939L20.3813 133.903L19.8826 133.867C20.0274 131.862 20.2275 129.863 20.4822 127.871L20.9781 127.935ZM20.1149 139.895L20.6148 139.903C20.5817 141.894 20.604 143.885 20.6827 145.873L20.1831 145.893L19.6835 145.913C19.6041 143.906 19.5815 141.896 19.615 139.887L20.1149 139.895ZM20.5914 151.877L21.089 151.829C21.2817 153.812 21.5317 155.787 21.8398 157.751L21.3459 157.828L20.8519 157.906C20.5407 155.922 20.2882 153.928 20.0937 151.926L20.5914 151.877ZM22.4535 163.723L22.9418 163.616C23.369 165.561 23.8554 167.491 24.4019 169.401L23.9212 169.539L23.4405 169.676C22.8881 167.746 22.3966 165.796 21.9651 163.83L22.4535 163.723ZM25.7555 175.249L26.2264 175.08C26.8962 176.954 27.6274 178.803 28.4205 180.625L27.962 180.825L27.5036 181.024C26.7014 179.182 25.962 177.311 25.2847 175.417L25.7555 175.249ZM30.544 186.237L30.9875 186.006C31.9047 187.768 32.8845 189.497 33.9277 191.191L33.502 191.453L33.0762 191.715C32.0202 190.001 31.0286 188.25 30.1005 186.468L30.544 186.237ZM36.8323 196.44L37.2375 196.147C38.3978 197.752 39.6212 199.318 40.9085 200.841L40.5266 201.164L40.1447 201.487C38.8409 199.944 37.602 198.358 36.4271 196.733L36.8323 196.44ZM44.5712 205.594L44.9272 205.243C46.314 206.649 47.763 208.011 49.2748 209.324L48.9469 209.701L48.6191 210.079C47.0877 208.749 45.62 207.37 44.2152 205.945L44.5712 205.594ZM53.6196 213.455L53.9175 213.053C55.4949 214.224 57.1315 215.346 58.8279 216.416L58.5611 216.839L58.2942 217.262C56.5765 216.178 54.9192 215.042 53.3216 213.856L53.6196 213.455ZM63.7401 219.846L63.9752 219.405C65.7042 220.326 67.4882 221.197 69.3279 222.015L69.1246 222.472L68.9214 222.929C67.0603 222.101 65.255 221.219 63.505 220.287L63.7401 219.846ZM74.6854 224.722L74.8573 224.252C76.7007 224.927 78.5945 225.552 80.5391 226.125L80.3979 226.604L80.2566 227.084C78.2916 226.505 76.3774 225.873 74.5136 225.191L74.6854 224.722ZM86.1951 228.121L86.3072 227.634C88.2055 228.071 90.1481 228.46 92.1355 228.801L92.051 229.294L91.9666 229.786C89.961 229.443 87.9999 229.049 86.083 228.609L86.1951 228.121ZM97.9885 230.148L98.0468 229.652C100.004 229.881 102.002 230.066 104.04 230.203L104.006 230.702L103.972 231.201C101.918 231.062 99.9042 230.877 97.9302 230.645L97.9885 230.148ZM318.276 75.7196C318.552 75.7196 318.776 75.9434 318.776 76.2196C318.776 76.4957 318.552 76.7196 318.276 76.7196L318.276 75.7196ZM42.9997 76.2196L42.6195 75.8949L42.9997 76.2196ZM113 230.999L107.969 233.831L108.032 228.058L113 230.999ZM318.276 76.2196L318.276 76.7196C317.368 76.7196 316.393 76.6867 315.355 76.6234L315.385 76.1243L315.416 75.6252C316.438 75.6875 317.392 75.7196 318.276 75.7196L318.276 76.2196ZM309.402 75.5293L309.337 76.0252C307.492 75.7861 305.517 75.4897 303.421 75.143L303.503 74.6497L303.584 74.1564C305.671 74.5016 307.635 74.7962 309.466 75.0335L309.402 75.5293ZM297.668 73.6172L297.577 74.1087C295.711 73.7602 293.772 73.3826 291.763 72.9796L291.861 72.4894L291.959 71.9992C293.965 72.4014 295.9 72.7781 297.76 73.1258L297.668 73.6172ZM286.05 71.2963L285.948 71.7856C284.053 71.3888 282.108 70.9746 280.114 70.5458L280.219 70.057L280.324 69.5681C282.317 69.9967 284.261 70.4105 286.153 70.8069L286.05 71.2963ZM274.36 68.7857L274.253 69.2742C272.364 68.8617 270.439 68.4391 268.48 68.0083L268.587 67.52L268.694 67.0316C270.654 67.4624 272.578 67.8849 274.466 68.2973L274.36 68.7857ZM262.78 66.2426L262.673 66.7309C260.751 66.3082 258.799 65.8796 256.822 65.447L256.928 64.9586L257.035 64.4701C259.013 64.9029 260.965 65.3315 262.888 65.7543L262.78 66.2426ZM251.151 63.7005L251.045 64.1891C249.125 63.7733 247.184 63.3551 245.222 62.9361L245.326 62.4471L245.431 61.9582C247.394 62.3774 249.336 62.7958 251.257 63.2118L251.151 63.7005ZM239.495 61.2122L239.392 61.7016C237.473 61.2989 235.536 60.8966 233.585 60.496L233.685 60.0062L233.786 59.5164C235.739 59.9173 237.677 60.3199 239.597 60.7229L239.495 61.2122ZM227.83 58.8192L227.731 59.3095C225.806 58.9242 223.867 58.5418 221.917 58.1631L222.013 57.6723L222.108 57.1815C224.06 57.5605 226 57.9433 227.928 58.3289L227.83 58.8192ZM216.159 56.5544L216.067 57.0458C214.128 56.682 212.179 56.3229 210.223 55.9698L210.311 55.4777L210.4 54.9857C212.359 55.3393 214.31 55.6987 216.251 56.063L216.159 56.5544ZM204.451 54.4427L204.366 54.9354C202.417 54.5989 200.461 54.2691 198.5 53.9472L198.581 53.4538L198.662 52.9604C200.626 53.2828 202.585 53.613 204.537 53.95L204.451 54.4427ZM192.708 52.5163L192.632 53.0104C190.674 52.7071 188.713 52.4125 186.75 52.1278L186.821 51.6329L186.893 51.1381C188.86 51.4234 190.824 51.7184 192.785 52.0222L192.708 52.5163ZM180.93 50.8096L180.863 51.3051C178.899 51.0413 176.933 50.7882 174.968 50.5469L175.029 50.0506L175.09 49.5544C177.059 49.7961 179.028 50.0497 180.996 50.314L180.93 50.8096ZM169.117 49.3609L169.062 49.8579C167.09 49.6403 165.119 49.4355 163.152 49.2448L163.2 48.7471L163.248 48.2495C165.22 48.4407 167.195 48.6458 169.172 48.864L169.117 49.3609ZM157.274 48.2149L157.233 48.7132C155.251 48.5498 153.275 48.4017 151.304 48.27L151.337 47.7711L151.371 47.2722C153.347 47.4043 155.329 47.5528 157.315 47.7166L157.274 48.2149ZM145.406 47.4243L145.382 47.9237C143.391 47.8243 141.408 47.7431 139.434 47.681L139.449 47.1812L139.465 46.6815C141.445 46.7438 143.435 46.8253 145.431 46.9249L145.406 47.4243ZM133.523 47.0531L133.517 47.5531C131.518 47.5301 129.531 47.5284 127.556 47.5491L127.551 47.0492L127.546 46.5492C129.528 46.5284 131.523 46.5301 133.528 46.5531L133.523 47.0531ZM121.611 47.1816L121.629 47.6813C119.636 47.75 117.659 47.8434 115.699 47.9628L115.669 47.4637L115.638 46.9647C117.608 46.8447 119.594 46.7509 121.594 46.6819L121.611 47.1816ZM109.726 47.9114L109.771 48.4094C107.794 48.5878 105.837 48.795 103.901 49.0324L103.84 48.5361L103.78 48.0399C105.726 47.8011 107.694 47.5928 109.681 47.4135L109.726 47.9114ZM97.9205 49.3684L97.9991 49.8622C96.0288 50.176 94.0838 50.5241 92.1665 50.9081L92.0683 50.4179L91.9701 49.9276C93.901 49.5409 95.859 49.1904 97.8418 48.8746L97.9205 49.3684ZM86.2835 51.7076L86.4033 52.1931C84.4569 52.6732 82.5431 53.1944 80.6642 53.7585L80.5205 53.2796L80.3767 52.8007C82.2722 52.2317 84.202 51.7061 86.1638 51.2222L86.2835 51.7076ZM74.8777 55.142L75.0477 55.6122C73.1806 56.2873 71.3536 57.0101 69.5691 57.7825L69.3705 57.3237L69.1718 56.8648C70.976 56.0839 72.8221 55.3536 74.7077 54.6718L74.8777 55.142ZM63.976 59.879L64.2057 60.3231C62.4416 61.2358 60.7266 62.2044 59.0636 63.2312L58.8009 62.8057L58.5382 62.3803C60.2235 61.3398 61.9605 60.3588 63.7462 59.435L63.976 59.879ZM53.8813 66.1267L54.1781 66.5291C52.5888 67.7012 51.057 68.9365 49.5855 70.2373L49.2544 69.8627L48.9232 69.4881C50.4173 68.1672 51.9722 66.9135 53.5845 65.7243L53.8813 66.1267ZM44.9896 73.998L45.3541 74.3404C44.68 75.0579 44.0219 75.7924 43.38 76.5442L42.9997 76.2196L42.6195 75.8949C43.2717 75.131 43.9404 74.3847 44.6252 73.6557L44.9896 73.998ZM42.9997 76.2196L43.38 76.5442C42.7367 77.2977 42.1061 78.064 41.4884 78.8425L41.0967 78.5318L40.705 78.221C41.3301 77.4332 41.9683 76.6576 42.6195 75.8949L42.9997 76.2196ZM37.5358 83.3574L37.9481 83.6403C36.8271 85.2743 35.7575 86.9519 34.7401 88.6687L34.31 88.4138L33.8798 88.1589C34.9083 86.4235 35.9898 84.7272 37.1235 83.0746L37.5358 83.3574ZM31.4185 93.669L31.8639 93.8961C30.9632 95.6628 30.1142 97.4634 29.3178 99.2937L28.8593 99.0942L28.4008 98.8947C29.2053 97.046 30.0629 95.227 30.973 93.4419L31.4185 93.669ZM26.6299 104.663L27.0994 104.835C26.4161 106.699 25.7849 108.588 25.2068 110.498L24.7283 110.353L24.2497 110.208C24.8333 108.28 25.4705 106.373 26.1605 104.491L26.6299 104.663ZM23.1527 116.141L23.6386 116.259C23.1706 118.19 22.7555 120.138 22.3942 122.099L21.9025 122.008L21.4108 121.917C21.7754 119.939 22.1944 117.973 22.6667 116.023L23.1527 116.141ZM20.9781 127.935L21.4741 127.998C21.2218 129.971 21.0235 131.953 20.88 133.939L20.3813 133.903L19.8826 133.867C20.0274 131.862 20.2275 129.863 20.4822 127.871L20.9781 127.935ZM20.1149 139.895L20.6148 139.903C20.5817 141.894 20.604 143.885 20.6827 145.873L20.1831 145.893L19.6835 145.913C19.6041 143.906 19.5815 141.896 19.615 139.887L20.1149 139.895ZM20.5914 151.877L21.089 151.829C21.2817 153.812 21.5317 155.787 21.8398 157.751L21.3459 157.828L20.8519 157.906C20.5407 155.922 20.2882 153.928 20.0937 151.926L20.5914 151.877ZM22.4535 163.723L22.9418 163.616C23.369 165.561 23.8554 167.491 24.4019 169.401L23.9212 169.539L23.4405 169.676C22.8881 167.746 22.3966 165.796 21.9651 163.83L22.4535 163.723ZM25.7555 175.249L26.2264 175.08C26.8962 176.954 27.6274 178.803 28.4205 180.625L27.962 180.825L27.5036 181.024C26.7014 179.182 25.962 177.311 25.2847 175.417L25.7555 175.249ZM30.544 186.237L30.9875 186.006C31.9047 187.768 32.8845 189.497 33.9277 191.191L33.502 191.453L33.0762 191.715C32.0202 190.001 31.0286 188.25 30.1005 186.468L30.544 186.237ZM36.8323 196.44L37.2375 196.147C38.3978 197.752 39.6212 199.318 40.9085 200.841L40.5266 201.164L40.1447 201.487C38.8409 199.944 37.602 198.358 36.4271 196.733L36.8323 196.44ZM44.5712 205.594L44.9272 205.243C46.314 206.649 47.763 208.011 49.2748 209.324L48.9469 209.701L48.6191 210.079C47.0877 208.749 45.62 207.37 44.2152 205.945L44.5712 205.594ZM53.6196 213.455L53.9175 213.053C55.4949 214.224 57.1315 215.346 58.8279 216.416L58.5611 216.839L58.2942 217.262C56.5765 216.178 54.9192 215.042 53.3216 213.856L53.6196 213.455ZM63.7401 219.846L63.9752 219.405C65.7042 220.326 67.4882 221.197 69.3279 222.015L69.1246 222.472L68.9214 222.929C67.0603 222.101 65.255 221.219 63.505 220.287L63.7401 219.846ZM74.6854 224.722L74.8573 224.252C76.7007 224.927 78.5945 225.552 80.5391 226.125L80.3979 226.604L80.2566 227.084C78.2916 226.505 76.3774 225.873 74.5136 225.191L74.6854 224.722ZM86.1951 228.121L86.3072 227.634C88.2055 228.071 90.1481 228.46 92.1355 228.801L92.051 229.294L91.9666 229.786C89.961 229.443 87.9999 229.049 86.083 228.609L86.1951 228.121ZM97.9885 230.148L98.0468 229.652C100.004 229.881 102.002 230.066 104.04 230.203L104.006 230.702L103.972 231.201C101.918 231.062 99.9042 230.877 97.9302 230.645L97.9885 230.148Z" fill="#AFAFAF"/>
<path d="M100.5 385.001C100.776 385.001 101 385.225 101 385.501C101 385.778 100.776 386.001 100.5 386.001L100.5 385.001ZM24.5002 455.5L25.0002 455.5L24.5002 455.5ZM100.5 539.501L95.9006 542.99L95.1781 537.262L100.5 539.501ZM100.5 385.501L100.5 386.001C99.5245 386.001 98.5518 386.013 97.5823 386.037L97.57 385.537L97.5578 385.037C98.5356 385.013 99.5165 385.001 100.5 385.001L100.5 385.501ZM91.7211 385.828L91.7589 386.327C89.809 386.475 87.8763 386.673 85.9644 386.924L85.8994 386.428L85.8344 385.932C87.7649 385.679 89.7158 385.479 91.6833 385.33L91.7211 385.828ZM80.1157 387.358L80.2098 387.85C78.2888 388.218 76.3942 388.642 74.53 389.125L74.4047 388.641L74.2794 388.157C76.1649 387.669 78.0804 387.24 80.0216 386.867L80.1157 387.358ZM68.7907 390.301L68.9492 390.775C67.0955 391.394 65.2788 392.077 63.5035 392.823L63.3097 392.362L63.1159 391.901C64.9152 391.145 66.7555 390.454 68.6321 389.826L68.7907 390.301ZM58.0102 394.847L58.241 395.29C56.5142 396.189 54.8356 397.156 53.21 398.193L52.941 397.772L52.6721 397.35C54.3233 396.296 56.0274 395.315 57.7794 394.403L58.0102 394.847ZM48.1579 401.147L48.4652 401.541C46.9395 402.73 45.4724 403.992 44.0686 405.328L43.7238 404.966L43.3791 404.604C44.8073 403.245 46.2994 401.961 47.8505 400.752L48.1579 401.147ZM39.6942 409.211L40.0739 409.536C38.8252 410.994 37.642 412.525 36.529 414.131L36.118 413.846L35.7071 413.561C36.8397 411.927 38.0437 410.369 39.3145 408.886L39.6942 409.211ZM33.0327 418.814L33.4701 419.056C32.5466 420.723 31.6905 422.46 30.9059 424.267L30.4473 424.068L29.9886 423.869C30.7859 422.032 31.6561 420.267 32.5953 418.572L33.0327 418.814ZM28.3647 429.535L28.8394 429.692C28.244 431.493 27.7132 433.356 27.2503 435.282L26.7641 435.165L26.278 435.048C26.7472 433.096 27.2856 431.206 27.8899 429.379L28.3647 429.535ZM25.6176 440.903L26.1112 440.983C25.8091 442.857 25.5665 444.785 25.3861 446.768L24.8881 446.723L24.3902 446.678C24.5727 444.672 24.8181 442.721 25.1239 440.823L25.6176 440.903ZM24.5423 452.552L25.0421 452.567C25.0142 453.532 25.0002 454.51 25.0002 455.5L24.5002 455.5L24.0002 455.5C24.0002 454.501 24.0144 453.513 24.0425 452.538L24.5423 452.552ZM24.5002 455.5L25.0002 455.5C25.0002 456.483 25.0002 457.507 25.0031 458.569L24.5031 458.571L24.0031 458.572C24.0002 457.509 24.0002 456.483 24.0002 455.5L24.5002 455.5ZM24.5668 464.73L25.0667 464.72C25.1059 466.691 25.1683 468.744 25.2676 470.857L24.7681 470.881L24.2687 470.904C24.1689 468.78 24.1063 466.718 24.0669 464.74L24.5668 464.73ZM25.1593 477.021L25.6577 476.98C25.8217 478.987 26.0267 481.029 26.2827 483.09L25.7865 483.151L25.2903 483.213C25.0324 481.137 24.826 479.081 24.661 477.062L25.1593 477.021ZM26.6937 489.242L27.1862 489.156C27.5369 491.158 27.9438 493.163 28.4159 495.159L27.9293 495.274L27.4428 495.389C26.9658 493.373 26.555 491.348 26.2012 489.329L26.6937 489.242ZM29.5469 501.216L30.0244 501.067C30.6298 503.016 31.3078 504.942 32.0673 506.832L31.6034 507.018L31.1394 507.205C30.3691 505.288 29.6822 503.336 29.0695 501.364L29.5469 501.216ZM34.1571 512.619L34.6015 512.39C35.5339 514.198 36.5564 515.959 37.6779 517.657L37.2606 517.933L36.8434 518.208C35.7009 516.478 34.6604 514.686 33.7126 512.848L34.1571 512.619ZM40.9482 522.858L41.3294 522.534C42.6321 524.069 44.0387 525.532 45.5575 526.912L45.2213 527.282L44.8851 527.652C43.3332 526.242 41.8967 524.748 40.567 523.181L40.9482 522.858ZM50.037 531.106L50.3212 530.694C51.9532 531.822 53.691 532.866 55.5416 533.818L55.3129 534.263L55.0843 534.707C53.1953 533.736 51.4204 532.669 49.7528 531.517L50.037 531.106ZM60.9604 536.74L61.1336 536.271C62.973 536.951 64.9071 537.549 66.9409 538.06L66.8191 538.545L66.6974 539.03C64.6297 538.511 62.6612 537.901 60.7871 537.209L60.9604 536.74ZM72.8459 539.751L72.9213 539.257C74.866 539.553 76.8906 539.777 78.9982 539.924L78.9635 540.423L78.9288 540.922C76.795 540.773 74.7433 540.546 72.7706 540.245L72.8459 539.751ZM85.1145 540.629L85.1141 540.129C87.0871 540.127 89.1255 540.063 91.2313 539.934L91.2619 540.433L91.2925 540.932C89.1674 541.063 87.1089 541.127 85.1149 541.129L85.1145 540.629ZM100.5 385.001C100.776 385.001 101 385.225 101 385.501C101 385.778 100.776 386.001 100.5 386.001L100.5 385.001ZM24.5002 455.5L25.0002 455.5L24.5002 455.5ZM100.5 539.501L95.9006 542.99L95.1781 537.262L100.5 539.501ZM100.5 385.501L100.5 386.001C99.5245 386.001 98.5518 386.013 97.5823 386.037L97.57 385.537L97.5578 385.037C98.5356 385.013 99.5165 385.001 100.5 385.001L100.5 385.501ZM91.7211 385.828L91.7589 386.327C89.809 386.475 87.8763 386.673 85.9644 386.924L85.8994 386.428L85.8344 385.932C87.7649 385.679 89.7158 385.479 91.6833 385.33L91.7211 385.828ZM80.1157 387.358L80.2098 387.85C78.2888 388.218 76.3942 388.642 74.53 389.125L74.4047 388.641L74.2794 388.157C76.1649 387.669 78.0804 387.24 80.0216 386.867L80.1157 387.358ZM68.7907 390.301L68.9492 390.775C67.0955 391.394 65.2788 392.077 63.5035 392.823L63.3097 392.362L63.1159 391.901C64.9152 391.145 66.7555 390.454 68.6321 389.826L68.7907 390.301ZM58.0102 394.847L58.241 395.29C56.5142 396.189 54.8356 397.156 53.21 398.193L52.941 397.772L52.6721 397.35C54.3233 396.296 56.0274 395.315 57.7794 394.403L58.0102 394.847ZM48.1579 401.147L48.4652 401.541C46.9395 402.73 45.4724 403.992 44.0686 405.328L43.7238 404.966L43.3791 404.604C44.8073 403.245 46.2994 401.961 47.8505 400.752L48.1579 401.147ZM39.6942 409.211L40.0739 409.536C38.8252 410.994 37.642 412.525 36.529 414.131L36.118 413.846L35.7071 413.561C36.8397 411.927 38.0437 410.369 39.3145 408.886L39.6942 409.211ZM33.0327 418.814L33.4701 419.056C32.5466 420.723 31.6905 422.46 30.9059 424.267L30.4473 424.068L29.9886 423.869C30.7859 422.032 31.6561 420.267 32.5953 418.572L33.0327 418.814ZM28.3647 429.535L28.8394 429.692C28.244 431.493 27.7132 433.356 27.2503 435.282L26.7641 435.165L26.278 435.048C26.7472 433.096 27.2856 431.206 27.8899 429.379L28.3647 429.535ZM25.6176 440.903L26.1112 440.983C25.8091 442.857 25.5665 444.785 25.3861 446.768L24.8881 446.723L24.3902 446.678C24.5727 444.672 24.8181 442.721 25.1239 440.823L25.6176 440.903ZM24.5423 452.552L25.0421 452.567C25.0142 453.532 25.0002 454.51 25.0002 455.5L24.5002 455.5L24.0002 455.5C24.0002 454.501 24.0144 453.513 24.0425 452.538L24.5423 452.552ZM24.5002 455.5L25.0002 455.5C25.0002 456.483 25.0002 457.507 25.0031 458.569L24.5031 458.571L24.0031 458.572C24.0002 457.509 24.0002 456.483 24.0002 455.5L24.5002 455.5ZM24.5668 464.73L25.0667 464.72C25.1059 466.691 25.1683 468.744 25.2676 470.857L24.7681 470.881L24.2687 470.904C24.1689 468.78 24.1063 466.718 24.0669 464.74L24.5668 464.73ZM25.1593 477.021L25.6577 476.98C25.8217 478.987 26.0267 481.029 26.2827 483.09L25.7865 483.151L25.2903 483.213C25.0324 481.137 24.826 479.081 24.661 477.062L25.1593 477.021ZM26.6937 489.242L27.1862 489.156C27.5369 491.158 27.9438 493.163 28.4159 495.159L27.9293 495.274L27.4428 495.389C26.9658 493.373 26.555 491.348 26.2012 489.329L26.6937 489.242ZM29.5469 501.216L30.0244 501.067C30.6298 503.016 31.3078 504.942 32.0673 506.832L31.6034 507.018L31.1394 507.205C30.3691 505.288 29.6822 503.336 29.0695 501.364L29.5469 501.216ZM34.1571 512.619L34.6015 512.39C35.5339 514.198 36.5564 515.959 37.6779 517.657L37.2606 517.933L36.8434 518.208C35.7009 516.478 34.6604 514.686 33.7126 512.848L34.1571 512.619ZM40.9482 522.858L41.3294 522.534C42.6321 524.069 44.0387 525.532 45.5575 526.912L45.2213 527.282L44.8851 527.652C43.3332 526.242 41.8967 524.748 40.567 523.181L40.9482 522.858ZM50.037 531.106L50.3212 530.694C51.9532 531.822 53.691 532.866 55.5416 533.818L55.3129 534.263L55.0843 534.707C53.1953 533.736 51.4204 532.669 49.7528 531.517L50.037 531.106ZM60.9604 536.74L61.1336 536.271C62.973 536.951 64.9071 537.549 66.9409 538.06L66.8191 538.545L66.6974 539.03C64.6297 538.511 62.6612 537.901 60.7871 537.209L60.9604 536.74ZM72.8459 539.751L72.9213 539.257C74.866 539.553 76.8906 539.777 78.9982 539.924L78.9635 540.423L78.9288 540.922C76.795 540.773 74.7433 540.546 72.7706 540.245L72.8459 539.751ZM85.1145 540.629L85.1141 540.129C87.0871 540.127 89.1255 540.063 91.2313 539.934L91.2619 540.433L91.2925 540.932C89.1674 541.063 87.1089 541.127 85.1149 541.129L85.1145 540.629Z" fill="#AFAFAF"/>
<path d="M103.5 230.001C103.776 230.001 104 230.225 104 230.501C104 230.778 103.776 231.001 103.5 231.001L103.5 230.001ZM27.4999 300.5L27.9999 300.5L27.4999 300.5ZM103.5 384.501L98.9004 387.99L98.1779 382.262L103.5 384.501ZM103.5 230.501L103.5 231.001C102.524 231.001 101.552 231.013 100.582 231.037L100.57 230.537L100.558 230.037C101.535 230.013 102.516 230.001 103.5 230.001L103.5 230.501ZM94.7209 230.828L94.7586 231.327C92.8088 231.475 90.876 231.673 88.9642 231.924L88.8992 231.428L88.8342 230.932C90.7646 230.679 92.7156 230.479 94.6831 230.33L94.7209 230.828ZM83.1155 232.358L83.2096 232.85C81.2886 233.218 79.3939 233.642 77.5297 234.125L77.4045 233.641L77.2792 233.157C79.1647 232.669 81.0801 232.24 83.0213 231.867L83.1155 232.358ZM71.7904 235.301L71.9489 235.775C70.0953 236.394 68.2786 237.077 66.5032 237.823L66.3094 237.362L66.1156 236.901C67.9149 236.145 69.7552 235.454 71.6319 234.826L71.7904 235.301ZM61.0099 239.847L61.2407 240.29C59.514 241.189 57.8354 242.156 56.2097 243.193L55.9408 242.772L55.6718 242.35C57.323 241.296 59.0271 240.315 60.7791 239.403L61.0099 239.847ZM51.1576 246.147L51.465 246.541C49.9393 247.73 48.4721 248.992 47.0683 250.328L46.7236 249.966L46.3789 249.604C47.807 248.245 49.2992 246.961 50.8503 245.752L51.1576 246.147ZM42.694 254.211L43.0737 254.536C41.825 255.994 40.6418 257.525 39.5287 259.131L39.1178 258.846L38.7069 258.561C39.8394 256.927 41.0435 255.369 42.3143 253.886L42.694 254.211ZM36.0325 263.814L36.4699 264.056C35.5464 265.723 34.6903 267.46 33.9057 269.267L33.447 269.068L32.9884 268.869C33.7856 267.032 34.6559 265.267 35.5951 263.572L36.0325 263.814ZM31.3644 274.535L31.8391 274.692C31.2437 276.493 30.7129 278.356 30.25 280.282L29.7639 280.165L29.2777 280.048C29.747 278.096 30.2854 276.206 30.8897 274.379L31.3644 274.535ZM28.6173 285.903L29.111 285.983C28.8089 287.857 28.5663 289.785 28.3858 291.768L27.8879 291.723L27.39 291.678C27.5724 289.672 27.8178 287.721 28.1237 285.823L28.6173 285.903ZM27.542 297.552L28.0418 297.567C28.014 298.532 27.9999 299.51 27.9999 300.5L27.4999 300.5L26.9999 300.5C26.9999 299.501 27.0141 298.513 27.0423 297.538L27.542 297.552ZM27.4999 300.5L27.9999 300.5C27.9999 301.483 27.9999 302.507 28.0029 303.569L27.5029 303.571L27.0029 303.572C26.9999 302.509 26.9999 301.483 26.9999 300.5L27.4999 300.5ZM27.5665 309.73L28.0664 309.72C28.1057 311.691 28.1681 313.744 28.2673 315.857L27.7679 315.881L27.2684 315.904C27.1687 313.78 27.106 311.718 27.0666 309.74L27.5665 309.73ZM28.1591 322.021L28.6574 321.98C28.8215 323.987 29.0264 326.029 29.2825 328.09L28.7863 328.151L28.2901 328.213C28.0321 326.137 27.8258 324.081 27.6607 322.062L28.1591 322.021ZM29.6934 334.242L30.1859 334.156C30.5367 336.158 30.9436 338.163 31.4157 340.159L30.9291 340.274L30.4425 340.389C29.9656 338.373 29.5548 336.348 29.2009 334.329L29.6934 334.242ZM32.5467 346.216L33.0242 346.067C33.6295 348.016 34.3076 349.942 35.0671 351.832L34.6031 352.018L34.1392 352.205C33.3689 350.288 32.6819 348.336 32.0692 346.364L32.5467 346.216ZM37.1568 357.619L37.6012 357.39C38.5336 359.198 39.5562 360.959 40.6776 362.657L40.2604 362.933L39.8431 363.208C38.7006 361.478 37.6601 359.686 36.7124 357.848L37.1568 357.619ZM43.9479 367.858L44.3291 367.534C45.6319 369.069 47.0385 370.532 48.5573 371.912L48.2211 372.282L47.8848 372.652C46.333 371.242 44.8964 369.748 43.5667 368.181L43.9479 367.858ZM53.0368 376.106L53.321 375.694C54.9529 376.822 56.6907 377.866 58.5413 378.818L58.3127 379.263L58.0841 379.707C56.1951 378.736 54.4202 377.669 52.7526 376.517L53.0368 376.106ZM63.9601 381.74L64.1334 381.271C65.9728 381.951 67.9069 382.549 69.9406 383.06L69.8189 383.545L69.6971 384.03C67.6295 383.511 65.661 382.901 63.7869 382.209L63.9601 381.74ZM75.8457 384.751L75.9211 384.257C77.8658 384.553 79.8903 384.777 81.998 384.924L81.9633 385.423L81.9286 385.922C79.7948 385.773 77.7431 385.546 75.7703 385.245L75.8457 384.751ZM88.1143 385.629L88.1139 385.129C90.0869 385.127 92.1252 385.063 94.231 384.934L94.2616 385.433L94.2922 385.932C92.1671 386.063 90.1087 386.127 88.1147 386.129L88.1143 385.629ZM103.5 230.001C103.776 230.001 104 230.225 104 230.501C104 230.778 103.776 231.001 103.5 231.001L103.5 230.001ZM27.4999 300.5L27.9999 300.5L27.4999 300.5ZM103.5 384.501L98.9004 387.99L98.1779 382.262L103.5 384.501ZM103.5 230.501L103.5 231.001C102.524 231.001 101.552 231.013 100.582 231.037L100.57 230.537L100.558 230.037C101.535 230.013 102.516 230.001 103.5 230.001L103.5 230.501ZM94.7209 230.828L94.7586 231.327C92.8088 231.475 90.876 231.673 88.9642 231.924L88.8992 231.428L88.8342 230.932C90.7646 230.679 92.7156 230.479 94.6831 230.33L94.7209 230.828ZM83.1155 232.358L83.2096 232.85C81.2886 233.218 79.3939 233.642 77.5297 234.125L77.4045 233.641L77.2792 233.157C79.1647 232.669 81.0801 232.24 83.0213 231.867L83.1155 232.358ZM71.7904 235.301L71.9489 235.775C70.0953 236.394 68.2786 237.077 66.5032 237.823L66.3094 237.362L66.1156 236.901C67.9149 236.145 69.7552 235.454 71.6319 234.826L71.7904 235.301ZM61.0099 239.847L61.2407 240.29C59.514 241.189 57.8354 242.156 56.2097 243.193L55.9408 242.772L55.6718 242.35C57.323 241.296 59.0271 240.315 60.7791 239.403L61.0099 239.847ZM51.1576 246.147L51.465 246.541C49.9393 247.73 48.4721 248.992 47.0683 250.328L46.7236 249.966L46.3789 249.604C47.807 248.245 49.2992 246.961 50.8503 245.752L51.1576 246.147ZM42.694 254.211L43.0737 254.536C41.825 255.994 40.6418 257.525 39.5287 259.131L39.1178 258.846L38.7069 258.561C39.8394 256.927 41.0435 255.369 42.3143 253.886L42.694 254.211ZM36.0325 263.814L36.4699 264.056C35.5464 265.723 34.6903 267.46 33.9057 269.267L33.447 269.068L32.9884 268.869C33.7856 267.032 34.6559 265.267 35.5951 263.572L36.0325 263.814ZM31.3644 274.535L31.8391 274.692C31.2437 276.493 30.7129 278.356 30.25 280.282L29.7639 280.165L29.2777 280.048C29.747 278.096 30.2854 276.206 30.8897 274.379L31.3644 274.535ZM28.6173 285.903L29.111 285.983C28.8089 287.857 28.5663 289.785 28.3858 291.768L27.8879 291.723L27.39 291.678C27.5724 289.672 27.8178 287.721 28.1237 285.823L28.6173 285.903ZM27.542 297.552L28.0418 297.567C28.014 298.532 27.9999 299.51 27.9999 300.5L27.4999 300.5L26.9999 300.5C26.9999 299.501 27.0141 298.513 27.0423 297.538L27.542 297.552ZM27.4999 300.5L27.9999 300.5C27.9999 301.483 27.9999 302.507 28.0029 303.569L27.5029 303.571L27.0029 303.572C26.9999 302.509 26.9999 301.483 26.9999 300.5L27.4999 300.5ZM27.5665 309.73L28.0664 309.72C28.1057 311.691 28.1681 313.744 28.2673 315.857L27.7679 315.881L27.2684 315.904C27.1687 313.78 27.106 311.718 27.0666 309.74L27.5665 309.73ZM28.1591 322.021L28.6574 321.98C28.8215 323.987 29.0264 326.029 29.2825 328.09L28.7863 328.151L28.2901 328.213C28.0321 326.137 27.8258 324.081 27.6607 322.062L28.1591 322.021ZM29.6934 334.242L30.1859 334.156C30.5367 336.158 30.9436 338.163 31.4157 340.159L30.9291 340.274L30.4425 340.389C29.9656 338.373 29.5548 336.348 29.2009 334.329L29.6934 334.242ZM32.5467 346.216L33.0242 346.067C33.6295 348.016 34.3076 349.942 35.0671 351.832L34.6031 352.018L34.1392 352.205C33.3689 350.288 32.6819 348.336 32.0692 346.364L32.5467 346.216ZM37.1568 357.619L37.6012 357.39C38.5336 359.198 39.5562 360.959 40.6776 362.657L40.2604 362.933L39.8431 363.208C38.7006 361.478 37.6601 359.686 36.7124 357.848L37.1568 357.619ZM43.9479 367.858L44.3291 367.534C45.6319 369.069 47.0385 370.532 48.5573 371.912L48.2211 372.282L47.8848 372.652C46.333 371.242 44.8964 369.748 43.5667 368.181L43.9479 367.858ZM53.0368 376.106L53.321 375.694C54.9529 376.822 56.6907 377.866 58.5413 378.818L58.3127 379.263L58.0841 379.707C56.1951 378.736 54.4202 377.669 52.7526 376.517L53.0368 376.106ZM63.9601 381.74L64.1334 381.271C65.9728 381.951 67.9069 382.549 69.9406 383.06L69.8189 383.545L69.6971 384.03C67.6295 383.511 65.661 382.901 63.7869 382.209L63.9601 381.74ZM75.8457 384.751L75.9211 384.257C77.8658 384.553 79.8903 384.777 81.998 384.924L81.9633 385.423L81.9286 385.922C79.7948 385.773 77.7431 385.546 75.7703 385.245L75.8457 384.751ZM88.1143 385.629L88.1139 385.129C90.0869 385.127 92.1252 385.063 94.231 384.934L94.2616 385.433L94.2922 385.932C92.1671 386.063 90.1087 386.127 88.1147 386.129L88.1143 385.629Z" fill="#AFAFAF"/>
</svg>
