<svg xmlns="http://www.w3.org/2000/svg" width="48" height="49" fill="none"><path fill="#188078" d="M23.996 4.75c-6.015 0-9.916 4.038-14.529 5.51-1.875.598-2.813.898-3.193 1.32-.38.421-.49 1.037-.713 2.27-2.378 13.192 2.82 25.388 15.22 30.135 1.332.51 1.998.765 3.222.765s1.89-.255 3.222-.765c12.398-4.747 17.592-16.943 15.213-30.135-.222-1.233-.334-1.85-.713-2.271-.38-.422-1.318-.72-3.193-1.319-4.615-1.472-8.52-5.51-14.536-5.51" opacity=".4"/><path fill="#188078" d="M25.498 16.75a1.5 1.5 0 0 0-3 0v.667a5.9 5.9 0 0 0-2.228 1.012c-1.008.756-1.772 1.915-1.772 3.321s.764 2.565 1.772 3.321c1.007.756 2.33 1.179 3.728 1.179.812 0 1.488.248 1.929.579.44.33.571.67.571.921 0 .25-.132.591-.571.921-.44.33-1.117.579-1.929.579-1.337 0-2.18-.642-2.415-1.14a1.5 1.5 0 1 0-2.714 1.28c.66 1.4 2.052 2.33 3.63 2.691v.669a1.5 1.5 0 1 0 3 0v-.667a5.9 5.9 0 0 0 2.228-1.012c1.008-.756 1.771-1.915 1.771-3.321s-.763-2.565-1.771-3.321-2.331-1.179-3.729-1.179c-.811 0-1.488-.248-1.928-.579s-.572-.67-.572-.921c0-.25.132-.591.572-.921s1.117-.579 1.928-.579c1.337 0 2.181.642 2.416 1.14a1.5 1.5 0 1 0 2.714-1.28c-.66-1.4-2.052-2.33-3.63-2.691z"/><path fill="#188078" fill-rule="evenodd" d="M23.995 3.25c-3.363 0-6.097 1.136-8.48 2.371-.721.373-1.39.743-2.03 1.095-1.565.864-2.952 1.629-4.475 2.115l-.051.016c-.895.285-1.636.522-2.198.742-.529.207-1.157.491-1.603.987-.401.445-.607.945-.743 1.423-.124.434-.219.96-.32 1.524l-.011.061c-2.476 13.732 2.938 26.74 16.159 31.802l.065.025c1.3.498 2.191.839 3.693.839s2.394-.341 3.693-.84l.066-.024c13.22-5.062 18.629-18.071 16.152-31.802l-.01-.061c-.102-.564-.197-1.09-.321-1.524-.137-.478-.342-.978-.743-1.423-.446-.496-1.075-.78-1.603-.987-.562-.22-1.304-.457-2.198-.742l-.051-.016c-1.524-.486-2.912-1.251-4.478-2.115-.64-.353-1.31-.722-2.03-1.095-2.386-1.235-5.12-2.371-8.483-2.371M9.922 11.689c1.823-.582 3.6-1.562 5.26-2.479.587-.323 1.158-.638 1.712-.925 2.223-1.152 4.448-2.035 7.1-2.035 2.654 0 4.88.883 7.104 2.035.554.287 1.126.602 1.712.926 1.662.916 3.44 1.896 5.264 2.478.959.306 1.606.513 2.066.693.303.119.435.194.477.219.016.032.044.098.08.221.077.272.146.648.263 1.295 2.282 12.652-2.697 24.035-14.273 28.467-1.329.509-1.765.666-2.686.666-.92 0-1.357-.157-2.686-.666C9.74 38.152 4.755 26.768 7.035 14.116c.117-.646.187-1.021.265-1.294a1.4 1.4 0 0 1 .078-.221c.043-.025.174-.1.477-.219.46-.18 1.108-.387 2.067-.693" clip-rule="evenodd"/></svg>