<svg xmlns="http://www.w3.org/2000/svg" width="48" height="48" fill="none"><path fill="#188078" d="M20.747 6.478c1.088-1.355 1.633-2.033 2.282-2.291a2.62 2.62 0 0 1 1.942 0c.65.258 1.194.936 2.282 2.291.606.755.909 1.132 1.287 1.37.367.23.783.368 1.212.399.445.032.914-.095 1.853-.35 1.652-.447 2.478-.67 3.14-.506a2.66 2.66 0 0 1 1.627 1.202c.358.588.401 1.442.489 3.15.049.955.073 1.433.234 1.845.166.423.435.798.782 1.087.337.282.781.453 1.67.796 1.58.609 2.37.913 2.809 1.431.466.549.694 1.264.635 1.985-.057.682-.516 1.392-1.434 2.813-.512.792-.768 1.188-.878 1.612-.117.451-.117.925 0 1.376.11.424.366.82.878 1.612.918 1.42 1.377 2.131 1.434 2.813.06.72-.17 1.436-.635 1.985-.44.518-1.23.822-2.81 1.431-.888.343-1.332.514-1.67.796-.346.29-.615.664-.78 1.087-.162.412-.186.89-.235 1.844-.088 1.709-.131 2.563-.49 3.15a2.66 2.66 0 0 1-1.627 1.203c-.661.164-1.487-.06-3.139-.507-.939-.254-1.408-.38-1.853-.349-.43.031-.845.168-1.212.399-.378.238-.681.615-1.287 1.37-1.088 1.355-1.633 2.033-2.282 2.291a2.62 2.62 0 0 1-1.942 0c-.65-.258-1.194-.936-2.282-2.291-.606-.755-.909-1.132-1.287-1.37a2.6 2.6 0 0 0-1.212-.399c-.445-.032-.914.095-1.853.35-1.652.447-2.478.67-3.14.505a2.66 2.66 0 0 1-1.627-1.201c-.358-.588-.401-1.442-.489-3.15-.049-.955-.073-1.433-.234-1.845a2.7 2.7 0 0 0-.782-1.087c-.337-.282-.781-.453-1.67-.796-1.58-.609-2.37-.913-2.809-1.431a2.72 2.72 0 0 1-.635-1.985c.057-.682.516-1.392 1.434-2.813.512-.792.768-1.188.878-1.612.117-.451.117-.925 0-1.376-.11-.424-.366-.82-.878-1.612-.918-1.42-1.377-2.131-1.434-2.813-.06-.72.17-1.436.635-1.985.44-.518 1.23-.822 2.81-1.431.888-.343 1.332-.514 1.67-.796.346-.29.615-.664.78-1.087.162-.412.186-.89.235-1.844.088-1.709.131-2.563.49-3.15a2.66 2.66 0 0 1 1.627-1.203c.661-.164 1.487.06 3.139.507.939.254 1.408.38 1.853.349.43-.031.845-.168 1.212-.399.378-.238.681-.615 1.287-1.37" opacity=".4"/><path fill="#188078" d="M32.48 21.422a1.5 1.5 0 1 0-.96-2.843c-1.486.502-2.926 1.466-4.207 2.536-1.295 1.082-2.51 2.34-3.544 3.522-.868.99-1.621 1.94-2.205 2.71-.571-.705-1.138-1.194-1.666-1.53-.586-.371-1.213-.65-1.898-.65a1.5 1.5 0 0 0-.105 2.996c.14.036.273.11.395.187.392.25 1.103.864 1.882 2.348a1.5 1.5 0 0 0 2.576.135l.002-.003.01-.015.043-.063q.058-.087.175-.253a47.233 47.233 0 0 1 3.048-3.885c.972-1.11 2.074-2.247 3.21-3.197 1.151-.96 2.26-1.663 3.243-1.995"/><path fill="#188078" fill-rule="evenodd" d="M25.527 2.793a4.12 4.12 0 0 0-3.053 0c-.618.246-1.093.658-1.508 1.094-.397.417-.839.967-1.35 1.605l-.038.047c-.676.841-.803.968-.917 1.04-.16.1-.338.158-.522.172-.128.009-.303-.017-1.352-.301l-.058-.016c-.776-.21-1.447-.392-2.004-.494-.58-.107-1.198-.162-1.832-.004a4.16 4.16 0 0 0-2.546 1.877c-.337.553-.474 1.152-.552 1.737-.074.562-.11 1.254-.15 2.058l-.004.059c-.054 1.061-.082 1.244-.133 1.374-.075.19-.194.356-.346.483-.101.084-.258.165-1.248.547l-.055.021c-.743.287-1.384.534-1.89.777-.527.255-1.05.57-1.468 1.062a4.22 4.22 0 0 0-.987 3.08c.053.639.29 1.2.568 1.715.265.495.637 1.07 1.07 1.74l.031.048c.569.88.651 1.041.686 1.176.053.203.053.417 0 .62-.035.135-.117.296-.686 1.176l-.032.049c-.432.668-.804 1.244-1.07 1.739-.277.516-.514 1.076-.567 1.715a4.22 4.22 0 0 0 .987 3.08c.417.491.941.807 1.469 1.061.505.244 1.146.491 1.89.778l.054.02c.99.383 1.147.464 1.248.548.152.127.271.292.346.483.05.13.079.313.133 1.374l.003.059c.041.804.077 1.496.151 2.058.078.585.215 1.184.552 1.737a4.16 4.16 0 0 0 2.546 1.877c.634.158 1.252.103 1.832-.004.557-.102 1.228-.284 2.004-.494l.058-.016c1.049-.284 1.224-.31 1.352-.3.184.013.363.071.522.171.114.072.241.199.916 1.04l.039.047c.511.638.953 1.188 1.35 1.605.415.436.89.848 1.508 1.094.98.39 2.072.39 3.052 0 .618-.246 1.093-.658 1.508-1.094.397-.417.839-.967 1.35-1.604l.038-.048c.676-.841.803-.968.917-1.04.16-.1.338-.158.522-.172.128-.009.303.017 1.352.301l.058.016c.776.21 1.447.392 2.004.494.58.107 1.198.162 1.832.004a4.16 4.16 0 0 0 2.546-1.877c.337-.553.474-1.152.552-1.737.074-.562.11-1.254.15-2.058l.004-.059c.054-1.061.082-1.244.133-1.374.075-.19.194-.356.346-.483.101-.084.258-.165 1.248-.547l.055-.021c.743-.287 1.384-.534 1.89-.778.526-.254 1.05-.57 1.468-1.061a4.22 4.22 0 0 0 .987-3.08c-.053-.639-.29-1.2-.567-1.715-.266-.495-.638-1.07-1.07-1.74l-.032-.048c-.569-.88-.651-1.041-.686-1.176a1.24 1.24 0 0 1 0-.62c.035-.135.117-.296.686-1.176l.032-.049c.432-.668.804-1.244 1.07-1.739.277-.516.514-1.076.567-1.715a4.22 4.22 0 0 0-.987-3.08c-.417-.491-.942-.807-1.469-1.061-.505-.244-1.146-.491-1.89-.778l-.054-.02c-.99-.383-1.147-.464-1.248-.548a1.2 1.2 0 0 1-.346-.482c-.05-.131-.079-.314-.133-1.375l-.003-.059c-.041-.804-.077-1.496-.151-2.058-.078-.585-.215-1.184-.552-1.737a4.16 4.16 0 0 0-2.546-1.877c-.634-.158-1.252-.103-1.832.004-.557.102-1.227.284-2.004.494l-.058.016c-1.049.284-1.224.31-1.352.3a1.13 1.13 0 0 1-.522-.171c-.114-.072-.241-.199-.916-1.04l-.039-.047c-.511-.638-.953-1.188-1.35-1.605-.415-.436-.89-.848-1.508-1.094M23.583 5.58c.268-.107.564-.107.832 0 .032.013.153.068.445.375.3.315.662.764 1.222 1.462l.11.138c.494.616.95 1.186 1.548 1.563a4.1 4.1 0 0 0 1.903.625c.707.05 1.417-.143 2.18-.35l.173-.048c.85-.23 1.4-.377 1.82-.455.412-.075.538-.05.565-.043.29.072.546.258.709.526.021.035.085.157.14.573.057.426.087.995.132 1.874l.008.173c.04.78.075 1.495.327 2.14.257.658.675 1.24 1.217 1.694.534.445 1.205.703 1.93.98l.162.063c.813.314 1.338.517 1.72.702.373.18.463.275.485.301.207.243.31.564.284.89-.004.043-.024.179-.22.543-.202.375-.506.848-.979 1.58l-.092.143c-.42.647-.805 1.24-.978 1.906a4.23 4.23 0 0 0 0 2.13c.173.665.558 1.259.978 1.906l.092.143c.473.732.778 1.205.979 1.58.196.364.216.5.22.542.027.327-.077.648-.284.891-.022.026-.112.122-.485.301-.382.185-.907.388-1.72.702l-.163.062c-.724.278-1.395.536-1.929.981a4.2 4.2 0 0 0-1.217 1.693c-.252.646-.288 1.36-.327 2.141l-.008.173c-.045.88-.075 1.448-.132 1.874-.055.416-.119.538-.14.573a1.16 1.16 0 0 1-.71.526c-.026.007-.152.032-.563-.043-.42-.078-.97-.225-1.82-.456l-.174-.047c-.763-.207-1.473-.4-2.18-.35a4.1 4.1 0 0 0-1.903.625c-.598.377-1.054.947-1.547 1.563l-.11.138c-.561.698-.924 1.147-1.223 1.462-.292.307-.413.362-.445.375a1.12 1.12 0 0 1-.832 0c-.032-.013-.153-.068-.445-.375-.3-.315-.662-.764-1.222-1.462l-.11-.138c-.494-.616-.95-1.186-1.548-1.563a4.1 4.1 0 0 0-1.903-.625c-.707-.05-1.417.143-2.18.35l-.173.047c-.85.23-1.4.378-1.82.456-.412.075-.538.05-.565.043a1.16 1.16 0 0 1-.709-.526c-.021-.035-.085-.157-.14-.573-.057-.426-.087-.995-.132-1.874l-.008-.173c-.04-.78-.075-1.495-.327-2.14a4.2 4.2 0 0 0-1.217-1.694c-.534-.445-1.205-.703-1.93-.98l-.162-.063c-.813-.314-1.338-.517-1.72-.702-.373-.18-.463-.275-.485-.301a1.22 1.22 0 0 1-.284-.89c.004-.043.024-.179.22-.543.201-.375.506-.848.979-1.58l.092-.143c.42-.647.805-1.24.978-1.906a4.23 4.23 0 0 0 0-2.13c-.173-.665-.558-1.259-.978-1.906l-.092-.143c-.473-.732-.778-1.205-.979-1.58-.196-.364-.216-.5-.22-.542a1.22 1.22 0 0 1 .284-.891c.022-.026.112-.122.485-.301.382-.185.907-.388 1.72-.702l.163-.062c.724-.278 1.395-.536 1.929-.981a4.2 4.2 0 0 0 1.217-1.693c.252-.646.288-1.36.327-2.141l.008-.173c.045-.88.075-1.448.132-1.874.055-.416.119-.538.14-.573a1.16 1.16 0 0 1 .71-.526c.026-.007.152-.032.563.043.42.078.97.225 1.82.455l.174.048c.763.207 1.473.4 2.18.35a4.1 4.1 0 0 0 1.903-.625c.598-.377 1.054-.947 1.547-1.563l.11-.138c.561-.698.924-1.147 1.223-1.462.292-.307.413-.362.445-.375" clip-rule="evenodd"/></svg>