<svg xmlns="http://www.w3.org/2000/svg" width="500" height="500" fill="none"><path fill="#EBEBEB" d="M500 382.398H0v.25h500zM449.901 398.494h-33.122v.25h33.122zM331.22 401.208h-8.693v.25h8.693zM415.778 389.208h-19.192v.25h19.192zM95.652 390.888H52.459v.25h43.193zM110.89 390.888h-6.333v.25h6.333zM225.147 395.111h-93.676v.25h93.676z"/><path fill="#E6E6E6" d="M65.373 382.399h54.578V276.507H65.373z"/><path fill="#FAFAFA" d="M79.947 382.399H65.373v-14.618h29.854z"/><path fill="#E6E6E6" d="M214.182 382.399h54.578V276.507h-54.578z"/><path fill="#FAFAFA" d="M65.373 377.368h161.529V276.507H65.373z"/><path fill="#FAFAFA" d="M212.328 382.399h14.574v-14.618h-29.855z"/><path fill="#F0F0F0" d="M76.679 339.332h138.917v-25.241H76.679zM76.679 369.967h138.917v-25.241H76.679z"/><path fill="#FAFAFA" d="M103.084 316.79h86.108a4.577 4.577 0 0 0 4.576-4.577v-.308h-95.26v.308a4.577 4.577 0 0 0 4.576 4.577"/><path fill="#F0F0F0" d="M76.679 308.696h138.917v-25.241H76.679z"/><path fill="#FAFAFA" d="M103.084 286.155h86.108a4.577 4.577 0 0 0 4.576-4.577v-.308h-95.26v.308a4.577 4.577 0 0 0 4.576 4.577M103.084 347.426h86.108a4.576 4.576 0 0 0 4.576-4.576v-.308h-95.26v.308a4.576 4.576 0 0 0 4.576 4.576"/><path fill="#E6E6E6" d="M74.069 174.059H211.85V83.832H74.069z"/><path fill="#F0F0F0" d="M69.865 174.059h140.02V83.832H69.865z"/><path fill="#E6E6E6" d="M74.069 191.766H211.85v-17.708H74.069z"/><path fill="#F0F0F0" d="M62.86 191.766h140.021v-17.708H62.861z"/><path fill="#FAFAFA" d="M204 168.174V89.718H75.751v78.456z"/><path fill="#fff" d="M175.081 168.174 158.7 89.718h-25.561l16.381 78.456z"/><path fill="#F0F0F0" d="M201.275 162.315a.42.42 0 0 0 .42-.42V93.547a.42.42 0 1 0-.841 0v68.348c.001.232.189.42.421.42"/><path fill="#fff" d="m144.028 168.174-16.381-78.456h-9.965l16.381 78.456z"/><path fill="#E6E6E6" d="M76.498 168.174V89.718h-.747v78.456z"/><path fill="#EBEBEB" d="M68.473 98.591h137.781l.542-6.586H69.015z" opacity=".6"/><path fill="#EBEBEB" d="M68.473 102.307h137.781l.542-6.587H69.015z" opacity=".6"/><path fill="#EBEBEB" d="M68.473 106.022h137.781l.542-6.586H69.015z" opacity=".6"/><path fill="#EBEBEB" d="M68.473 109.738h137.781l.542-6.587H69.015z" opacity=".6"/><path fill="#EBEBEB" d="M68.473 113.453h137.781l.542-6.586H69.015z" opacity=".6"/><path fill="#EBEBEB" d="M68.473 117.168h137.781l.542-6.586H69.015z" opacity=".6"/><path fill="#F5F5F5" d="M96.014 273.271h4.763v-53.092h-4.763z"/><path fill="#FAFAFA" d="M96.628 273.234h1.345v-53.092h-1.345zM98.536 273.234h.526v-53.092h-.526z"/><path fill="#F0F0F0" d="M80.764 276.507h35.264a4.443 4.443 0 0 0-4.443-4.443H85.207a4.443 4.443 0 0 0-4.443 4.443M89.835 253.138c.754 0 1.37-.617 1.37-1.37v-34.81c0-.753-.617-1.37-1.37-1.37s-1.37.617-1.37 1.37v34.81c0 .754.616 1.37 1.37 1.37"/><path fill="#E0E0E0" d="M77.074 232.799h42.642L114.811 203H81.979z"/><path fill="#F5F5F5" d="M250 427.561c107.082 0 193.889-5.069 193.889-11.323 0-6.253-86.807-11.323-193.889-11.323s-193.889 5.07-193.889 11.323S142.918 427.561 250 427.561"/><path fill="#188078" d="m128.997 202.36-.997.072 1.328 18.441.997-.072zM131.029 230.316l-.998.072.5 6.937.998-.072zM362.6 315.161H148.442c-4.844 0-9.092-3.963-9.441-8.807l-10.523-146.13c-.349-4.844 3.329-8.807 8.173-8.807h214.158c4.844 0 9.092 3.963 9.441 8.807l10.523 146.13c.348 4.844-3.329 8.807-8.173 8.807"/><path fill="#188078" d="M363.422 315.161H149.264c-4.844 0-9.092-3.963-9.441-8.807L129.3 160.224c-.349-4.844 3.329-8.807 8.173-8.807h214.158c4.844 0 9.092 3.963 9.441 8.807l10.523 146.13c.348 4.844-3.329 8.807-8.173 8.807"/><path fill="#fff" d="M363.422 315.161H149.264c-4.844 0-9.092-3.963-9.441-8.807L129.3 160.224c-.349-4.844 3.329-8.807 8.173-8.807h214.158c4.844 0 9.092 3.963 9.441 8.807l10.523 146.13c.348 4.844-3.329 8.807-8.173 8.807" opacity=".5"/><path fill="#188078" d="M351.948 155.821H137.79q-.363 0-.717.029c-5.474.451-4.356 8.778 1.169 8.778h214.523c5.525 0 5.444-8.327-.095-8.778a9 9 0 0 0-.722-.029"/><path fill="#FAFAFA" d="M143.367 160.225c.08 1.115-.758 2.019-1.874 2.019-1.115 0-2.083-.904-2.163-2.019s.758-2.019 1.874-2.019 2.083.903 2.163 2.019M150.237 160.225c.08 1.115-.758 2.019-1.874 2.019-1.115 0-2.084-.904-2.164-2.019s.758-2.019 1.874-2.019c1.115 0 2.084.903 2.164 2.019M157.105 160.225a1.854 1.854 0 0 1-1.874 2.019c-1.115 0-2.084-.904-2.165-2.019a1.854 1.854 0 0 1 1.874-2.019c1.115 0 2.084.903 2.165 2.019"/><path fill="#fff" d="M357.744 300.577H152.841c-1.763 0-3.296-1.43-3.423-3.193l-8.654-120.173c-.127-1.763 1.2-3.193 2.963-3.193H348.63c1.763 0 3.296 1.429 3.423 3.193l8.654 120.173c.127 1.763-1.2 3.193-2.963 3.193"/><path fill="#188078" d="M238.055 221.717a.485.485 0 0 1-.356-.814l2.124-2.288a.485.485 0 0 1 .711.659l-2.123 2.288a.49.49 0 0 1-.356.155M262.473 221.717a.49.49 0 0 1-.331-.13l-2.453-2.288a.485.485 0 0 1 .661-.709l2.453 2.288a.485.485 0 0 1-.33.839"/><path fill="#AFAFAF" d="m196.124 280.72-1.072-2.24h-.048V286h-2.288v-11.168h2.656l3.056 5.28 1.072 2.24h.048v-7.52h2.288V286h-2.656zm11.451 5.472q-.929 0-1.664-.304a3.4 3.4 0 0 1-1.232-.88 4.1 4.1 0 0 1-.768-1.392 5.7 5.7 0 0 1-.272-1.824q0-1.008.272-1.824a3.9 3.9 0 0 1 .768-1.376 3.4 3.4 0 0 1 1.232-.88q.735-.304 1.664-.304t1.648.304q.735.304 1.232.88.511.56.784 1.376.271.816.271 1.824t-.271 1.824a4 4 0 0 1-.784 1.392 3.2 3.2 0 0 1-1.232.88q-.72.304-1.648.304m0-1.872q.704 0 1.088-.432t.384-1.232v-1.712q0-.8-.384-1.232t-1.088-.432-1.088.432-.384 1.232v1.712q0 .8.384 1.232.383.432 1.088.432m13.148 1.872q-1.471 0-2.496-.496a5.8 5.8 0 0 1-1.744-1.312l1.6-1.616q1.136 1.28 2.8 1.28.896 0 1.328-.368t.432-.976q0-.464-.256-.768-.256-.32-1.04-.432l-1.104-.144q-1.776-.224-2.608-1.072-.816-.847-.816-2.256 0-.752.288-1.376a3.1 3.1 0 0 1 .816-1.072q.544-.448 1.312-.688.784-.256 1.776-.256 1.264 0 2.224.4t1.648 1.168l-1.616 1.632a3.1 3.1 0 0 0-.976-.752q-.56-.304-1.424-.304-.816 0-1.216.288a.93.93 0 0 0-.4.8q0 .576.304.832.32.256 1.024.368l1.104.176q1.728.272 2.56 1.072.832.784.832 2.24 0 .8-.288 1.472a3.1 3.1 0 0 1-.848 1.152q-.544.48-1.36.752-.816.256-1.856.256m9.744 0q-.96 0-1.712-.304a3.8 3.8 0 0 1-1.28-.88 4 4 0 0 1-.784-1.392 6.1 6.1 0 0 1-.256-1.824q0-.992.256-1.792a3.9 3.9 0 0 1 .752-1.392 3.4 3.4 0 0 1 1.248-.88q.737-.32 1.68-.32 1.041 0 1.776.352.753.352 1.216.944.48.592.688 1.376a5.7 5.7 0 0 1 .224 1.616v.704h-5.392v.128q0 .832.448 1.328.448.48 1.408.48.737 0 1.2-.288.465-.304.864-.72l1.184 1.472q-.56.656-1.472 1.024-.896.368-2.048.368m-.048-7.04q-.72 0-1.136.48-.4.464-.4 1.248v.128h2.944v-.144q0-.768-.352-1.232-.336-.48-1.056-.48M242.156 286q-.64 0-1.072-.4-.417-.4-.528-1.072h-.096q-.192.816-.848 1.248-.656.416-1.616.416-1.264 0-1.936-.672t-.672-1.776q0-1.327.96-1.968.975-.656 2.64-.656h1.328v-.528q0-.608-.32-.96-.32-.368-1.072-.368-.705 0-1.12.304a3 3 0 0 0-.688.688l-1.408-1.248a3.6 3.6 0 0 1 1.28-1.168q.783-.432 2.112-.432 1.791 0 2.688.784.896.784.896 2.288v3.68h.784V286zm-3.28-1.456q.591 0 1.008-.256.432-.256.432-.832v-.992h-1.152q-1.392 0-1.392.944v.24q0 .464.288.688.288.208.816.208m6.181 1.456v-8.4h2.368v1.824h.08q.064-.352.224-.672.16-.336.416-.592.272-.256.64-.4.368-.16.864-.16h.416v2.208h-.592q-1.04 0-1.552.272-.496.272-.496 1.008V286zm9.783.192q-.945 0-1.68-.304a3.46 3.46 0 0 1-1.232-.88 3.9 3.9 0 0 1-.752-1.392 6 6 0 0 1-.256-1.824q0-1.008.256-1.808a3.9 3.9 0 0 1 .752-1.392q.495-.576 1.232-.88.735-.304 1.68-.304 1.28 0 2.128.576.863.576 1.232 1.616l-1.92.832a1.6 1.6 0 0 0-.464-.816q-.352-.336-.976-.336-.72 0-1.088.48-.368.464-.368 1.264v1.568q0 .8.368 1.264t1.088.464q.639 0 1.008-.336.383-.353.56-.912l1.84.8q-.417 1.2-1.296 1.76-.864.56-2.112.56m4.873-12.032h2.368v4.864h.096q.225-.656.784-1.136.56-.48 1.552-.48 1.296 0 1.952.864.672.864.672 2.464V286h-2.368v-5.072q0-.816-.256-1.2-.255-.4-.912-.4a2 2 0 0 0-.56.08 1.4 1.4 0 0 0-.496.224q-.207.16-.336.4a1.05 1.05 0 0 0-.128.528V286h-2.368zM275.586 286h-2.432v-11.168h5.296q.768 0 1.392.256t1.056.736q.448.464.688 1.12t.24 1.456q0 1.136-.512 1.984-.496.848-1.52 1.232l2.192 4.384h-2.704l-1.952-4.096h-1.744zm2.56-6.144q.544 0 .848-.272.32-.288.32-.832v-.704q0-.544-.32-.816-.304-.288-.848-.288h-2.56v2.912zm8.931 6.336q-.96 0-1.712-.304a3.75 3.75 0 0 1-1.28-.88 3.9 3.9 0 0 1-.784-1.392 6 6 0 0 1-.256-1.824q0-.992.256-1.792a3.9 3.9 0 0 1 .752-1.392 3.36 3.36 0 0 1 1.248-.88q.735-.32 1.68-.32 1.04 0 1.776.352.751.352 1.216.944.48.592.688 1.376.224.768.224 1.616v.704h-5.392v.128q0 .832.448 1.328.447.48 1.408.48.735 0 1.2-.288a5 5 0 0 0 .864-.72l1.184 1.472q-.56.656-1.472 1.024-.897.368-2.048.368m-.048-7.04q-.72 0-1.136.48-.4.464-.4 1.248v.128h2.944v-.144q0-.768-.352-1.232-.336-.48-1.056-.48m8.376 7.04q-1.216 0-2.048-.384a4.8 4.8 0 0 1-1.488-1.12l1.392-1.408q.448.496.992.784t1.232.288q.704 0 .976-.208a.73.73 0 0 0 .272-.592q0-.592-.848-.704l-.912-.112q-2.832-.352-2.832-2.592 0-.608.224-1.104.24-.512.656-.864a3 3 0 0 1 1.024-.56 4.2 4.2 0 0 1 1.36-.208q.656 0 1.152.096.512.08.896.256.4.16.72.416.336.24.656.544l-1.36 1.392a3 3 0 0 0-.912-.624 2.3 2.3 0 0 0-1.024-.24q-.607 0-.864.192a.61.61 0 0 0-.256.512q0 .336.176.528.192.176.704.256l.944.128q2.768.368 2.768 2.528 0 .608-.256 1.12t-.736.896a3.5 3.5 0 0 1-1.136.576 4.9 4.9 0 0 1-1.472.208m10.175-1.6h-.08a2.7 2.7 0 0 1-.304.608 1.9 1.9 0 0 1-.464.512 2.2 2.2 0 0 1-.688.352 2.9 2.9 0 0 1-.896.128q-1.296 0-1.968-.848-.656-.864-.656-2.464v-5.28h2.368v5.072q0 .768.272 1.184.271.416.928.416.271 0 .544-.08.272-.08.48-.224.207-.16.336-.384.128-.224.128-.528V277.6h2.368v8.4h-2.368zm6.923 1.408q-1.216 0-1.792-.592-.56-.592-.56-1.712v-9.536h2.368v10h1.056V286zm5.358 0q-1.233 0-1.872-.624-.624-.624-.624-1.824v-4.112h-1.184v-1.84h.592q.48 0 .656-.224.176-.24.176-.672v-1.376h2.128v2.272h1.664v1.84h-1.664v4.72h1.536V286zm6.029.192q-1.217 0-2.048-.384a4.8 4.8 0 0 1-1.488-1.12l1.392-1.408q.447.496.992.784a2.6 2.6 0 0 0 1.232.288q.703 0 .976-.208a.73.73 0 0 0 .272-.592q0-.592-.848-.704l-.912-.112q-2.832-.352-2.832-2.592 0-.608.224-1.104.24-.512.656-.864a3 3 0 0 1 1.024-.56 4.2 4.2 0 0 1 1.36-.208q.656 0 1.152.096.512.08.896.256.399.16.72.416.336.24.656.544l-1.36 1.392a3 3 0 0 0-.912-.624 2.3 2.3 0 0 0-1.024-.24q-.609 0-.864.192a.61.61 0 0 0-.256.512q0 .336.176.528.191.176.704.256l.944.128q2.768.368 2.768 2.528 0 .608-.256 1.12t-.736.896q-.464.368-1.136.576a4.9 4.9 0 0 1-1.472.208"/><path fill="#188078" fill-rule="evenodd" d="M272.998 234.787a.624.624 0 0 0-.888-.591.63.63 0 0 0-.299.293c-2.078 4.266-6.228 7.807-9.395 9.391a.624.624 0 0 0-.093 1.061.63.63 0 0 0 .398.123c1.457-.058 3.375.041 5.622.565a.63.63 0 0 0 .75-.465c.645-2.727 2.511-3.669 3.998-4.004a.61.61 0 0 0 .392-.278.63.63 0 0 0 .078-.473 21.2 21.2 0 0 1-.563-5.622" clip-rule="evenodd"/><path fill="#738BAB" fill-rule="evenodd" d="M243.039 210.994c-1.143.538-3.318 2.446-4.511 4.512-1.16 2.009-1.772 4.321-1.774 5.896a.63.63 0 0 0 .624.627.627.627 0 0 0 .626-.624c.002-1.411.567-3.475 1.606-5.274 1.054-1.825 2.953-3.531 3.961-4.006a.625.625 0 1 0-.532-1.131" clip-rule="evenodd"/><path fill="#738BAB" fill-rule="evenodd" d="M238.656 210.721c7.318-7.317 19.199-7.317 26.516 0 7.318 7.318 7.318 19.199 0 26.517s-19.198 7.317-26.516 0c-5.999-5.999-7.08-15.064-3.244-22.169a.62.62 0 0 0-.253-.847.626.626 0 0 0-.847.253c-4.092 7.578-2.938 17.248 3.46 23.646 7.805 7.805 20.479 7.805 28.284 0s7.805-20.478 0-28.283-20.479-7.805-28.284 0a.63.63 0 0 0 .008.876.63.63 0 0 0 .876.007" clip-rule="evenodd"/><path fill="#738BAB" fill-rule="evenodd" d="M273.695 229.625a22.4 22.4 0 0 1-5.872 10.264c-8.78 8.781-23.038 8.781-31.818 0-8.782-8.78-8.782-23.039 0-31.819 8.78-8.781 23.038-8.781 31.818 0a22.44 22.44 0 0 1 6.579 16.5.625.625 0 1 0 1.249.032 23.69 23.69 0 0 0-6.944-17.417c-9.269-9.269-24.319-9.269-33.587 0s-9.269 24.32 0 33.589 24.318 9.268 33.587 0c3-2.991 5.141-6.734 6.198-10.837a.64.64 0 0 0-.06-.48.62.62 0 0 0-.633-.307.62.62 0 0 0-.517.475m21.87 30.934a3.8 3.8 0 0 1-.254.655c-.484.905-1.474 2.16-2.739 3.423-1.264 1.265-2.519 2.255-3.424 2.739a3.6 3.6 0 0 1-.655.254l-14.856-14.856a.63.63 0 0 0-.876.007.624.624 0 0 0-.008.876l14.958 14.958c.262.264.797.391 1.525.101.992-.397 2.607-1.581 4.22-3.194 1.614-1.613 2.797-3.228 3.194-4.221.291-.727.162-1.262-.1-1.525l-18.119-18.119a6.25 6.25 0 0 0-8.839 8.839.63.63 0 0 0 .876-.007.624.624 0 0 0 .008-.877 5.003 5.003 0 0 1 0-7.071 5 5 0 0 1 3.535-1.464 5 5 0 0 1 3.536 1.464z" clip-rule="evenodd"/><path fill="#188078" fill-rule="evenodd" d="m274.109 202.621 3.75-6.25a1.249 1.249 0 0 0-.888-1.879 1.25 1.25 0 0 0-1.256.593l-3.75 6.25c-.17.284-.221.625-.141.946a1.255 1.255 0 0 0 1.516.91c.322-.081.598-.286.769-.57m5.914 4.119 13.75-10a1.253 1.253 0 0 0-.54-2.246 1.25 1.25 0 0 0-.93.223l-13.75 10a1.253 1.253 0 0 0-.277 1.747 1.25 1.25 0 0 0 1.747.276m2.067 7.701 10-2.5a1.245 1.245 0 0 0 .953-1.028 1.24 1.24 0 0 0-.601-1.267 1.25 1.25 0 0 0-.958-.13l-10 2.5a1.249 1.249 0 0 0 .606 2.425" clip-rule="evenodd"/><path fill="#188078" d="M247.697 221.117c.084 1.169-.795 2.117-1.965 2.117s-2.185-.948-2.269-2.117.795-2.117 1.964-2.117 2.186.948 2.27 2.117M261.432 221.117c.084 1.169-.795 2.117-1.965 2.117s-2.185-.948-2.27-2.117.795-2.117 1.965-2.117c1.17.001 2.186.948 2.27 2.117M265.307 234.847a.485.485 0 0 1-.483-.45c-.245-3.404-5.583-6.173-11.9-6.173-4.185 0-7.942 1.244-9.806 3.247-.829.891-1.212 1.851-1.14 2.856a.485.485 0 0 1-.967.069c-.091-1.266.392-2.506 1.397-3.586 2.041-2.194 6.07-3.556 10.516-3.556 6.929 0 12.581 3.107 12.867 7.072a.485.485 0 0 1-.449.518q-.018.004-.035.003"/></svg>