<svg width="500" height="500" viewBox="0 0 500 500" fill="none" xmlns="http://www.w3.org/2000/svg">
<path d="M500 382.398H0V382.648H500V382.398Z" fill="#EBEBEB"/>
<path d="M449.901 398.494H416.779V398.744H449.901V398.494Z" fill="#EBEBEB"/>
<path d="M331.22 401.208H322.527V401.458H331.22V401.208Z" fill="#EBEBEB"/>
<path d="M415.778 389.208H396.586V389.458H415.778V389.208Z" fill="#EBEBEB"/>
<path d="M95.652 390.888H52.459V391.138H95.652V390.888Z" fill="#EBEBEB"/>
<path d="M110.89 390.888H104.557V391.138H110.89V390.888Z" fill="#EBEBEB"/>
<path d="M225.147 395.111H131.471V395.361H225.147V395.111Z" fill="#EBEBEB"/>
<path d="M65.3732 382.399H119.951L119.951 276.507H65.3732L65.3732 382.399Z" fill="#E6E6E6"/>
<path d="M79.947 382.399H65.373V367.781H95.227L79.947 382.399Z" fill="#FAFAFA"/>
<path d="M214.182 382.399H268.76V276.507H214.182V382.399Z" fill="#E6E6E6"/>
<path d="M65.3734 377.368H226.902V276.507H65.3734V377.368Z" fill="#FAFAFA"/>
<path d="M212.328 382.399H226.902V367.781H197.047L212.328 382.399Z" fill="#FAFAFA"/>
<path d="M76.6787 339.332H215.596V314.091H76.6787V339.332Z" fill="#F0F0F0"/>
<path d="M76.6787 369.967H215.596V344.726H76.6787V369.967Z" fill="#F0F0F0"/>
<path d="M103.084 316.79H189.192C191.719 316.79 193.768 314.741 193.768 312.213V311.905H98.5078V312.213C98.5078 314.741 100.557 316.79 103.084 316.79Z" fill="#FAFAFA"/>
<path d="M76.6787 308.696H215.596V283.455H76.6787V308.696Z" fill="#F0F0F0"/>
<path d="M103.084 286.155H189.192C191.719 286.155 193.768 284.106 193.768 281.578V281.27H98.5078V281.578C98.5078 284.106 100.557 286.155 103.084 286.155Z" fill="#FAFAFA"/>
<path d="M103.084 347.426H189.192C191.719 347.426 193.768 345.377 193.768 342.85V342.542H98.5078V342.85C98.5078 345.377 100.557 347.426 103.084 347.426Z" fill="#FAFAFA"/>
<path d="M74.0686 174.059L211.85 174.059V83.8316L74.0686 83.8316V174.059Z" fill="#E6E6E6"/>
<path d="M69.8648 174.059L209.885 174.059V83.8316L69.8648 83.8316V174.059Z" fill="#F0F0F0"/>
<path d="M74.0686 191.766L211.85 191.766V174.058L74.0686 174.058V191.766Z" fill="#E6E6E6"/>
<path d="M62.8609 191.766L202.881 191.766V174.058L62.8609 174.058V191.766Z" fill="#F0F0F0"/>
<path d="M204 168.174L204 89.7178L75.751 89.7178L75.751 168.174L204 168.174Z" fill="#FAFAFA"/>
<path d="M175.081 168.174L158.7 89.7183H133.139L149.52 168.174H175.081Z" fill="white"/>
<path d="M201.275 162.315C201.507 162.315 201.695 162.127 201.695 161.895V93.5474C201.695 93.3154 201.507 93.1274 201.275 93.1274C201.043 93.1274 200.854 93.3154 200.854 93.5474V161.895C200.855 162.127 201.043 162.315 201.275 162.315Z" fill="#F0F0F0"/>
<path d="M144.028 168.174L127.647 89.7183H117.682L134.063 168.174H144.028Z" fill="white"/>
<path d="M76.498 168.174L76.498 89.7178H75.7511L75.7511 168.174H76.498Z" fill="#E6E6E6"/>
<path opacity="0.6" d="M68.4727 98.5914H206.254L206.796 92.0054H69.0147L68.4727 98.5914Z" fill="#EBEBEB"/>
<path opacity="0.6" d="M68.4727 102.307H206.254L206.796 95.7202H69.0147L68.4727 102.307Z" fill="#EBEBEB"/>
<path opacity="0.6" d="M68.4727 106.022H206.254L206.796 99.436H69.0147L68.4727 106.022Z" fill="#EBEBEB"/>
<path opacity="0.6" d="M68.4727 109.738H206.254L206.796 103.151H69.0147L68.4727 109.738Z" fill="#EBEBEB"/>
<path opacity="0.6" d="M68.4727 113.453H206.254L206.796 106.867H69.0147L68.4727 113.453Z" fill="#EBEBEB"/>
<path opacity="0.6" d="M68.4727 117.168H206.254L206.796 110.582H69.0147L68.4727 117.168Z" fill="#EBEBEB"/>
<path d="M96.0143 273.271H100.777V220.179H96.0143V273.271Z" fill="#F5F5F5"/>
<path d="M96.6277 273.234H97.9727V220.142H96.6277V273.234Z" fill="#FAFAFA"/>
<path d="M98.5355 273.234H99.0625V220.142H98.5355V273.234Z" fill="#FAFAFA"/>
<path d="M80.7637 276.507H116.028C116.028 274.053 114.039 272.064 111.585 272.064H85.2067C82.7527 272.064 80.7637 274.053 80.7637 276.507Z" fill="#F0F0F0"/>
<path d="M89.8348 253.138C90.5888 253.138 91.2048 252.521 91.2048 251.768V216.958C91.2048 216.205 90.5878 215.588 89.8348 215.588C89.0808 215.588 88.4648 216.205 88.4648 216.958V251.768C88.4648 252.522 89.0808 253.138 89.8348 253.138Z" fill="#F0F0F0"/>
<path d="M77.0742 232.799H119.716L114.811 203H81.9792L77.0742 232.799Z" fill="#E0E0E0"/>
<path d="M250 427.561C357.082 427.561 443.889 422.492 443.889 416.238C443.889 409.985 357.082 404.915 250 404.915C142.918 404.915 56.1113 409.985 56.1113 416.238C56.1113 422.492 142.918 427.561 250 427.561Z" fill="#F5F5F5"/>
<path d="M128.997 202.36L128 202.432L129.328 220.873L130.325 220.801L128.997 202.36Z" fill="#188078"/>
<path d="M131.029 230.316L130.031 230.388L130.531 237.325L131.529 237.253L131.029 230.316Z" fill="#188078"/>
<path d="M362.6 315.161H148.442C143.598 315.161 139.35 311.198 139.001 306.354L128.478 160.224C128.129 155.38 131.807 151.417 136.651 151.417H350.809C355.653 151.417 359.901 155.38 360.25 160.224L370.773 306.354C371.121 311.198 367.444 315.161 362.6 315.161Z" fill="#188078"/>
<path d="M363.422 315.161H149.264C144.42 315.161 140.172 311.198 139.823 306.354L129.3 160.224C128.951 155.38 132.629 151.417 137.473 151.417H351.631C356.475 151.417 360.723 155.38 361.072 160.224L371.595 306.354C371.943 311.198 368.266 315.161 363.422 315.161Z" fill="#188078"/>
<path opacity="0.5" d="M363.422 315.161H149.264C144.42 315.161 140.172 311.198 139.823 306.354L129.3 160.224C128.951 155.38 132.629 151.417 137.473 151.417H351.631C356.475 151.417 360.723 155.38 361.072 160.224L371.595 306.354C371.943 311.198 368.266 315.161 363.422 315.161Z" fill="white"/>
<path d="M351.948 155.821H137.79C137.548 155.821 137.309 155.831 137.073 155.85C131.599 156.301 132.717 164.628 138.242 164.628H352.765C358.29 164.628 358.209 156.301 352.67 155.85C352.431 155.831 352.19 155.821 351.948 155.821Z" fill="#188078"/>
<path d="M143.367 160.225C143.447 161.34 142.609 162.244 141.493 162.244C140.378 162.244 139.41 161.34 139.33 160.225C139.25 159.11 140.088 158.206 141.204 158.206C142.32 158.206 143.287 159.109 143.367 160.225Z" fill="#FAFAFA"/>
<path d="M150.237 160.225C150.317 161.34 149.479 162.244 148.363 162.244C147.248 162.244 146.279 161.34 146.199 160.225C146.119 159.11 146.957 158.206 148.073 158.206C149.188 158.206 150.157 159.109 150.237 160.225Z" fill="#FAFAFA"/>
<path d="M157.105 160.225C157.185 161.34 156.346 162.244 155.231 162.244C154.116 162.244 153.147 161.34 153.066 160.225C152.986 159.11 153.825 158.206 154.94 158.206C156.055 158.206 157.024 159.109 157.105 160.225Z" fill="#FAFAFA"/>
<path d="M357.744 300.577H152.841C151.078 300.577 149.545 299.147 149.418 297.384L140.764 177.211C140.637 175.448 141.964 174.018 143.727 174.018H348.63C350.393 174.018 351.926 175.447 352.053 177.211L360.707 297.384C360.834 299.147 359.507 300.577 357.744 300.577Z" fill="white"/>
<path d="M238.055 221.717C237.937 221.717 237.819 221.674 237.725 221.588C237.529 221.406 237.517 221.099 237.699 220.903L239.823 218.615C240.005 218.418 240.312 218.408 240.508 218.589C240.704 218.771 240.715 219.078 240.534 219.274L238.411 221.562C238.315 221.665 238.185 221.717 238.055 221.717Z" fill="#188078"/>
<path d="M262.473 221.717C262.355 221.717 262.236 221.674 262.142 221.587L259.689 219.299C259.493 219.117 259.483 218.81 259.665 218.614C259.847 218.418 260.154 218.408 260.35 218.59L262.803 220.878C262.999 221.06 263.009 221.367 262.827 221.563C262.732 221.665 262.603 221.717 262.473 221.717Z" fill="#188078"/>
<path d="M196.124 280.72L195.052 278.48H195.004V286H192.716V274.832H195.372L198.428 280.112L199.5 282.352H199.548V274.832H201.836V286H199.18L196.124 280.72ZM207.575 286.192C206.956 286.192 206.401 286.091 205.911 285.888C205.431 285.685 205.02 285.392 204.679 285.008C204.348 284.624 204.092 284.16 203.911 283.616C203.729 283.072 203.639 282.464 203.639 281.792C203.639 281.12 203.729 280.512 203.911 279.968C204.092 279.424 204.348 278.965 204.679 278.592C205.02 278.208 205.431 277.915 205.911 277.712C206.401 277.509 206.956 277.408 207.575 277.408C208.193 277.408 208.743 277.509 209.223 277.712C209.713 277.915 210.124 278.208 210.455 278.592C210.796 278.965 211.057 279.424 211.239 279.968C211.42 280.512 211.51 281.12 211.51 281.792C211.51 282.464 211.42 283.072 211.239 283.616C211.057 284.16 210.796 284.624 210.455 285.008C210.124 285.392 209.713 285.685 209.223 285.888C208.743 286.091 208.193 286.192 207.575 286.192ZM207.575 284.32C208.044 284.32 208.407 284.176 208.663 283.888C208.919 283.6 209.047 283.189 209.047 282.656V280.944C209.047 280.411 208.919 280 208.663 279.712C208.407 279.424 208.044 279.28 207.575 279.28C207.105 279.28 206.743 279.424 206.487 279.712C206.231 280 206.103 280.411 206.103 280.944V282.656C206.103 283.189 206.231 283.6 206.487 283.888C206.743 284.176 207.105 284.32 207.575 284.32ZM220.723 286.192C219.742 286.192 218.91 286.027 218.227 285.696C217.544 285.355 216.963 284.917 216.483 284.384L218.083 282.768C218.84 283.621 219.774 284.048 220.883 284.048C221.48 284.048 221.923 283.925 222.211 283.68C222.499 283.435 222.643 283.109 222.643 282.704C222.643 282.395 222.558 282.139 222.387 281.936C222.216 281.723 221.87 281.579 221.347 281.504L220.243 281.36C219.059 281.211 218.19 280.853 217.635 280.288C217.091 279.723 216.819 278.971 216.819 278.032C216.819 277.531 216.915 277.072 217.107 276.656C217.299 276.24 217.571 275.883 217.923 275.584C218.286 275.285 218.723 275.056 219.235 274.896C219.758 274.725 220.35 274.64 221.011 274.64C221.854 274.64 222.595 274.773 223.235 275.04C223.875 275.307 224.424 275.696 224.883 276.208L223.267 277.84C223 277.531 222.675 277.28 222.291 277.088C221.918 276.885 221.443 276.784 220.867 276.784C220.323 276.784 219.918 276.88 219.651 277.072C219.384 277.264 219.251 277.531 219.251 277.872C219.251 278.256 219.352 278.533 219.555 278.704C219.768 278.875 220.11 278.997 220.579 279.072L221.683 279.248C222.835 279.429 223.688 279.787 224.243 280.32C224.798 280.843 225.075 281.589 225.075 282.56C225.075 283.093 224.979 283.584 224.787 284.032C224.595 284.48 224.312 284.864 223.939 285.184C223.576 285.504 223.123 285.755 222.579 285.936C222.035 286.107 221.416 286.192 220.723 286.192ZM230.467 286.192C229.827 286.192 229.257 286.091 228.755 285.888C228.254 285.675 227.827 285.381 227.475 285.008C227.134 284.624 226.873 284.16 226.691 283.616C226.521 283.072 226.435 282.464 226.435 281.792C226.435 281.131 226.521 280.533 226.691 280C226.862 279.456 227.113 278.992 227.443 278.608C227.785 278.224 228.201 277.931 228.691 277.728C229.182 277.515 229.742 277.408 230.371 277.408C231.065 277.408 231.657 277.525 232.147 277.76C232.649 277.995 233.054 278.309 233.363 278.704C233.683 279.099 233.913 279.557 234.051 280.08C234.201 280.592 234.275 281.131 234.275 281.696V282.4H228.883V282.528C228.883 283.083 229.033 283.525 229.331 283.856C229.63 284.176 230.099 284.336 230.739 284.336C231.23 284.336 231.63 284.24 231.939 284.048C232.249 283.845 232.537 283.605 232.803 283.328L233.987 284.8C233.614 285.237 233.123 285.579 232.515 285.824C231.918 286.069 231.235 286.192 230.467 286.192ZM230.419 279.152C229.939 279.152 229.561 279.312 229.283 279.632C229.017 279.941 228.883 280.357 228.883 280.88V281.008H231.827V280.864C231.827 280.352 231.71 279.941 231.475 279.632C231.251 279.312 230.899 279.152 230.419 279.152ZM242.156 286C241.729 286 241.372 285.867 241.084 285.6C240.806 285.333 240.63 284.976 240.556 284.528H240.46C240.332 285.072 240.049 285.488 239.612 285.776C239.174 286.053 238.636 286.192 237.996 286.192C237.153 286.192 236.508 285.968 236.06 285.52C235.612 285.072 235.388 284.48 235.388 283.744C235.388 282.859 235.708 282.203 236.348 281.776C236.998 281.339 237.878 281.12 238.988 281.12H240.316V280.592C240.316 280.187 240.209 279.867 239.996 279.632C239.782 279.387 239.425 279.264 238.924 279.264C238.454 279.264 238.081 279.365 237.804 279.568C237.526 279.771 237.297 280 237.116 280.256L235.708 279.008C236.049 278.507 236.476 278.117 236.988 277.84C237.51 277.552 238.214 277.408 239.1 277.408C240.294 277.408 241.19 277.669 241.788 278.192C242.385 278.715 242.684 279.477 242.684 280.48V284.16H243.468V286H242.156ZM238.876 284.544C239.27 284.544 239.606 284.459 239.884 284.288C240.172 284.117 240.316 283.84 240.316 283.456V282.464H239.164C238.236 282.464 237.772 282.779 237.772 283.408V283.648C237.772 283.957 237.868 284.187 238.06 284.336C238.252 284.475 238.524 284.544 238.876 284.544ZM245.057 286V277.6H247.425V279.424H247.505C247.548 279.189 247.622 278.965 247.729 278.752C247.836 278.528 247.974 278.331 248.145 278.16C248.326 277.989 248.54 277.856 248.785 277.76C249.03 277.653 249.318 277.6 249.649 277.6H250.065V279.808H249.473C248.78 279.808 248.262 279.899 247.921 280.08C247.59 280.261 247.425 280.597 247.425 281.088V286H245.057ZM254.84 286.192C254.21 286.192 253.65 286.091 253.16 285.888C252.669 285.675 252.258 285.381 251.928 285.008C251.597 284.624 251.346 284.16 251.176 283.616C251.005 283.072 250.92 282.464 250.92 281.792C250.92 281.12 251.005 280.517 251.176 279.984C251.346 279.44 251.597 278.976 251.928 278.592C252.258 278.208 252.669 277.915 253.16 277.712C253.65 277.509 254.21 277.408 254.84 277.408C255.693 277.408 256.402 277.6 256.968 277.984C257.544 278.368 257.954 278.907 258.2 279.6L256.28 280.432C256.205 280.112 256.05 279.84 255.816 279.616C255.581 279.392 255.256 279.28 254.84 279.28C254.36 279.28 253.997 279.44 253.752 279.76C253.506 280.069 253.384 280.491 253.384 281.024V282.592C253.384 283.125 253.506 283.547 253.752 283.856C253.997 284.165 254.36 284.32 254.84 284.32C255.266 284.32 255.602 284.208 255.848 283.984C256.104 283.749 256.29 283.445 256.408 283.072L258.248 283.872C257.97 284.672 257.538 285.259 256.952 285.632C256.376 286.005 255.672 286.192 254.84 286.192ZM259.713 274.16H262.081V279.024H262.177C262.327 278.587 262.588 278.208 262.961 277.888C263.335 277.568 263.852 277.408 264.513 277.408C265.377 277.408 266.028 277.696 266.465 278.272C266.913 278.848 267.137 279.669 267.137 280.736V286H264.769V280.928C264.769 280.384 264.684 279.984 264.513 279.728C264.343 279.461 264.039 279.328 263.601 279.328C263.409 279.328 263.223 279.355 263.041 279.408C262.86 279.451 262.695 279.525 262.545 279.632C262.407 279.739 262.295 279.872 262.209 280.032C262.124 280.181 262.081 280.357 262.081 280.56V286H259.713V274.16ZM275.586 286H273.154V274.832H278.45C278.962 274.832 279.426 274.917 279.842 275.088C280.258 275.259 280.61 275.504 280.898 275.824C281.197 276.133 281.426 276.507 281.586 276.944C281.746 277.381 281.826 277.867 281.826 278.4C281.826 279.157 281.655 279.819 281.314 280.384C280.983 280.949 280.477 281.36 279.794 281.616L281.986 286H279.282L277.33 281.904H275.586V286ZM278.146 279.856C278.509 279.856 278.791 279.765 278.994 279.584C279.207 279.392 279.314 279.115 279.314 278.752V278.048C279.314 277.685 279.207 277.413 278.994 277.232C278.791 277.04 278.509 276.944 278.146 276.944H275.586V279.856H278.146ZM287.077 286.192C286.437 286.192 285.866 286.091 285.365 285.888C284.863 285.675 284.437 285.381 284.085 285.008C283.743 284.624 283.482 284.16 283.301 283.616C283.13 283.072 283.045 282.464 283.045 281.792C283.045 281.131 283.13 280.533 283.301 280C283.471 279.456 283.722 278.992 284.053 278.608C284.394 278.224 284.81 277.931 285.301 277.728C285.791 277.515 286.351 277.408 286.981 277.408C287.674 277.408 288.266 277.525 288.757 277.76C289.258 277.995 289.663 278.309 289.973 278.704C290.293 279.099 290.522 279.557 290.661 280.08C290.81 280.592 290.885 281.131 290.885 281.696V282.4H285.493V282.528C285.493 283.083 285.642 283.525 285.941 283.856C286.239 284.176 286.709 284.336 287.349 284.336C287.839 284.336 288.239 284.24 288.549 284.048C288.858 283.845 289.146 283.605 289.413 283.328L290.597 284.8C290.223 285.237 289.733 285.579 289.125 285.824C288.527 286.069 287.845 286.192 287.077 286.192ZM287.029 279.152C286.549 279.152 286.17 279.312 285.893 279.632C285.626 279.941 285.493 280.357 285.493 280.88V281.008H288.437V280.864C288.437 280.352 288.319 279.941 288.085 279.632C287.861 279.312 287.509 279.152 287.029 279.152ZM295.405 286.192C294.594 286.192 293.912 286.064 293.357 285.808C292.802 285.541 292.306 285.168 291.869 284.688L293.261 283.28C293.56 283.611 293.89 283.872 294.253 284.064C294.616 284.256 295.026 284.352 295.485 284.352C295.954 284.352 296.28 284.283 296.461 284.144C296.642 283.995 296.733 283.797 296.733 283.552C296.733 283.157 296.45 282.923 295.885 282.848L294.973 282.736C293.085 282.501 292.141 281.637 292.141 280.144C292.141 279.739 292.216 279.371 292.365 279.04C292.525 278.699 292.744 278.411 293.021 278.176C293.309 277.931 293.65 277.744 294.045 277.616C294.45 277.477 294.904 277.408 295.405 277.408C295.842 277.408 296.226 277.44 296.557 277.504C296.898 277.557 297.197 277.643 297.453 277.76C297.72 277.867 297.96 278.005 298.173 278.176C298.397 278.336 298.616 278.517 298.829 278.72L297.469 280.112C297.202 279.845 296.898 279.637 296.557 279.488C296.226 279.328 295.885 279.248 295.533 279.248C295.128 279.248 294.84 279.312 294.669 279.44C294.498 279.568 294.413 279.739 294.413 279.952C294.413 280.176 294.472 280.352 294.589 280.48C294.717 280.597 294.952 280.683 295.293 280.736L296.237 280.864C298.082 281.109 299.005 281.952 299.005 283.392C299.005 283.797 298.92 284.171 298.749 284.512C298.578 284.853 298.333 285.152 298.013 285.408C297.704 285.653 297.325 285.845 296.877 285.984C296.44 286.123 295.949 286.192 295.405 286.192ZM305.58 284.592H305.5C305.425 284.805 305.324 285.008 305.196 285.2C305.078 285.392 304.924 285.563 304.732 285.712C304.54 285.861 304.31 285.979 304.044 286.064C303.788 286.149 303.489 286.192 303.148 286.192C302.284 286.192 301.628 285.909 301.18 285.344C300.742 284.768 300.524 283.947 300.524 282.88V277.6H302.892V282.672C302.892 283.184 302.982 283.579 303.164 283.856C303.345 284.133 303.654 284.272 304.092 284.272C304.273 284.272 304.454 284.245 304.636 284.192C304.817 284.139 304.977 284.064 305.116 283.968C305.254 283.861 305.366 283.733 305.452 283.584C305.537 283.435 305.58 283.259 305.58 283.056V277.6H307.948V286H305.58V284.592ZM312.503 286C311.692 286 311.095 285.803 310.711 285.408C310.338 285.013 310.151 284.443 310.151 283.696V274.16H312.519V284.16H313.575V286H312.503ZM317.861 286C317.039 286 316.415 285.792 315.989 285.376C315.573 284.96 315.365 284.352 315.365 283.552V279.44H314.181V277.6H314.773C315.093 277.6 315.311 277.525 315.429 277.376C315.546 277.216 315.605 276.992 315.605 276.704V275.328H317.733V277.6H319.397V279.44H317.733V284.16H319.269V286H317.861ZM323.89 286.192C323.079 286.192 322.396 286.064 321.842 285.808C321.287 285.541 320.791 285.168 320.354 284.688L321.746 283.28C322.044 283.611 322.375 283.872 322.738 284.064C323.1 284.256 323.511 284.352 323.97 284.352C324.439 284.352 324.764 284.283 324.946 284.144C325.127 283.995 325.218 283.797 325.218 283.552C325.218 283.157 324.935 282.923 324.37 282.848L323.458 282.736C321.57 282.501 320.626 281.637 320.626 280.144C320.626 279.739 320.7 279.371 320.85 279.04C321.01 278.699 321.228 278.411 321.506 278.176C321.794 277.931 322.135 277.744 322.53 277.616C322.935 277.477 323.388 277.408 323.89 277.408C324.327 277.408 324.711 277.44 325.042 277.504C325.383 277.557 325.682 277.643 325.938 277.76C326.204 277.867 326.444 278.005 326.658 278.176C326.882 278.336 327.1 278.517 327.314 278.72L325.954 280.112C325.687 279.845 325.383 279.637 325.042 279.488C324.711 279.328 324.37 279.248 324.018 279.248C323.612 279.248 323.324 279.312 323.154 279.44C322.983 279.568 322.898 279.739 322.898 279.952C322.898 280.176 322.956 280.352 323.074 280.48C323.202 280.597 323.436 280.683 323.778 280.736L324.722 280.864C326.567 281.109 327.49 281.952 327.49 283.392C327.49 283.797 327.404 284.171 327.234 284.512C327.063 284.853 326.818 285.152 326.498 285.408C326.188 285.653 325.81 285.845 325.362 285.984C324.924 286.123 324.434 286.192 323.89 286.192Z" fill="#AFAFAF"/>
<path fill-rule="evenodd" clip-rule="evenodd" d="M272.998 234.787C273.003 234.644 272.959 234.503 272.874 234.388C272.788 234.273 272.665 234.192 272.526 234.157C272.387 234.122 272.24 234.135 272.11 234.196C271.98 234.256 271.874 234.36 271.811 234.489C269.733 238.755 265.583 242.296 262.416 243.88C262.288 243.944 262.186 244.05 262.127 244.18C262.067 244.31 262.054 244.457 262.09 244.595C262.126 244.734 262.208 244.856 262.323 244.941C262.438 245.026 262.578 245.07 262.721 245.064C264.178 245.006 266.096 245.105 268.343 245.629C268.504 245.666 268.673 245.638 268.814 245.551C268.954 245.464 269.055 245.325 269.093 245.164C269.738 242.437 271.604 241.495 273.091 241.16C273.172 241.142 273.248 241.108 273.315 241.06C273.382 241.012 273.439 240.952 273.483 240.882C273.526 240.812 273.556 240.734 273.569 240.653C273.583 240.572 273.58 240.489 273.561 240.409C273.123 238.569 272.934 236.678 272.998 234.787Z" fill="#188078"/>
<path fill-rule="evenodd" clip-rule="evenodd" d="M243.039 210.994C241.896 211.532 239.721 213.44 238.528 215.506C237.368 217.515 236.756 219.827 236.754 221.402C236.754 221.568 236.819 221.727 236.936 221.845C237.053 221.962 237.212 222.028 237.378 222.029C237.543 222.029 237.703 221.963 237.82 221.846C237.937 221.729 238.004 221.571 238.004 221.405C238.006 219.994 238.571 217.93 239.61 216.131C240.664 214.306 242.563 212.6 243.571 212.125C243.646 212.09 243.712 212.041 243.768 211.98C243.823 211.919 243.866 211.848 243.893 211.771C243.921 211.694 243.933 211.612 243.93 211.53C243.926 211.448 243.906 211.367 243.871 211.293C243.836 211.219 243.787 211.152 243.726 211.097C243.665 211.042 243.594 210.999 243.517 210.971C243.44 210.943 243.358 210.931 243.276 210.935C243.194 210.939 243.113 210.959 243.039 210.994Z" fill="#738BAB"/>
<path fill-rule="evenodd" clip-rule="evenodd" d="M238.656 210.721C245.974 203.404 257.855 203.404 265.172 210.721C272.49 218.039 272.49 229.92 265.172 237.238C257.855 244.555 245.974 244.555 238.656 237.238C232.657 231.239 231.576 222.174 235.412 215.069C235.491 214.923 235.509 214.752 235.461 214.593C235.414 214.434 235.305 214.301 235.159 214.222C235.013 214.143 234.842 214.126 234.683 214.173C234.525 214.221 234.391 214.329 234.312 214.475C230.22 222.053 231.374 231.723 237.772 238.121C245.577 245.926 258.251 245.926 266.056 238.121C273.861 230.316 273.861 217.643 266.056 209.838C258.251 202.033 245.577 202.033 237.772 209.838C237.659 209.956 237.596 210.113 237.597 210.277C237.598 210.441 237.664 210.598 237.78 210.714C237.896 210.83 238.053 210.895 238.217 210.897C238.38 210.898 238.538 210.835 238.656 210.721Z" fill="#738BAB"/>
<path fill-rule="evenodd" clip-rule="evenodd" d="M273.695 229.625C272.693 233.511 270.665 237.056 267.823 239.889C259.043 248.67 244.785 248.67 236.005 239.889C227.223 231.109 227.223 216.85 236.005 208.07C244.785 199.289 259.043 199.289 267.823 208.07C269.985 210.228 271.684 212.804 272.815 215.641C273.946 218.478 274.486 221.517 274.402 224.57C274.397 224.654 274.409 224.738 274.436 224.817C274.464 224.896 274.508 224.969 274.565 225.031C274.621 225.093 274.69 225.143 274.767 225.178C274.843 225.212 274.926 225.232 275.01 225.234C275.094 225.236 275.177 225.221 275.255 225.19C275.333 225.16 275.404 225.113 275.464 225.054C275.524 224.995 275.571 224.925 275.604 224.847C275.636 224.77 275.652 224.686 275.651 224.602C275.74 221.379 275.17 218.172 273.976 215.177C272.782 212.182 270.989 209.463 268.707 207.185C259.438 197.916 244.388 197.916 235.12 207.185C225.851 216.454 225.851 231.505 235.12 240.774C244.388 250.042 259.438 250.042 268.707 240.774C271.707 237.783 273.848 234.04 274.905 229.937C274.927 229.857 274.933 229.774 274.923 229.691C274.913 229.608 274.886 229.529 274.845 229.457C274.803 229.384 274.748 229.321 274.682 229.271C274.615 229.22 274.54 229.184 274.459 229.163C274.379 229.142 274.295 229.138 274.212 229.15C274.13 229.162 274.051 229.19 273.98 229.233C273.908 229.276 273.847 229.333 273.798 229.4C273.749 229.468 273.714 229.544 273.695 229.625ZM295.565 260.559C295.501 260.785 295.416 261.004 295.311 261.214C294.827 262.119 293.837 263.374 292.572 264.637C291.308 265.902 290.053 266.892 289.148 267.376C288.939 267.482 288.719 267.567 288.493 267.63L273.637 252.774C273.519 252.66 273.361 252.597 273.197 252.598C273.034 252.6 272.877 252.665 272.761 252.781C272.645 252.897 272.579 253.054 272.578 253.218C272.576 253.382 272.639 253.54 272.753 253.657L287.711 268.615C287.973 268.879 288.508 269.006 289.236 268.716C290.228 268.319 291.843 267.135 293.456 265.522C295.07 263.909 296.253 262.294 296.65 261.301C296.941 260.574 296.812 260.039 296.55 259.776L278.431 241.657C277.259 240.485 275.669 239.827 274.011 239.827C272.354 239.827 270.764 240.485 269.592 241.657C268.42 242.83 267.761 244.419 267.761 246.077C267.761 247.734 268.42 249.324 269.592 250.496C269.71 250.61 269.868 250.673 270.032 250.672C270.196 250.67 270.352 250.604 270.468 250.489C270.584 250.373 270.65 250.216 270.651 250.052C270.653 249.888 270.59 249.73 270.476 249.612C270.011 249.148 269.643 248.597 269.392 247.99C269.141 247.384 269.011 246.733 269.011 246.077C269.011 245.42 269.141 244.77 269.392 244.163C269.643 243.557 270.011 243.006 270.476 242.541C270.94 242.077 271.491 241.709 272.098 241.457C272.705 241.206 273.355 241.077 274.011 241.077C274.668 241.077 275.318 241.206 275.925 241.457C276.532 241.709 277.083 242.077 277.547 242.541L295.565 260.559Z" fill="#738BAB"/>
<path fill-rule="evenodd" clip-rule="evenodd" d="M274.109 202.621L277.859 196.371C277.943 196.23 277.999 196.074 278.024 195.912C278.048 195.75 278.04 195.584 278 195.425C277.96 195.266 277.889 195.116 277.791 194.984C277.694 194.852 277.571 194.741 277.43 194.656C277.289 194.572 277.133 194.516 276.971 194.492C276.809 194.467 276.643 194.476 276.484 194.515C276.325 194.555 276.175 194.626 276.043 194.724C275.911 194.821 275.8 194.944 275.715 195.085L271.965 201.335C271.795 201.619 271.744 201.96 271.824 202.281C271.905 202.603 272.11 202.879 272.394 203.05C272.678 203.22 273.019 203.271 273.34 203.191C273.662 203.11 273.938 202.905 274.109 202.621ZM280.023 206.74L293.773 196.74C294.041 196.545 294.221 196.251 294.273 195.924C294.324 195.597 294.244 195.262 294.049 194.994C293.952 194.861 293.831 194.748 293.691 194.663C293.551 194.577 293.395 194.52 293.233 194.494C292.906 194.442 292.571 194.522 292.303 194.717L278.553 204.717C278.285 204.912 278.105 205.206 278.053 205.533C278.001 205.861 278.082 206.195 278.276 206.464C278.471 206.732 278.765 206.912 279.092 206.963C279.42 207.015 279.755 206.935 280.023 206.74ZM282.09 214.441L292.09 211.941C292.252 211.904 292.404 211.834 292.539 211.737C292.674 211.64 292.788 211.517 292.874 211.376C292.961 211.234 293.018 211.077 293.043 210.913C293.069 210.749 293.061 210.581 293.021 210.42C292.98 210.259 292.908 210.108 292.809 209.975C292.71 209.842 292.585 209.73 292.442 209.646C292.299 209.562 292.14 209.507 291.976 209.485C291.812 209.463 291.644 209.473 291.484 209.516L281.484 212.016C281.167 212.101 280.897 212.307 280.731 212.59C280.564 212.872 280.516 213.209 280.595 213.527C280.675 213.845 280.876 214.119 281.156 214.29C281.435 214.461 281.771 214.515 282.09 214.441Z" fill="#188078"/>
<path d="M247.697 221.117C247.781 222.286 246.902 223.234 245.732 223.234C244.562 223.234 243.547 222.286 243.463 221.117C243.379 219.948 244.258 219 245.427 219C246.596 219 247.613 219.948 247.697 221.117Z" fill="#188078"/>
<path d="M261.432 221.117C261.516 222.286 260.637 223.234 259.467 223.234C258.298 223.234 257.282 222.286 257.197 221.117C257.113 219.948 257.992 219 259.162 219C260.332 219.001 261.348 219.948 261.432 221.117Z" fill="#188078"/>
<path d="M265.307 234.847C265.055 234.847 264.843 234.652 264.824 234.397C264.579 230.993 259.241 228.224 252.924 228.224C248.739 228.224 244.982 229.468 243.118 231.471C242.289 232.362 241.906 233.322 241.978 234.327C241.997 234.594 241.796 234.826 241.529 234.845C241.261 234.862 241.03 234.663 241.011 234.396C240.92 233.13 241.403 231.89 242.408 230.81C244.449 228.616 248.478 227.254 252.924 227.254C259.853 227.254 265.505 230.361 265.791 234.326C265.81 234.593 265.609 234.825 265.342 234.844C265.33 234.847 265.318 234.847 265.307 234.847Z" fill="#188078"/>
</svg>
