<svg xmlns="http://www.w3.org/2000/svg" width="48" height="49" fill="none"><path fill="#188078" d="M33.75 5c-4.017 0-7.74.79-10.635 2.14C20.68 8.28 17.401 9 13.75 9c-2.024 0-3.94-.222-5.665-.617-2.653-.608-5.835 1.21-5.835 4.345v21.544c0 1.671.265 3.244 1.133 4.526.897 1.324 2.28 2.108 4.032 2.51 1.954.447 4.095.692 6.335.692 2.97 0 5.778-.431 8.21-1.202.497-.157.745-.236.862-.422s.07-.513-.022-1.166a5 5 0 0 1 4.95-5.71h.03a6.3 6.3 0 0 1 1.746.272c.39.115.801.271 1.226.48.17.082.255.124.319.14.189.045.352.01.506-.109a1.7 1.7 0 0 0 .216-.236c1.246-1.493 2.752-3.14 4.403-4.587 1.599-1.403 3.612-2.868 5.885-3.673a5 5 0 0 1 1.556-.287c.847-.02 1.271-.029 1.442-.204.17-.175.17-.517.17-1.203V12.728c0-1.594-.214-3.159-1.056-4.453-.878-1.35-2.274-2.162-4.108-2.582A28.5 28.5 0 0 0 33.75 5" opacity=".4"/><path fill="#188078" d="M23.75 17a6.5 6.5 0 1 0 0 13 6.5 6.5 0 0 0 0-13m-11 8.5a2 2 0 0 0-4 0v.018a2 2 0 0 0 4 0zm24-6.016a2 2 0 0 1 2 2v.018a2 2 0 0 1-4 0v-.018a2 2 0 0 1 2-2m7.667 12.902a2 2 0 0 0-1.335-3.77c-1.756.621-3.435 1.808-4.908 3.1-1.494 1.31-2.891 2.831-4.078 4.253a59 59 0 0 0-2.285 2.93c-.578-.691-1.153-1.197-1.702-1.563a5.3 5.3 0 0 0-1.466-.696 3.3 3.3 0 0 0-.893-.14 2 2 0 0 0-.187 3.992c.045.015.159.06.327.173.399.265 1.19.967 2.07 2.73a2 2 0 0 0 3.478.178l.26-.397a56 56 0 0 1 3.47-4.644c1.107-1.328 2.358-2.682 3.643-3.809 1.306-1.145 2.54-1.96 3.606-2.337"/></svg>