<svg xmlns="http://www.w3.org/2000/svg" width="16" height="16" fill="none"><path fill="#767676" fill-rule="evenodd" d="M3.967 1.5c-.443 0-.825 0-1.13.041-.329.044-.643.144-.898.398-.254.255-.354.57-.398.897-.041.306-.041.688-.041 1.131v.066c0 .443 0 .825.041 1.13.044.329.144.643.398.898.255.255.57.354.897.398.306.041.688.041 1.131.041h.066c.443 0 .825 0 1.13-.041.329-.044.643-.143.898-.398s.354-.57.398-.897c.041-.306.041-.688.041-1.131v-.066c0-.443 0-.825-.041-1.13-.044-.329-.143-.643-.398-.898-.255-.254-.57-.354-.897-.398C4.858 1.5 4.476 1.5 4.033 1.5zm-1.32 1.146c.038-.038.105-.085.322-.114.232-.03.545-.032 1.031-.032s.8.001 1.03.032c.218.03.285.076.324.114.038.039.085.106.114.323.03.232.032.545.032 1.031s-.001.8-.032 1.03c-.03.218-.076.285-.114.324-.038.038-.106.085-.323.114-.232.03-.545.032-1.031.032s-.8-.001-1.03-.032c-.218-.03-.285-.076-.324-.114-.038-.038-.085-.106-.114-.323C2.502 4.799 2.5 4.486 2.5 4s.001-.8.032-1.03c.03-.218.076-.285.114-.324M3.967 9.5c-.443 0-.825 0-1.13.041-.329.044-.643.144-.898.398-.254.255-.354.57-.398.897-.041.306-.041.688-.041 1.131v.066c0 .443 0 .825.041 1.13.044.329.144.643.398.898.255.255.57.354.897.398.306.041.688.041 1.131.041h.066c.443 0 .825 0 1.13-.041.329-.044.643-.143.898-.398s.354-.57.398-.897c.041-.306.041-.688.041-1.131v-.066c0-.443 0-.825-.041-1.13-.044-.329-.143-.643-.398-.898-.255-.254-.57-.354-.897-.398C4.858 9.5 4.476 9.5 4.033 9.5zm-1.32 1.146c.038-.038.105-.085.322-.114.232-.03.545-.032 1.031-.032s.8.001 1.03.032c.218.03.285.076.324.114.038.038.085.106.114.323.03.232.032.546.032 1.031 0 .486-.001.8-.032 1.03-.03.218-.076.286-.114.324s-.106.085-.323.114c-.232.03-.545.032-1.031.032s-.8-.001-1.03-.032c-.218-.03-.285-.076-.324-.114-.038-.038-.085-.106-.114-.323-.03-.232-.032-.546-.032-1.031 0-.486.001-.8.032-1.03.03-.218.076-.286.114-.324" clip-rule="evenodd"/><path fill="#767676" d="M1.5 8a.5.5 0 0 1 .5-.5h4a.5.5 0 0 1 0 1H2a.5.5 0 0 1-.5-.5M8.5 2a.5.5 0 0 0-1 0v3.333a.5.5 0 1 0 1 0z"/><path fill="#767676" fill-rule="evenodd" d="M11.967 1.5h.066c.443 0 .825 0 1.13.041.329.044.643.144.898.398.255.255.354.57.398.897.041.306.041.688.041 1.131v.066c0 .443 0 .825-.041 1.13-.044.329-.143.643-.398.898s-.57.354-.897.398c-.306.041-.688.041-1.131.041h-.066c-.443 0-.825 0-1.13-.041-.329-.044-.643-.143-.898-.398-.254-.255-.354-.57-.398-.897C9.5 4.858 9.5 4.476 9.5 4.033v-.066c0-.443 0-.825.041-1.13.044-.329.144-.643.398-.898.255-.254.57-.354.897-.398.306-.041.688-.041 1.131-.041m-.998 1.032c-.216.03-.284.076-.322.114s-.086.106-.115.323c-.03.232-.032.545-.032 1.031s.001.8.032 1.03c.03.218.076.285.114.324.038.038.106.085.323.114.232.03.546.032 1.031.032.486 0 .8-.001 1.03-.032.218-.03.286-.076.324-.114s.085-.106.114-.323c.03-.232.032-.545.032-1.031s-.001-.8-.032-1.03c-.03-.218-.076-.285-.114-.324-.038-.038-.106-.085-.323-.114-.232-.03-.546-.032-1.031-.032-.486 0-.8.001-1.03.032" clip-rule="evenodd"/><path fill="#767676" d="M9.967 7.5c-.443 0-.825 0-1.13.041-.329.044-.643.144-.898.398-.254.255-.354.57-.398.897-.041.306-.041.688-.041 1.131V10a.5.5 0 0 0 1 0c0-.486.001-.8.032-1.03.03-.218.076-.285.114-.324.039-.038.106-.085.323-.114.232-.03.545-.032 1.031-.032h4a.5.5 0 0 0 0-1zM12 10.5c.486 0 .8.001 1.03.032.217.03.285.076.323.115.039.038.086.106.115.324.03.231.032.546.032 1.032s-.001.8-.032 1.032c-.03.218-.076.286-.115.324-.06.06-.176.125-.701.141a.5.5 0 0 0 .03 1c.51-.016 1.011-.066 1.379-.434.255-.255.354-.57.398-.898.041-.306.041-.688.041-1.132v-.066c0-.444 0-.826-.041-1.133-.044-.328-.143-.642-.398-.897s-.57-.355-.897-.399c-.306-.041-.688-.041-1.131-.041H12a.5.5 0 0 0 0 1"/><path fill="#767676" d="M10.5 10a.5.5 0 0 0-1 0v1c0 .568.16 1.042.619 1.298.198.11.413.156.608.178.194.022.405.024.606.024.092 0 .167.075.167.167a.5.5 0 0 0 1 0c0-.645-.522-1.167-1.167-1.167-.204 0-.363-.003-.494-.018a.7.7 0 0 1-.233-.057c-.012-.005-.106-.044-.106-.425zM8.5 11.846a.5.5 0 1 0-1 0v1.846a.5.5 0 1 0 1 0zM10 13.5a.5.5 0 0 0 0 1h.667a.5.5 0 0 0 0-1z"/></svg>