<svg xmlns="http://www.w3.org/2000/svg" width="40" height="40" fill="none"><g clip-path="url(#a)"><path fill="#020A0A" d="M39.997 32.26v-9.73q0-.06-.005-.117l-.008-.049q-.004-.032-.01-.064-.005-.03-.013-.057l-.014-.054-.02-.055-.019-.053-.023-.05-.026-.054-.028-.047q-.015-.026-.031-.051l-.038-.052-.03-.04a1 1 0 0 0-.078-.086L27.963 10.009a1.17 1.17 0 0 0-1.657 0l-.035.04q-.022.017-.04.036l-4.69 4.69-7.824-7.824a1.168 1.168 0 0 0-.913-.432 1.17 1.17 0 0 0-.913.432L.343 18.5a1 1 0 0 0-.078.087l-.03.04-.038.052-.03.05q-.015.023-.029.048l-.025.052q-.013.025-.024.052l-.019.052-.02.056-.013.052-.014.06-.01.06q-.004.026-.007.053a1 1 0 0 0-.006.112v12.984c0 .647.524 1.172 1.171 1.172h37.658c.646 0 1.17-.525 1.17-1.172q0-.024-.002-.048M27.135 12.495l1.31 1.31L27.15 15.1l-1.31-1.31zM12.804 9.35l4.845 4.845-1.01 1.01-2.649-2.649a1 1 0 0 0-.166-.137 1.17 1.17 0 0 0-1.579.07l-.647.647-1.29-1.29zm2.517 21.787H9.628v-6.433l2.846-3.021 2.847 3.02zm22.334 0H17.663v-4.092l.828.83a1.17 1.17 0 0 0 .829.344 1.171 1.171 0 0 0 .83-1.998c-.037-.036-6.577-6.799-6.616-6.83a1.46 1.46 0 0 0-1.06-.457 1.46 1.46 0 0 0-1.06.458L4.82 26.222a1.171 1.171 0 1 0 1.658 1.654l.807-.809v4.071H2.342V19.813l6.31-6.31 2.113 2.114a1.17 1.17 0 0 0 1.579.07q.063-.048.12-.104l.62-.62 2.727 2.728a1.17 1.17 0 0 0 1.656 0l.032-.035q.017-.015.035-.032l1.771-1.771 3.06 3.06a1.17 1.17 0 0 0 1.657 0 1.17 1.17 0 0 0 0-1.657l-.825-.825.985-.985 2.14 2.138a1.167 1.167 0 0 0 1.655 0l.002-.001 2.122-2.122 7.554 7.553z"/></g><defs><clipPath id="a"><path fill="#fff" d="M0 0h40v40H0z"/></clipPath></defs></svg>