<svg xmlns="http://www.w3.org/2000/svg" width="16" height="16" fill="none"><path fill="#188078" d="M1.93 6.982C1.245 6.138.834 5.114.834 4.004c0-1.114.413-2.14 1.104-2.987a.5.5 0 1 1 .775.633c-.563.688-.879 1.496-.879 2.354 0 .854.314 1.66.873 2.347a.5.5 0 0 1-.775.631M3.571 5.714a3.23 3.23 0 0 1-.497-1.71c0-.623.184-1.208.502-1.718a.5.5 0 0 1 .848.529 2.23 2.23 0 0 0-.35 1.189c0 .419.122.82.347 1.183a.5.5 0 1 1-.85.527M4 11.333a.667.667 0 0 0 0 1.334h.006a.667.667 0 0 0 0-1.334zM6.664 11.333a.667.667 0 0 0 0 1.334h.006a.667.667 0 0 0 0-1.334zM9.327 11.333a.667.667 0 0 0 0 1.334h.006a.667.667 0 0 0 0-1.334z"/><path fill="#188078" fill-rule="evenodd" d="M6.5 4.44a.667.667 0 0 0-.498-1.11h-.005A.667.667 0 0 0 5.5 4.443v4.391H3.965c-.599 0-1.098 0-1.495.054-.418.056-.796.18-1.1.483-.303.304-.427.682-.483 1.1-.054.397-.054.896-.054 1.495v.07c0 .599 0 1.098.054 1.495.056.418.18.796.483 1.1.304.303.682.427 1.1.483.397.054.896.054 1.495.054h8.07c.599 0 1.098 0 1.495-.054.418-.056.796-.18 1.1-.483.303-.304.427-.682.483-1.1.054-.397.054-.896.054-1.495v-.07c0-.599 0-1.098-.054-1.495-.056-.418-.18-.796-.483-1.1-.304-.303-.682-.427-1.1-.483-.397-.054-.896-.054-1.495-.054H6.5zM2.604 9.879c-.308.041-.44.112-.527.2-.086.086-.158.218-.2.526-.043.322-.044.753-.044 1.396s.001 1.074.045 1.396c.041.308.113.44.2.526.086.087.218.159.526.2.322.044.753.045 1.396.045h8c.643 0 1.074-.001 1.396-.045.308-.041.44-.113.527-.2.086-.086.158-.218.2-.526.043-.322.044-.753.044-1.396s-.001-1.074-.045-1.396c-.041-.308-.113-.44-.2-.527-.086-.087-.218-.158-.526-.2-.322-.043-.753-.044-1.396-.044H4c-.643 0-1.074.001-1.396.045" clip-rule="evenodd"/></svg>