<svg xmlns="http://www.w3.org/2000/svg" width="12" height="12" fill="none"><g fill="#767676" clip-path="url(#a)"><path d="M5.596.025a4.913 4.913 0 0 0-1.31.978l-.05.054V6.08l-.009.002-1.573.3c-.86.163-1.568.298-1.572.3-.007.002-.019.023-.045.08a4 4 0 0 0-.315.934c-.028.137-.06.346-.053.351.001.002.803-.15 1.782-.336.978-.186 1.78-.337 1.782-.335.002.001.003.367.002.812l-.001.81-1.908.363-1.913.365c-.01.006-.097.194-.15.325A4 4 0 0 0 0 11.093c.003.002 4.031-.764 4.085-.777.248-.061.486-.202.648-.383.037-.042.028-.03.474-.62.28-.372.34-.455.364-.497a.54.54 0 0 0 .072-.23c.002-.025.004-.324.004-.762 0-.682 0-.72.007-.721.004-.002.317-.061.697-.133l.7-.133.008-.002v2.582l.011-.002c.006 0 1.025-.194 2.265-.43l2.255-.43.034-.071A4 4 0 0 0 12 7.188l-1.759.333-1.763.335c-.004 0-.005-.108-.005-.644 0-.61 0-.644.007-.646l1.553-.296c.85-.162 1.549-.294 1.552-.296.01-.002.067-.12.126-.26a4 4 0 0 0 .288-1.107c-.002-.002-3.494.66-3.519.667-.007.002-.007-.11-.007-2.32 0-1.536-.001-2.32-.004-2.32a5.104 5.104 0 0 0-.9.578 5 5 0 0 0-.469.435l-.039.041v3.855l-.019.004-.697.133-.687.13-.009.002V2.906L5.645 0zM9.748 10.196l-2.257.43-.024.005-.026.054a4.1 4.1 0 0 0-.38 1.313s4.47-.848 4.521-.859c.007-.001.015-.014.037-.06A4 4 0 0 0 12 9.788c.002-.016.001-.017-.008-.016-.005 0-1.014.191-2.243.425"/></g><defs><clipPath id="a"><path fill="#fff" d="M0 0h12v12H0z"/></clipPath></defs></svg>