<svg xmlns="http://www.w3.org/2000/svg" width="16" height="16" fill="none"><g fill="#188078" clip-path="url(#a)"><path d="M7.461.034a6.55 6.55 0 0 0-1.746 1.305l-.067.071v6.697l-.012.003-2.097.398-2.097.4c-.008.004-.024.033-.06.107a5.4 5.4 0 0 0-.42 1.247c-.037.182-.079.46-.07.468.002.002 1.071-.2 2.376-.448s2.374-.45 2.376-.448.003.49.003 1.084l-.002 1.08-2.544.483c-1.399.267-2.547.486-2.55.488-.014.007-.13.258-.2.433A5.5 5.5 0 0 0 0 14.79c.004.003 5.375-1.019 5.447-1.037.33-.08.648-.268.864-.51.05-.056.037-.039.632-.828.373-.494.454-.605.485-.66a.7.7 0 0 0 .096-.307c.004-.034.006-.432.006-1.016 0-.91 0-.96.01-.963l.928-.177.933-.177.011-.003v3.442l.015-.001 3.02-.574 3.007-.572.045-.096a5.4 5.4 0 0 0 .498-1.728l-2.344.444-2.351.446c-.006 0-.007-.143-.007-.858 0-.814 0-.86.01-.861.004-.002.936-.18 2.07-.395s2.065-.392 2.07-.394c.013-.003.089-.161.167-.348a5.4 5.4 0 0 0 .385-1.476c-.003-.002-4.66.881-4.692.89-.01.002-.01-.147-.01-3.092 0-2.049-.002-3.095-.005-3.095a6.804 6.804 0 0 0-1.2.771c-.186.15-.453.396-.625.58l-.053.055v5.14l-.025.005-.93.177-.915.174-.012.003-.001-3.875L7.528 0zM12.997 13.595l-3.01.574-.03.006-.035.071a5.5 5.5 0 0 0-.476 1.501 3 3 0 0 0-.032.25c.001.002 5.96-1.13 6.03-1.145.008-.002.019-.02.048-.08a5.4 5.4 0 0 0 .506-1.722c.003-.022.002-.023-.01-.022-.006 0-1.352.255-2.99.567"/></g><defs><clipPath id="a"><path fill="#fff" d="M0 0h16v16H0z"/></clipPath></defs></svg>