<svg xmlns="http://www.w3.org/2000/svg" width="48" height="49" fill="none"><path fill="#188078" fill-rule="evenodd" d="M18 29.55c0-7.07 5.73-12.8 12.8-12.8s12.8 5.73 12.8 12.8c0 2.813-.907 5.414-2.445 7.526l4.26 4.26a2 2 0 1 1-2.83 2.828l-4.259-4.26A12.74 12.74 0 0 1 30.8 42.35c-7.07 0-12.8-5.73-12.8-12.8m12.8-8.8a8.8 8.8 0 1 0 0 17.6 8.8 8.8 0 0 0 0-17.6" clip-rule="evenodd"/><g fill="#188078" opacity=".4"><path d="M4 4.75a2 2 0 1 0 0 4h34a2 2 0 1 0 0-4zM2 20.75a2 2 0 0 1 2-2h10a2 2 0 1 1 0 4H4a2 2 0 0 1-2-2M2 34.75a2 2 0 0 1 2-2h10a2 2 0 1 1 0 4H4a2 2 0 0 1-2-2"/></g></svg>