<svg xmlns="http://www.w3.org/2000/svg" width="36" height="36" fill="none"><path fill="#fff" fill-rule="evenodd" d="M16.5 1.875C8.423 1.875 1.875 8.423 1.875 16.5S8.423 31.125 16.5 31.125c3.634 0 6.958-1.325 9.516-3.518l6.189 6.188a1.125 1.125 0 0 0 1.59-1.59l-6.189-6.19a14.57 14.57 0 0 0 3.519-9.515c0-8.077-6.548-14.625-14.625-14.625M4.125 16.5c0-6.835 5.54-12.375 12.375-12.375 6.834 0 12.375 5.54 12.375 12.375 0 6.834-5.54 12.375-12.375 12.375S4.125 23.335 4.125 16.5" clip-rule="evenodd"/></svg>