<svg xmlns="http://www.w3.org/2000/svg" width="87" height="64" fill="none"><g clip-path="url(#a)"><path fill="#45C0B5" d="M87.02 1.902 82.413.998c-1.842-.359-5.828.115-9.088 4.2-1.187 1.492-1.435 1.513-5.324.448-1.593-.436-3.577-.98-6.09-1.418-8.659-1.51-30.498-1.344-40.134.887-4.248.979-5.904-.298-8.204-2.069-1.835-1.414-4.12-3.173-7.696-3.173l-5.75.005 3.918 4.228c.032.035 3.145 3.437 3.933 7.47L4.882 23.651C4.233 26.19 3.88 28.577 3.81 30.94l-.01.645.008 1.194c.073 2.377.426 4.766 1.075 7.3 1.58 6.162 2.487 9.702 3.16 11.738-.676 4.18-3.965 7.774-3.995 7.806L.083 63.861h5.794c3.576 0 5.859-1.76 7.696-3.174 2.3-1.773 3.96-3.053 8.203-2.069 9.637 2.23 31.478 2.396 40.137.887 2.511-.438 4.493-.981 6.088-1.419 3.889-1.062 4.137-1.042 5.324.448 3.26 4.084 7.246 4.569 9.088 4.2l4.568-.906-3.268-3.334c-.021-.022-1.67-1.724-2.956-4.294l-.025-.039a4.57 4.57 0 0 1-.702-2.986c.686-2.278 2.18-7.18 2.415-7.945 2.19-7.026 2.24-15.372.137-22.33l-.355-1.174c-1.168-3.859-1.893-6.257-2.452-7.748 1.17-3.884 3.91-6.71 3.934-6.735z"/><path fill="#000" d="M36.31 40.288q-3.29 0-4.873-2.28t-1.584-6.384q0-4.104 1.584-6.384t4.872-2.28 4.872 2.28 1.584 6.384-1.584 6.384-4.872 2.28m0-3.048q1.44 0 1.991-1.056t.552-2.976V30.04q0-1.92-.552-2.976t-1.992-1.056-1.992 1.056-.552 2.976v3.168q0 1.92.552 2.976t1.992 1.056M45.756 40v-2.904h4.512V25.864h-.216l-3.408 4.464-2.304-1.8 4.008-5.28h5.52v13.848h3.552V40z"/></g><defs><clipPath id="a"><path fill="#fff" d="M0 0h87v64H0z"/></clipPath></defs></svg>