<svg xmlns="http://www.w3.org/2000/svg" width="500" height="500" fill="none"><path fill="#188078" d="M342 387.016s48-3 81-62 27-149-14-199-105-67-166-51c-29.722 7.796-49.541 28.016-66.669 52.388-14.92 21.231-31.697 41.699-54.281 55.136-22.362 13.304-45.348 23.916-56.64 49.202-27.481 61.536-7.398 133.136 57.59 157.274 70 26 187 12 219-2"/><path fill="#fff" d="M342 387.016s48-3 81-62 27-149-14-199-105-67-166-51c-29.722 7.796-49.541 28.016-66.669 52.388-14.92 21.231-31.697 41.699-54.281 55.136-22.362 13.304-45.348 23.916-56.64 49.202-27.481 61.536-7.398 133.136 57.59 157.274 70 26 187 12 219-2" opacity=".7"/><path fill="#188078" d="M255.167 431.016c94.348 0 170.833-6.716 170.833-15 0-8.285-76.485-15-170.833-15s-170.833 6.715-170.833 15 76.485 15 170.833 15"/><path fill="#fff" d="M255.167 431.016c94.348 0 170.833-6.716 170.833-15 0-8.285-76.485-15-170.833-15s-170.833 6.715-170.833 15 76.485 15 170.833 15" opacity=".5"/><path stroke="#263238" stroke-linecap="round" stroke-linejoin="round" stroke-miterlimit="10" d="M80.97 226.303v8.871M85.406 230.737h-8.87M383.637 150.303v8.871M388.072 154.737h-8.87M257.637 81.637v8.87M262.072 86.071h-8.87M111.637 325.637v8.87M116.072 330.071h-8.87M379.667 118.333a7.333 7.333 0 1 1-14.666 0 7.333 7.333 0 0 1 14.666 0M65.812 294.447a7.334 7.334 0 1 0-5.614-13.551 7.334 7.334 0 0 0 5.614 13.551M413 193.333a1.667 1.667 0 1 1-3.333 0 1.667 1.667 0 0 1 3.333 0M158.667 169.333a1.667 1.667 0 1 1-3.333 0 1.667 1.667 0 0 1 3.333 0"/><path fill="#263238" d="m438.925 267.671.034-.046-.057-.006-.023-.052-.034.047c-1.392-.14-15.782-1.374-28.915 5.449 5.091-6.566 8.512-15.066 7.435-25.836-3.169-31.693-33.08-49.841-35.383-51.194v-.085l-.073.042-.073-.042v.085c-2.303 1.353-32.214 19.501-35.383 51.194-.691 6.915.474 12.893 2.742 18.026-16.841-10.068-36.489-8.374-38.298-8.192l-.042-.057-.029.065-.07.008.042.057c-.888 2.051-12.13 29.074 1.376 52.044 12.077 20.539 37.407 15.11 44.283 13.181 5.784 6.073 16.319 19.888 20.977 43.474h-6.569l3.164 44.663h14.763l3.164-44.663h-7.725c4.548-19.855 12.13-34.745 18.856-44.918 6.889 1.713 25.533 4.613 34.721-11.014 10.959-18.639 1.837-40.565 1.117-42.23m-57.466-.175-15.601-21.668a.423.423 0 0 1 .097-.592.426.426 0 0 1 .592.096l14.938 20.747V244.13l-.026.033-15.601-21.668a.423.423 0 1 1 .689-.495l14.938 20.747v-31.953a.424.424 0 0 1 .848 0v30.889l16.201-20.547a.425.425 0 0 1 .667.526l-16.867 21.392v21.961l16.201-20.547a.425.425 0 0 1 .667.526l-16.867 21.392v18.568l16.201-20.547a.425.425 0 0 1 .667.526l-16.867 21.392v.404h-1.382l-15.093-20.963a.423.423 0 1 1 .689-.495l14.938 20.747v-18.555zm-24.785 52.896-1.538-2.104-21.952-6.121a.355.355 0 0 1 .19-.684l21.085 5.879-9.166-12.54-21.952-6.121a.355.355 0 0 1 .19-.683l21.085 5.879-10.842-14.832-21.952-6.121a.356.356 0 0 1 .191-.684l21.085 5.879-15.25-20.862a.355.355 0 0 1 .573-.419l15.775 21.581-.154-21.387a.354.354 0 0 1 .352-.357.354.354 0 0 1 .357.352l.161 22.336-.034-.009 10.836 14.824-.154-21.387a.356.356 0 0 1 .352-.357.354.354 0 0 1 .357.352l.161 22.336-.034-.009 9.16 12.532-.154-21.387a.354.354 0 1 1 .709-.006l.161 22.336-.034-.009 1.313 1.796h-.877zm2.495 0c3.206-4.868 12.441-20.865 6.925-36.252 5.544 3.679 10.827 5.928 13.683 7.003v69.434c-5.064-21.274-14.612-34.037-20.43-40.185zm24.002 35.91v-64.84c2.338-.834 7.476-2.869 13.086-6.377-8.807 14.119 1.058 30.426 3.659 34.273-5.803 8.836-12.147 21.06-16.745 36.944m54.922-67.688-17.812 4.967-8.797 12.035 17.108-4.77a.289.289 0 0 1 .155.555l-17.812 4.967-7.438 10.175 17.109-4.77a.288.288 0 0 1 .155.555l-17.812 4.967-.935 1.28c-.169-.098-.338-.196-.496-.298l.535-.732-.027.008.13-18.123a.288.288 0 0 1 .576.004l-.125 17.354 7.433-10.168-.028.008.13-18.123a.288.288 0 0 1 .576.004l-.125 17.354 8.792-12.028-.028.008.13-18.123a.288.288 0 0 1 .576.004l-.125 17.353 12.8-17.511a.29.29 0 0 1 .402-.063.29.29 0 0 1 .063.402L420.83 292.83l17.108-4.77a.29.29 0 0 1 .355.2.286.286 0 0 1-.2.354"/><path fill="#263238" stroke="#263238" stroke-linecap="round" stroke-linejoin="round" stroke-miterlimit="10" d="M340.889 414.677H186.482a6.747 6.747 0 0 1-6.747-6.747v-289.1a6.747 6.747 0 0 1 6.747-6.747h154.406a6.747 6.747 0 0 1 6.747 6.747v289.1a6.745 6.745 0 0 1-6.746 6.747"/><path fill="#fff" d="M335.566 414.677H181.16a6.747 6.747 0 0 1-6.747-6.747v-289.1a6.747 6.747 0 0 1 6.747-6.747h154.406a6.747 6.747 0 0 1 6.747 6.747v289.1a6.747 6.747 0 0 1-6.747 6.747"/><mask id="a" width="169" height="303" x="174" y="112" maskUnits="userSpaceOnUse" style="mask-type:luminance"><path fill="#fff" d="M335.566 414.677H181.16a6.747 6.747 0 0 1-6.747-6.747v-289.1a6.747 6.747 0 0 1 6.747-6.747h154.406a6.747 6.747 0 0 1 6.747 6.747v289.1a6.747 6.747 0 0 1-6.747 6.747"/></mask><g mask="url(#a)"><path fill="#188078" d="M342.313 226.261 194.669 414.677h140.897a6.747 6.747 0 0 0 6.747-6.747z"/></g><mask id="b" width="169" height="303" x="174" y="112" maskUnits="userSpaceOnUse" style="mask-type:luminance"><path fill="#fff" d="M335.566 414.677H181.16a6.747 6.747 0 0 1-6.747-6.747v-289.1a6.747 6.747 0 0 1 6.747-6.747h154.406a6.747 6.747 0 0 1 6.747 6.747v289.1a6.747 6.747 0 0 1-6.747 6.747"/></mask><g mask="url(#b)"><path fill="#fff" d="M342.313 226.261 194.669 414.677h140.897a6.747 6.747 0 0 0 6.747-6.747z" opacity=".5"/></g><path stroke="#263238" stroke-linecap="round" stroke-linejoin="round" stroke-miterlimit="10" d="M335.566 414.677H181.16a6.747 6.747 0 0 1-6.747-6.747v-289.1a6.747 6.747 0 0 1 6.747-6.747h154.406a6.747 6.747 0 0 1 6.747 6.747v289.1a6.747 6.747 0 0 1-6.747 6.747"/><path fill="#263238" stroke="#263238" stroke-linecap="round" stroke-linejoin="round" stroke-miterlimit="10" d="M269.97 130.158h-20.902a2.144 2.144 0 0 1 0-4.288h20.902a2.144 2.144 0 0 1 0 4.288M331.703 387.63h-146.68V130.406h34.767l3.911 3.245a7.62 7.62 0 0 0 4.863 1.755h61.341c1.85 0 3.636-.673 5.026-1.894l3.535-3.106h33.236z"/><path stroke="#fff" stroke-linecap="round" stroke-linejoin="round" stroke-miterlimit="10" d="M212.541 332.171h91.644M212.541 344.229h91.644M212.541 356.288h91.644M221.034 220.203a45.13 45.13 0 0 0-8.016 25.75c0 25.044 20.302 45.346 45.346 45.346s45.346-20.302 45.346-45.346-20.302-45.346-45.346-45.346c-2.832 0-5.602.26-8.29.756M228.734 211.626a45.5 45.5 0 0 0-4.303 4.247"/><path fill="#188078" d="M293.746 261.034c8.325-19.55-.774-42.147-20.323-50.473-19.55-8.325-42.147.774-50.473 20.323-8.326 19.55.773 42.147 20.323 50.473s42.147-.773 50.473-20.323"/><path stroke="#263238" stroke-linecap="round" stroke-linejoin="round" stroke-miterlimit="10" stroke-width="6" d="m240.592 241.974 14.595 16.584 23.882-33.832"/><path fill="#188078" stroke="#263238" stroke-linecap="round" stroke-linejoin="round" stroke-miterlimit="10" d="M294.931 133.512a7.6 7.6 0 0 1-5.026 1.894h-61.341a7.62 7.62 0 0 1-4.863-1.755l-3.911-3.245h-34.767v26.316h146.679v-26.316h-33.236z"/><path fill="#263238" stroke="#263238" stroke-linecap="round" stroke-linejoin="round" stroke-miterlimit="10" d="M263.048 395.557a3.333 3.333 0 1 0-6.665 0 3.333 3.333 0 0 0 6.665 0M132.578 293.259l-13.08 116.992s-9.589 8.341-8.75 11.713 11.915-1.971 13.441-4.78 2.3-7.287 2.3-7.287l27.544-87.97 21.177 94.372s9.054 7.393 14.047 7.14 3.225-2.212.372-5.823-9.3-5.675-9.3-5.675l-3.176-121.629z"/><path fill="#263238" stroke="#263238" stroke-linecap="round" stroke-linejoin="round" stroke-miterlimit="10" d="m176.367 288.254-43.943 2.23.304 5.993 43.943-2.231z"/><path fill="#fff" d="M159.697 292.054c.076 1.486-1.82 2.79-4.235 2.912-2.414.123-4.433-.982-4.508-2.468s1.82-2.79 4.235-2.912c2.414-.123 4.433.982 4.508 2.468"/><path fill="#fff" stroke="#263238" stroke-linecap="round" stroke-linejoin="round" stroke-miterlimit="10" d="m152.172 230.57-16.525 4.844 2.054 55.217 38.751-.967-4.902-57.075z"/><path fill="#188078" stroke="#263238" stroke-linecap="round" stroke-linejoin="round" stroke-miterlimit="10" d="m144.945 231.188-2.221 94.233-21.044-10.195 9.252-29.758-6.308-50.243zM161.674 230.338l11.76 93.524 19.903-12.276-12.22-28.667 1.182-50.625z"/><path fill="#263238" stroke="#263238" stroke-linecap="round" stroke-linejoin="round" stroke-miterlimit="10" d="m149.152 241.738 3.275 5.341-2.617 37.181 6.215 7.36 3.222-8.841-4.981-35.627 3.076-5.162-4.466-5.781z"/><path fill="#fff" stroke="#263238" stroke-linecap="round" stroke-linejoin="round" stroke-miterlimit="10" d="m153.204 241.032-6.188 4.653-4.954-12.098 2.786-4.313 15.146-.77 3.583 4.825-2.945 10.997z"/><path fill="#fff" stroke="#263238" stroke-linecap="round" stroke-linejoin="round" stroke-miterlimit="10" d="m146.112 224.62 1.392 7.69 5.7 8.722 5.235-10.279-.329-6.492z"/><path fill="#188078" stroke="#263238" stroke-linecap="round" stroke-linejoin="round" stroke-miterlimit="10" d="m124.624 235.225-28.063 33.967 18.645 22.083 7.511-4.888-9.216-18.806 13.763-9.962z"/><path fill="#fff" stroke="#263238" stroke-linecap="round" stroke-linejoin="round" stroke-miterlimit="10" d="m122.717 286.387 1.126 2.446-6.327 3.576-.85-1.96z"/><path fill="#fff" stroke="#263238" stroke-linecap="round" stroke-linejoin="round" stroke-miterlimit="10" d="m123.842 288.833 6.436 8.434-2.12 2.611-1.536-.673-3.119 2.662s-2.285-.635-2.573-1.371-3.385-2.582-3.449-3.83c-.063-1.248.034-4.257.034-4.257zM197.927 238.923s.71-1.922.246-3.111-1.482-5.313-1.282-6.67 2.254-3.347 2.434-5.107-.036-3.365.05-4.313c.087-.947 1.262-1.681 2.263-.519 1.002 1.161 1.601 2.343 1.125 3.58-.476 1.236-.46 4.199-.46 4.199s1.594 2.209 2.475 3.646.804 5.212.207 6.724-2.275 2.944-2.275 2.944l.096 2.608z"/><path fill="#fff" stroke="#263238" stroke-linecap="round" stroke-linejoin="round" stroke-miterlimit="10" d="M200.851 224.899s-.704 2.056.533 2.532c1.236.476 6.255 1.164 6.308-.455s.146-2.432-.66-2.391-4.581-.037-4.581-.037-1.755-.045-1.6.351M201.423 234.976s-.504 1.53.387 1.886 4.506.874 4.542-.331.102-1.811-.479-1.781c-.58.029-3.299-.033-3.299-.033s-1.263-.036-1.151.259M200.75 231.734s-.584 1.772.448 2.184 5.218 1.013 5.26-.383.118-2.097-.554-2.063-3.821-.038-3.821-.038-1.462-.042-1.333.3"/><path fill="#fff" stroke="#263238" stroke-linecap="round" stroke-linejoin="round" stroke-miterlimit="10" d="M200.364 228.562s-.704 2.056.533 2.532c1.236.476 6.255 1.164 6.307-.455s.146-2.432-.66-2.391-4.582-.037-4.582-.037-1.753-.045-1.598.351M197.356 240.972l.784-3.138 5.417 3.227-.904 3.414z"/><path fill="#188078" stroke="#263238" stroke-linecap="round" stroke-linejoin="round" stroke-miterlimit="10" d="m182.298 232.294 10.384 22.085 5.094-14.205 4.998 4.753-5.117 26.349c-.708 3.646-5.433 4.677-7.596 1.657l-8.289-11.574z"/><path fill="#fff" stroke="#263238" stroke-linecap="round" stroke-linejoin="round" stroke-miterlimit="10" d="M141.278 215.636s-2.095-2.235-2.372-.6.587 4.473 1.9 5.487 2.488-.667 2.488-.667zM161.127 214.628s1.858-2.436 2.299-.837-.131 4.51-1.334 5.651-2.542-.411-2.542-.411z"/><path fill="#263238" stroke="#263238" stroke-linecap="round" stroke-linejoin="round" stroke-miterlimit="10" d="m142.116 217.935-2.016-4.22s-2.311-2.945-3.267-7.579.649-8.498 2.75-9.686c2.101-1.187 3.925-.74 3.925-.74s.402-2.722 6.949-5.036 13.781 1.821 13.675 3.268c-.107 1.446-1.876 2.076-1.876 2.076s5.14 1.9 3.282 4.336-4.327 3.462-4.327 3.462.648 2.128.91 3.736-1.188 8.526-1.188 8.526l-3.556-9.726-11.138.566s-.661 4.716-1.836 6.397-1.227 4.205-1.227 4.205-.448 1.825-1.06.415"/><path fill="#fff" stroke="#263238" stroke-linecap="round" stroke-linejoin="round" stroke-miterlimit="10" d="M144.104 200.362s-.067 5.767-.64 8.678-2.314 4.08-2.314 4.08 1.416 6.592 3.215 10.103 5.548 6.382 9.311 6.011 6.787-4.668 7.144-8.288c.356-3.62-1.406-17.039-1.406-17.039s-11.784 2.039-15.31-3.545"/><path stroke="#263238" stroke-linecap="round" stroke-linejoin="round" stroke-miterlimit="10" d="M145.095 213.892s2.107-1.276 3.999-.203M144.942 210.893s.232-2.016 3.564-2.186M153.829 208.27s2.615-1.135 4.4 1.113M152.657 211.504s.536 3.982.562 4.482c.025.5 1.7.582 1.251 1.607s-1.898 2.101-3.106 1.327M154.54 222.267s-1.274 1.234-3.832.195"/><path fill="#263238" d="M157.065 212.783c.037.736-.305 1.352-.765 1.375s-.863-.555-.901-1.291c-.037-.736.305-1.352.765-1.375.461-.023.864.555.901 1.291"/></svg>