<svg width="500" height="500" viewBox="0 0 500 500" fill="none" xmlns="http://www.w3.org/2000/svg">
<path d="M342 387.016C342 387.016 390 384.016 423 325.016C456 266.016 450 176.016 409 126.016C368 76.0164 304 59.0164 243 75.0164C213.278 82.8124 193.459 103.032 176.331 127.404C161.411 148.635 144.634 169.103 122.05 182.54C99.6877 195.844 76.7017 206.456 65.4097 231.742C37.9287 293.278 58.0117 364.878 123 389.016C193 415.016 310 401.016 342 387.016Z" fill="#188078"/>
<path opacity="0.7" d="M342 387.016C342 387.016 390 384.016 423 325.016C456 266.016 450 176.016 409 126.016C368 76.0164 304 59.0164 243 75.0164C213.278 82.8124 193.459 103.032 176.331 127.404C161.411 148.635 144.634 169.103 122.05 182.54C99.6877 195.844 76.7017 206.456 65.4097 231.742C37.9287 293.278 58.0117 364.878 123 389.016C193 415.016 310 401.016 342 387.016Z" fill="white"/>
<path d="M255.167 431.016C349.515 431.016 426 424.3 426 416.016C426 407.731 349.515 401.016 255.167 401.016C160.819 401.016 84.334 407.731 84.334 416.016C84.334 424.3 160.819 431.016 255.167 431.016Z" fill="#188078"/>
<path opacity="0.5" d="M255.167 431.016C349.515 431.016 426 424.3 426 416.016C426 407.731 349.515 401.016 255.167 401.016C160.819 401.016 84.334 407.731 84.334 416.016C84.334 424.3 160.819 431.016 255.167 431.016Z" fill="white"/>
<path d="M80.9697 226.303V235.174" stroke="#263238" stroke-miterlimit="10" stroke-linecap="round" stroke-linejoin="round"/>
<path d="M85.4062 230.737H76.5352" stroke="#263238" stroke-miterlimit="10" stroke-linecap="round" stroke-linejoin="round"/>
<path d="M383.637 150.303V159.174" stroke="#263238" stroke-miterlimit="10" stroke-linecap="round" stroke-linejoin="round"/>
<path d="M388.072 154.737H379.202" stroke="#263238" stroke-miterlimit="10" stroke-linecap="round" stroke-linejoin="round"/>
<path d="M257.637 81.6367V90.5067" stroke="#263238" stroke-miterlimit="10" stroke-linecap="round" stroke-linejoin="round"/>
<path d="M262.072 86.0713H253.202" stroke="#263238" stroke-miterlimit="10" stroke-linecap="round" stroke-linejoin="round"/>
<path d="M111.637 325.637V334.507" stroke="#263238" stroke-miterlimit="10" stroke-linecap="round" stroke-linejoin="round"/>
<path d="M116.072 330.071H107.202" stroke="#263238" stroke-miterlimit="10" stroke-linecap="round" stroke-linejoin="round"/>
<path d="M379.667 118.333C379.667 122.383 376.384 125.666 372.334 125.666C368.284 125.666 365.001 122.383 365.001 118.333C365.001 114.283 368.284 111 372.334 111C376.383 111 379.667 114.283 379.667 118.333Z" stroke="#263238" stroke-miterlimit="10" stroke-linecap="round" stroke-linejoin="round"/>
<path d="M65.8124 294.447C69.5541 292.897 71.331 288.607 69.7811 284.865C68.2312 281.124 63.9415 279.347 60.1998 280.897C56.4581 282.447 54.6812 286.736 56.2311 290.478C57.781 294.22 62.0707 295.997 65.8124 294.447Z" stroke="#263238" stroke-miterlimit="10" stroke-linecap="round" stroke-linejoin="round"/>
<path d="M413 193.333C413 194.254 412.254 195 411.333 195C410.413 195 409.666 194.254 409.666 193.333C409.666 192.413 410.412 191.666 411.333 191.666C412.254 191.667 413 192.413 413 193.333Z" stroke="#263238" stroke-miterlimit="10" stroke-linecap="round" stroke-linejoin="round"/>
<path d="M158.667 169.333C158.667 170.254 157.921 171 157 171C156.079 171 155.333 170.254 155.333 169.333C155.333 168.413 156.079 167.666 157 167.666C157.921 167.666 158.667 168.413 158.667 169.333Z" stroke="#263238" stroke-miterlimit="10" stroke-linecap="round" stroke-linejoin="round"/>
<path d="M438.925 267.671L438.959 267.625C438.959 267.625 438.937 267.623 438.902 267.619C438.888 267.586 438.879 267.567 438.879 267.567L438.845 267.614C437.453 267.474 423.063 266.24 409.93 273.063C415.021 266.497 418.442 257.997 417.365 247.227C414.196 215.534 384.285 197.386 381.982 196.033V195.948C381.982 195.948 381.954 195.964 381.909 195.99C381.864 195.964 381.836 195.948 381.836 195.948V196.033C379.533 197.386 349.622 215.534 346.453 247.227C345.762 254.142 346.927 260.12 349.195 265.253C332.354 255.185 312.706 256.879 310.897 257.061L310.855 257.004C310.855 257.004 310.844 257.029 310.826 257.069C310.783 257.074 310.756 257.077 310.756 257.077L310.798 257.134C309.91 259.185 298.668 286.208 312.174 309.178C324.251 329.717 349.581 324.288 356.457 322.359C362.241 328.432 372.776 342.247 377.434 365.833H370.865L374.029 410.496H388.792L391.956 365.833H384.231C388.779 345.978 396.361 331.088 403.087 320.915C409.976 322.628 428.62 325.528 437.808 309.901C448.767 291.262 439.645 269.336 438.925 267.671ZM381.459 267.496L365.858 245.828C365.721 245.638 365.764 245.373 365.955 245.236C366.145 245.1 366.411 245.143 366.547 245.332L381.485 266.079V244.13L381.459 244.163L365.858 222.495C365.721 222.305 365.764 222.04 365.955 221.903C366.145 221.767 366.411 221.809 366.547 222L381.485 242.747V210.794C381.485 210.56 381.675 210.37 381.909 210.37C382.143 210.37 382.333 210.56 382.333 210.794V241.683L398.534 221.136C398.68 220.952 398.946 220.921 399.13 221.066C399.314 221.211 399.346 221.478 399.201 221.662L382.334 243.054V265.015L398.535 244.468C398.681 244.284 398.947 244.253 399.131 244.398C399.315 244.543 399.347 244.81 399.202 244.994L382.335 266.386V284.954L398.536 264.407C398.682 264.223 398.948 264.192 399.132 264.337C399.316 264.482 399.348 264.749 399.203 264.933L382.336 286.325V286.729H380.954L365.861 265.766C365.724 265.576 365.767 265.311 365.958 265.174C366.148 265.038 366.414 265.081 366.55 265.271L381.488 286.018V267.463L381.459 267.496ZM356.674 320.392L355.136 318.288L333.184 312.167C332.995 312.114 332.885 311.919 332.937 311.73C332.99 311.542 333.185 311.432 333.374 311.483L354.459 317.362L345.293 304.822L323.341 298.701C323.152 298.648 323.042 298.453 323.094 298.264C323.146 298.076 323.342 297.966 323.531 298.018L344.616 303.897L333.774 289.065L311.822 282.944C311.633 282.891 311.523 282.696 311.576 282.507C311.628 282.319 311.824 282.208 312.013 282.26L333.098 288.139L317.848 267.277C317.732 267.119 317.767 266.897 317.925 266.781C318.083 266.665 318.305 266.7 318.421 266.858L334.196 288.439L334.042 267.052C334.04 266.856 334.198 266.696 334.394 266.695C334.59 266.693 334.75 266.851 334.751 267.047L334.912 289.383L334.878 289.374L345.714 304.198L345.56 282.811C345.558 282.616 345.717 282.456 345.912 282.454C346.108 282.452 346.268 282.61 346.269 282.806L346.43 305.142L346.396 305.133L355.556 317.665L355.402 296.278C355.401 296.083 355.559 295.923 355.754 295.92C355.95 295.919 356.11 296.076 356.111 296.272L356.272 318.608L356.238 318.599L357.551 320.395H356.674V320.392ZM359.169 320.392C362.375 315.524 371.61 299.527 366.094 284.14C371.638 287.819 376.921 290.068 379.777 291.143V360.577C374.713 339.303 365.165 326.54 359.347 320.392H359.169ZM383.171 356.302V291.462C385.509 290.628 390.647 288.593 396.257 285.085C387.45 299.204 397.315 315.511 399.916 319.358C394.113 328.194 387.769 340.418 383.171 356.302ZM438.093 288.614L420.281 293.581L411.484 305.616L428.592 300.846C428.746 300.804 428.904 300.893 428.947 301.046C428.99 301.199 428.9 301.358 428.747 301.401L410.935 306.368L403.497 316.543L420.606 311.773C420.759 311.731 420.918 311.82 420.961 311.973C421.004 312.126 420.914 312.285 420.761 312.328L402.949 317.295L402.014 318.575C401.845 318.477 401.676 318.379 401.518 318.277L402.053 317.545L402.026 317.553L402.156 299.43C402.157 299.271 402.287 299.143 402.446 299.144C402.605 299.146 402.733 299.275 402.732 299.434L402.607 316.788L410.04 306.62L410.012 306.628L410.142 288.505C410.143 288.346 410.273 288.218 410.432 288.219C410.59 288.221 410.719 288.351 410.718 288.509L410.593 305.863L419.385 293.835L419.357 293.843L419.487 275.72C419.488 275.561 419.618 275.433 419.777 275.434C419.936 275.435 420.064 275.565 420.063 275.724L419.938 293.077L432.738 275.566C432.832 275.438 433.012 275.41 433.14 275.503C433.268 275.597 433.296 275.777 433.203 275.905L420.83 292.83L437.938 288.06C438.092 288.018 438.25 288.107 438.293 288.26C438.336 288.413 438.247 288.572 438.093 288.614Z" fill="#263238"/>
<path d="M340.889 414.677H186.482C182.756 414.677 179.735 411.656 179.735 407.93V118.83C179.735 115.104 182.756 112.083 186.482 112.083H340.888C344.614 112.083 347.635 115.104 347.635 118.83V407.93C347.636 411.657 344.615 414.677 340.889 414.677Z" fill="#263238" stroke="#263238" stroke-miterlimit="10" stroke-linecap="round" stroke-linejoin="round"/>
<path d="M335.566 414.677H181.16C177.434 414.677 174.413 411.656 174.413 407.93V118.83C174.413 115.104 177.434 112.083 181.16 112.083H335.566C339.292 112.083 342.313 115.104 342.313 118.83V407.93C342.313 411.657 339.292 414.677 335.566 414.677Z" fill="white"/>
<mask id="mask0_773_220988" style="mask-type:luminance" maskUnits="userSpaceOnUse" x="174" y="112" width="169" height="303">
<path d="M335.566 414.677H181.16C177.434 414.677 174.413 411.656 174.413 407.93V118.83C174.413 115.104 177.434 112.083 181.16 112.083H335.566C339.292 112.083 342.313 115.104 342.313 118.83V407.93C342.313 411.657 339.292 414.677 335.566 414.677Z" fill="white"/>
</mask>
<g mask="url(#mask0_773_220988)">
<path d="M342.313 226.261L194.669 414.677H335.566C339.292 414.677 342.313 411.656 342.313 407.93V226.261Z" fill="#188078"/>
</g>
<mask id="mask1_773_220988" style="mask-type:luminance" maskUnits="userSpaceOnUse" x="174" y="112" width="169" height="303">
<path d="M335.566 414.677H181.16C177.434 414.677 174.413 411.656 174.413 407.93V118.83C174.413 115.104 177.434 112.083 181.16 112.083H335.566C339.292 112.083 342.313 115.104 342.313 118.83V407.93C342.313 411.657 339.292 414.677 335.566 414.677Z" fill="white"/>
</mask>
<g mask="url(#mask1_773_220988)">
<path opacity="0.5" d="M342.313 226.261L194.669 414.677H335.566C339.292 414.677 342.313 411.656 342.313 407.93V226.261Z" fill="white"/>
</g>
<path d="M335.566 414.677H181.16C177.434 414.677 174.413 411.656 174.413 407.93V118.83C174.413 115.104 177.434 112.083 181.16 112.083H335.566C339.292 112.083 342.313 115.104 342.313 118.83V407.93C342.313 411.657 339.292 414.677 335.566 414.677Z" stroke="#263238" stroke-miterlimit="10" stroke-linecap="round" stroke-linejoin="round"/>
<path d="M269.97 130.158H249.068C247.884 130.158 246.924 129.198 246.924 128.014C246.924 126.83 247.884 125.87 249.068 125.87H269.97C271.154 125.87 272.114 126.83 272.114 128.014C272.114 129.199 271.154 130.158 269.97 130.158Z" fill="#263238" stroke="#263238" stroke-miterlimit="10" stroke-linecap="round" stroke-linejoin="round"/>
<path d="M331.703 387.63H185.023V130.406H219.79L223.701 133.651C225.068 134.785 226.788 135.406 228.564 135.406H289.905C291.755 135.406 293.541 134.733 294.931 133.512L298.466 130.406H331.702V387.63H331.703Z" fill="#263238" stroke="#263238" stroke-miterlimit="10" stroke-linecap="round" stroke-linejoin="round"/>
<path d="M212.541 332.171H304.185" stroke="white" stroke-miterlimit="10" stroke-linecap="round" stroke-linejoin="round"/>
<path d="M212.541 344.229H304.185" stroke="white" stroke-miterlimit="10" stroke-linecap="round" stroke-linejoin="round"/>
<path d="M212.541 356.288H304.185" stroke="white" stroke-miterlimit="10" stroke-linecap="round" stroke-linejoin="round"/>
<path d="M221.034 220.203C215.979 227.517 213.018 236.389 213.018 245.953C213.018 270.997 233.32 291.299 258.364 291.299C283.408 291.299 303.71 270.997 303.71 245.953C303.71 220.909 283.408 200.607 258.364 200.607C255.532 200.607 252.762 200.867 250.074 201.363" stroke="white" stroke-miterlimit="10" stroke-linecap="round" stroke-linejoin="round"/>
<path d="M228.734 211.626C227.207 212.945 225.769 214.364 224.431 215.873" stroke="white" stroke-miterlimit="10" stroke-linecap="round" stroke-linejoin="round"/>
<path d="M293.746 261.034C302.071 241.484 292.972 218.887 273.423 210.561C253.873 202.236 231.276 211.335 222.95 230.884C214.624 250.434 223.723 273.031 243.273 281.357C262.823 289.683 285.42 280.584 293.746 261.034Z" fill="#188078"/>
<path d="M240.592 241.974L255.187 258.558L279.069 224.726" stroke="#263238" stroke-width="6" stroke-miterlimit="10" stroke-linecap="round" stroke-linejoin="round"/>
<path d="M294.931 133.512C293.541 134.733 291.755 135.406 289.905 135.406H228.564C226.788 135.406 225.068 134.785 223.701 133.651L219.79 130.406H185.023V156.722H331.702V130.406H298.466L294.931 133.512Z" fill="#188078" stroke="#263238" stroke-miterlimit="10" stroke-linecap="round" stroke-linejoin="round"/>
<path d="M263.048 395.557C263.048 393.716 261.556 392.224 259.715 392.224C257.874 392.224 256.382 393.716 256.382 395.557C256.382 397.398 257.874 398.89 259.715 398.89C261.556 398.89 263.048 397.398 263.048 395.557Z" fill="#263238" stroke="#263238" stroke-miterlimit="10" stroke-linecap="round" stroke-linejoin="round"/>
<path d="M132.578 293.259L119.498 410.251C119.498 410.251 109.909 418.592 110.748 421.964C111.587 425.335 122.663 419.993 124.189 417.184C125.715 414.375 126.489 409.897 126.489 409.897L154.033 321.927L175.21 416.299C175.21 416.299 184.264 423.692 189.257 423.439C194.25 423.185 192.482 421.227 189.629 417.616C186.775 414.005 180.329 411.941 180.329 411.941L177.153 290.312L132.578 293.259Z" fill="#263238" stroke="#263238" stroke-miterlimit="10" stroke-linecap="round" stroke-linejoin="round"/>
<path d="M176.367 288.254L132.424 290.484L132.728 296.477L176.671 294.246L176.367 288.254Z" fill="#263238" stroke="#263238" stroke-miterlimit="10" stroke-linecap="round" stroke-linejoin="round"/>
<path d="M159.697 292.054C159.773 293.54 157.877 294.844 155.462 294.966C153.048 295.089 151.029 293.984 150.954 292.498C150.878 291.012 152.774 289.708 155.189 289.586C157.603 289.463 159.622 290.568 159.697 292.054Z" fill="white"/>
<path d="M152.172 230.57L135.647 235.414L137.701 290.631L176.452 289.664L171.55 232.589L152.172 230.57Z" fill="white" stroke="#263238" stroke-miterlimit="10" stroke-linecap="round" stroke-linejoin="round"/>
<path d="M144.945 231.188L142.724 325.421L121.68 315.226L130.932 285.468L124.624 235.225L144.945 231.188Z" fill="#188078" stroke="#263238" stroke-miterlimit="10" stroke-linecap="round" stroke-linejoin="round"/>
<path d="M161.674 230.338L173.434 323.862L193.337 311.586L181.117 282.919L182.299 232.294L161.674 230.338Z" fill="#188078" stroke="#263238" stroke-miterlimit="10" stroke-linecap="round" stroke-linejoin="round"/>
<path d="M149.152 241.738L152.427 247.079L149.81 284.26L156.025 291.62L159.247 282.779L154.266 247.152L157.342 241.99L152.876 236.209L149.152 241.738Z" fill="#263238" stroke="#263238" stroke-miterlimit="10" stroke-linecap="round" stroke-linejoin="round"/>
<path d="M153.204 241.032L147.016 245.685L142.062 233.587L144.848 229.274L159.994 228.504L163.577 233.329L160.632 244.326L153.204 241.032Z" fill="white" stroke="#263238" stroke-miterlimit="10" stroke-linecap="round" stroke-linejoin="round"/>
<path d="M146.112 224.62L147.504 232.31L153.204 241.032L158.439 230.753L158.11 224.261L146.112 224.62Z" fill="white" stroke="#263238" stroke-miterlimit="10" stroke-linecap="round" stroke-linejoin="round"/>
<path d="M124.624 235.225L96.5605 269.192L115.206 291.275L122.717 286.387L113.501 267.581L127.264 257.619L124.624 235.225Z" fill="#188078" stroke="#263238" stroke-miterlimit="10" stroke-linecap="round" stroke-linejoin="round"/>
<path d="M122.717 286.387L123.843 288.833L117.516 292.409L116.666 290.449L122.717 286.387Z" fill="white" stroke="#263238" stroke-miterlimit="10" stroke-linecap="round" stroke-linejoin="round"/>
<path d="M123.842 288.833L130.278 297.267L128.158 299.878L126.622 299.205L123.503 301.867C123.503 301.867 121.218 301.232 120.93 300.496C120.642 299.76 117.545 297.914 117.481 296.666C117.418 295.418 117.515 292.409 117.515 292.409L123.842 288.833Z" fill="white" stroke="#263238" stroke-miterlimit="10" stroke-linecap="round" stroke-linejoin="round"/>
<path d="M197.927 238.923C197.927 238.923 198.637 237.001 198.173 235.812C197.709 234.623 196.691 230.499 196.891 229.142C197.091 227.785 199.145 225.795 199.325 224.035C199.505 222.275 199.289 220.67 199.375 219.722C199.462 218.775 200.637 218.041 201.638 219.203C202.64 220.364 203.239 221.546 202.763 222.783C202.287 224.019 202.303 226.982 202.303 226.982C202.303 226.982 203.897 229.191 204.778 230.628C205.659 232.065 205.582 235.84 204.985 237.352C204.388 238.864 202.71 240.296 202.71 240.296L202.806 242.904L197.927 238.923Z" fill="white" stroke="#263238" stroke-miterlimit="10" stroke-linecap="round" stroke-linejoin="round"/>
<path d="M200.851 224.899C200.851 224.899 200.147 226.955 201.384 227.431C202.62 227.907 207.639 228.595 207.692 226.976C207.744 225.357 207.838 224.544 207.032 224.585C206.226 224.626 202.451 224.548 202.451 224.548C202.451 224.548 200.696 224.503 200.851 224.899Z" fill="white" stroke="#263238" stroke-miterlimit="10" stroke-linecap="round" stroke-linejoin="round"/>
<path d="M201.423 234.976C201.423 234.976 200.919 236.506 201.81 236.862C202.701 237.218 206.316 237.736 206.352 236.531C206.388 235.326 206.454 234.72 205.873 234.75C205.293 234.779 202.574 234.717 202.574 234.717C202.574 234.717 201.311 234.681 201.423 234.976Z" fill="white" stroke="#263238" stroke-miterlimit="10" stroke-linecap="round" stroke-linejoin="round"/>
<path d="M200.75 231.734C200.75 231.734 200.166 233.506 201.198 233.918C202.23 234.33 206.416 234.931 206.458 233.535C206.499 232.139 206.576 231.438 205.904 231.472C205.232 231.506 202.083 231.434 202.083 231.434C202.083 231.434 200.621 231.392 200.75 231.734Z" fill="white" stroke="#263238" stroke-miterlimit="10" stroke-linecap="round" stroke-linejoin="round"/>
<path d="M200.364 228.562C200.364 228.562 199.66 230.618 200.897 231.094C202.133 231.57 207.152 232.258 207.204 230.639C207.257 229.02 207.35 228.207 206.544 228.248C205.738 228.289 201.962 228.211 201.962 228.211C201.962 228.211 200.209 228.166 200.364 228.562Z" fill="white" stroke="#263238" stroke-miterlimit="10" stroke-linecap="round" stroke-linejoin="round"/>
<path d="M197.356 240.972L198.14 237.834L203.557 241.061L202.653 244.475L197.356 240.972Z" fill="white" stroke="#263238" stroke-miterlimit="10" stroke-linecap="round" stroke-linejoin="round"/>
<path d="M182.298 232.294L192.682 254.379L197.776 240.174L202.774 244.927L197.657 271.276C196.949 274.922 192.224 275.953 190.061 272.933L181.772 261.359L182.298 232.294Z" fill="#188078" stroke="#263238" stroke-miterlimit="10" stroke-linecap="round" stroke-linejoin="round"/>
<path d="M141.278 215.636C141.278 215.636 139.183 213.401 138.906 215.036C138.629 216.671 139.493 219.509 140.806 220.523C142.118 221.537 143.294 219.856 143.294 219.856L141.278 215.636Z" fill="white" stroke="#263238" stroke-miterlimit="10" stroke-linecap="round" stroke-linejoin="round"/>
<path d="M161.127 214.628C161.127 214.628 162.985 212.192 163.426 213.791C163.867 215.39 163.295 218.301 162.092 219.442C160.889 220.584 159.55 219.031 159.55 219.031L161.127 214.628Z" fill="white" stroke="#263238" stroke-miterlimit="10" stroke-linecap="round" stroke-linejoin="round"/>
<path d="M142.116 217.935L140.1 213.715C140.1 213.715 137.789 210.77 136.833 206.136C135.877 201.502 137.482 197.638 139.583 196.45C141.684 195.263 143.508 195.71 143.508 195.71C143.508 195.71 143.91 192.988 150.457 190.674C157.004 188.36 164.238 192.495 164.132 193.942C164.025 195.388 162.256 196.018 162.256 196.018C162.256 196.018 167.396 197.918 165.538 200.354C163.68 202.79 161.211 203.816 161.211 203.816C161.211 203.816 161.859 205.944 162.121 207.552C162.383 209.16 160.933 216.078 160.933 216.078L157.377 206.352L146.239 206.918C146.239 206.918 145.578 211.634 144.403 213.315C143.228 214.996 143.176 217.52 143.176 217.52C143.176 217.52 142.728 219.345 142.116 217.935Z" fill="#263238" stroke="#263238" stroke-miterlimit="10" stroke-linecap="round" stroke-linejoin="round"/>
<path d="M144.104 200.362C144.104 200.362 144.037 206.129 143.464 209.04C142.891 211.951 141.15 213.12 141.15 213.12C141.15 213.12 142.566 219.712 144.365 223.223C146.164 226.734 149.913 229.605 153.676 229.234C157.439 228.863 160.463 224.566 160.82 220.946C161.176 217.326 159.414 203.907 159.414 203.907C159.414 203.907 147.63 205.946 144.104 200.362Z" fill="white" stroke="#263238" stroke-miterlimit="10" stroke-linecap="round" stroke-linejoin="round"/>
<path d="M145.095 213.892C145.095 213.892 147.202 212.616 149.094 213.689" stroke="#263238" stroke-miterlimit="10" stroke-linecap="round" stroke-linejoin="round"/>
<path d="M144.942 210.893C144.942 210.893 145.174 208.877 148.506 208.707" stroke="#263238" stroke-miterlimit="10" stroke-linecap="round" stroke-linejoin="round"/>
<path d="M153.829 208.27C153.829 208.27 156.444 207.135 158.229 209.383" stroke="#263238" stroke-miterlimit="10" stroke-linecap="round" stroke-linejoin="round"/>
<path d="M152.657 211.504C152.657 211.504 153.193 215.486 153.219 215.986C153.244 216.486 154.919 216.568 154.47 217.593C154.021 218.618 152.572 219.694 151.364 218.92" stroke="#263238" stroke-miterlimit="10" stroke-linecap="round" stroke-linejoin="round"/>
<path d="M154.54 222.267C154.54 222.267 153.266 223.501 150.708 222.462" stroke="#263238" stroke-miterlimit="10" stroke-linecap="round" stroke-linejoin="round"/>
<path d="M157.065 212.783C157.102 213.519 156.76 214.135 156.3 214.158C155.84 214.181 155.437 213.603 155.399 212.867C155.362 212.131 155.704 211.515 156.164 211.492C156.625 211.469 157.028 212.047 157.065 212.783Z" fill="#263238"/>
</svg>
