<svg xmlns="http://www.w3.org/2000/svg" width="16" height="16" fill="none"><path fill="#188078" fill-rule="evenodd" d="M6 1.5a3.167 3.167 0 1 0 0 6.333A3.167 3.167 0 0 0 6 1.5M3.833 4.667a2.167 2.167 0 1 1 4.334 0 2.167 2.167 0 0 1-4.334 0" clip-rule="evenodd"/><path fill="#188078" d="M10 1.5a.5.5 0 0 0 0 1 2.167 2.167 0 1 1 0 4.333.5.5 0 0 0 0 1A3.167 3.167 0 1 0 10 1.5"/><path fill="#188078" fill-rule="evenodd" d="M.833 12.667a3.833 3.833 0 0 1 3.834-3.834h2.666a3.833 3.833 0 0 1 3.834 3.834A1.834 1.834 0 0 1 9.333 14.5H2.667a1.833 1.833 0 0 1-1.834-1.833m3.834-2.834a2.833 2.833 0 0 0-2.834 2.834c0 .46.373.833.834.833h6.666c.46 0 .834-.373.834-.833a2.833 2.833 0 0 0-2.834-2.834z" clip-rule="evenodd"/><path fill="#188078" d="M11.333 8.833a.5.5 0 1 0 0 1 2.833 2.833 0 0 1 2.834 2.834c0 .46-.373.833-.834.833h-1a.5.5 0 1 0 0 1h1c1.013 0 1.834-.82 1.834-1.833a3.833 3.833 0 0 0-3.834-3.834"/></svg>