<svg xmlns="http://www.w3.org/2000/svg" width="16" height="16" fill="none"><path fill="#fff" fill-rule="evenodd" d="M8 .833a3.5 3.5 0 1 0 0 7 3.5 3.5 0 0 0 0-7m-2.5 3.5a2.5 2.5 0 1 1 5 0 2.5 2.5 0 0 1-5 0m6.652 5.72q-.164-.091-.281-.162a7.61 7.61 0 0 0-7.742 0q-.117.07-.282.162c-.475.268-1.193.673-1.685 1.155-.308.301-.6.698-.654 1.185-.056.517.17 1.002.622 1.433.781.744 1.718 1.34 2.93 1.34h5.88c1.212 0 2.149-.596 2.93-1.34.452-.43.678-.916.622-1.434-.054-.486-.346-.883-.654-1.184-.492-.482-1.21-.887-1.686-1.155m-7.511.698a6.61 6.61 0 0 1 6.718 0q.17.1.363.209c.475.27 1.03.584 1.417.962.24.236.342.43.358.58.013.118-.017.314-.317.6-.69.658-1.392 1.065-2.24 1.065H5.06c-.848 0-1.55-.407-2.24-1.065-.3-.286-.33-.482-.318-.6.017-.15.12-.344.36-.58.386-.378.94-.693 1.416-.962q.193-.11.363-.21" clip-rule="evenodd"/></svg>