<svg xmlns="http://www.w3.org/2000/svg" width="34" height="24" fill="none"><g clip-path="url(#a)"><path fill="#00498C" d="M33.423 24H0V0h34v24z"/><path fill="#fff" fill-rule="evenodd" d="M33.422 23.394H.577V.605h32.845z" clip-rule="evenodd"/><path fill="#00498C" fill-rule="evenodd" d="m12.448 15.7 2.133-7.375h1.903l-2.134 7.376zm-.85-7.372-1.712 3.126a7.7 7.7 0 0 0-.813 1.75h-.027c.03-.656-.057-1.461-.066-1.917l-.189-2.96H5.587l-.033.199a1.3 1.3 0 0 1 .53.061c.17.058.329.151.464.275.136.123.246.275.324.444.078.17.123.354.131.542l.625 5.854h1.971l3.987-7.374zm14.8 7.373-.053-1.097h-2.378l-.487 1.1h-2.062l3.747-7.362h2.537l.634 7.361zm-.218-4.35q-.044-.866-.004-1.732h-.028c-.115.365-.613 1.465-.831 2.009l-.709 1.616h1.669l-.098-1.89zm-7.697 4.559a5.14 5.14 0 0 1-2.872-.845l.907-1.455a3.4 3.4 0 0 0 2.052.722.85.85 0 0 0 .474-.087.9.9 0 0 0 .36-.333c.264-.48-.061-.738-.805-1.178l-.367-.25c-1.102-.79-1.58-1.54-1.058-2.85.33-.837 1.208-1.472 2.653-1.472.893.018 1.759.33 2.474.893l-1.043 1.282a2.26 2.26 0 0 0-1.475-.678.85.85 0 0 0-.455.076.9.9 0 0 0-.357.305c-.198.411.066.693.643 1.07l.437.29c1.338.885 1.657 1.813 1.322 2.681-.577 1.494-1.706 1.827-2.888 1.827zM28.9 9.325h-.082V8.8h.19c.121 0 .183.044.183.15a.14.14 0 0 1-.035.103.13.13 0 0 1-.097.041l.14.231h-.093l-.132-.224h-.078v.224zm.093-.298c.061 0 .116-.006.116-.083 0-.063-.06-.069-.109-.069h-.099v.154zm0 .502a.44.44 0 0 1-.255-.075.47.47 0 0 1-.17-.211.5.5 0 0 1 .091-.521.43.43 0 0 1 .495-.108.46.46 0 0 1 .205.175c.05.078.077.17.077.265a.48.48 0 0 1-.124.338.44.44 0 0 1-.319.137m0-.868a.36.36 0 0 0-.216.05.4.4 0 0 0-.152.17.41.41 0 0 0 .062.44.36.36 0 0 0 .413.1.4.4 0 0 0 .174-.145.4.4 0 0 0 .065-.222.4.4 0 0 0-.093-.274.35.35 0 0 0-.253-.119" clip-rule="evenodd"/><path fill="#FD9615" fill-rule="evenodd" d="M32.613 17.99H1.443v4.374h31.17z" clip-rule="evenodd"/><path fill="#00498C" fill-rule="evenodd" d="M32.556 1.696H1.386V6.07h31.17zm-.713 20.357h-.082v-.527h.19c.122 0 .184.045.184.151a.14.14 0 0 1-.036.103.12.12 0 0 1-.096.04l.14.232h-.093l-.132-.225h-.077v.225zm.093-.299c.062 0 .116-.006.116-.082 0-.064-.06-.07-.109-.07h-.1v.154zm0 .503a.44.44 0 0 1-.255-.075.47.47 0 0 1-.17-.211.5.5 0 0 1 .09-.522.43.43 0 0 1 .495-.108.46.46 0 0 1 .206.175q.076.12.077.265a.48.48 0 0 1-.124.338.44.44 0 0 1-.32.138m0-.869a.36.36 0 0 0-.216.052.4.4 0 0 0-.152.17.41.41 0 0 0 .063.44.36.36 0 0 0 .413.1.4.4 0 0 0 .173-.146.4.4 0 0 0 .066-.223.4.4 0 0 0-.093-.274.35.35 0 0 0-.254-.119" clip-rule="evenodd"/></g><defs><clipPath id="a"><path fill="#fff" d="M0 0h34v24H0z"/></clipPath></defs></svg>