<svg xmlns="http://www.w3.org/2000/svg" width="44" height="44" fill="none"><g clip-path="url(#a)"><path fill="#29A71A" d="M22 44c12.15 0 22-9.85 22-22S34.15 0 22 0 0 9.85 0 22s9.85 22 22 22"/><path fill="#fff" d="M31.7 12.3A13.642 13.642 0 0 0 9.845 28.082L8.398 35.11a.52.52 0 0 0 .082.407.53.53 0 0 0 .56.218l6.888-1.633A13.64 13.64 0 0 0 31.7 12.3m-2.148 17.14a10.685 10.685 0 0 1-12.304 2l-.96-.475-4.223 1 .013-.052.875-4.25-.47-.928a10.68 10.68 0 1 1 17.07 2.705"/><path fill="#fff" d="M29.178 26.323c-.518.814-1.335 1.812-2.363 2.06-1.8.434-4.562.015-8-3.19l-.042-.038c-3.023-2.803-3.808-5.135-3.618-6.985.105-1.05.98-2 1.718-2.62a.982.982 0 0 1 1.537.352l1.113 2.5a.98.98 0 0 1-.123 1l-.562.73a.97.97 0 0 0-.088 1.08c.315.553 1.07 1.366 1.908 2.118.94.85 1.982 1.628 2.642 1.893a.95.95 0 0 0 1.048-.22l.652-.658a1 1 0 0 1 .975-.25l2.643.75a1 1 0 0 1 .56 1.478"/></g><defs><clipPath id="a"><path fill="#fff" d="M0 0h44v44H0z"/></clipPath></defs></svg>